<?xml version="1.0" encoding="utf-8"?>
<!-- Generator: Adobe Illustrator 23.0.0, SVG Export Plug-In . SVG Version: 6.00 Build 0)  -->
<svg version="1.1" xmlns="http://www.w3.org/2000/svg" xmlns:xlink="http://www.w3.org/1999/xlink" x="0px" y="0px"
	 viewBox="0 0 386 267" style="enable-background:new 0 0 386 267;" xml:space="preserve">
<style type="text/css">
	.st0{fill:#FFFFFF;}
	.st1{fill:#010101;}
	.st2{fill:none;stroke:#FFFFFF;stroke-width:5.6754;stroke-miterlimit:10;}
	.st3{fill:#171717;}
	.st4{fill:none;}
</style>
<g id="Layer_1">
</g>
<g id="Isolation_Mode">
	<g>
		<g>
			<g>
				<path d="M91.6,155.65V65.18l17.31,0c5.8,0,13.36-0.67,18.53,3.31c6.15,4.83,6.57,7.48,6.57,16.17l0,54.59
					c-0.09,9.05-1.44,9.96-6.09,13.78c-3.34,2.75-9.95,2.62-14.84,2.62H91.6z M106.9,142.84c5.91,0,9.25,0.83,11.58-1.5
					c2.6-2.61,2.19-12.51,2.05-18.87l0-29.55c-0.05-5.89,0.97-11.77-1.94-13.14c-2.34-1.1-5.78-0.92-11.69-0.91V142.84z"/>
			</g>
			<g>
				<path class="st0" d="M114.62,156.65c-0.33,0-0.66,0-0.99,0l-0.56,0H90.6V64.18l18.31,0c0.71,0,1.44-0.01,2.19-0.02
					c5.41-0.08,12.14-0.17,16.95,3.54c6.63,5.2,6.97,8.42,6.96,16.96l0,54.59c-0.1,9.34-1.63,10.59-6.17,14.32l-0.29,0.24
					C125.28,156.5,119.52,156.65,114.62,156.65z M92.6,154.64l21.03,0c4.51,0.01,10.7,0.02,13.64-2.39l0.29-0.24
					c4.32-3.55,5.35-4.39,5.44-12.78l0-54.58c0-8.34-0.24-10.71-6.19-15.38c-4.25-3.27-10.33-3.19-15.69-3.11
					c-0.76,0.01-1.5,0.02-2.21,0.02l-16.3,0V154.64z M113,143.99c-0.78,0-1.6-0.03-2.49-0.06c-1.07-0.04-2.29-0.08-3.61-0.08h-1
					V77.87h1c0.79,0,1.53,0,2.24-0.01c4.77-0.02,7.64-0.04,9.88,1.02c2.87,1.35,2.74,5.47,2.59,10.24c-0.04,1.24-0.08,2.53-0.07,3.8
					l0,29.56l0.03,1.12c0.21,8.59,0.18,15.9-2.37,18.46C117.57,143.67,115.57,143.99,113,143.99z M107.9,141.85
					c0.97,0.01,1.86,0.05,2.68,0.07c3.55,0.12,5.69,0.2,7.19-1.29c2.15-2.15,1.92-11.44,1.78-16.98l-0.03-1.15l0-29.57
					c-0.01-1.31,0.03-2.61,0.07-3.88c0.12-3.89,0.24-7.57-1.43-8.36c-1.82-0.86-4.68-0.84-9.01-0.82c-0.4,0-0.82,0-1.24,0.01V141.85
					z"/>
			</g>
			<g>
				<path class="st0" d="M294.93,156.66v-37.63l-10.73,0l0,37.64h-16.62l0-92.47h16.62l0,34.73l10.73,0l0-34.74h16.62l0,92.48
					L294.93,156.66z M282.18,117.01l14.75,0.01v37.63l12.6,0l0-88.46h-12.6l0,34.74l-14.75-0.01l0-34.73h-12.6l0,88.46h12.6
					L282.18,117.01z"/>
			</g>
			<g>
				<path class="st0" d="M138.71,121.9l0-57.78l9.09,0.08l0,48.87L138.71,121.9z M140.72,66.14l0,51l5.07-4.93l0-46.03L140.72,66.14
					z"/>
			</g>
			<g>
				<path class="st0" d="M151.11,110.76V64.12h21.11v7.28l-11.01,0.81v7.38l9.67-2.61l0,7.06l-9.68,3.29l0.01,7.54l11.01-5.39v8.09
					l-0.8,0.16c-0.02,0.01-1.67,0.51-9.19,5.2c-6.17,3.85-9.45,6.48-9.49,6.51L151.11,110.76z M153.11,66.13v40.51
					c1.57-1.15,4.26-3.04,8.05-5.41c5.42-3.38,7.93-4.67,9.05-5.17V92.7l-11.01,5.39l-0.01-12.2l9.68-3.29l0-3l-9.67,2.61V70.34
					l11.01-0.81v-3.4H153.11z"/>
			</g>
			<g>
				<path class="st0" d="M176.16,95.84l0-31.71l8.89-0.01c0.57,0.01,1.17-0.01,1.78-0.02c3.28-0.05,6.68-0.09,8.92,1.11
					c2.73,1.47,3.95,3.41,3.96,6.3l0,11.54c-0.05,3.25-1.36,5.77-3.89,7.48c-1.81,1.27-3.88,1.55-5.88,1.83
					c-0.56,0.08-1.13,0.16-1.68,0.26c-3.7,0.67-10.72,2.8-10.79,2.82L176.16,95.84z M178.17,66.13l0,27.01
					c2.24-0.66,6.86-1.97,9.72-2.49c0.58-0.11,1.18-0.19,1.77-0.27c1.84-0.26,3.59-0.5,5.01-1.5c2.03-1.37,2.99-3.23,3.02-5.84
					l0-11.53c0-2.17-0.79-3.4-2.9-4.53c-1.79-0.96-5.06-0.91-7.95-0.87c-0.62,0.01-1.23,0.02-1.81,0.02L178.17,66.13z M184.26,88.86
					l0-20.61l1,0c0.02,0,0.04,0,0.05,0c5.5,0,7.11,0.66,7.16,4.98l0,8.37c0,5.16-1.33,6.49-7.11,7.14L184.26,88.86z M186.27,70.26
					l0,16.34c3.9-0.55,4.21-1.4,4.21-5l0-8.36C190.44,70.83,190.43,70.32,186.27,70.26z"/>
			</g>
			<g>
				<path class="st0" d="M225.2,94.57l-8.89-2.54l-0.19-0.44c-0.29-0.66-0.48-1.78-0.52-2.37c-0.06-1.1-0.06-1.8-0.06-2.36
					c0-0.68,0-1.17-0.11-2.03c-0.2-1.48-0.65-2.03-1.78-2.19l-1.4-0.12v9.39l-9.74-0.82l0-26.96l12.3,0
					c7.28,0.33,10.5,3.27,10.49,9.56c0,2.04-0.36,4.44-2.85,5.92c1.13,1.07,1.23,2.56,1.31,3.66c0.08,0.77,0.13,1.86,0.19,3.02
					c0.1,1.96,0.21,4.18,0.46,5.26c0.12,0.24,0.26,0.41,0.43,0.55l0.38,0.3V94.57z M217.82,90.37l4.55,1.3
					c-0.24-1.29-0.34-3.32-0.44-5.29c-0.06-1.14-0.11-2.21-0.19-2.96c-0.14-1.94-0.39-2.55-1.81-2.93l-0.77-0.21l0.05-1.52l0.7-0.27
					c2.48-0.72,3.36-1.99,3.36-4.82c0.01-4.42-1.42-7.23-8.53-7.55l-10.24,0l0,23.11l5.73,0.48v-9.39l3.64,0.32
					c2.77,0.39,3.35,2.42,3.55,3.92c0.13,0.99,0.13,1.57,0.13,2.3c0,0.56,0,1.2,0.06,2.23C217.63,89.43,217.72,89.96,217.82,90.37z
					 M214.3,77.28c-0.15,0-0.31-0.01-0.48-0.02l-3.59-0.31v-8.36l1.25,0.07c4.42,0.25,6.64,0.37,6.64,4.39
					c0,1.5-0.37,2.58-1.15,3.31C216.32,76.97,215.42,77.28,214.3,77.28z M212.24,75.11l1.74,0.15c0.75,0.05,1.3-0.07,1.62-0.36
					c0.34-0.32,0.51-0.92,0.51-1.84c0-1.84,0-2.1-3.87-2.34V75.11z"/>
			</g>
			<g>
				<path class="st0" d="M238.09,100.79l-9.3-4.89V64.12l9.29,0L238.09,100.79z M230.8,94.69l5.28,2.78l0-31.34l-5.28,0V94.69z"/>
			</g>
			<g>
				<path class="st0" d="M260,116.17c-1.9,0-4.45-1.35-7.84-4.14c-6.44-5.3-10.72-10.7-10.72-19.84l0-15.34
					c0-5.51,1.17-9.21,3.59-11.32c2.01-1.75,4.75-2.36,8.41-1.85c7.51,1.03,11.01,5.76,11.01,14.91V85l-9.21-3.21l0-3.46
					c0-3.23-0.86-4.79-1.71-4.9c-0.74-0.12-1.26-0.03-1.6,0.26c-0.49,0.42-0.75,1.38-0.75,2.78l-0.05,21.67
					c0,2.28,0.9,4.31,2.4,5.41c0.74,0.55,1.11,0.64,1.23,0.66c0.27-0.43,0.22-2.13,0.2-2.96c-0.01-0.37-0.02-0.74-0.02-1.08l0-5.76
					l8.59,5.67l0,10.96c0,2.55-0.71,4.17-2.1,4.83C261,116.06,260.53,116.17,260,116.17z M251.12,65.51c-2.02,0-3.59,0.51-4.76,1.53
					c-1.96,1.71-2.91,4.91-2.91,9.81l0,15.34c0,8.38,3.82,13.22,9.99,18.29c4.84,3.98,6.6,3.82,7.14,3.57
					c0.61-0.29,0.95-1.36,0.95-3.02l0-9.88l-4.57-3.02l0,2.03c0,0.32,0.01,0.67,0.02,1.02c0.06,2.01,0.12,4.09-1.27,4.82
					c-1.16,0.61-2.47-0.19-3.36-0.84c-2.01-1.49-3.21-4.11-3.21-7.03l0.05-21.66c-0.01-2.05,0.47-3.46,1.45-4.3
					c0.8-0.69,1.88-0.93,3.2-0.71c1.01,0.14,3.42,1.09,3.42,6.89l0,2.03l5.19,1.81v-3.59c0-8.17-2.77-12.03-9.27-12.92
					C252.44,65.56,251.76,65.51,251.12,65.51z"/>
			</g>
			<g>
				<path class="st0" d="M114.62,156.21c-0.33,0-0.66,0-0.99,0l-0.56,0H91.04V64.63l17.86,0c0.71,0,1.44-0.01,2.19-0.02
					c5.34-0.07,11.98-0.17,16.67,3.44c6.48,5.09,6.79,8.04,6.79,16.61l0,54.59c-0.09,9.12-1.58,10.34-6.01,13.97l-0.29,0.24
					C125.11,156.05,119.44,156.21,114.62,156.21z M92.16,155.09l21.47,0c4.59,0.01,10.87,0.02,13.93-2.49l0.29-0.24
					c4.34-3.56,5.51-4.52,5.6-13.12l0-54.58c0-8.33-0.27-10.95-6.36-15.73c-4.38-3.37-10.54-3.28-15.97-3.21
					c-0.76,0.01-1.5,0.02-2.21,0.02l-16.75,0V155.09z M113.05,143.55c-0.77,0-1.61-0.03-2.52-0.06c-1.08-0.04-2.29-0.08-3.63-0.08
					h-0.56V78.31h0.56c0.79,0,1.54,0,2.24-0.01c4.7-0.02,7.54-0.04,9.68,0.97c2.6,1.23,2.48,5.21,2.33,9.82
					c-0.04,1.25-0.08,2.53-0.07,3.82l0,29.55l0.03,1.13c0.16,6.54,0.38,15.5-2.24,18.13C117.37,143.24,115.53,143.55,113.05,143.55z
					 M107.46,142.29c1.13,0.01,2.17,0.05,3.11,0.08c3.67,0.13,5.89,0.21,7.52-1.42c2.28-2.29,2.06-11.33,1.91-17.31l-0.03-1.15
					l0-29.56c-0.01-1.3,0.03-2.6,0.07-3.86c0.13-4.22,0.25-7.86-1.69-8.78c-1.91-0.9-4.66-0.89-9.2-0.87c-0.54,0-1.1,0.01-1.69,0.01
					V142.29z"/>
			</g>
			<g>
				<polygon points="268.57,155.65 268.57,65.19 283.18,65.19 283.19,99.92 295.93,99.92 295.93,65.18 310.54,65.18 310.54,155.65 
					295.93,155.65 295.93,118.02 283.19,118.02 283.19,155.65 				"/>
			</g>
			<g>
				<path class="st0" d="M295.37,156.21v-37.63l-11.63,0l0,37.64h-15.73l0-91.58h15.73l0,34.73l11.62,0l0-34.74h15.73l0,91.58
					L295.37,156.21z M282.63,117.46l13.86,0.01v37.63l13.5,0l0-89.35h-13.5l0,34.74l-13.85-0.01l0-34.73h-13.5l0,89.35h13.5
					L282.63,117.46z"/>
			</g>
			<g>
				<polygon points="139.72,119.52 139.72,65.13 146.8,65.19 146.8,112.63 				"/>
			</g>
			<g>
				<path class="st0" d="M139.16,120.84l0-56.28l8.2,0.07l0,48.24L139.16,120.84z M140.27,65.69l0,52.51l5.97-5.8l0-46.66
					L140.27,65.69z"/>
			</g>
			<g>
				<path d="M152.11,108.66V65.12h19.11v5.34l-11.01,0.81v9.62l9.67-2.61l0,5.03l-9.68,3.29l0.01,9.87l11.01-5.39v5.66
					c0,0-1.45,0.3-9.52,5.33C155.39,106.02,152.11,108.66,152.11,108.66"/>
			</g>
			<g>
				<path class="st0" d="M151.55,109.83V64.57h20.22v6.42l-11.01,0.81v8.38l9.67-2.61l0,6.16l-9.68,3.29l0.01,8.58l11.01-5.39v7.01
					l-0.45,0.09c-0.05,0.01-1.65,0.46-9.34,5.26c-6.2,3.87-9.5,6.51-9.53,6.54L151.55,109.83z M152.67,65.68v41.85
					c1.39-1.04,4.34-3.18,8.73-5.92c6-3.74,8.38-4.9,9.26-5.25v-4.38l-11.01,5.39l-0.01-11.16l9.68-3.29l0-3.91l-9.67,2.61V70.75
					l11.01-0.81v-4.26H152.67z"/>
			</g>
			<g>
				<path d="M177.17,94.48l0-29.36l7.89,0c3.47,0,7.81-0.32,10.23,0.97c2.25,1.21,3.42,2.71,3.43,5.41l0,11.54
					c-0.04,2.82-1.1,5.06-3.45,6.65c-2.11,1.48-4.7,1.48-7.18,1.93C184.27,92.32,177.17,94.48,177.17,94.48 M185.26,87.74
					c5.44-0.61,6.21-1.67,6.22-6.14l0-8.36c-0.04-3.3-0.57-3.99-6.21-3.99L185.26,87.74z"/>
			</g>
			<g>
				<path class="st0" d="M176.61,95.24l0-30.67l8.45-0.01c0.59,0,1.18-0.01,1.79-0.02c3.22-0.05,6.56-0.09,8.7,1.06
					c2.61,1.4,3.72,3.16,3.72,5.9l0,11.54c-0.05,3.14-1.26,5.46-3.7,7.11c-1.73,1.21-3.74,1.49-5.69,1.76
					c-0.57,0.08-1.14,0.16-1.7,0.26c-3.72,0.68-10.77,2.81-10.84,2.84L176.61,95.24z M177.72,65.68l0,28.05
					c1.91-0.57,7.13-2.08,10.25-2.65c0.58-0.11,1.16-0.19,1.75-0.27c1.9-0.26,3.69-0.51,5.21-1.57c2.12-1.44,3.17-3.46,3.21-6.2
					l0-11.53c0-2.33-0.88-3.71-3.13-4.92c-1.89-1.01-5.22-0.96-8.16-0.92c-0.62,0.01-1.22,0.02-1.8,0.02L177.72,65.68z M184.7,88.36
					l0-19.67l0.56,0c0.02,0,0.03,0,0.05,0c5.6,0,6.67,0.73,6.72,4.54l0,8.37c0,4.89-1.19,6.08-6.71,6.69L184.7,88.36z M185.82,69.81
					l0,17.3c4.68-0.59,5.1-1.54,5.1-5.51l0-8.36C190.88,70.56,190.87,69.85,185.82,69.81z"/>
			</g>
			<g>
				<path d="M211.24,90.82l-7.74-0.65l0-25.04l11.29,0c7.21,0.33,9.49,3.21,9.48,8.55c0,2.87-0.83,4.83-4.08,5.78l0,0.07
					c2.15,0.58,2.42,1.93,2.55,3.8c0.22,2.17,0.26,6.8,0.7,8.55c0.17,0.37,0.4,0.71,0.75,0.99v0.36l-7.16-2.04
					c-0.22-0.52-0.4-1.51-0.44-2.05c-0.14-2.38,0.04-2.79-0.18-4.45c-0.22-1.67-0.84-2.8-2.64-3.05l-2.55-0.22V90.82z M211.23,76.03
					l2.66,0.23c2.71,0.19,3.22-1.5,3.22-3.2c0-3.12-1.3-3.15-5.88-3.4V76.03z"/>
			</g>
			<g>
				<path class="st0" d="M224.75,93.98l-8.12-2.32l-0.1-0.24c-0.26-0.61-0.44-1.69-0.48-2.23c-0.06-1.08-0.06-1.77-0.06-2.33
					c0-0.7,0-1.2-0.11-2.09c-0.22-1.68-0.81-2.38-2.16-2.57l-1.91-0.17v9.39l-8.85-0.74l0-26.11l11.85,0
					c7.05,0.32,10.05,3.04,10.04,9.11c0,2.18-0.41,4.53-3.21,5.85c1.34,0.84,1.57,2.21,1.68,3.77c0.08,0.77,0.13,1.86,0.19,3.02
					c0.1,2.01,0.22,4.29,0.48,5.39c0.16,0.32,0.33,0.55,0.57,0.74l0.21,0.17V93.98z M217.46,90.73l5.58,1.59
					c-0.04-0.07-0.07-0.14-0.1-0.21l-0.04-0.1c-0.3-1.19-0.41-3.46-0.52-5.66c-0.06-1.14-0.11-2.22-0.19-2.98
					c-0.13-1.91-0.39-2.85-2.14-3.32l-0.43-0.11l0.03-0.85l0.39-0.18c3.07-0.9,3.68-2.67,3.68-5.25c0.01-4.56-1.51-7.66-8.95-7.99
					l-10.71,0l0,23.97l6.62,0.56v-9.39l3.15,0.27c2.42,0.34,2.95,2.07,3.14,3.54c0.13,0.96,0.13,1.52,0.12,2.24
					c0,0.57,0,1.21,0.06,2.25C217.19,89.56,217.32,90.27,217.46,90.73z M214.3,76.83c-0.14,0-0.29-0.01-0.44-0.02l-3.18-0.27v-7.48
					l0.78,0.04c4.4,0.24,6.22,0.35,6.22,3.95c0,1.37-0.33,2.35-1,2.98C216.1,76.56,215.31,76.83,214.3,76.83z M211.79,75.52
					l2.15,0.18c0.89,0.06,1.55-0.1,1.96-0.48c0.44-0.41,0.65-1.12,0.65-2.16c0-2.39-0.48-2.57-4.76-2.81V75.52z"/>
			</g>
			<g>
				<polygon points="229.8,95.3 229.8,65.12 237.09,65.13 237.09,99.13 				"/>
			</g>
			<g>
				<path class="st0" d="M237.65,100.06l-8.4-4.42V64.57l8.4,0L237.65,100.06z M230.36,94.96l6.17,3.25l0-32.52l-6.17,0V94.96z"/>
			</g>
			<g>
				<path d="M256.25,81.08l0-2.75c0-3.66-1.06-5.69-2.58-5.9c-2.53-0.41-3.49,1.23-3.49,4.03l-0.05,21.66c0,2.4,0.92,4.83,2.8,6.22
					c3.66,2.69,3.01-1.57,3.01-4.19l0-3.89l6.58,4.34l0,10.42c0,7.37-6.09,3.22-9.73,0.22c-6.37-5.25-10.36-10.32-10.36-19.07
					l0-15.34c0-9.33,3.45-13.2,10.86-12.18c6.9,0.94,10.14,5.17,10.14,13.92v5.01L256.25,81.08z"/>
			</g>
			<g>
				<path class="st0" d="M260.01,115.72c-1.79,0-4.28-1.33-7.57-4.04c-6.52-5.37-10.56-10.5-10.56-19.5l0-15.34
					c0-5.37,1.12-8.96,3.44-10.98c1.9-1.66,4.54-2.23,8.05-1.75c7.25,0.99,10.62,5.59,10.62,14.47v5.79l-8.32-2.9l0-3.14
					c0-3.12-0.8-5.17-2.09-5.34c-0.87-0.14-1.5-0.02-1.95,0.36c-0.61,0.52-0.91,1.57-0.91,3.12l-0.05,21.67
					c0,2.42,0.96,4.58,2.58,5.77c1.18,0.87,1.61,0.77,1.71,0.72c0.53-0.28,0.47-2.23,0.43-3.39c-0.01-0.37-0.02-0.73-0.02-1.07
					l0-4.93l7.69,5.08l0,10.72c0,2.36-0.62,3.85-1.85,4.43C260.88,115.63,260.47,115.72,260.01,115.72z M251.12,65.06
					c-2.13,0-3.8,0.54-5.06,1.64c-2.06,1.8-3.06,5.11-3.06,10.14l0,15.34c0,8.56,3.89,13.48,10.15,18.64
					c4.61,3.79,6.69,4.07,7.61,3.63c0.8-0.38,1.21-1.53,1.21-3.42l0-10.12l-5.46-3.61l0,2.86c0,0.32,0.01,0.68,0.02,1.03
					c0.06,1.87,0.11,3.81-1.03,4.41c-0.94,0.49-2.1-0.22-2.89-0.81c-1.9-1.4-3.03-3.9-3.03-6.67l0.05-21.66
					c0-1.92,0.42-3.22,1.3-3.96c0.7-0.6,1.65-0.8,2.84-0.61c1.9,0.26,3.05,2.67,3.05,6.45l0,2.35l6.08,2.12v-4.22
					c0-8.33-2.98-12.45-9.66-13.36C252.48,65.11,251.78,65.06,251.12,65.06z"/>
			</g>
			<g>
				<path d="M81.19,155.92h1.32c0.39-0.02,0.71-0.17,0.71-0.67c0-0.75-0.54-0.76-1.12-0.76l-8.2,0v-2.09l7.79,0.01
					c0.72,0,1.76-0.06,2.45,0.61c0.63,0.61,0.69,1.54,0.7,2.55c0,0.75-0.27,1.59-1.1,2.16c-0.38,0.25-1.56,0.36-2.55,0.3V155.92z"/>
			</g>
			<g>
				<path d="M84.58,146.98L73.9,144.3l0-2.83l10.67-2.54l0.01,2.24l-2.71,0.56v2.45l2.71,0.56L84.58,146.98z M80.31,143.85l0-1.79
					l-3.03,0.56c-0.5,0.1-0.98,0.15-1.48,0.22c-0.24,0.01-0.48,0.04-0.71,0.07l0,0.02c0.23,0.03,0.47,0.06,0.71,0.08
					c0.5,0.06,0.98,0.11,1.48,0.21L80.31,143.85z"/>
			</g>
			<g>
				<path d="M77.15,129.42c-0.95-0.02-1.9,0.08-1.89,1.23c0,0.7,0.27,1.15,1,1.15c0.81,0,1.12-0.54,1.52-1.19
					c0.41-0.69,1.21-1.97,1.75-2.55c0.67-0.71,1.31-0.94,2.23-0.94c2.02,0,3.08,1.41,3.08,3.46c0,2.51-1.34,3.4-3.25,3.4l-0.78,0
					v-2.1l0.63,0c1.04,0.04,1.79-0.28,1.79-1.31c0-0.88-0.44-1.3-1.26-1.3c-0.62,0-1.05,0.3-1.41,0.83
					c-0.81,1.09-1.4,2.45-2.46,3.31c-0.49,0.34-1.07,0.54-1.64,0.54c-1.82,0-2.82-1.08-2.82-3.29c0-3.34,2.45-3.24,3.5-3.26V129.42z
					"/>
			</g>
			<g>
				<path d="M84.58,119.97l0,2H73.91v-3.18l4.95-1.06c0.81-0.17,1.63-0.28,2.46-0.37v-0.03c-1.05-0.1-1.76-0.17-2.46-0.31
					l-4.95-1.07v-3.17h10.67l0,2l-3.36,0c-2.12,0-4.24-0.04-6.36-0.17l0,0.02l9.72,2.14v1.21l-9.72,2.09l0,0.08
					c2.12-0.13,4.24-0.17,6.37-0.17L84.58,119.97z"/>
			</g>
			<g>
				<rect x="73.9" y="105.19" width="10.68" height="2.09"/>
			</g>
			<g>
				<path d="M73.9,93.75v-2.09h10.68l0,2.18l-3.8,1.63c-1.27,0.55-2.56,1-4.25,1.49l0,0.03c0.89-0.08,1.97-0.17,3.05-0.22
					c1.07-0.06,2.14-0.11,3-0.11l2,0.01v2.09H73.9v-2.17l3.89-1.63c1.24-0.54,2.5-0.98,4.24-1.49v-0.03
					c-0.97,0.08-2.01,0.15-3.03,0.21c-1.03,0.06-2.06,0.11-3.01,0.11H73.9z"/>
			</g>
			<g>
				<polygon points="84.58,85.3 73.9,85.3 73.9,79.41 75.47,79.41 75.47,83.2 78.16,83.2 78.16,79.71 79.73,79.71 79.73,83.2 
					83.01,83.2 83.01,79.41 84.58,79.41 				"/>
			</g>
			<g>
				<path d="M77.11,76.18c-0.09-0.65-0.48-1-1.35-0.96v0.96H73.9l0-1.81l1.7,0c1.27,0,1.95,0.42,2.16,1.81H77.11z"/>
			</g>
			<g>
				<path d="M77.15,67.44c-0.95-0.02-1.9,0.08-1.89,1.23c0,0.7,0.27,1.15,1,1.15c0.81,0,1.12-0.54,1.52-1.19
					c0.41-0.69,1.22-1.96,1.75-2.54c0.67-0.72,1.31-0.95,2.23-0.95c2.02,0,3.08,1.41,3.08,3.46c0,2.51-1.34,3.4-3.25,3.4l-0.78,0
					l0-2.1l0.63,0c1.04,0.04,1.79-0.28,1.79-1.31c0-0.88-0.44-1.3-1.25-1.3c-0.62,0-1.05,0.3-1.41,0.83
					c-0.81,1.09-1.4,2.45-2.46,3.31c-0.49,0.34-1.06,0.54-1.64,0.54c-1.83,0-2.82-1.08-2.82-3.29c0-3.33,2.45-3.24,3.5-3.25
					L77.15,67.44z"/>
			</g>
			<g>
				<path d="M91.6,155.65V65.18l17.31,0c5.8,0,13.36-0.67,18.53,3.31c6.15,4.83,6.57,7.48,6.57,16.17l0,54.59
					c-0.09,9.05-1.44,9.96-6.09,13.78c-3.34,2.75-9.95,2.62-14.84,2.62H91.6z M106.9,142.84c5.91,0,9.25,0.83,11.58-1.5
					c2.6-2.61,2.19-12.51,2.05-18.87l0-29.55c-0.05-5.89,0.97-11.77-1.94-13.14c-2.34-1.1-5.78-0.92-11.69-0.91V142.84z"/>
			</g>
			<g>
				<polygon points="268.57,155.65 268.57,65.19 283.18,65.19 283.19,99.92 295.93,99.92 295.93,65.18 310.54,65.18 310.54,155.65 
					295.93,155.65 295.93,118.02 283.19,118.02 283.19,155.65 				"/>
			</g>
			<g>
				<polygon points="139.72,119.52 139.72,65.13 146.8,65.19 146.8,112.63 				"/>
			</g>
			<g>
				<path d="M152.11,108.66V65.12h19.11v5.34l-11.01,0.81v9.62l9.67-2.61l0,5.03l-9.68,3.29l0.01,9.87l11.01-5.39v5.66
					c0,0-1.45,0.3-9.52,5.33C155.39,106.02,152.11,108.66,152.11,108.66"/>
			</g>
			<g>
				<path d="M177.17,94.48l0-29.36l7.89,0c3.47,0,7.81-0.32,10.23,0.97c2.25,1.21,3.42,2.71,3.43,5.41l0,11.54
					c-0.04,2.82-1.1,5.06-3.45,6.65c-2.11,1.48-4.7,1.48-7.18,1.93C184.27,92.32,177.17,94.48,177.17,94.48 M185.26,87.74
					c5.44-0.61,6.21-1.67,6.22-6.14l0-8.36c-0.04-3.3-0.57-3.99-6.21-3.99L185.26,87.74z"/>
			</g>
			<g>
				<path d="M211.24,90.82l-7.74-0.65l0-25.04l11.29,0c7.21,0.33,9.49,3.21,9.48,8.55c0,2.87-0.83,4.83-4.08,5.78l0,0.07
					c2.15,0.58,2.42,1.93,2.55,3.8c0.22,2.17,0.26,6.8,0.7,8.55c0.17,0.37,0.4,0.71,0.75,0.99v0.36l-7.16-2.04
					c-0.22-0.52-0.4-1.51-0.44-2.05c-0.14-2.38,0.04-2.79-0.18-4.45c-0.22-1.67-0.84-2.8-2.64-3.05l-2.55-0.22V90.82z M211.23,76.03
					l2.66,0.23c2.71,0.19,3.22-1.5,3.22-3.2c0-3.12-1.3-3.15-5.88-3.4V76.03z"/>
			</g>
			<g>
				<polygon points="229.8,95.3 229.8,65.12 237.09,65.13 237.09,99.13 				"/>
			</g>
			<g>
				<path d="M256.25,81.08l0-2.75c0-3.66-1.06-5.69-2.58-5.9c-2.53-0.41-3.49,1.23-3.49,4.03l-0.05,21.66c0,2.4,0.92,4.83,2.8,6.22
					c3.66,2.69,3.01-1.57,3.01-4.19l0-3.89l6.58,4.34l0,10.42c0,7.37-6.09,3.22-9.73,0.22c-6.37-5.25-10.36-10.32-10.36-19.07
					l0-15.34c0-9.33,3.45-13.2,10.86-12.18c6.9,0.94,10.14,5.17,10.14,13.92v5.01L256.25,81.08z"/>
			</g>
			<g>
				<rect x="76.21" y="167.05" width="235.71" height="36.02"/>
			</g>
			<g>
				<path class="st0" d="M312.35,203.5l-236.57,0l0-36.88l236.57,0L312.35,203.5z M76.65,202.63l234.84,0l0-35.15l-234.84,0
					L76.65,202.63z"/>
			</g>
			<g>
				<polygon class="st0" points="99.17,194.92 99.17,175.03 110.67,175.03 110.67,177.94 103.26,177.95 103.26,182.96 
					110.08,182.96 110.08,185.88 103.26,185.88 103.25,192.01 110.66,192.01 110.67,194.93 				"/>
				<path class="st0" d="M110.78,195.03l-11.71,0v-20.11l11.72,0l0,3.13l-7.41,0v4.8h6.83l0,3.13h-6.83l0,5.91l7.41,0L110.78,195.03
					z M99.28,194.82l11.28,0l0-2.7l-7.41,0l0-6.34h6.83l0-2.7h-6.83v-5.23l7.41,0l0-2.7l-11.28,0V194.82z"/>
			</g>
			<g>
				<path class="st0" d="M110.74,195l-11.64,0v-20.04l11.64,0l0,3.06l-7.41,0v4.87h6.83l0,3.06h-6.83l0,5.98l7.41,0L110.74,195z
					 M99.24,194.85l11.35,0l0-2.77l-7.41,0l0-6.27h6.83l0-2.77h-6.83v-5.16l7.41,0l0-2.77l-11.36,0V194.85z"/>
			</g>
			<g>
				<path class="st0" d="M131.25,181.08c0.03-1.78-0.15-3.53-2.4-3.53c-1.37,0-2.24,0.51-2.24,1.86c0,1.51,1.05,2.1,2.33,2.84
					c1.34,0.77,3.82,2.26,4.96,3.26c1.4,1.25,1.84,2.44,1.84,4.17c0,3.77-2.75,5.73-6.74,5.73c-4.9,0-6.66-2.49-6.65-6.05l0-1.46
					h4.09l0,1.17c-0.09,1.93,0.55,3.34,2.57,3.34c1.72,0,2.54-0.82,2.54-2.33c0-1.17-0.58-1.96-1.64-2.62
					c-2.13-1.51-4.78-2.6-6.45-4.59c-0.67-0.9-1.05-1.99-1.05-3.05c0-3.39,2.1-5.25,6.42-5.25c6.5,0,6.33,4.57,6.36,6.53H131.25z"/>
				<path class="st0" d="M129.02,195.51C129.01,195.51,129.01,195.51,129.02,195.51c-2.36,0-4.12-0.58-5.25-1.72
					c-1.01-1.03-1.52-2.52-1.52-4.43l0-1.56h4.3l0,1.27c-0.05,1.19,0.18,2.06,0.68,2.59c0.41,0.43,1,0.64,1.77,0.64
					c0,0,0.01,0,0.01,0c1.63,0,2.42-0.73,2.43-2.23c0-1.06-0.49-1.84-1.59-2.53c-0.71-0.5-1.48-0.96-2.23-1.41
					c-1.53-0.91-3.12-1.86-4.24-3.2c-0.7-0.93-1.08-2.04-1.07-3.12c0-3.5,2.26-5.36,6.53-5.36c6.39,0,6.44,4.34,6.46,6.43l0,0.32
					h-4.16l0-0.11c0.02-1.12-0.05-2.24-0.67-2.87c-0.37-0.37-0.9-0.56-1.62-0.56c-1.43,0-2.13,0.57-2.13,1.75
					c0,1.42,0.97,1.99,2.21,2.71l0.07,0.04c1.37,0.79,3.84,2.27,4.98,3.28c1.35,1.2,1.87,2.39,1.87,4.25c0,1.84-0.66,3.35-1.91,4.36
					C132.75,195,131.05,195.51,129.02,195.51z M122.46,188.01l0,1.35c0,1.86,0.49,3.3,1.46,4.28c1.08,1.1,2.8,1.66,5.09,1.66
					c0,0,0,0,0.01,0c1.98,0,3.64-0.49,4.79-1.43c1.2-0.97,1.83-2.42,1.83-4.19c0-1.79-0.5-2.93-1.8-4.08
					c-1.13-0.99-3.58-2.46-4.95-3.25l-0.07-0.04c-1.24-0.72-2.32-1.34-2.32-2.89c0-1.3,0.79-1.96,2.35-1.97
					c0.78,0,1.37,0.2,1.78,0.62c0.68,0.7,0.74,1.86,0.73,2.91h3.72l0-0.1c-0.02-2.02-0.07-6.21-6.25-6.21
					c-4.19,0-6.31,1.73-6.31,5.14c0,1.04,0.36,2.1,1.03,2.99c1.1,1.31,2.66,2.25,4.18,3.15c0.75,0.45,1.53,0.91,2.24,1.42
					c1.16,0.73,1.68,1.57,1.68,2.71c0,1.6-0.92,2.44-2.64,2.44c0,0-0.01,0-0.01,0c-0.83,0-1.48-0.24-1.93-0.71
					c-0.55-0.58-0.8-1.5-0.74-2.75l0-1.05H122.46z"/>
			</g>
			<g>
				<path class="st0" d="M129.02,195.51C129.01,195.51,129.01,195.51,129.02,195.51c-2.36,0-4.12-0.58-5.25-1.72
					c-1.01-1.03-1.52-2.52-1.52-4.43l0-1.56h4.3l0,1.27c-0.05,1.19,0.18,2.06,0.68,2.59c0.41,0.43,1,0.64,1.77,0.64
					c0,0,0.01,0,0.01,0c1.63,0,2.42-0.73,2.43-2.23c0-1.06-0.49-1.84-1.59-2.53c-0.71-0.5-1.48-0.96-2.23-1.41
					c-1.53-0.91-3.12-1.86-4.24-3.2c-0.7-0.93-1.08-2.04-1.07-3.12c0-3.5,2.26-5.36,6.53-5.36c6.39,0,6.44,4.34,6.46,6.43l0,0.32
					h-4.16l0-0.11c0.02-1.12-0.05-2.24-0.67-2.87c-0.37-0.37-0.9-0.56-1.62-0.56c-1.43,0-2.13,0.57-2.13,1.75
					c0,1.42,0.97,1.99,2.21,2.71l0.07,0.04c1.37,0.79,3.84,2.27,4.98,3.28c1.35,1.2,1.87,2.39,1.87,4.25c0,1.84-0.66,3.35-1.91,4.36
					C132.75,195,131.05,195.51,129.02,195.51z M122.46,188.01l0,1.35c0,1.86,0.49,3.3,1.46,4.28c1.08,1.1,2.8,1.66,5.09,1.66
					c0,0,0,0,0.01,0c1.98,0,3.64-0.49,4.79-1.43c1.2-0.97,1.83-2.42,1.83-4.19c0-1.79-0.5-2.93-1.8-4.08
					c-1.13-0.99-3.58-2.46-4.95-3.25l-0.07-0.04c-1.24-0.72-2.32-1.34-2.32-2.89c0-1.3,0.79-1.96,2.35-1.97
					c0.78,0,1.37,0.2,1.78,0.62c0.68,0.7,0.74,1.86,0.73,2.91h3.72l0-0.1c-0.02-2.02-0.07-6.21-6.25-6.21
					c-4.19,0-6.31,1.73-6.31,5.14c0,1.04,0.36,2.1,1.03,2.99c1.1,1.31,2.66,2.25,4.18,3.15c0.75,0.45,1.53,0.91,2.24,1.42
					c1.16,0.73,1.68,1.57,1.68,2.71c0,1.6-0.92,2.44-2.64,2.44c0,0-0.01,0-0.01,0c-0.83,0-1.48-0.24-1.93-0.71
					c-0.55-0.58-0.8-1.5-0.74-2.75l0-1.05H122.46z"/>
			</g>
			<g>
				<path class="st0" d="M148.16,194.92l0-19.89l8.35,0c3.91,0,5.1,2.86,5.1,5.65c0,1.7-0.5,3.6-2.04,4.72
					c-1.28,0.93-3,1.22-4.58,1.19l-2.74,0l0,8.33L148.16,194.92z M152.25,183.68l2.19,0c1.79,0,2.98-0.69,2.98-3.1
					c0-2.28-0.99-2.62-3.29-2.62l-1.87,0L152.25,183.68z"/>
				<path class="st0" d="M152.36,195.04l-4.31-0.01l0-20.11l8.45,0c0,0,0.01,0,0.01,0c1.55,0,2.79,0.45,3.68,1.33
					c1.26,1.26,1.53,3.1,1.52,4.42c0,1.23-0.27,3.5-2.09,4.81c-1.45,1.05-3.33,1.23-4.65,1.21l-2.63,0L152.36,195.04z
					 M148.27,194.81l3.87,0.01l0-8.33l2.85,0c1.28,0.02,3.12-0.16,4.52-1.17c1.74-1.26,2-3.44,2-4.63c0-1.28-0.25-3.06-1.46-4.27
					c-0.84-0.84-2.03-1.27-3.52-1.27c0,0-0.01,0-0.01,0l-8.24,0L148.27,194.81z M152.14,183.79l0-5.94l1.98,0
					c2.35,0,3.4,0.4,3.4,2.73c0,1.14-0.26,1.95-0.78,2.47c-0.5,0.5-1.25,0.74-2.29,0.74c0,0-0.01,0-0.01,0L152.14,183.79z
					 M152.36,178.06l0,5.51l2.08,0c0,0,0.01,0,0.01,0c0.98,0,1.68-0.22,2.14-0.68c0.48-0.48,0.72-1.24,0.72-2.32
					c0-2.13-0.83-2.51-3.19-2.51L152.36,178.06z"/>
			</g>
			<g>
				<path class="st0" d="M152.32,195l-4.23-0.01l0-20.03l8.42,0c0,0,0.01,0,0.01,0c1.54,0,2.77,0.45,3.65,1.32
					c1.25,1.25,1.52,3.08,1.51,4.4c0,1.23-0.27,3.48-2.07,4.78c-1.44,1.04-3.31,1.23-4.62,1.2l-2.67,0L152.32,195z M148.23,194.85
					l3.94,0.01l0-8.33l2.82,0c1.29,0.02,3.13-0.16,4.54-1.18c1.75-1.26,2.01-3.46,2.01-4.66c0-1.29-0.25-3.08-1.47-4.3
					c-0.85-0.85-2.04-1.28-3.55-1.28c0,0-0.01,0-0.01,0l-8.27,0L148.23,194.85z M152.18,183.75l0-5.87l1.94,0
					c2.37,0,3.37,0.38,3.37,2.69c0,1.13-0.25,1.93-0.77,2.45c-0.49,0.49-1.23,0.73-2.27,0.73c0,0-0.01,0-0.01,0L152.18,183.75z
					 M152.32,178.02l0,5.58l2.11,0c0,0,0.01,0,0.01,0c0.99,0,1.7-0.23,2.17-0.69c0.49-0.49,0.73-1.26,0.73-2.34
					c0-2.16-0.84-2.55-3.22-2.55L152.32,178.02z"/>
			</g>
			<g>
				<path class="st0" d="M177.44,186.36l0,8.57l-4.08,0l0-19.89l7.73,0c3.53,0,6.21,1.11,6.22,4.77c0,2.17-0.61,4.46-3.35,4.8
					l-0.01,0.05c2.42,0.29,3.15,1.7,3.15,3.61c0,0.82-0.12,5.71,0.87,6.29l0,0.37l-4.49,0c-0.5-1.27-0.41-3.72-0.44-5.05
					c-0.03-1.21,0-2.89-1.4-3.26c-1.11-0.29-2.3-0.26-3.47-0.26L177.44,186.36z M177.44,183.44h3.21c1.34-0.08,2.39-0.87,2.39-2.87
					c0-2.22-1.03-2.6-2.57-2.62l-3.03,0V183.44z"/>
				<path class="st0" d="M183.41,195.04l-0.03-0.07c-0.42-1.08-0.43-2.96-0.44-4.33c0-0.27,0-0.53-0.01-0.75l0-0.18
					c-0.03-1.18-0.06-2.64-1.31-2.98c-1.02-0.26-2.12-0.26-3.19-0.26l-0.88,0l0,8.57l-4.3,0l0-20.11l7.84,0c0.01,0,0.02,0,0.02,0
					c1.96,0,3.42,0.34,4.47,1.03c1.22,0.81,1.83,2.1,1.83,3.85c0,2.75-1,4.37-2.96,4.82c1.87,0.38,2.75,1.54,2.76,3.64l0,0.21
					c-0.04,4.52,0.42,5.75,0.82,5.98l0.05,0.03l0,0.54L183.41,195.04z M178.68,186.25c1,0,2.03,0.02,2.99,0.27
					c1.41,0.38,1.45,2,1.48,3.18l0,0.18c0,0.22,0.01,0.48,0.01,0.75c0.01,1.33,0.02,3.13,0.4,4.19l4.31,0l0-0.2
					c-0.62-0.46-0.91-2.47-0.88-6.13l0-0.21c0-2.14-0.97-3.25-3.06-3.5l-0.11-0.01l0.03-0.24l0.08-0.01
					c2.19-0.27,3.26-1.81,3.26-4.69c0-1.67-0.59-2.91-1.74-3.67c-1-0.66-2.46-0.99-4.35-0.99c-0.01,0-0.01,0-0.02,0l-7.62,0l0,19.68
					l3.87,0l0-8.57l1.1,0C178.51,186.25,178.6,186.25,178.68,186.25z M177.44,183.55h-0.11v-5.71l3.14,0
					c1.65,0.03,2.68,0.5,2.68,2.73c0,1.83-0.89,2.88-2.49,2.98H177.44z M177.55,183.33h3.1c1.04-0.06,2.28-0.59,2.28-2.76
					c0-2.08-0.87-2.49-2.46-2.51l-2.92,0V183.33z"/>
			</g>
			<g>
				<path class="st0" d="M183.44,195l-0.02-0.05c-0.42-1.07-0.43-2.95-0.44-4.32c0-0.27,0-0.53-0.01-0.75l0-0.18
					c-0.03-1.19-0.07-2.67-1.34-3.01c-1.02-0.26-2.13-0.26-3.2-0.26l-0.92,0l0,8.57l-4.23,0l0-20.04l7.8,0c0.01,0,0.02,0,0.02,0
					c1.95,0,3.41,0.34,4.45,1.02c1.21,0.8,1.82,2.08,1.82,3.82c0,2.81-1.05,4.44-3.11,4.83c1.98,0.34,2.9,1.5,2.91,3.64l0,0.21
					c-0.04,4.54,0.43,5.77,0.84,6.01l0.04,0.02l0,0.49L183.44,195z M178.68,186.28c1,0,2.02,0.02,2.98,0.27
					c1.38,0.37,1.42,1.98,1.45,3.15l0,0.18c0,0.22,0.01,0.48,0.01,0.75c0.01,1.34,0.02,3.17,0.41,4.22l4.37,0l0-0.26
					c-0.62-0.43-0.91-2.43-0.88-6.11l0-0.21c0-2.16-0.98-3.28-3.09-3.54l-0.07-0.01l0.02-0.18l0.06-0.01
					c2.18-0.27,3.29-1.86,3.29-4.73c0-1.69-0.59-2.93-1.75-3.7c-1-0.66-2.47-1-4.37-1c-0.01,0-0.01,0-0.02,0l-7.66,0l0,19.75l3.94,0
					l0-8.57l1.06,0C178.51,186.28,178.6,186.28,178.68,186.28z M177.44,183.51h-0.07v-5.64l3.1,0c1.63,0.03,2.64,0.49,2.64,2.69
					c0,1.81-0.88,2.85-2.46,2.94H177.44z M177.52,183.37h3.14c1.05-0.06,2.32-0.6,2.32-2.8c0-2.1-0.92-2.52-2.5-2.55l-2.96,0V183.37
					z"/>
			</g>
			<g>
				<polygon class="st0" points="200.16,194.92 200.16,175.03 211.65,175.03 211.65,177.95 204.24,177.95 204.24,182.96 
					211.07,182.96 211.07,185.88 204.25,185.88 204.24,192.01 211.65,192 211.66,194.92 				"/>
				<path class="st0" d="M200.05,195.03v-20.11l11.71,0l0,3.14l-7.41,0v4.79l6.83,0l0,3.13l-6.83,0l0,5.91l7.41,0l0,3.13
					L200.05,195.03z M200.27,175.14v19.68l11.28,0l0-2.7l-7.41,0l0-6.34l6.83,0l0-2.7l-6.83,0v-5.23l7.41,0l0-2.7L200.27,175.14z"/>
			</g>
			<g>
				<path class="st0" d="M200.09,195v-20.04l11.64,0l0,3.06l-7.41,0v4.86l6.83,0l0,3.06l-6.83,0l0,5.98l7.41,0l0,3.06L200.09,195z
					 M200.23,175.1v19.75l11.35,0l0-2.77l-7.41,0l0-6.27l6.83,0l0-2.77l-6.83,0v-5.15l7.41,0l0-2.77L200.23,175.1z"/>
			</g>
			<g>
				<path class="st0" d="M232.24,181.08c0.03-1.78-0.15-3.53-2.4-3.53c-1.37,0-2.24,0.51-2.24,1.86c0,1.51,1.05,2.1,2.33,2.83
					c1.34,0.77,3.82,2.26,4.97,3.26c1.4,1.25,1.84,2.44,1.84,4.17c0,3.77-2.75,5.73-6.74,5.73c-4.9,0-6.66-2.49-6.65-6.05l0-1.46
					h4.09l0,1.17c-0.09,1.93,0.55,3.34,2.56,3.34c1.72,0,2.54-0.82,2.54-2.33c0-1.17-0.58-1.96-1.64-2.63
					c-2.13-1.51-4.79-2.6-6.45-4.58c-0.67-0.9-1.05-1.99-1.05-3.05c0-3.4,2.1-5.25,6.42-5.26c6.51,0,6.33,4.57,6.36,6.53H232.24z"/>
				<path class="st0" d="M230,195.51c-2.35,0-4.12-0.58-5.24-1.72c-1.01-1.03-1.52-2.52-1.52-4.43l0-1.57h4.3l0,1.28
					c-0.05,1.19,0.17,2.06,0.68,2.59c0.41,0.42,1,0.64,1.77,0.64c0,0,0.01,0,0.01,0c1.63,0,2.42-0.73,2.43-2.22
					c0-1.06-0.49-1.84-1.59-2.54c-0.71-0.5-1.49-0.97-2.24-1.41c-1.53-0.91-3.11-1.85-4.23-3.19c-0.7-0.94-1.08-2.04-1.07-3.12
					c0-3.5,2.26-5.36,6.53-5.36c6.39,0,6.44,4.33,6.47,6.42l0,0.33h-4.16l0-0.11c0.02-1.29-0.08-2.27-0.67-2.87
					c-0.37-0.37-0.89-0.55-1.61-0.55c0,0,0,0,0,0c-1.43,0-2.13,0.57-2.13,1.75c0,1.43,0.98,2,2.23,2.72l0.04,0.03
					c1.36,0.79,3.82,2.26,4.98,3.28c1.35,1.21,1.87,2.4,1.87,4.25C236.84,193.32,234.28,195.51,230,195.51z M223.45,188l0,1.35
					c0,1.86,0.49,3.3,1.46,4.28c1.08,1.1,2.8,1.66,5.09,1.66c4.15,0,6.63-2.1,6.63-5.62c0-1.8-0.49-2.91-1.8-4.08
					c-1.19-1.04-3.86-2.62-4.95-3.25l-0.04-0.03c-1.26-0.72-2.34-1.35-2.34-2.9c0-1.31,0.79-1.97,2.35-1.97c0,0,0,0,0,0
					c0.78,0,1.36,0.2,1.77,0.62c0.68,0.69,0.74,1.85,0.73,2.91h3.72l0-0.11c-0.03-2.01-0.08-6.2-6.25-6.2
					c-4.19,0-6.31,1.74-6.31,5.15c0,1.03,0.36,2.09,1.03,2.99c1.09,1.31,2.66,2.24,4.17,3.14c0.76,0.45,1.54,0.92,2.25,1.42
					c1.15,0.72,1.68,1.59,1.68,2.72c0,1.6-0.92,2.44-2.64,2.44c0,0-0.01,0-0.01,0c-0.83,0-1.48-0.24-1.92-0.71
					c-0.55-0.58-0.8-1.5-0.74-2.74l0-1.06H223.45z"/>
			</g>
			<g>
				<path class="st0" d="M230,195.51c-2.35,0-4.12-0.58-5.24-1.72c-1.01-1.03-1.52-2.52-1.52-4.43l0-1.57h4.3l0,1.28
					c-0.05,1.19,0.17,2.06,0.68,2.59c0.41,0.42,1,0.64,1.77,0.64c0,0,0.01,0,0.01,0c1.63,0,2.42-0.73,2.43-2.22
					c0-1.06-0.49-1.84-1.59-2.54c-0.71-0.5-1.49-0.97-2.24-1.41c-1.53-0.91-3.11-1.85-4.23-3.19c-0.7-0.94-1.08-2.04-1.07-3.12
					c0-3.5,2.26-5.36,6.53-5.36c6.39,0,6.44,4.33,6.47,6.42l0,0.33h-4.16l0-0.11c0.02-1.29-0.08-2.27-0.67-2.87
					c-0.37-0.37-0.89-0.55-1.61-0.55c0,0,0,0,0,0c-1.43,0-2.13,0.57-2.13,1.75c0,1.43,0.98,2,2.23,2.72l0.04,0.03
					c1.36,0.79,3.82,2.26,4.98,3.28c1.35,1.21,1.87,2.4,1.87,4.25C236.84,193.32,234.28,195.51,230,195.51z M223.45,188l0,1.35
					c0,1.86,0.49,3.3,1.46,4.28c1.08,1.1,2.8,1.66,5.09,1.66c4.15,0,6.63-2.1,6.63-5.62c0-1.8-0.49-2.91-1.8-4.08
					c-1.19-1.04-3.86-2.62-4.95-3.25l-0.04-0.03c-1.26-0.72-2.34-1.35-2.34-2.9c0-1.31,0.79-1.97,2.35-1.97c0,0,0,0,0,0
					c0.78,0,1.36,0.2,1.77,0.62c0.68,0.69,0.74,1.85,0.73,2.91h3.72l0-0.11c-0.03-2.01-0.08-6.2-6.25-6.2
					c-4.19,0-6.31,1.74-6.31,5.15c0,1.03,0.36,2.09,1.03,2.99c1.09,1.31,2.66,2.24,4.17,3.14c0.76,0.45,1.54,0.92,2.25,1.42
					c1.15,0.72,1.68,1.59,1.68,2.72c0,1.6-0.92,2.44-2.64,2.44c0,0-0.01,0-0.01,0c-0.83,0-1.48-0.24-1.92-0.71
					c-0.55-0.58-0.8-1.5-0.74-2.74l0-1.06H223.45z"/>
			</g>
			<g>
				<path class="st0" d="M257.49,181.08c0.03-1.78-0.15-3.53-2.39-3.53c-1.37,0-2.25,0.51-2.25,1.86c0,1.51,1.05,2.1,2.33,2.83
					c1.34,0.77,3.83,2.25,4.96,3.26c1.4,1.25,1.84,2.44,1.84,4.17c0,3.77-2.74,5.73-6.74,5.73c-4.9,0-6.66-2.49-6.65-6.05l0-1.46
					h4.09v1.16c-0.08,1.94,0.56,3.34,2.57,3.34c1.72,0,2.53-0.82,2.53-2.33c0-1.16-0.58-1.96-1.64-2.62
					c-2.13-1.51-4.78-2.6-6.45-4.59c-0.67-0.9-1.04-1.98-1.05-3.04c0-3.4,2.1-5.25,6.42-5.26c6.51,0,6.33,4.57,6.36,6.53H257.49z"/>
				<path class="st0" d="M255.25,195.51c-2.34,0-4.09-0.57-5.22-1.7c-1.02-1.03-1.54-2.53-1.54-4.46l-0.01-1.57h4.3v1.27
					c-0.05,1.19,0.18,2.07,0.69,2.6c0.41,0.42,1,0.64,1.78,0.64c0,0,0,0,0.01,0c1.6,0,2.42-0.75,2.42-2.23
					c0-1.06-0.49-1.84-1.59-2.53c-0.71-0.5-1.48-0.97-2.23-1.41c-1.53-0.91-3.12-1.86-4.24-3.2c-0.69-0.92-1.07-2.03-1.07-3.11
					c0-3.51,2.26-5.36,6.53-5.37c6.39,0,6.44,4.34,6.46,6.42l0,0.32h-4.16l0-0.11c0.02-1.12-0.05-2.24-0.67-2.87
					c-0.37-0.37-0.89-0.55-1.61-0.55c-1.44,0-2.14,0.58-2.14,1.75c0,1.43,0.98,2,2.23,2.72l0.04,0.02c1.37,0.79,3.85,2.27,4.98,3.28
					c1.35,1.2,1.87,2.39,1.87,4.25C262.1,193.33,259.54,195.51,255.25,195.51z M248.7,188l0,1.35c0,1.87,0.49,3.32,1.48,4.3
					c1.08,1.09,2.79,1.64,5.07,1.64c4.15,0,6.63-2.1,6.63-5.62c0-1.79-0.5-2.93-1.8-4.08c-1.12-1-3.58-2.46-4.95-3.25l-0.04-0.02
					c-1.26-0.72-2.35-1.35-2.34-2.91c0-1.3,0.79-1.97,2.36-1.97c0.78,0,1.36,0.2,1.77,0.62c0.68,0.7,0.74,1.86,0.73,2.91h3.72l0-0.1
					c-0.02-2.02-0.07-6.21-6.25-6.21c-4.19,0-6.31,1.74-6.31,5.15c0,1.04,0.37,2.1,1.03,2.98c1.1,1.31,2.66,2.25,4.18,3.15
					c0.75,0.45,1.53,0.91,2.24,1.42c1.15,0.72,1.68,1.59,1.68,2.71c0,1.6-0.91,2.44-2.64,2.44c0,0,0,0-0.01,0
					c-0.83,0-1.48-0.24-1.93-0.71c-0.55-0.57-0.8-1.5-0.75-2.75V188H248.7z"/>
			</g>
			<g>
				<path class="st0" d="M255.25,195.48c-2.33,0-4.07-0.57-5.19-1.69c-1.02-1.02-1.53-2.51-1.53-4.43l-0.01-1.53h4.23v1.24
					c-0.05,1.2,0.18,2.08,0.7,2.62c0.41,0.43,1.02,0.65,1.8,0.65c0,0,0,0,0.01,0c1.63,0,2.45-0.76,2.46-2.26
					c0-1.07-0.49-1.86-1.6-2.56c-0.71-0.5-1.48-0.97-2.23-1.41c-1.53-0.91-3.11-1.85-4.23-3.19c-0.68-0.92-1.06-2.01-1.07-3.09
					c0-3.53,2.19-5.33,6.49-5.33c6.35,0,6.4,4.31,6.43,6.39l0,0.28h-4.09l0-0.07c0.02-1.13-0.05-2.25-0.68-2.89
					c-0.37-0.38-0.91-0.56-1.64-0.56c-1.46,0-2.18,0.59-2.18,1.79c0,1.45,0.99,2.02,2.25,2.75l0.04,0.02
					c1.37,0.79,3.84,2.26,4.98,3.27c1.34,1.19,1.86,2.37,1.86,4.22C262.06,193.3,259.51,195.47,255.25,195.48z M248.67,187.97
					l0,1.39c0,1.88,0.5,3.34,1.49,4.33c1.09,1.09,2.8,1.65,5.09,1.65c4.17,0,6.67-2.12,6.67-5.66c0-1.8-0.51-2.95-1.81-4.11
					c-1.12-1-3.59-2.47-4.95-3.25l-0.04-0.02c-1.25-0.72-2.33-1.34-2.32-2.87c0-1.28,0.78-1.93,2.32-1.93c0.77,0,1.34,0.2,1.74,0.61
					c0.68,0.69,0.73,1.87,0.72,2.92h3.8l0-0.14c-0.02-2.03-0.07-6.24-6.28-6.24c-4.21,0-6.35,1.75-6.35,5.18
					c0,1.05,0.37,2.11,1.03,3c1.1,1.32,2.67,2.25,4.19,3.16c0.75,0.45,1.53,0.91,2.24,1.42c1.14,0.72,1.67,1.57,1.67,2.68
					c0,1.6-0.88,2.41-2.6,2.41c0,0,0,0-0.01,0c-0.82,0-1.47-0.23-1.91-0.7c-0.54-0.57-0.79-1.48-0.74-2.72v-1.09H248.67z"/>
			</g>
			<g>
				<path class="st0" d="M274.2,183.38c0.18-5.06,0.62-8.83,7.15-8.83c6.53,0,6.97,3.77,7.15,8.83l0,2.84
					c0,5.31-0.44,9.18-7.15,9.18c-6.71,0-7.15-3.87-7.15-9.18L274.2,183.38z M278.4,188.08c0,1.64,0.15,4.32,2.95,4.32
					c2.92,0,2.95-2.73,2.95-4.64l-0.01-5.1c0-1.59,0.09-5.12-2.95-5.11c-3.21-0.01-2.95,3.47-2.94,5.01L278.4,188.08z"/>
				<path class="st0" d="M281.34,195.51c-3.16,0-5.13-0.84-6.18-2.65c-0.99-1.71-1.07-4.11-1.07-6.63l0-2.85
					c0.19-5.4,0.79-8.93,7.26-8.93c0,0,0.01,0,0.01,0c6.45,0,7.06,3.54,7.25,8.94l0,2.84C288.6,191.66,288.08,195.51,281.34,195.51
					C281.34,195.51,281.34,195.51,281.34,195.51z M274.31,183.38l0,2.84c0,2.49,0.08,4.86,1.04,6.52c1.01,1.74,2.91,2.55,5.99,2.55
					c0,0,0,0,0.01,0c6.55,0,7.04-3.59,7.04-9.07l0-2.84c-0.19-5.27-0.78-8.72-7.03-8.72c0,0-0.01,0-0.01,0
					C275.08,174.66,274.49,178.11,274.31,183.38z M281.34,192.51c-1.26,0-2.14-0.54-2.62-1.61c-0.38-0.87-0.43-1.91-0.43-2.82
					l0-5.52c0-0.1,0-0.21,0-0.32c-0.01-1.2-0.03-3.01,0.99-4.04c0.5-0.5,1.19-0.75,2.06-0.75c0.01,0,0.01,0,0.02,0
					c0.81,0,1.46,0.25,1.95,0.74c1.1,1.1,1.1,3.14,1.09,4.36l0,0.13l0.01,5.1C284.4,189.54,284.4,192.51,281.34,192.51
					C281.34,192.51,281.34,192.51,281.34,192.51z M278.51,188.08c0,0.89,0.05,1.9,0.42,2.73c0.44,1,1.23,1.48,2.42,1.48c0,0,0,0,0,0
					c2.84,0,2.84-2.73,2.84-4.53l-0.01-5.1l0-0.13c0-1.18,0.01-3.17-1.03-4.21c-0.45-0.45-1.05-0.67-1.8-0.67c-0.01,0-0.01,0-0.02,0
					c-0.81,0-1.45,0.23-1.9,0.69c-0.96,0.97-0.94,2.72-0.93,3.89c0,0.12,0,0.22,0,0.32L278.51,188.08z"/>
			</g>
			<g>
				<path class="st0" d="M281.34,195.47c-3.15,0-5.1-0.84-6.15-2.64c-0.99-1.7-1.07-4.1-1.07-6.61l0-2.84
					c0.19-5.38,0.79-8.9,7.22-8.9c0,0,0.01,0,0.01,0c6.42,0,7.02,3.53,7.21,8.9l0,2.84C288.57,191.64,288.04,195.47,281.34,195.47
					C281.34,195.47,281.34,195.47,281.34,195.47z M274.27,183.38l0,2.84c0,2.5,0.08,4.87,1.05,6.54c1.02,1.75,2.93,2.56,6.02,2.56
					c0,0,0,0,0.01,0c6.58,0,7.07-3.61,7.08-9.11l0-2.84c-0.19-5.29-0.78-8.76-7.07-8.76c0,0-0.01,0-0.01,0
					C275.05,174.62,274.46,178.09,274.27,183.38z M281.34,192.47c-1.25,0-2.12-0.53-2.58-1.59c-0.38-0.86-0.43-1.9-0.43-2.81l0-5.52
					c0-0.1,0-0.21,0-0.32c-0.01-1.19-0.03-2.99,0.98-4.01c0.49-0.49,1.17-0.74,2.03-0.74c0.01,0,0.01,0,0.02,0
					c0.8,0,1.45,0.24,1.93,0.72c1.09,1.09,1.09,3.12,1.08,4.34l0,0.13l0.01,5.1C284.37,189.64,284.37,192.47,281.34,192.47
					C281.34,192.47,281.34,192.47,281.34,192.47z M278.47,188.08c0,0.89,0.05,1.91,0.42,2.75c0.45,1.01,1.25,1.5,2.45,1.5
					c0,0,0,0,0,0c2.88,0,2.88-2.75,2.88-4.57l-0.01-5.22c0-1.19,0.01-3.18-1.04-4.23c-0.45-0.45-1.07-0.68-1.82-0.68
					c-0.01,0-0.01,0-0.02,0c-0.82,0-1.47,0.24-1.93,0.7c-0.97,0.98-0.95,2.74-0.94,3.91c0,0.12,0,0.22,0,0.32L278.47,188.08z"/>
			</g>
		</g>
		<g>
			<g>
				<path d="M171.15,123.69c0.05,0,0.1,0,0.14,0c1.7-0.08,3.02-1.47,2.95-3.11c-0.07-1.64-1.52-2.9-3.22-2.83
					c-0.82,0.04-1.58,0.38-2.14,0.96c-0.56,0.59-0.85,1.35-0.81,2.14C168.15,122.44,169.51,123.69,171.15,123.69z"/>
			</g>
			<g>
				<path d="M169.08,114.82c0.57,0.5,1.3,0.77,2.07,0.77c0.05,0,0.1,0,0.15,0c1.7-0.08,3.02-1.47,2.95-3.11
					c-0.07-1.64-1.52-2.91-3.22-2.83c-0.82,0.04-1.58,0.38-2.14,0.96c-0.56,0.59-0.85,1.35-0.81,2.14
					C168.11,113.55,168.47,114.28,169.08,114.82z"/>
			</g>
			<g>
				<path d="M178.97,123.69c0.05,0,0.1,0,0.14,0c1.7-0.08,3.02-1.47,2.95-3.11c-0.07-1.64-1.52-2.9-3.22-2.83
					c-0.82,0.04-1.58,0.38-2.14,0.96c-0.56,0.59-0.85,1.35-0.81,2.14v0C175.97,122.44,177.33,123.69,178.97,123.69z"/>
			</g>
			<g>
				<path d="M178.96,115.59c0.05,0,0.1,0,0.15,0c1.7-0.08,3.02-1.47,2.95-3.11c-0.07-1.64-1.51-2.9-3.22-2.83
					c-1.7,0.08-3.02,1.47-2.95,3.11v0C175.97,114.34,177.33,115.59,178.96,115.59z"/>
			</g>
			<g>
				<path d="M187.2,123.69c0.05,0,0.1,0,0.14,0c1.7-0.08,3.02-1.47,2.95-3.11c-0.07-1.64-1.52-2.91-3.22-2.83
					c-1.7,0.08-3.02,1.47-2.95,3.11v0C184.2,122.44,185.57,123.69,187.2,123.69z"/>
			</g>
			<g>
				<path d="M187.2,115.59c0.05,0,0.1,0,0.15,0c1.7-0.08,3.02-1.47,2.95-3.11c-0.07-1.64-1.52-2.9-3.22-2.83
					c-1.7,0.08-3.02,1.47-2.95,3.11v0C184.2,114.34,185.57,115.59,187.2,115.59z"/>
			</g>
			<g>
				<path d="M225.95,129.84c0.06-0.79,0.09-1.58,0.09-2.34c0-0.07-0.03-0.13-0.07-0.18s-0.11-0.07-0.18-0.07h-28.49
					c-0.07,0-0.13,0.03-0.18,0.07c-0.05,0.05-0.07,0.11-0.07,0.18l0.02,30.51c-0.03,0.04-0.05,0.09-0.05,0.14
					c0,0.05,0.02,0.1,0.05,0.14c0,0.13,0.11,0.24,0.25,0.24h0c0.1,0,0.18-0.06,0.22-0.14c7.54-0.06,13.25-2.75,19.6-9.23
					c2.08,1.66,4.71,2.58,7.43,2.58c6.38,0,11.57-4.93,11.57-10.99C236.15,135.14,231.78,130.49,225.95,129.84z M224.58,145.29
					c-1.26,0-2.46-0.41-3.41-1.16c1.58-2.46,2.8-5.12,3.62-7.91c2.72,0.1,4.91,2.1,4.91,4.54
					C229.7,143.25,227.4,145.29,224.58,145.29z"/>
			</g>
			<g>
				<path d="M195.11,158.09c0.01,0,0.02,0,0.04,0c-0.09,0-0.19,0-0.28,0C194.95,158.09,195.03,158.09,195.11,158.09z"/>
			</g>
			<g>
				<path d="M214.73,111.21c-0.01,0.05,0,0.11,0.03,0.16l2.46,4.15l1.04,1.78l-3.5,6.01c-0.04,0.08-0.04,0.17,0,0.25
					c0.04,0.08,0.12,0.12,0.21,0.13l0.15,0c0.19,0,0.37,0,0.56,0l0.28,0c0.68,0,1.39-0.01,2.17-0.03c0.09,0,0.16-0.05,0.21-0.12
					l3.51-6c0.03-0.02,0.06-0.05,0.07-0.08c0.03-0.05,0.04-0.1,0.03-0.15c0.01-0.05-0.01-0.11-0.03-0.15l-1.67-2.81l-1.84-3.16
					l3.51-5.92c0.05-0.08,0.05-0.17,0-0.25c-0.04-0.08-0.13-0.13-0.22-0.13h-3.15c-0.09,0-0.17,0.05-0.21,0.12l-3.59,6.04
					C214.73,111.1,214.72,111.15,214.73,111.21z"/>
			</g>
			<g>
				<path d="M208.14,111.21c-0.01,0.05,0,0.11,0.03,0.16l2.46,4.15l1.04,1.78l-3.51,6.01c-0.04,0.08-0.04,0.17,0,0.25
					s0.12,0.12,0.21,0.13l0.15,0c0.19,0,0.37,0,0.56,0l0.28,0c0.68,0,1.39-0.01,2.17-0.03c0.09,0,0.16-0.05,0.21-0.12l3.51-6
					c0.03-0.02,0.06-0.05,0.08-0.08c0.03-0.05,0.04-0.1,0.03-0.15c0.01-0.05-0.01-0.11-0.03-0.15l-1.67-2.81l-1.84-3.16l3.51-5.92
					c0.05-0.08,0.05-0.17,0-0.25c-0.04-0.08-0.13-0.13-0.22-0.13h-3.15c-0.09,0-0.17,0.05-0.21,0.12l-3.59,6.04
					C208.15,111.1,208.14,111.15,208.14,111.21z"/>
			</g>
			<g>
				<path d="M201.03,123.55c0.04,0.08,0.12,0.12,0.21,0.13l0.16,0c0.19,0,0.37,0,0.56,0l0.28,0c0.68,0,1.39-0.01,2.17-0.03
					c0.09,0,0.16-0.05,0.21-0.12l3.51-6c0.03-0.02,0.06-0.05,0.08-0.08c0.03-0.05,0.04-0.1,0.03-0.15c0.01-0.05-0.01-0.11-0.03-0.15
					l-1.67-2.81l-1.84-3.16l3.51-5.92c0.05-0.08,0.05-0.17,0-0.25c-0.04-0.08-0.13-0.13-0.22-0.13h-3.15
					c-0.09,0-0.17,0.05-0.21,0.12l-3.59,6.04c-0.03,0.05-0.04,0.1-0.03,0.16c-0.01,0.05,0,0.11,0.03,0.16l2.46,4.15l1.04,1.78
					l-3.51,6.01C200.99,123.38,200.99,123.48,201.03,123.55z"/>
			</g>
			<g>
				<path d="M172.73,134.44c0.01-0.01,0.01-0.01,0.02-0.02c-0.01-0.01-0.01-0.02-0.02-0.03
					C172.73,134.41,172.73,134.43,172.73,134.44z"/>
			</g>
			<g>
				<path d="M194.4,127.5c0-0.14-0.11-0.25-0.25-0.25h-29.55c-0.14,0-0.25,0.11-0.25,0.25c0,8.06,3.11,15.74,8.76,21.61
					c5.65,5.87,13.16,9.24,21.17,9.51c0,0,0.01,0,0.01,0c0.06,0,0.13-0.03,0.17-0.07c0.05-0.05,0.08-0.11,0.08-0.18L194.4,127.5z
					 M173.77,135.03c-0.17,0.29-0.4,0.4-0.66,0.6c-0.64,0.48-0.79,1.41-1.75,1.37c-0.63-0.03-1.04-0.62-1.18-1.18
					c-0.13-0.47-0.07-0.89,0.17-1.22c0.03-0.11,0.07-0.21,0.13-0.31c0-0.01,0.01-0.03,0.01-0.04c0.03-0.11,0.09-0.21,0.15-0.31
					c0-0.01,0-0.02,0.01-0.03c0.18-0.56,0.81-0.97,1.35-1.13c0.77-0.24,1,0.44,1.38,0.93c0.13,0.16,0.28,0.38,0.31,0.6
					C173.82,134.53,173.91,134.79,173.77,135.03z M179.21,143.22c-0.73-0.09-1.61-0.07-2.16-0.64c-0.5-0.52-0.47-1.15-0.3-1.83
					c0.13-0.51,0.37-1.02,0.92-1.17c0.14-0.04,0.27-0.05,0.41-0.05c0.05-0.01,0.11-0.02,0.16-0.03c0.15-0.19,0.34-0.33,0.65-0.37
					c0.19-0.03,0.44-0.02,0.71,0.02c0.4,0.04,0.85,0.17,1.08,0.35c0.05,0.04,0.1,0.08,0.14,0.13c0.4,0.36,0.61,0.84,0.64,1.38
					C181.55,142.33,180.52,143.38,179.21,143.22z M180.66,135.23c-0.15-0.5-0.19-1.07-0.1-1.6c-0.27,0.11-0.31-1.02,0.44-1.34
					c0.13-0.16,0.32-0.28,0.59-0.3c0.1-0.09,0.21-0.16,0.33-0.22c0.96-0.49,2.19-0.16,3.17,0.08c0.13,0.03,0.22,0.09,0.29,0.17
					c0.18,0.09,0.34,0.21,0.48,0.36c0.29,0.19,0.52,0.45,0.67,0.77c0.36,0.8,0.03,1.56-0.3,2.29c-0.31,0.69-0.66,1.35-1.5,1.44
					c-0.9,0.09-1.61-0.48-2.47-0.64C181.61,136.11,180.87,135.94,180.66,135.23z M184.6,141.78c0.06-0.08,0.12-0.15,0.19-0.21
					c0.03-0.04,0.06-0.08,0.1-0.12c-0.01-0.18,0.04-0.35,0.19-0.52c0.1-0.11,0.25-0.22,0.43-0.33c0.25-0.16,0.57-0.3,0.78-0.31
					c0.01,0,0.03,0,0.04,0c0,0,0,0,0,0c0.45-0.01,0.83,0.17,1.13,0.5c0.67,0.72,0.58,1.82-0.25,2.35c-0.47,0.3-0.96,0.73-1.55,0.67
					c-0.54-0.06-0.82-0.44-1.05-0.91C184.46,142.54,184.35,142.13,184.6,141.78z M188.52,150.02c-0.2,0.4-0.44,0.79-0.99,0.84
					c-0.59,0.06-1.06-0.27-1.62-0.37c-0.42-0.07-0.9-0.17-1.04-0.58c-0.1-0.29-0.12-0.62-0.06-0.93c-0.18,0.06-0.2-0.6,0.29-0.78
					c0.09-0.09,0.21-0.16,0.38-0.17c0.07-0.05,0.14-0.09,0.22-0.13c0.63-0.29,1.44-0.09,2.08,0.04c0.08,0.02,0.15,0.05,0.19,0.1
					c0.12,0.06,0.22,0.13,0.32,0.21c0.19,0.11,0.34,0.26,0.44,0.45C188.96,149.15,188.74,149.6,188.52,150.02z"/>
			</g>
		</g>
	</g>
</g>
</svg>
