<?xml version="1.0" encoding="utf-8"?>
<!-- Generator: Adobe Illustrator 23.0.0, SVG Export Plug-In . SVG Version: 6.00 Build 0)  -->
<svg version="1.1" xmlns="http://www.w3.org/2000/svg" xmlns:xlink="http://www.w3.org/1999/xlink" x="0px" y="0px"
	 viewBox="0 0 386 267" style="enable-background:new 0 0 386 267;" xml:space="preserve">
<style type="text/css">
	.st0{fill:#FFFFFF;}
	.st1{fill:#010101;}
	.st2{fill:none;stroke:#FFFFFF;stroke-width:5.6754;stroke-miterlimit:10;}
	.st3{fill:#171717;}
	.st4{fill:none;}
</style>
<g id="Layer_1">
</g>
<g id="Isolation_Mode">
	<g>
		<g>
			<g>
				<path class="st1" d="M96.3,72.18c0.91,4.62,1.83,9.24,2.78,14.04c0.59-0.96,1.09-1.77,1.59-2.58c2.21-3.66,4.43-7.32,6.62-11
					c0.26-0.43,0.56-0.51,1.02-0.51c5.77,0.01,11.54,0.01,17.31,0.01h21.55h0.94c1.49,6.21,2.97,12.39,4.49,18.75
					c1.09-1.71,2.07-3.25,3.04-4.79c2.79-4.42,5.59-8.82,8.36-13.24c0.34-0.56,0.72-0.74,1.36-0.74c6.27,0.03,12.53,0.02,18.8,0.02
					h0.93c-1.53,7.87-3.05,15.68-4.58,23.48c0.04,0.03,0.08,0.05,0.12,0.07c2.35-2.51,4.7-5.02,7.19-7.7
					c-0.29,9.58-0.58,18.94-0.88,28.48c26.01-17.28,51.89-34.48,77.77-51.68c0.03,0.03,0.05,0.06,0.08,0.09
					c-21.21,22.08-42.42,44.17-63.75,66.38h17.95c-2.21,5.72-4.37,11.33-6.54,16.96h-20.3c-0.12,0.54-0.24,1.05-0.36,1.64h20.65
					c-0.09,0.28-0.12,0.48-0.2,0.67c-1.98,5.17-3.98,10.33-5.93,15.51c-0.21,0.54-0.47,0.69-1.02,0.69c-5.3-0.03-10.6,0-15.9-0.03
					c-0.67,0-1.01,0.16-1.02,0.88c-0.01,0.41-0.16,0.82-0.27,1.33h0.84c7.59,0,15.16-0.01,22.74,0.01c0.54,0.01,0.76-0.21,0.99-0.65
					c6.34-12.1,12.71-24.2,19.05-36.3c0.26-0.5,0.54-0.69,1.13-0.69c6.86,0.03,13.72,0.01,20.58,0.01h0.79
					c2.1,15.3,4.21,30.55,6.33,45.98c0.16-0.31,0.26-0.47,0.33-0.63c0.87-2.29,1.76-4.56,2.59-6.87c0.25-0.68,0.56-0.92,1.31-0.9
					c5.72,0.09,11.44,0.14,17.16,0.18c0.79,0.01,1.58-0.07,2.36-0.15c0.26-0.03,0.5-0.18,0.74-0.28c-0.01-0.08-0.01-0.15-0.01-0.22
					c-0.33-0.13-0.65-0.29-0.98-0.4c-3.33-1.09-6.69-2.1-9.99-3.29c-2.22-0.8-4.2-2.1-5.86-3.82c-2.36-2.45-3.34-5.46-3.35-8.78
					c-0.01-2.99,0.48-5.92,1.54-8.72c2.11-5.6,6.25-8.99,11.86-10.74c2.63-0.82,5.35-1.24,8.1-1.32c4.73-0.13,9.46-0.14,14.18-0.13
					c3.39,0.01,6.79,0.14,10.17,0.2c0.84,0.01,1.68-0.1,2.52-0.1c15.73-0.01,31.46-0.01,47.18-0.01h1.09
					c-0.24,0.64-0.44,1.18-0.65,1.72c-1.93,5.08-3.88,10.15-5.78,15.24c-0.22,0.58-0.49,0.72-1.07,0.72
					c-3.67-0.03-7.34-0.02-11-0.02h-0.92c-2.4,12.28-4.78,24.54-7.19,36.85H314.1c2.4-12.31,4.8-24.59,7.2-36.93
					c-11.8-0.5-23.52-0.88-35.26-0.74L286,148.4c1.07,0.35,2.15,0.67,3.21,1.04c2.71,0.94,5.47,1.74,8.09,2.86
					c3.45,1.48,6.18,3.83,7.61,7.43c1.11,2.77,1.14,5.65,0.73,8.55c-0.44,3.09-1.26,6.05-2.81,8.77c-2.34,4.1-6.03,6.37-10.46,7.59
					c-4.01,1.1-8.14,1.35-12.28,1.36c-3.59,0.01-7.18-0.03-10.77-0.04l-27.56-0.1c-0.22-0.01-0.45,0-0.75,0
					c-0.25-3.22-0.48-6.39-0.73-9.62h-0.81c-3.17,0-6.35,0.01-9.51-0.01c-0.56-0.01-0.82,0.18-1.04,0.69
					c-1.24,2.78-2.53,5.53-3.77,8.3c-0.22,0.46-0.44,0.66-0.98,0.66c-19.57-0.02-39.13-0.01-58.7-0.02c-0.22,0-0.44-0.02-0.76-0.03
					c1.35-6.95,2.7-13.85,4.09-20.98c-2.64,2.74-5.14,5.34-7.64,7.93l-0.17-0.09c1.74-9.84,3.47-19.68,5.24-29.71
					c-28.27,19.81-56.41,39.52-84.55,59.23c-0.03-0.03-0.06-0.07-0.09-0.1c1.31-1.41,2.62-2.84,3.94-4.24
					c6.68-7.18,13.36-14.35,20.05-21.53c10.99-11.8,22-23.61,33-35.43c5.68-6.11,11.36-12.21,17.03-18.33
					c0.27-0.29,0.46-0.71,0.54-1.09c0.75-3.68,1.46-7.37,2.17-11.05c0.03-0.16,0.05-0.33-0.06-0.58c-0.51,0.84-1.05,1.66-1.54,2.53
					c-0.27,0.48-0.58,0.67-1.16,0.67c-4.57-0.03-9.12-0.02-13.68-0.02h-0.81c-0.29-1.3-0.59-2.57-0.88-3.85c-0.05,0-0.1,0-0.16,0
					c-1.13,5.8-2.27,11.61-3.42,17.47h-19.3c3.15-16.16,6.31-32.3,9.45-48.43c-0.05-0.02-0.1-0.05-0.14-0.07
					c-0.32,0.42-0.64,0.83-0.96,1.25c-6.35,8.51-12.68,17.03-19.08,25.51c-0.77,1.03-0.9,2.17-1.13,3.31
					c-1.21,6.13-2.38,12.27-3.59,18.44H81.4c0.32-1.66,0.62-3.31,0.94-4.95c1.05-5.41,2.12-10.82,3.16-16.23
					c0.05-0.27-0.01-0.59-0.1-0.85c-3.25-9.07-6.52-18.13-9.78-27.19c-0.05-0.16-0.14-0.31-0.24-0.55c-1.28,3.3-2.53,6.52-3.78,9.74
					c-0.34,0.87-0.7,1.74-1,2.63c-0.16,0.45-0.37,0.59-0.85,0.58c-4.82-0.1-9.65-0.19-14.47-0.24c-0.96-0.01-1.93,0.12-2.87,0.3
					c-2.23,0.43-3.72,1.85-4.73,3.83c-1.17,2.3-1.68,4.79-2.1,7.3c-0.31,1.91-0.55,3.82-0.14,5.75c0.08,0.33,0.21,0.65,0.39,1.15
					c0.16-0.4,0.28-0.64,0.37-0.88c1.82-4.72,3.64-9.45,5.44-14.18c0.16-0.4,0.29-0.64,0.81-0.64c7.26,0.02,14.52,0.01,21.77,0.01
					c0.17,0,0.33,0.03,0.6,0.05c-0.29,1.49-0.56,2.93-0.85,4.38c-1.34,6.89-2.65,13.78-4.03,20.66c-0.66,3.28-2.1,6.07-5.24,7.68
					c-1.74,0.89-3.59,1.44-5.53,1.51c-4.51,0.16-9.01,0.33-13.51,0.28c-3.98-0.04-7.86-0.83-11.46-2.66
					c-5.04-2.56-7.99-6.7-9.12-12.19c-1.05-5.05-0.5-10.04,0.52-15.01c0.81-3.96,1.98-7.8,3.88-11.39
					c3.83-7.26,9.92-11.28,17.9-12.65c5.96-1.03,11.97-0.99,17.99-0.78c2.64,0.09,5.29,0.2,7.94,0.19
					c7.47-0.03,14.94-0.11,22.4-0.16C95.89,72.14,96.06,72.16,96.3,72.18 M309.99,132.94c-0.84-0.04-1.55-0.1-2.27-0.1
					c-6.61-0.04-13.21-0.17-19.82-0.04c-2.74,0.06-5.53,0.46-8.21,1.07c-4.43,0.99-8.07,3.31-10.53,7.26
					c-1.53,2.46-2.21,5.21-2.57,8.05c-0.26,2.05-0.31,4.09,0.21,6.11c0.92,3.53,3.28,5.87,6.45,7.32c2.53,1.15,5.22,1.94,7.85,2.86
					c1.49,0.52,3.01,0.94,4.49,1.49c0.38,0.14,0.81,0.58,0.91,0.95c0.31,1.26-0.42,2.28-1.71,2.45c-1.03,0.13-2.07,0.21-3.11,0.2
					c-5.33-0.03-10.64-0.09-15.97-0.15c-0.6-0.01-0.9,0.14-1.12,0.75c-1.03,2.83-2.14,5.63-3.21,8.44c-0.46,1.21-0.94,2.42-1.4,3.62
					c-0.06-0.01-0.11-0.01-0.16-0.02c-2.31-16.78-4.62-33.57-6.94-50.38c-0.25-0.02-0.44-0.05-0.64-0.05
					c-6.22,0-12.43,0.01-18.65-0.01c-0.54-0.01-0.71,0.28-0.92,0.67c-8.73,16.63-17.46,33.25-26.2,49.88
					c-0.15,0.29-0.29,0.6-0.47,0.96c0.23,0.03,0.35,0.05,0.47,0.05c5.62,0,11.25-0.01,16.86,0.01c0.44,0,0.6-0.19,0.76-0.54
					c1.28-2.84,2.58-5.67,3.86-8.5c0.2-0.43,0.4-0.64,0.92-0.64c4.06,0.03,8.12,0.01,12.18,0.02c0.22,0,0.43,0.03,0.65,0.05
					c0.22,2.92,0.45,5.78,0.62,8.64c0.04,0.77,0.26,0.98,1.03,0.98c5.75-0.07,11.48-0.12,17.23-0.12c3.63,0.01,7.27,0.17,10.91,0.2
					c3.84,0.03,7.68,0,11.51-0.07c3.03-0.05,6.03-0.41,8.95-1.22c4.05-1.12,7.45-3.16,9.58-6.94c1.35-2.4,2.08-5,2.52-7.71
					c0.35-2.24,0.45-4.47-0.09-6.7c-0.9-3.69-3.28-6.2-6.6-7.75c-2.45-1.15-5.06-1.93-7.63-2.84c-1.53-0.55-3.11-0.99-4.62-1.56
					c-0.99-0.37-1.26-1.05-0.79-1.95c0.21-0.4,0.73-0.77,1.17-0.88c0.76-0.2,1.57-0.26,2.35-0.25c5.25,0.03,10.49,0.07,15.74,0.16
					c0.73,0.01,1.09-0.18,1.34-0.89c0.75-2.04,1.57-4.05,2.37-6.08C308.19,137.51,309.08,135.26,309.99,132.94 M216.73,132.79h-0.96
					h-14.42c-8,0-16,0-24-0.01c-0.42,0-0.73-0.01-0.84,0.55c-1.22,6.33-2.46,12.66-3.7,18.98c-1.66,8.54-3.32,17.07-4.99,25.61
					c-0.41,2.1-0.82,4.21-1.25,6.41h0.8c12.22,0,24.42-0.01,36.63,0.02c0.62,0,0.85-0.22,1.05-0.75c1.51-4.02,3.05-8.04,4.57-12.06
					c0.12-0.33,0.24-0.68,0.39-1.15h-23.75c0.35-1.8,0.68-3.49,1.02-5.21h0.94c5.38,0,10.76-0.01,16.13,0.01
					c0.45,0,0.69-0.09,0.87-0.56c1.26-3.35,2.55-6.69,3.85-10.03c0.38-1.02,0.76-2.03,1.19-3.16h-20.31
					c0.28-1.39,0.57-2.66,0.76-3.95c0.1-0.66,0.38-0.81,1-0.81c6.24,0.02,12.49,0,18.73,0.03c0.73,0,1.08-0.18,1.34-0.89
					c1.45-3.89,2.96-7.75,4.45-11.62C216.38,133.78,216.53,133.34,216.73,132.79 M120.76,123.88c0.03-0.29,0.04-0.49,0.07-0.68
					c1.21-6.21,2.44-12.41,3.65-18.62c1.89-9.68,3.79-19.35,5.65-29.03c0.09-0.51,0.29-0.64,0.77-0.64
					c4.78,0.01,9.56,0.01,14.33-0.01c0.54,0,0.71,0.18,0.83,0.69c1.41,5.98,2.86,11.96,4.3,17.94c0.34,1.43,0.69,2.86,1.07,4.41
					c0.22-0.32,0.36-0.51,0.49-0.72c4.56-7.21,9.13-14.42,13.68-21.64c0.29-0.47,0.59-0.68,1.17-0.67c4.7,0.03,9.41,0.01,14.12,0.01
					c0.26,0,0.52,0.03,0.81,0.04c-1.6,8.21-3.19,16.34-4.77,24.47l0.2,0.09c0.46-0.75,1.31-1.14,1.51-2.17
					c1.22-6.46,2.51-12.9,3.77-19.36c0.28-1.42,0.54-2.84,0.83-4.3c-0.21-0.02-0.33-0.04-0.45-0.04c-5.65-0.01-11.3-0.01-16.95,0.02
					c-0.28,0-0.67,0.29-0.83,0.54c-4.2,6.59-8.37,13.2-12.55,19.8c-0.14,0.21-0.29,0.4-0.5,0.71c-1.72-7.13-3.38-14.09-5.05-21.05
					h-17.67c-3.35,17.16-6.69,34.31-10.05,51.49h16.17c1.55-7.88,3.08-15.73,4.66-23.75c0.1,0.39,0.18,0.59,0.22,0.81
					c0.64,2.86,1.31,5.73,1.91,8.6c0.12,0.62,0.37,0.73,0.93,0.73c3.89-0.03,7.78-0.02,11.67,0c0.5,0,0.79-0.15,1.06-0.59
					c1.69-2.82,3.42-5.61,5.14-8.42c0.14-0.24,0.31-0.47,0.47-0.71c0.05,0.02,0.09,0.04,0.13,0.05c-1.16,5.96-2.32,11.92-3.48,17.88
					c0.09,0.04,0.18,0.08,0.26,0.12c0.47-0.73,1.21-1.4,1.37-2.18c1.3-6.26,2.5-12.55,3.73-18.83c0.24-1.21,0.45-2.42,0.68-3.62
					c-0.27,0.16-0.39,0.37-0.52,0.57c-2.82,4.62-5.66,9.24-8.48,13.86c-0.26,0.43-0.54,0.6-1.05,0.6c-3.27-0.02-6.54-0.03-9.81,0.01
					c-0.73,0.01-1-0.22-1.16-0.92c-0.91-4.3-1.89-8.59-2.84-12.88c-0.07-0.29-0.18-0.59-0.26-0.88c-0.52,2.02-0.92,4.02-1.32,6.03
					c-1.4,7.17-2.81,14.35-4.19,21.53c-0.12,0.61-0.32,0.8-0.95,0.8c-3.98-0.03-7.97-0.02-11.96-0.02
					C121.32,123.91,121.08,123.89,120.76,123.88 M74.87,73.95c-0.82-0.05-1.55-0.1-2.29-0.12c-3.26-0.09-6.53-0.14-9.8-0.24
					c-5.52-0.17-11.04-0.07-16.47,1.09c-5.36,1.14-9.89,3.67-13.25,8.1c-2.6,3.43-4.17,7.34-5.24,11.46
					c-1.41,5.42-2.3,10.89-1.41,16.51c0.6,3.74,2.04,7.07,4.94,9.64c3.29,2.92,7.27,4.28,11.56,4.65c3.18,0.28,6.38,0.33,9.56,0.29
					c2.76-0.04,5.55-0.19,8.28-0.6c3.33-0.5,5.9-2.23,7.07-5.58c0.25-0.72,0.48-1.46,0.64-2.2c1.2-6.06,2.38-12.13,3.56-18.18
					c0.31-1.61,0.61-3.23,0.92-4.89c-0.24-0.02-0.41-0.04-0.58-0.04c-6.29-0.01-12.58,0-18.87-0.01c-0.45,0-0.65,0.16-0.81,0.56
					c-1.47,3.9-2.98,7.8-4.47,11.69c-0.07,0.17-0.1,0.35-0.16,0.62h6.05c-0.28,1.31-0.53,2.54-0.83,3.76
					c-0.04,0.16-0.34,0.34-0.53,0.35c-1.36,0.02-2.73,0.05-4.08-0.02c-2.79-0.14-4.27-1.4-4.8-3.96c-0.1-0.48-0.18-0.98-0.18-1.47
					c0.02-3.92,0.73-7.72,2.17-11.36c1.56-3.91,4.53-5.86,8.68-5.89c4.7-0.03,9.41,0.09,14.11,0.18c0.52,0.01,0.73-0.11,0.9-0.58
					c1.03-2.73,2.1-5.44,3.15-8.15C73.43,77.69,74.13,75.85,74.87,73.95 M83.25,125.11c0.21,0.05,0.28,0.07,0.35,0.07
					c5.5,0.01,11,0,16.5,0.02c0.46,0,0.56-0.21,0.64-0.61c1.08-5.65,2.17-11.31,3.29-16.95c0.23-1.14,0.32-2.29,1.09-3.32
					c7.45-9.9,14.85-19.86,22.27-29.79c0.2-0.26,0.37-0.52,0.62-0.86c-0.26-0.02-0.35-0.03-0.46-0.03c-6.16-0.01-12.34,0-18.5-0.02
					c-0.49,0-0.68,0.24-0.9,0.6c-2.88,4.78-5.78,9.56-8.67,14.35c-0.34,0.56-0.69,1.11-1.13,1.83c-1.13-5.7-2.22-11.21-3.31-16.7
					h-19.1c0.1,0.33,0.18,0.58,0.27,0.84c3.56,9.92,7.13,19.84,10.68,29.77c0.15,0.42,0.21,0.92,0.13,1.35
					c-0.94,4.93-1.9,9.85-2.86,14.77C83.87,121.98,83.56,123.52,83.25,125.11 M315.95,184.3h17.66c2.4-12.32,4.8-24.6,7.21-36.92
					h0.89c3.79,0,7.57-0.01,11.37,0.01c0.51,0,0.72-0.16,0.9-0.63c1.65-4.4,3.33-8.77,5-13.16c0.09-0.24,0.16-0.49,0.24-0.78
					c-0.28-0.01-0.45-0.03-0.62-0.03c-14.98,0-29.97,0-44.96-0.01c-0.48,0-0.68,0.16-0.85,0.6c-1.62,4.28-3.26,8.55-4.88,12.81
					c-0.07,0.2-0.1,0.4-0.18,0.64c5.18,0.18,10.26,0.37,15.41,0.55C320.74,159.71,318.36,171.97,315.95,184.3 M46.27,108.21
					c-0.02,0.06-0.05,0.12-0.07,0.19c0.43,0.2,0.83,0.52,1.27,0.58c1.22,0.16,2.45,0.24,3.67,0.3c0.96,0.05,1.02-0.07,0.93-1.07
					H46.27z"/>
			</g>
			<g>
				<path class="st0" d="M309.99,132.94c-0.91,2.32-1.79,4.57-2.67,6.82c-0.8,2.02-1.62,4.04-2.37,6.07
					c-0.26,0.71-0.61,0.9-1.34,0.89c-5.24-0.08-10.49-0.12-15.74-0.16c-0.79,0-1.59,0.05-2.35,0.25c-0.45,0.12-0.97,0.48-1.18,0.88
					c-0.48,0.9-0.2,1.58,0.79,1.95c1.52,0.58,3.1,1.02,4.62,1.56c2.56,0.92,5.18,1.7,7.63,2.84c3.32,1.55,5.7,4.06,6.6,7.75
					c0.54,2.23,0.43,4.46,0.08,6.71c-0.43,2.71-1.17,5.31-2.52,7.7c-2.12,3.79-5.53,5.83-9.58,6.95c-2.92,0.81-5.92,1.16-8.95,1.22
					c-3.83,0.07-7.67,0.09-11.51,0.07c-3.64-0.03-7.27-0.19-10.91-0.2c-5.75-0.01-11.48,0.05-17.23,0.11
					c-0.77,0.01-0.98-0.21-1.03-0.97c-0.16-2.86-0.4-5.72-0.62-8.64c-0.23-0.02-0.44-0.05-0.66-0.05c-4.06,0-8.12,0.01-12.18-0.01
					c-0.52-0.01-0.73,0.2-0.92,0.63c-1.28,2.84-2.57,5.67-3.85,8.5c-0.16,0.35-0.33,0.54-0.77,0.54
					c-5.61-0.01-11.23-0.01-16.86-0.01c-0.11,0-0.24-0.03-0.46-0.05c0.18-0.36,0.32-0.67,0.47-0.96
					c8.73-16.63,17.47-33.25,26.2-49.88c0.2-0.39,0.37-0.67,0.92-0.67c6.22,0.03,12.43,0.01,18.65,0.01c0.2,0,0.39,0.03,0.64,0.05
					c2.32,16.81,4.62,33.59,6.94,50.37c0.06,0.01,0.1,0.02,0.16,0.03c0.46-1.21,0.93-2.42,1.4-3.62c1.07-2.81,2.17-5.62,3.21-8.45
					c0.22-0.6,0.52-0.75,1.12-0.74c5.33,0.07,10.64,0.12,15.97,0.14c1.03,0.01,2.08-0.07,3.11-0.2c1.3-0.17,2.02-1.18,1.71-2.44
					c-0.1-0.38-0.53-0.81-0.91-0.95c-1.47-0.56-3-0.98-4.49-1.5c-2.63-0.92-5.33-1.71-7.85-2.86c-3.18-1.45-5.54-3.79-6.46-7.32
					c-0.52-2.02-0.47-4.07-0.21-6.12c0.37-2.84,1.04-5.59,2.58-8.05c2.46-3.94,6.09-6.27,10.52-7.26c2.69-0.6,5.47-1.02,8.21-1.07
					c6.61-0.13,13.21,0,19.82,0.03C308.44,132.84,309.15,132.9,309.99,132.94 M258.5,183.02c-0.05-0.45-0.08-0.84-0.14-1.22
					c-0.72-5.21-1.45-10.42-2.17-15.64c-0.71-5.22-1.42-10.44-2.14-15.65c-0.72-5.27-1.47-10.53-2.17-15.79
					c-0.07-0.52-0.26-0.65-0.74-0.65c-5.6,0.01-11.2,0.01-16.79,0c-0.43,0-0.66,0.16-0.86,0.53c-8.19,15.62-16.4,31.24-24.6,46.86
					c-0.26,0.49-0.5,1-0.79,1.54c0.22,0.03,0.34,0.07,0.45,0.07c4.66,0,9.32-0.01,13.97,0.01c0.48,0.01,0.64-0.25,0.8-0.61
					c1.26-2.78,2.55-5.57,3.8-8.37c0.21-0.48,0.46-0.64,0.98-0.64c4.68,0.03,9.36,0.01,14.03,0.01h0.67
					c0.05,0.2,0.11,0.34,0.12,0.48c0.2,2.76,0.43,5.52,0.58,8.29c0.04,0.63,0.18,0.85,0.85,0.84c4.45-0.03,8.92-0.01,13.37-0.02
					C257.97,183.06,258.22,183.04,258.5,183.02 M261.39,183.13c1.84,0,3.52,0,5.2,0c5,0.01,10,0.05,15,0.03
					c3.37-0.01,6.71-0.34,9.98-1.21c5.02-1.33,8.54-4.3,10.19-9.33c0.7-2.12,1.13-4.29,1.28-6.52c0.27-4.06-0.99-7.43-4.41-9.85
					c-2.39-1.68-5.12-2.54-7.85-3.41c-2.12-0.67-4.23-1.36-6.31-2.11c-1.15-0.42-1.66-1.31-1.56-2.57c0.1-1.17,0.68-2.1,1.84-2.42
					c0.97-0.28,1.99-0.45,2.99-0.45c5.08,0.01,10.15,0.07,15.23,0.14c0.54,0.01,0.83-0.12,1.03-0.67c1.12-2.93,2.29-5.84,3.43-8.76
					c0.24-0.6,0.47-1.21,0.77-2c-1.83,0-3.49,0-5.14-0.01c-4.7-0.01-9.41-0.07-14.11-0.02c-3.16,0.02-6.32,0.33-9.39,1.19
					c-4.43,1.25-7.97,3.68-10.02,7.94c-1.31,2.74-1.82,5.69-1.89,8.7c-0.08,3.87,1.52,6.87,4.83,8.94c2.06,1.29,4.31,2.07,6.6,2.78
					c2.34,0.73,4.68,1.42,6.98,2.24c1.38,0.48,1.84,1.36,1.78,2.68c-0.07,1.47-0.84,2.62-2.14,2.97c-0.85,0.23-1.75,0.38-2.63,0.38
					c-4.38,0.01-8.76-0.03-13.14-0.05c-1.38-0.01-2.76,0-4.19,0C264.31,175.47,262.9,179.17,261.39,183.13"/>
				<path class="st0" d="M274.29,184.47c-0.92,0-1.85,0-2.79-0.01c-1.7-0.01-3.42-0.06-5.09-0.1c-1.91-0.05-3.88-0.1-5.82-0.1
					c-5.74-0.01-11.43,0.05-17.23,0.11c-0.01,0-0.02,0-0.03,0c-0.74,0-0.96-0.22-1.01-0.98c-0.12-2.13-0.28-4.22-0.45-6.42
					c-0.05-0.72-0.11-1.47-0.17-2.21c-0.07-0.01-0.14-0.01-0.2-0.02c-0.15-0.02-0.3-0.03-0.44-0.03c-1.02,0-2.04,0-3.06,0
					c-2.99,0-6.08,0-9.13-0.01c-0.01,0-0.02,0-0.02,0c-0.51,0-0.7,0.21-0.89,0.62c-0.64,1.43-1.3,2.88-1.94,4.28
					c-0.63,1.38-1.28,2.81-1.91,4.22c-0.17,0.36-0.33,0.54-0.78,0.54c-5.61-0.01-11.33-0.01-16.86-0.01c-0.07,0-0.15-0.01-0.25-0.02
					c-0.06-0.01-0.13-0.02-0.22-0.03l-0.02,0l0.01-0.02c0.06-0.13,0.12-0.25,0.18-0.37c0.1-0.21,0.2-0.4,0.29-0.59
					c2.48-4.72,4.96-9.44,7.44-14.16c6.15-11.71,12.51-23.82,18.76-35.73c0.21-0.41,0.39-0.68,0.93-0.68
					c4.66,0.02,9.39,0.02,13.97,0.01c1.56,0,3.12,0,4.68,0c0.13,0,0.25,0.01,0.38,0.03c0.08,0.01,0.16,0.02,0.25,0.02l0.01,0l0,0.01
					c1.3,9.44,2.62,19.02,3.9,28.28c1.01,7.36,2.03,14.72,3.04,22.08c0.05,0.01,0.09,0.02,0.14,0.02c0.33-0.88,0.68-1.77,1.01-2.64
					c0.13-0.33,0.25-0.65,0.38-0.98c0.28-0.74,0.57-1.49,0.85-2.22c0.78-2.04,1.6-4.15,2.36-6.23c0.21-0.57,0.49-0.76,1.13-0.75
					c6.07,0.07,11.14,0.12,15.97,0.14c1,0.01,2.05-0.06,3.1-0.2c0.63-0.08,1.15-0.38,1.46-0.82c0.3-0.44,0.38-1.01,0.24-1.6
					c-0.09-0.36-0.51-0.79-0.9-0.94c-0.84-0.32-1.71-0.59-2.55-0.86c-0.64-0.2-1.3-0.41-1.94-0.64c-0.69-0.24-1.39-0.47-2.06-0.7
					c-1.93-0.64-3.92-1.31-5.79-2.16c-3.43-1.56-5.61-4.03-6.47-7.33c-0.46-1.78-0.52-3.66-0.21-6.12c0.44-3.42,1.24-5.91,2.58-8.06
					c2.36-3.79,5.91-6.23,10.53-7.26c2.94-0.66,5.71-1.02,8.22-1.07c4.81-0.1,9.69-0.05,14.42-0.01c1.77,0.02,3.6,0.03,5.41,0.04
					c0.48,0,0.95,0.03,1.46,0.06c0.26,0.01,0.53,0.03,0.81,0.04l0.02,0l-0.01,0.02c-0.39,1-0.78,1.99-1.17,2.98
					c-0.49,1.26-1.01,2.57-1.51,3.84c-0.21,0.53-0.42,1.06-0.63,1.58c-0.59,1.47-1.19,2.99-1.74,4.49c-0.24,0.67-0.57,0.9-1.29,0.9
					c-0.02,0-0.04,0-0.06,0c-4.61-0.07-9.61-0.12-15.74-0.16c-0.95,0-1.69,0.08-2.34,0.25c-0.47,0.12-0.97,0.5-1.17,0.88
					c-0.23,0.44-0.29,0.82-0.16,1.14c0.13,0.34,0.44,0.6,0.94,0.79c0.85,0.32,1.74,0.61,2.6,0.89c0.67,0.21,1.36,0.44,2.02,0.67
					c0.7,0.25,1.41,0.49,2.1,0.73c1.84,0.63,3.74,1.28,5.53,2.11c3.53,1.64,5.75,4.25,6.6,7.76c0.47,1.94,0.49,4.07,0.09,6.71
					c-0.49,3.08-1.29,5.53-2.52,7.71c-1.01,1.8-2.38,3.31-4.07,4.48c-1.54,1.07-3.34,1.88-5.51,2.48c-2.74,0.76-5.67,1.16-8.95,1.22
					C280.19,184.44,277.31,184.47,274.29,184.47z M258.93,184.24c0.55,0,1.11,0,1.66,0c1.94,0,3.91,0.05,5.82,0.1
					c1.67,0.04,3.39,0.08,5.09,0.1c4.07,0.02,7.83,0,11.51-0.07c3.28-0.06,6.2-0.46,8.95-1.22c4.52-1.25,7.65-3.52,9.57-6.94
					c1.22-2.17,2.02-4.62,2.51-7.7c0.41-2.64,0.38-4.77-0.08-6.7c-0.85-3.5-3.07-6.1-6.59-7.74c-1.78-0.83-3.69-1.48-5.53-2.11
					c-0.69-0.24-1.4-0.48-2.1-0.73c-0.67-0.24-1.36-0.46-2.02-0.67c-0.86-0.28-1.75-0.56-2.6-0.89c-0.51-0.19-0.83-0.46-0.96-0.8
					c-0.12-0.33-0.07-0.72,0.17-1.17c0.2-0.38,0.71-0.77,1.19-0.89c0.65-0.17,1.4-0.25,2.35-0.25c6.13,0.04,11.13,0.09,15.74,0.16
					c0.02,0,0.04,0,0.07,0c0.71,0,1.03-0.22,1.26-0.88c0.55-1.51,1.16-3.03,1.74-4.49c0.21-0.52,0.42-1.05,0.63-1.58
					c0.5-1.28,1.01-2.58,1.51-3.84c0.38-0.98,0.77-1.96,1.16-2.96c-0.28-0.01-0.54-0.03-0.79-0.04c-0.5-0.03-0.98-0.06-1.46-0.06
					c-1.8-0.01-3.64-0.03-5.41-0.04c-4.72-0.04-9.61-0.09-14.42,0.01c-2.51,0.05-5.27,0.41-8.21,1.07
					c-4.62,1.03-8.15,3.47-10.51,7.25c-1.34,2.15-2.14,4.63-2.58,8.05c-0.31,2.46-0.25,4.34,0.21,6.11
					c0.86,3.29,3.03,5.75,6.45,7.31c1.87,0.85,3.86,1.51,5.78,2.16c0.68,0.23,1.38,0.46,2.06,0.7c0.64,0.23,1.3,0.44,1.94,0.64
					c0.84,0.27,1.71,0.54,2.55,0.86c0.4,0.15,0.82,0.59,0.92,0.96c0.15,0.6,0.06,1.18-0.24,1.62c-0.31,0.45-0.84,0.75-1.48,0.84
					c-1.06,0.14-2.1,0.21-3.11,0.2c-4.83-0.02-9.91-0.07-15.97-0.14c-0.02,0-0.04,0-0.06,0c-0.58,0-0.85,0.19-1.04,0.73
					c-0.76,2.09-1.57,4.19-2.36,6.23c-0.28,0.73-0.57,1.48-0.85,2.22c-0.13,0.33-0.25,0.65-0.38,0.98
					c-0.34,0.87-0.68,1.76-1.02,2.64l0,0.01l-0.01,0c-0.06-0.01-0.1-0.01-0.17-0.03l-0.01,0l0-0.01
					c-1.01-7.36-2.03-14.72-3.04-22.08c-1.28-9.26-2.59-18.84-3.89-28.27c-0.09-0.01-0.17-0.02-0.24-0.02
					c-0.14-0.01-0.26-0.03-0.38-0.03c-1.56,0-3.12,0-4.68,0c-4.58,0-9.31,0-13.97-0.01c-0.52,0-0.69,0.25-0.91,0.66
					c-6.25,11.91-12.61,24.02-18.76,35.73c-2.48,4.72-4.96,9.44-7.44,14.16c-0.1,0.19-0.19,0.38-0.29,0.59
					c-0.05,0.11-0.11,0.23-0.17,0.35c0.08,0.01,0.14,0.02,0.2,0.03c0.1,0.01,0.18,0.02,0.25,0.02c5.53,0,11.25,0,16.86,0.01
					c0.43,0,0.59-0.18,0.75-0.53c0.63-1.41,1.28-2.84,1.91-4.22c0.64-1.4,1.3-2.86,1.94-4.28c0.19-0.41,0.39-0.64,0.91-0.64
					c0.01,0,0.02,0,0.02,0c3.04,0.02,6.13,0.02,9.13,0.01c1.02,0,2.04,0,3.06,0c0.15,0,0.29,0.02,0.45,0.03
					c0.07,0.01,0.14,0.01,0.21,0.02l0.01,0l0,0.01c0.05,0.74,0.11,1.49,0.17,2.22c0.17,2.21,0.33,4.29,0.45,6.42
					c0.05,0.75,0.25,0.96,0.98,0.96c0.01,0,0.02,0,0.04,0C248.61,184.29,253.75,184.24,258.93,184.24z M278.68,183.18
					c-2.51,0-5.03-0.01-7.48-0.02c-1.51-0.01-3.08-0.01-4.61-0.02h-5.22l0.01-0.02c1.54-4.02,2.96-7.76,4.34-11.37l0-0.01h0.01
					c0.48,0,0.95,0,1.42,0c0.95,0,1.85,0,2.77,0c1.19,0.01,2.38,0.01,3.57,0.02c3.14,0.02,6.39,0.04,9.57,0.03
					c0.81,0,1.69-0.13,2.62-0.38c1.26-0.34,2.06-1.44,2.13-2.96c0.07-1.39-0.48-2.21-1.77-2.67c-1.84-0.65-3.73-1.24-5.57-1.8
					c-0.47-0.15-0.94-0.29-1.41-0.44c-2.18-0.68-4.48-1.45-6.6-2.79c-1.64-1.03-2.89-2.31-3.69-3.8c-0.8-1.49-1.18-3.22-1.15-5.15
					c0.07-3.35,0.69-6.2,1.89-8.7c0.99-2.05,2.37-3.77,4.12-5.1c1.62-1.24,3.6-2.19,5.9-2.84c2.77-0.78,5.85-1.17,9.4-1.19
					c3.13-0.03,6.31-0.01,9.39,0c1.55,0.01,3.14,0.02,4.72,0.02c1.65,0.01,3.35,0.01,5.14,0.01h0.02l-0.19,0.5
					c-0.21,0.56-0.4,1.05-0.58,1.53c-0.39,0.99-0.78,1.99-1.17,2.97c-0.75,1.9-1.52,3.86-2.26,5.79c-0.21,0.56-0.52,0.68-1,0.68
					c-0.01,0-0.03,0-0.04,0c-4.89-0.07-10.09-0.14-15.23-0.14c-0.94,0-1.94,0.15-2.98,0.44c-1.07,0.3-1.72,1.15-1.83,2.41
					c-0.1,1.29,0.42,2.15,1.55,2.56c2.12,0.76,4.28,1.46,6.31,2.11l0.17,0.05c2.63,0.84,5.35,1.7,7.69,3.36
					c1.66,1.18,2.87,2.63,3.59,4.32c0.68,1.59,0.96,3.46,0.82,5.55c-0.15,2.2-0.58,4.4-1.28,6.53c-0.81,2.46-2.1,4.5-3.84,6.06
					c-1.67,1.5-3.82,2.61-6.37,3.28c-3.01,0.8-6.28,1.19-9.99,1.21C280.62,183.18,279.65,183.18,278.68,183.18z M261.4,183.12h5.18
					c1.54,0,3.1,0.01,4.61,0.02c3.4,0.01,6.92,0.03,10.39,0.02c3.7-0.01,6.97-0.41,9.98-1.2c5.18-1.37,8.6-4.51,10.18-9.32
					c0.7-2.13,1.14-4.32,1.28-6.52c0.29-4.32-1.15-7.54-4.4-9.84c-2.34-1.65-5.06-2.51-7.68-3.35l-0.17-0.05
					c-2.03-0.65-4.19-1.34-6.32-2.11c-0.57-0.21-0.99-0.54-1.25-0.98c-0.26-0.43-0.36-0.97-0.31-1.61c0.11-1.27,0.77-2.14,1.85-2.44
					c1.04-0.3,2.05-0.45,2.99-0.45c5.14,0.01,10.34,0.07,15.23,0.14c0.51,0.01,0.8-0.09,1.02-0.66c0.74-1.94,1.51-3.9,2.26-5.79
					c0.38-0.97,0.78-1.98,1.17-2.97c0.19-0.48,0.37-0.96,0.58-1.53l0.18-0.46c-1.79,0-3.48,0-5.12-0.01c-1.57,0-3.17-0.01-4.72-0.02
					c-3.08-0.02-6.26-0.03-9.39,0c-3.55,0.02-6.62,0.41-9.39,1.19c-4.82,1.36-8.1,3.96-10.01,7.93c-1.2,2.5-1.81,5.34-1.89,8.69
					c-0.08,3.87,1.54,6.88,4.82,8.93c2.12,1.33,4.42,2.1,6.59,2.78c0.47,0.15,0.94,0.29,1.41,0.44c1.84,0.57,3.73,1.15,5.57,1.8
					c1.3,0.46,1.85,1.29,1.78,2.69c-0.07,1.53-0.88,2.64-2.15,2.98c-0.94,0.25-1.82,0.38-2.63,0.38c-3.19,0.01-6.43-0.01-9.57-0.03
					c-1.19-0.01-2.38-0.01-3.57-0.02c-0.92,0-1.82,0-2.77,0c-0.47,0-0.94,0-1.41,0C264.36,175.38,262.94,179.11,261.4,183.12z
					 M244.34,183.09c-0.67,0-0.79-0.25-0.83-0.85c-0.12-2.12-0.28-4.27-0.44-6.35c-0.05-0.64-0.1-1.29-0.14-1.93
					c0-0.1-0.03-0.19-0.07-0.3c-0.02-0.05-0.03-0.11-0.05-0.17h-0.66c-1.16,0-2.33,0-3.49,0c-3.46,0-7.03,0-10.54-0.01
					c-0.52,0-0.76,0.16-0.97,0.63c-0.83,1.85-1.69,3.73-2.52,5.55c-0.42,0.92-0.86,1.88-1.28,2.81c-0.16,0.36-0.32,0.62-0.79,0.62
					c-0.01,0-0.01,0-0.02,0c-3.72-0.02-7.51-0.01-11.18-0.01c-0.93,0-1.86,0-2.79,0c-0.07,0-0.15-0.01-0.26-0.03
					c-0.06-0.01-0.12-0.02-0.2-0.03l-0.02,0l0.01-0.02c0.14-0.27,0.27-0.53,0.4-0.78c0.13-0.26,0.26-0.51,0.39-0.76
					c1.76-3.36,3.53-6.71,5.29-10.07c6.33-12.06,12.88-24.52,19.31-36.79c0.2-0.39,0.45-0.54,0.87-0.54
					c5.57,0.01,11.22,0.01,16.79,0c0.51,0,0.68,0.15,0.75,0.66c0.44,3.33,0.91,6.71,1.37,9.98c0.26,1.91,0.54,3.88,0.8,5.82
					c0.39,2.86,0.79,5.77,1.17,8.58c0.32,2.36,0.64,4.71,0.96,7.07c0.43,3.11,0.87,6.26,1.29,9.32c0.29,2.07,0.59,4.21,0.88,6.32
					c0.04,0.24,0.06,0.48,0.09,0.73c0.02,0.16,0.03,0.32,0.05,0.49l0,0.01l-0.08,0.01c-0.25,0.02-0.48,0.03-0.69,0.03
					c-1.49,0-3.01,0-4.47,0c-2.92,0-5.93,0-8.9,0.02C244.36,183.09,244.35,183.09,244.34,183.09z M242.15,173.46h0.68l0,0.01
					c0.02,0.07,0.03,0.12,0.05,0.18c0.03,0.11,0.06,0.21,0.07,0.31c0.05,0.64,0.1,1.29,0.14,1.93c0.16,2.08,0.32,4.23,0.44,6.36
					c0.04,0.61,0.17,0.83,0.8,0.83c0.01,0,0.02,0,0.03,0c2.96-0.02,5.98-0.02,8.9-0.02c1.47,0,2.98,0,4.47,0
					c0.22,0,0.45-0.02,0.69-0.03l0.05,0c-0.02-0.17-0.04-0.33-0.05-0.48c-0.03-0.25-0.05-0.49-0.09-0.73
					c-0.29-2.11-0.59-4.25-0.88-6.32c-0.43-3.05-0.86-6.21-1.29-9.32c-0.32-2.36-0.64-4.72-0.96-7.07
					c-0.38-2.81-0.78-5.72-1.17-8.58c-0.27-1.94-0.54-3.91-0.8-5.82c-0.45-3.27-0.92-6.65-1.37-9.98c-0.07-0.49-0.23-0.64-0.73-0.64
					c-5.57,0.01-11.22,0.01-16.79,0c-0.42,0-0.65,0.14-0.85,0.52c-6.43,12.27-12.98,24.73-19.31,36.79
					c-1.76,3.36-3.53,6.71-5.29,10.07c-0.13,0.25-0.25,0.5-0.39,0.76c-0.12,0.25-0.25,0.5-0.39,0.76c0.07,0.01,0.13,0.02,0.18,0.03
					c0.11,0.02,0.18,0.03,0.25,0.03c0.93,0,1.86,0,2.79,0c3.66,0,7.45,0,11.18,0.01c0.01,0,0.01,0,0.02,0c0.46,0,0.6-0.24,0.77-0.6
					c0.43-0.94,0.86-1.89,1.28-2.81c0.83-1.82,1.69-3.7,2.52-5.55c0.21-0.49,0.46-0.65,0.99-0.65c3.51,0.02,7.09,0.02,10.54,0.01
					C239.82,173.46,240.98,173.46,242.15,173.46z"/>
			</g>
			<g>
				<path class="st0" d="M120.76,123.87c0.32,0.01,0.56,0.04,0.81,0.04c3.98,0,7.98-0.02,11.96,0.01c0.63,0.01,0.83-0.19,0.95-0.79
					c1.38-7.18,2.79-14.36,4.19-21.53c0.39-2,0.79-4,1.32-6.03c0.08,0.29,0.18,0.58,0.26,0.88c0.95,4.29,1.93,8.58,2.84,12.88
					c0.16,0.71,0.43,0.94,1.16,0.92c3.27-0.04,6.54-0.03,9.81-0.01c0.51,0.01,0.8-0.16,1.05-0.59c2.82-4.62,5.65-9.24,8.48-13.86
					c0.13-0.2,0.26-0.41,0.52-0.58c-0.23,1.21-0.45,2.42-0.68,3.63c-1.23,6.28-2.42,12.56-3.73,18.83c-0.16,0.79-0.9,1.46-1.37,2.19
					c-0.09-0.05-0.17-0.09-0.26-0.13c1.16-5.95,2.32-11.92,3.48-17.87c-0.05-0.02-0.09-0.04-0.13-0.05
					c-0.16,0.24-0.33,0.47-0.47,0.71c-1.72,2.8-3.45,5.6-5.14,8.42c-0.27,0.45-0.56,0.59-1.06,0.59c-3.89-0.02-7.78-0.02-11.67,0
					c-0.56,0.01-0.81-0.1-0.93-0.72c-0.6-2.88-1.26-5.74-1.91-8.61c-0.05-0.21-0.12-0.42-0.22-0.81
					c-1.58,8.02-3.11,15.88-4.66,23.76h-16.17c3.35-17.18,6.69-34.33,10.05-51.5h17.67c1.67,6.96,3.33,13.92,5.05,21.05
					c0.22-0.31,0.37-0.5,0.5-0.71c4.18-6.6,8.35-13.21,12.55-19.8c0.16-0.26,0.55-0.54,0.83-0.54c5.65-0.03,11.29-0.02,16.95-0.02
					c0.11,0,0.24,0.02,0.45,0.05c-0.28,1.45-0.55,2.88-0.83,4.3c-1.26,6.45-2.55,12.89-3.77,19.35c-0.2,1.04-1.05,1.42-1.51,2.17
					l-0.19-0.09c1.58-8.12,3.17-16.25,4.77-24.47c-0.29-0.01-0.56-0.03-0.81-0.03c-4.71-0.01-9.42,0.01-14.12-0.02
					c-0.58-0.01-0.87,0.2-1.17,0.67c-4.55,7.22-9.12,14.43-13.68,21.64c-0.13,0.2-0.27,0.4-0.49,0.72
					c-0.38-1.55-0.73-2.98-1.07-4.41c-1.43-5.98-2.88-11.96-4.3-17.94c-0.11-0.5-0.29-0.69-0.83-0.69
					c-4.78,0.03-9.56,0.02-14.33,0.01c-0.48,0-0.68,0.12-0.77,0.64c-1.87,9.68-3.76,19.36-5.65,29.03
					c-1.21,6.21-2.44,12.41-3.65,18.62C120.8,123.38,120.79,123.59,120.76,123.87"/>
				<path class="st0" d="M135.36,125.17h-16.2l0-0.02c1.3-6.67,2.6-13.34,3.9-20.01c2.01-10.32,4.09-20.99,6.15-31.49l0-0.01h17.7
					l0,0.01c0.56,2.33,1.12,4.66,1.68,6.99c1.1,4.57,2.23,9.3,3.37,14.03c0.09-0.12,0.16-0.23,0.23-0.32
					c0.1-0.13,0.18-0.25,0.26-0.36c1.26-1.99,2.52-3.98,3.78-5.96c2.87-4.54,5.84-9.23,8.78-13.84c0.17-0.26,0.55-0.55,0.84-0.55
					c4.72-0.02,9.52-0.02,14.16-0.02c0.93,0,1.86,0,2.79,0c0.09,0,0.19,0.01,0.33,0.03c0.04,0,0.07,0.01,0.12,0.01l0.01,0l0,0.01
					c-0.14,0.73-0.28,1.47-0.42,2.18c-0.13,0.69-0.27,1.41-0.41,2.12c-0.38,1.96-0.78,3.96-1.16,5.89
					c-0.87,4.41-1.76,8.97-2.61,13.46c-0.13,0.66-0.52,1.06-0.9,1.45c-0.22,0.22-0.44,0.45-0.61,0.73l-0.01,0.01l-0.21-0.09l0-0.01
					c0.8-4.13,1.62-8.33,2.42-12.4c0.77-3.94,1.56-8.02,2.35-12.06c-0.08,0-0.16-0.01-0.24-0.01c-0.19-0.01-0.38-0.02-0.56-0.02
					c-1.58,0-3.18,0-4.73,0c-3.08,0-6.26,0-9.39-0.02c-0.54-0.01-0.84,0.17-1.15,0.67c-3.29,5.22-6.65,10.53-9.89,15.66
					c-1.26,2-2.52,3.99-3.79,5.99c-0.12,0.18-0.24,0.35-0.42,0.62l-0.09,0.13l-0.01-0.03c-0.32-1.3-0.69-2.84-1.07-4.41
					c-0.41-1.72-0.82-3.43-1.24-5.15c-1.01-4.19-2.05-8.53-3.06-12.8c-0.12-0.52-0.31-0.68-0.81-0.68
					c-4.9,0.03-9.79,0.02-14.33,0.01c-0.5,0-0.67,0.15-0.76,0.62c-1.8,9.35-3.63,18.68-5.65,29.03c-0.7,3.61-1.42,7.28-2.12,10.82
					c-0.5,2.55-1.02,5.2-1.53,7.79c-0.02,0.11-0.03,0.23-0.04,0.37c-0.01,0.09-0.02,0.19-0.03,0.3c0.13,0.01,0.24,0.01,0.34,0.02
					c0.16,0.01,0.3,0.02,0.45,0.02c1.08,0,2.17,0,3.25,0c2.86,0,5.81-0.01,8.71,0.02c0.61,0.01,0.82-0.17,0.94-0.78
					c1.15-5.96,2.33-12.02,3.48-17.89c0.24-1.22,0.48-2.43,0.71-3.65c0.38-1.96,0.78-3.98,1.32-6.03l0.01-0.05l0.01,0.05
					c0.04,0.13,0.08,0.27,0.12,0.39c0.05,0.16,0.1,0.32,0.14,0.48c0.27,1.21,0.54,2.44,0.81,3.62c0.68,3.03,1.38,6.17,2.03,9.26
					c0.16,0.71,0.42,0.93,1.15,0.91c3.34-0.04,6.68-0.03,9.81-0.01c0.01,0,0.02,0,0.03,0c0.48,0,0.76-0.16,1.01-0.58
					c2.85-4.67,5.71-9.34,8.48-13.86l0.02-0.04c0.12-0.19,0.25-0.39,0.51-0.55l0.03-0.02l-0.01,0.03c-0.09,0.47-0.18,0.94-0.26,1.4
					c-0.14,0.73-0.27,1.49-0.42,2.23c-0.33,1.66-0.65,3.35-0.97,4.98c-0.88,4.54-1.8,9.24-2.76,13.85c-0.11,0.55-0.5,1.04-0.87,1.52
					c-0.17,0.22-0.35,0.45-0.5,0.68l-0.01,0.01l-0.01-0.01c-0.06-0.03-0.11-0.06-0.17-0.09c-0.03-0.01-0.06-0.03-0.09-0.04l-0.01,0
					l0-0.01c0.59-3.04,1.18-6.08,1.77-9.12c0.57-2.91,1.13-5.83,1.7-8.74c-0.01,0-0.01-0.01-0.02-0.01
					c-0.03-0.01-0.06-0.03-0.09-0.04c-0.05,0.07-0.09,0.14-0.14,0.2c-0.11,0.16-0.23,0.33-0.33,0.5c-0.29,0.47-0.58,0.94-0.87,1.41
					c-1.41,2.29-2.87,4.66-4.27,7.01c-0.26,0.43-0.55,0.6-1.07,0.6c-3.87-0.02-7.8-0.02-11.67,0c-0.55,0.01-0.82-0.1-0.94-0.73
					c-0.44-2.14-0.93-4.31-1.41-6.41c-0.16-0.72-0.33-1.47-0.5-2.2c-0.03-0.12-0.06-0.24-0.11-0.4c-0.03-0.1-0.06-0.21-0.1-0.35
					c-0.96,4.9-1.92,9.81-2.85,14.55c-0.6,3.05-1.19,6.1-1.79,9.15L135.36,125.17z M119.19,125.14h16.15
					c0.6-3.05,1.19-6.09,1.79-9.14c0.93-4.76,1.9-9.69,2.86-14.61l0.01-0.06l0.01,0.05c0.04,0.16,0.08,0.29,0.11,0.41
					c0.05,0.16,0.08,0.28,0.11,0.4c0.16,0.73,0.33,1.48,0.5,2.2c0.47,2.1,0.97,4.26,1.41,6.41c0.13,0.62,0.37,0.72,0.92,0.71
					c3.87-0.02,7.8-0.02,11.67,0c0.51,0,0.79-0.16,1.05-0.58c1.41-2.34,2.86-4.71,4.27-7.01c0.29-0.47,0.58-0.94,0.87-1.41
					c0.1-0.17,0.22-0.34,0.33-0.5c0.05-0.07,0.1-0.14,0.14-0.21l0.01-0.01l0.01,0c0.04,0.01,0.07,0.02,0.1,0.04
					c0.01,0,0.02,0.01,0.03,0.01l0.01,0l0,0.01c-0.57,2.92-1.14,5.83-1.7,8.75c-0.59,3.04-1.18,6.07-1.77,9.11
					c0.03,0.01,0.05,0.03,0.08,0.04c0.06,0.03,0.11,0.05,0.16,0.08c0.15-0.23,0.32-0.45,0.49-0.67c0.37-0.47,0.76-0.97,0.87-1.51
					c0.96-4.61,1.87-9.31,2.76-13.85c0.32-1.63,0.65-3.32,0.97-4.98c0.14-0.74,0.28-1.49,0.42-2.22c0.08-0.45,0.17-0.92,0.26-1.37
					c-0.23,0.15-0.35,0.34-0.47,0.52l-0.02,0.04c-2.77,4.52-5.63,9.19-8.48,13.86c-0.26,0.43-0.55,0.6-1.04,0.6
					c-0.01,0-0.02,0-0.03,0c-3.13-0.02-6.46-0.03-9.81,0.01c-0.74,0.01-1.01-0.21-1.17-0.93c-0.65-3.09-1.35-6.22-2.03-9.26
					c-0.26-1.19-0.54-2.42-0.81-3.62c-0.04-0.16-0.09-0.32-0.14-0.48c-0.04-0.11-0.07-0.23-0.1-0.35c-0.53,2.03-0.92,4.04-1.3,5.98
					c-0.24,1.22-0.48,2.43-0.71,3.65c-1.15,5.86-2.33,11.92-3.48,17.89c-0.12,0.61-0.34,0.8-0.93,0.8c-0.01,0-0.02,0-0.03,0
					c-2.9-0.02-5.85-0.02-8.71-0.02c-1.08,0-2.17,0-3.25,0c-0.14,0-0.28-0.01-0.45-0.02c-0.11-0.01-0.23-0.01-0.36-0.02l-0.01,0
					l0-0.01c0.01-0.12,0.02-0.22,0.03-0.31c0.01-0.14,0.02-0.26,0.04-0.37c0.51-2.6,1.03-5.24,1.53-7.79
					c0.7-3.55,1.42-7.21,2.12-10.82c2.03-10.35,3.85-19.68,5.65-29.03c0.09-0.5,0.27-0.65,0.79-0.65c4.55,0.01,9.43,0.02,14.33-0.01
					c0.52,0,0.72,0.17,0.84,0.7c1.01,4.27,2.05,8.6,3.06,12.8c0.41,1.72,0.83,3.43,1.24,5.15c0.37,1.56,0.74,3.09,1.06,4.38
					l0.06-0.08c0.18-0.26,0.3-0.43,0.42-0.61c1.26-2,2.52-3.99,3.79-5.99c3.24-5.13,6.6-10.43,9.89-15.66
					c0.31-0.5,0.62-0.68,1.15-0.68c0.01,0,0.02,0,0.03,0c3.13,0.02,6.31,0.02,9.39,0.02c1.55,0,3.15,0,4.73,0
					c0.18,0,0.36,0.01,0.56,0.02c0.08,0,0.17,0.01,0.25,0.01l0.02,0l0,0.02c-0.79,4.04-1.58,8.12-2.35,12.07
					c-0.79,4.06-1.61,8.26-2.41,12.39l0.17,0.08c0.17-0.27,0.39-0.5,0.61-0.72c0.38-0.39,0.77-0.79,0.89-1.44
					c0.85-4.49,1.74-9.05,2.61-13.46c0.38-1.93,0.77-3.93,1.16-5.89c0.14-0.7,0.27-1.42,0.41-2.12c0.14-0.71,0.28-1.44,0.42-2.17
					c-0.04,0-0.07-0.01-0.1-0.01c-0.14-0.02-0.24-0.03-0.33-0.03c-0.93,0-1.86,0-2.79,0c-4.64,0-9.44,0-14.16,0.02
					c-0.27,0-0.66,0.28-0.82,0.54c-2.93,4.61-5.9,9.3-8.78,13.84c-1.26,1.99-2.52,3.98-3.78,5.96c-0.08,0.12-0.16,0.23-0.26,0.37
					c-0.07,0.1-0.15,0.21-0.25,0.34l-0.02,0.02l-0.01-0.03c-1.14-4.75-2.28-9.48-3.37-14.06c-0.56-2.33-1.12-4.66-1.67-6.98h-17.65
					c-2.05,10.49-4.13,21.16-6.14,31.47C121.79,111.81,120.49,118.48,119.19,125.14z"/>
			</g>
			<g>
				<path class="st0" d="M74.87,73.95c-0.74,1.91-1.45,3.74-2.16,5.58c-1.05,2.71-2.12,5.42-3.16,8.15
					c-0.17,0.47-0.38,0.59-0.9,0.58c-4.7-0.1-9.41-0.21-14.11-0.18c-4.15,0.03-7.12,1.98-8.67,5.89c-1.45,3.64-2.16,7.44-2.17,11.36
					c0,0.49,0.07,0.99,0.17,1.47c0.52,2.57,2.01,3.82,4.8,3.96c1.36,0.07,2.73,0.04,4.08,0.02c0.18-0.01,0.49-0.19,0.53-0.35
					c0.3-1.22,0.55-2.45,0.83-3.76h-6.05c0.07-0.27,0.09-0.45,0.16-0.62c1.49-3.9,2.99-7.8,4.47-11.7c0.15-0.4,0.35-0.56,0.8-0.56
					c6.29,0.01,12.58,0.01,18.87,0.01c0.16,0,0.34,0.02,0.58,0.04c-0.31,1.66-0.62,3.28-0.93,4.89c-1.18,6.07-2.35,12.13-3.56,18.18
					c-0.14,0.74-0.39,1.48-0.64,2.2c-1.17,3.35-3.73,5.08-7.07,5.58c-2.73,0.41-5.52,0.56-8.27,0.6c-3.19,0.05-6.39-0.01-9.56-0.28
					c-4.3-0.38-8.27-1.74-11.57-4.66c-2.89-2.56-4.34-5.9-4.94-9.64c-0.89-5.61-0.01-11.09,1.41-16.51
					c1.07-4.12,2.64-8.02,5.25-11.46c3.35-4.43,7.89-6.96,13.24-8.1c5.43-1.15,10.95-1.26,16.48-1.09c3.26,0.11,6.53,0.16,9.79,0.25
					C73.31,73.85,74.05,73.9,74.87,73.95 M73.12,74.94c-2.38,0-4.61,0.05-6.83-0.01c-6.01-0.18-12.02-0.32-17.99,0.63
					c-7.86,1.24-13.62,5.28-16.98,12.58c-1.82,3.96-2.88,8.14-3.54,12.43c-0.54,3.48-0.71,6.98-0.04,10.49
					c0.98,5.1,3.71,8.8,8.48,10.95c2.76,1.24,5.7,1.93,8.69,1.95c4.83,0.05,9.67,0.09,14.46-0.32c4.99-0.43,6.87-2.55,7.78-6.71
					c0.73-3.33,1.34-6.68,2-10.03c0.76-3.92,1.51-7.85,2.29-11.82H53.78c-1.3,3.4-2.61,6.8-3.96,10.32h5.86
					c-0.46,2.14-0.9,4.2-1.38,6.24c-0.05,0.18-0.41,0.43-0.62,0.43c-1.71,0.01-3.41,0.02-5.12-0.07c-3.79-0.2-5.98-2.41-6.11-6.19
					c-0.13-4.23,0.66-8.32,2.21-12.24c1.72-4.34,4.95-6.66,9.64-6.7c4.47-0.04,8.95,0.07,13.44,0.13c0.52,0.01,0.77-0.1,0.96-0.61
					c0.86-2.32,1.78-4.61,2.66-6.92C71.93,78.04,72.47,76.61,73.12,74.94"/>
				<path class="st0" d="M50.61,125.34c-2.82,0-5.35-0.1-7.68-0.3c-2.24-0.2-4.31-0.66-6.16-1.38c-2.01-0.78-3.83-1.88-5.41-3.28
					c-2.67-2.37-4.29-5.52-4.94-9.64c-0.42-2.63-0.47-5.36-0.16-8.33c0.26-2.47,0.76-5.07,1.57-8.18c0.58-2.23,1.25-4.19,2.05-5.99
					c0.9-2.04,1.95-3.83,3.2-5.47c1.63-2.15,3.6-3.93,5.87-5.28c2.15-1.28,4.63-2.23,7.37-2.82c5.78-1.23,11.57-1.24,16.48-1.09
					c1.92,0.07,3.87,0.11,5.76,0.15c1.32,0.03,2.69,0.06,4.04,0.1c0.57,0.01,1.15,0.04,1.76,0.08c0.17,0.01,0.35,0.02,0.53,0.03
					l0.02,0l-0.01,0.02c-0.68,1.74-1.36,3.52-2.16,5.58c-0.27,0.69-0.54,1.39-0.81,2.08c-0.77,1.99-1.58,4.04-2.35,6.07
					c-0.17,0.47-0.37,0.6-0.92,0.59l-1.2-0.03c-4.23-0.09-8.61-0.18-12.91-0.16c-4.21,0.03-7.12,2.01-8.66,5.88
					c-1.42,3.58-2.15,7.4-2.17,11.35c0,0.43,0.05,0.9,0.17,1.47c0.53,2.59,2.01,3.81,4.79,3.95c1.21,0.06,2.45,0.04,3.64,0.03
					c0.15,0,0.29,0,0.44-0.01c0.18-0.01,0.48-0.18,0.52-0.34c0.23-0.94,0.43-1.89,0.65-2.88c0.06-0.28,0.12-0.57,0.18-0.86h-6.05
					l0-0.02c0.02-0.09,0.04-0.17,0.05-0.23c0.03-0.15,0.06-0.27,0.1-0.38c0.34-0.89,0.68-1.77,1.02-2.66
					c1.14-2.96,2.31-6.02,3.45-9.04c0.16-0.42,0.37-0.57,0.81-0.57c3.76,0.01,7.59,0.01,11.29,0.01c2.49,0,5.06,0,7.58,0
					c0.13,0,0.26,0.01,0.43,0.03c0.05,0,0.1,0.01,0.16,0.01l0.01,0l0,0.01c-0.07,0.39-0.15,0.78-0.22,1.16
					c-0.24,1.28-0.47,2.5-0.71,3.73l-0.49,2.54c-1,5.13-2.03,10.43-3.06,15.64c-0.15,0.76-0.41,1.54-0.64,2.2
					c-0.56,1.62-1.48,2.92-2.73,3.87c-1.17,0.88-2.63,1.46-4.35,1.72c-2.43,0.36-5.06,0.55-8.28,0.6
					C51.85,125.33,51.22,125.34,50.61,125.34z M58.88,73.53c-3.95,0-8.26,0.24-12.57,1.15c-5.62,1.2-10.07,3.92-13.23,8.09
					c-2.35,3.09-4.01,6.73-5.24,11.45c-1.17,4.47-2.38,10.38-1.41,16.5c0.66,4.12,2.27,7.27,4.93,9.63
					c3.07,2.72,6.85,4.24,11.56,4.65c2.85,0.24,5.97,0.33,9.56,0.28c3.22-0.05,5.85-0.24,8.27-0.6c3.59-0.54,5.96-2.42,7.06-5.57
					c0.23-0.66,0.49-1.44,0.63-2.2c1.04-5.21,2.07-10.52,3.06-15.64l0.49-2.54c0.24-1.23,0.47-2.45,0.71-3.73
					c0.07-0.38,0.14-0.76,0.22-1.15c-0.05,0-0.1-0.01-0.14-0.01c-0.17-0.01-0.3-0.03-0.42-0.03c-2.53,0-5.1,0-7.58,0
					c-3.7,0-7.53,0-11.29-0.01c-0.43,0-0.63,0.14-0.79,0.55c-1.14,3.02-2.32,6.08-3.45,9.04c-0.34,0.89-0.68,1.77-1.02,2.66
					c-0.04,0.11-0.07,0.23-0.1,0.38c-0.01,0.07-0.03,0.14-0.05,0.22h6.05l0,0.02c-0.06,0.3-0.13,0.59-0.19,0.88
					c-0.21,1-0.41,1.94-0.65,2.88c-0.04,0.16-0.35,0.35-0.54,0.36c-0.15,0-0.29,0-0.44,0.01c-1.2,0.02-2.43,0.04-3.64-0.03
					c-1.41-0.07-2.47-0.42-3.26-1.08c-0.78-0.65-1.29-1.6-1.56-2.9c-0.12-0.57-0.17-1.04-0.17-1.48c0.02-3.96,0.75-7.78,2.18-11.36
					c0.77-1.94,1.9-3.42,3.37-4.41c1.45-0.98,3.24-1.48,5.32-1.49c4.3-0.02,8.68,0.07,12.91,0.16l1.2,0.03
					c0.53,0.01,0.73-0.12,0.89-0.57c0.77-2.03,1.57-4.08,2.35-6.07c0.27-0.69,0.54-1.39,0.81-2.08c0.79-2.06,1.47-3.83,2.15-5.56
					c-0.17-0.01-0.34-0.02-0.51-0.03c-0.61-0.04-1.19-0.07-1.76-0.08c-1.34-0.04-2.71-0.07-4.04-0.1c-1.89-0.04-3.84-0.09-5.76-0.15
					C61.54,73.56,60.23,73.53,58.88,73.53z M49.47,124c-1.53,0-3.05-0.01-4.55-0.03c-2.95-0.03-5.88-0.68-8.7-1.95
					c-2.35-1.06-4.26-2.53-5.67-4.38c-1.38-1.8-2.33-4.02-2.82-6.59c-0.6-3.12-0.58-6.46,0.04-10.49c0.74-4.8,1.9-8.86,3.54-12.43
					c0.83-1.81,1.83-3.45,2.97-4.87c1.12-1.41,2.42-2.65,3.84-3.69c1.41-1.03,2.98-1.89,4.68-2.56c1.68-0.66,3.53-1.15,5.5-1.46
					c6.15-0.98,12.44-0.79,18-0.63c1.5,0.04,2.98,0.03,4.55,0.02c0.74-0.01,1.51-0.01,2.28-0.01h0.02l-0.01,0.02
					c-0.36,0.94-0.69,1.79-1.01,2.62c-0.25,0.65-0.49,1.27-0.73,1.9c-0.32,0.83-0.65,1.68-0.96,2.49c-0.56,1.45-1.14,2.94-1.7,4.42
					c-0.2,0.54-0.49,0.63-0.98,0.62c-0.96-0.01-1.94-0.03-2.89-0.05c-3.46-0.06-7.04-0.12-10.55-0.09c-4.65,0.05-7.88,2.3-9.62,6.69
					c-1.6,4.03-2.34,8.15-2.21,12.24c0.12,3.79,2.29,5.98,6.09,6.18c1.6,0.08,3.23,0.07,4.81,0.07l0.31,0c0.21,0,0.56-0.24,0.6-0.42
					c0.37-1.58,0.71-3.16,1.07-4.82c0.1-0.46,0.2-0.93,0.3-1.4H49.8l0.01-0.02c0.64-1.66,1.26-3.29,1.89-4.91
					c0.68-1.77,1.39-3.61,2.08-5.4l0-0.01h17.68l0,0.02c-0.47,2.4-0.94,4.83-1.39,7.17c-0.3,1.55-0.6,3.1-0.9,4.65
					c-0.2,1.02-0.4,2.05-0.59,3.05c-0.44,2.29-0.9,4.66-1.41,6.98c-0.49,2.25-1.22,3.71-2.36,4.76c-1.23,1.13-2.95,1.75-5.42,1.96
					C56.1,123.94,52.77,124,49.47,124z M59.5,74.82c-3.66,0-7.46,0.16-11.2,0.76c-8,1.27-13.71,5.5-16.97,12.57
					c-1.64,3.56-2.8,7.63-3.54,12.42c-0.62,4.03-0.63,7.36-0.04,10.48c1,5.18,3.85,8.86,8.48,10.94c2.82,1.27,5.74,1.92,8.69,1.95
					c4.75,0.05,9.67,0.09,14.46-0.32c4.68-0.4,6.78-2.21,7.76-6.7c0.51-2.32,0.96-4.69,1.41-6.98c0.19-1,0.39-2.03,0.59-3.05
					c0.3-1.55,0.6-3.1,0.9-4.65c0.45-2.34,0.92-4.76,1.38-7.16H53.79c-0.69,1.79-1.39,3.62-2.07,5.4c-0.62,1.61-1.25,3.24-1.88,4.9
					h5.86l0,0.02c-0.1,0.48-0.2,0.95-0.31,1.41c-0.36,1.66-0.7,3.24-1.07,4.82c-0.05,0.18-0.41,0.44-0.63,0.44l-0.31,0
					c-1.58,0.01-3.2,0.01-4.81-0.07c-1.89-0.1-3.38-0.69-4.43-1.76c-1.05-1.07-1.62-2.56-1.68-4.45c-0.13-4.09,0.62-8.21,2.22-12.25
					c0.86-2.17,2.11-3.84,3.71-4.97c1.62-1.13,3.62-1.72,5.94-1.74c3.51-0.03,7.09,0.03,10.55,0.09c0.95,0.02,1.92,0.03,2.89,0.05
					c0.49,0.01,0.75-0.07,0.95-0.6c0.55-1.48,1.13-2.98,1.7-4.42c0.32-0.82,0.65-1.66,0.96-2.49c0.24-0.62,0.48-1.24,0.73-1.9
					c0.32-0.82,0.64-1.68,1-2.6c-0.77,0-1.53,0.01-2.26,0.01c-1.57,0.01-3.05,0.02-4.55-0.02C64.12,74.88,61.84,74.82,59.5,74.82z"
					/>
			</g>
			<g>
				<path class="st0" d="M83.26,125.12c0.31-1.59,0.61-3.14,0.91-4.69c0.96-4.93,1.92-9.85,2.86-14.77
					c0.09-0.43,0.02-0.94-0.13-1.35c-3.55-9.93-7.12-19.85-10.68-29.77c-0.09-0.26-0.16-0.52-0.27-0.84h19.1
					c1.09,5.49,2.19,11.01,3.31,16.7c0.45-0.71,0.79-1.26,1.13-1.83c2.9-4.78,5.78-9.56,8.67-14.35c0.22-0.36,0.41-0.6,0.9-0.6
					c6.17,0.02,12.34,0.01,18.5,0.01c0.1,0,0.2,0.01,0.46,0.03c-0.24,0.33-0.42,0.6-0.62,0.86c-7.42,9.94-14.82,19.88-22.26,29.79
					c-0.78,1.03-0.87,2.18-1.09,3.31c-1.13,5.65-2.21,11.3-3.29,16.95c-0.08,0.4-0.18,0.6-0.64,0.6c-5.5-0.01-11-0.01-16.5-0.01
					C83.53,125.19,83.46,125.16,83.26,125.12 M84.8,123.81c0.14,0.05,0.2,0.09,0.27,0.09c4.68,0.01,9.37,0.01,14.05,0.02
					c0.43,0,0.5-0.23,0.57-0.59c1.04-5.38,2.06-10.77,3.14-16.15c0.21-1.04,0.2-2.15,0.9-3.09c7.12-9.51,14.22-19.04,21.32-28.55
					c0.12-0.17,0.22-0.35,0.36-0.57c-0.2-0.02-0.3-0.05-0.39-0.05c-5.11,0-10.21-0.01-15.31,0.03c-0.28,0-0.67,0.28-0.83,0.54
					c-2.76,4.51-5.49,9.05-8.23,13.57c-0.93,1.54-1.86,3.08-2.91,4.8c-1.28-6.43-2.51-12.67-3.74-18.89H77.74
					c0.12,0.37,0.22,0.68,0.33,0.98c3.36,9.36,6.73,18.72,10.08,28.1c0.16,0.45,0.26,0.98,0.18,1.43c-0.94,4.95-1.92,9.9-2.88,14.84
					C85.23,121.49,85.02,122.65,84.8,123.81"/>
				<path class="st0" d="M100.1,125.21c-5.5-0.01-11.09-0.01-16.5-0.01c-0.04,0-0.09-0.01-0.18-0.03c-0.04-0.01-0.1-0.02-0.17-0.04
					l-0.01,0l0-0.01c0.31-1.58,0.6-3.12,0.91-4.69c0.21-1.1,0.43-2.2,0.64-3.3c0.73-3.76,1.49-7.65,2.21-11.47
					c0.08-0.4,0.03-0.9-0.13-1.34c-2.81-7.86-5.68-15.85-8.46-23.57c-0.74-2.06-1.48-4.13-2.23-6.19c-0.04-0.13-0.09-0.27-0.13-0.42
					c-0.04-0.13-0.09-0.27-0.13-0.42l-0.01-0.02h19.12l0,0.01c1.25,6.25,2.3,11.55,3.3,16.67c0.09-0.15,0.18-0.29,0.26-0.42
					c0.32-0.5,0.59-0.94,0.85-1.38c3.15-5.2,5.98-9.89,8.67-14.35c0.21-0.35,0.4-0.6,0.91-0.6c4.93,0.02,9.94,0.01,14.78,0.01
					c1.24,0,2.48,0,3.72,0c0.07,0,0.14,0.01,0.25,0.02c0.06,0,0.13,0.01,0.21,0.02l0.02,0l-0.01,0.02
					c-0.06,0.09-0.13,0.18-0.18,0.26c-0.16,0.22-0.29,0.41-0.43,0.6c-1.64,2.2-3.28,4.4-4.93,6.6
					c-5.67,7.61-11.54,15.47-17.33,23.19c-0.65,0.86-0.83,1.83-0.99,2.77c-0.03,0.18-0.06,0.36-0.1,0.54
					c-1.12,5.62-2.21,11.34-3.27,16.87l-0.02,0.09C100.67,125.02,100.55,125.21,100.1,125.21z M83.27,125.11
					c0.06,0.01,0.11,0.03,0.16,0.04c0.08,0.02,0.13,0.03,0.17,0.03c5.41,0,11,0,16.5,0.01c0.44,0,0.55-0.18,0.63-0.59l0.02-0.09
					c1.06-5.53,2.15-11.25,3.27-16.87c0.04-0.18,0.07-0.36,0.1-0.54c0.17-0.94,0.34-1.91,1-2.78c5.79-7.72,11.66-15.58,17.33-23.19
					c1.64-2.2,3.28-4.4,4.93-6.6c0.14-0.19,0.28-0.38,0.43-0.6c0.05-0.08,0.11-0.16,0.17-0.24c-0.08-0.01-0.14-0.01-0.19-0.02
					c-0.11-0.01-0.18-0.02-0.24-0.02c-1.24,0-2.48,0-3.72,0c-4.84,0-9.85,0-14.78-0.01c-0.49,0-0.68,0.24-0.89,0.59
					c-2.68,4.46-5.52,9.15-8.67,14.35c-0.27,0.44-0.54,0.88-0.85,1.38c-0.09,0.14-0.18,0.29-0.28,0.45l-0.02,0.03l-0.01-0.03
					c-1.01-5.13-2.06-10.43-3.31-16.69H75.96c0.05,0.15,0.09,0.28,0.13,0.4c0.05,0.15,0.09,0.28,0.13,0.42
					c0.74,2.06,1.48,4.13,2.23,6.19c2.78,7.72,5.65,15.71,8.46,23.57c0.16,0.45,0.21,0.95,0.13,1.36
					c-0.73,3.83-1.48,7.71-2.21,11.47c-0.21,1.1-0.43,2.2-0.64,3.3C83.87,122,83.58,123.53,83.27,125.11z M99.12,123.93
					c-3.12-0.01-6.29-0.01-9.36-0.01c-1.57,0-3.13,0-4.7-0.01c-0.04,0-0.08-0.02-0.14-0.04c-0.04-0.02-0.08-0.03-0.13-0.05l-0.01,0
					l0-0.01c0.05-0.28,0.1-0.56,0.15-0.83c0.16-0.87,0.33-1.76,0.5-2.64c0.34-1.77,0.69-3.56,1.03-5.3
					c0.61-3.13,1.24-6.36,1.84-9.55c0.07-0.39,0.01-0.89-0.18-1.42c-2.36-6.6-4.77-13.31-7.1-19.79c-0.99-2.77-1.99-5.54-2.98-8.3
					c-0.09-0.23-0.16-0.47-0.25-0.74c-0.03-0.08-0.05-0.16-0.08-0.24l-0.01-0.02h16.29l0,0.01c0.44,2.22,0.88,4.44,1.32,6.67
					c0.78,3.96,1.59,8.06,2.41,12.18c1.03-1.69,1.96-3.24,2.86-4.73l0.03-0.05c0.85-1.41,1.7-2.81,2.56-4.22
					c1.86-3.07,3.78-6.24,5.68-9.35c0.16-0.26,0.55-0.55,0.84-0.55c4.37-0.03,8.81-0.03,13.1-0.03c0.73,0,1.47,0,2.2,0
					c0.05,0,0.1,0.01,0.17,0.02c0.06,0.01,0.13,0.02,0.22,0.03l0.02,0l-0.01,0.02c-0.03,0.05-0.06,0.09-0.08,0.14
					c-0.1,0.16-0.18,0.3-0.28,0.43c-1.72,2.31-3.44,4.61-5.16,6.92c-5.29,7.09-10.76,14.43-16.15,21.63
					c-0.54,0.71-0.66,1.53-0.78,2.33c-0.04,0.25-0.07,0.5-0.12,0.75c-0.91,4.48-1.78,9.04-2.63,13.45c-0.17,0.9-0.35,1.8-0.52,2.7
					C99.64,123.69,99.56,123.93,99.12,123.93z M84.82,123.8c0.05,0.02,0.09,0.03,0.12,0.05c0.05,0.02,0.09,0.04,0.13,0.04
					c1.57,0,3.13,0,4.7,0.01c3.07,0,6.24,0.01,9.36,0.01c0.42,0,0.49-0.22,0.56-0.58c0.17-0.9,0.35-1.8,0.52-2.7
					c0.85-4.41,1.72-8.97,2.63-13.45c0.05-0.25,0.09-0.5,0.12-0.75c0.12-0.8,0.24-1.62,0.78-2.34c5.39-7.21,10.86-14.54,16.15-21.63
					c1.72-2.31,3.44-4.61,5.16-6.92c0.09-0.13,0.18-0.27,0.28-0.43c0.02-0.04,0.05-0.08,0.07-0.12c-0.08-0.01-0.15-0.02-0.21-0.03
					c-0.07-0.01-0.12-0.02-0.17-0.02c-0.74,0-1.47,0-2.2,0c-4.29,0-8.74,0-13.1,0.03c-0.28,0-0.66,0.28-0.81,0.54
					c-1.9,3.11-3.82,6.28-5.68,9.35c-0.85,1.41-1.7,2.81-2.56,4.22l-0.03,0.05c-0.91,1.5-1.84,3.05-2.88,4.76l-0.02,0.03l-0.01-0.03
					c-0.82-4.14-1.63-8.24-2.42-12.22C94.87,79.43,94.43,77.21,94,75H77.76c0.03,0.08,0.05,0.15,0.08,0.23
					c0.09,0.27,0.17,0.5,0.25,0.74c0.99,2.77,1.99,5.53,2.98,8.3c2.33,6.49,4.74,13.19,7.1,19.79c0.19,0.53,0.25,1.04,0.18,1.43
					c-0.6,3.18-1.23,6.42-1.84,9.55c-0.34,1.74-0.69,3.53-1.03,5.3c-0.17,0.88-0.34,1.77-0.5,2.64
					C84.92,123.25,84.87,123.52,84.82,123.8z"/>
			</g>
			<g>
				<path class="st0" d="M315.95,184.3c2.4-12.32,4.8-24.59,7.2-36.91c-5.14-0.18-10.23-0.37-15.41-0.55
					c0.07-0.25,0.11-0.45,0.18-0.64c1.62-4.27,3.26-8.54,4.87-12.81c0.16-0.44,0.37-0.6,0.85-0.6c14.99,0.02,29.97,0.01,44.95,0.01
					c0.17,0,0.35,0.02,0.62,0.04c-0.09,0.29-0.16,0.54-0.24,0.78c-1.67,4.38-3.35,8.76-5,13.15c-0.18,0.47-0.39,0.64-0.9,0.63
					c-3.79-0.02-7.58-0.01-11.37-0.01h-0.89c-2.4,12.32-4.8,24.6-7.2,36.92H315.95z M339.77,146.15h0.83
					c3.86,0,7.73-0.01,11.59,0.01c0.5,0,0.72-0.14,0.9-0.62c1.35-3.61,2.73-7.2,4.1-10.8c0.08-0.19,0.12-0.39,0.2-0.67h-0.98h-29.79
					c-3.94,0-7.87,0.03-11.82-0.02c-0.72-0.01-1.02,0.24-1.25,0.89c-0.69,1.93-1.45,3.84-2.17,5.75c-0.62,1.6-1.22,3.22-1.87,4.93
					c5.09,0.19,10.09,0.37,15.16,0.55c-2.4,12.33-4.79,24.55-7.17,36.81c0.21,0.04,0.3,0.07,0.39,0.07c4.74,0,9.46-0.01,14.19,0.01
					c0.44,0,0.56-0.21,0.62-0.57c0.12-0.68,0.24-1.36,0.38-2.04c1.56-8.02,3.12-16.05,4.7-24.07
					C338.43,153,339.1,149.61,339.77,146.15"/>
				<path class="st0" d="M333.63,184.31h-17.69l0-0.02c1.89-9.7,3.78-19.36,5.66-29.04l1.53-7.86c-1.86-0.07-3.71-0.13-5.56-0.2
					c-3.26-0.12-6.53-0.23-9.83-0.35l-0.02,0l0-0.02c0.03-0.09,0.05-0.17,0.07-0.26c0.04-0.14,0.07-0.27,0.11-0.39
					c0.54-1.42,1.09-2.86,1.62-4.26c1.07-2.8,2.17-5.7,3.25-8.56c0.17-0.46,0.39-0.61,0.86-0.61c12,0.02,24.19,0.01,35.98,0.01
					c2.99,0,5.98,0,8.97,0c0.12,0,0.25,0.01,0.41,0.02c0.07,0.01,0.14,0.01,0.22,0.02l0.02,0l-0.01,0.02
					c-0.04,0.11-0.07,0.22-0.1,0.33c-0.05,0.16-0.09,0.31-0.14,0.45c-0.45,1.18-0.9,2.37-1.36,3.55c-1.2,3.15-2.44,6.4-3.65,9.6
					c-0.18,0.48-0.41,0.64-0.92,0.64c-3.04-0.02-6.12-0.01-9.1-0.01c-0.76,0-1.51,0-2.27,0h-0.88l-0.17,0.88
					c-2.3,11.8-4.69,24.01-7.03,36.03L333.63,184.31z M315.97,184.28h17.64c2.34-12.02,4.72-24.22,7.02-36.02l0.18-0.9h0.9
					c0.76,0,1.51,0,2.27,0c2.98,0,6.06,0,9.1,0.01c0.5,0.01,0.71-0.14,0.89-0.62c1.2-3.2,2.45-6.46,3.65-9.6
					c0.45-1.18,0.9-2.37,1.36-3.55c0.05-0.15,0.1-0.29,0.14-0.45c0.03-0.1,0.06-0.2,0.1-0.31c-0.07-0.01-0.14-0.01-0.2-0.02
					c-0.16-0.01-0.28-0.02-0.4-0.02c-2.99,0-5.98,0-8.97,0c-11.79,0-23.98,0-35.98-0.01c-0.47,0-0.67,0.14-0.84,0.59
					c-1.08,2.86-2.18,5.75-3.25,8.56c-0.53,1.4-1.08,2.84-1.62,4.26c-0.05,0.12-0.08,0.24-0.11,0.38c-0.02,0.08-0.04,0.16-0.06,0.24
					c3.3,0.12,6.55,0.23,9.81,0.35c1.86,0.07,3.71,0.13,5.58,0.2l0.02,0l0,0.02l-1.54,7.87
					C319.74,164.94,317.86,174.59,315.97,184.28z M332.08,183.09c-3.8-0.02-7.66-0.01-11.39-0.01c-0.93,0-1.87,0-2.8,0
					c-0.06,0-0.12-0.02-0.21-0.03c-0.05-0.01-0.11-0.02-0.19-0.04l-0.01,0l0-0.01c2.17-11.18,4.39-22.56,6.54-33.56l0.63-3.23
					c-4.43-0.15-9.11-0.32-15.15-0.55l-0.02,0l0.01-0.02c0.19-0.5,0.37-0.99,0.55-1.47c0.45-1.2,0.88-2.32,1.31-3.46
					c0.25-0.68,0.52-1.36,0.78-2.03c0.47-1.22,0.95-2.48,1.4-3.72c0.23-0.67,0.55-0.9,1.23-0.9c0.01,0,0.02,0,0.03,0
					c2.89,0.03,5.83,0.03,8.67,0.02c1.03,0,2.1,0,3.15,0h30.79l0,0.02c-0.03,0.09-0.05,0.17-0.07,0.25
					c-0.04,0.16-0.08,0.29-0.13,0.42c-0.42,1.11-0.85,2.24-1.27,3.33c-0.93,2.45-1.9,4.98-2.83,7.47c-0.18,0.48-0.4,0.63-0.91,0.63
					c-2.9-0.02-5.85-0.02-8.71-0.01c-0.96,0-1.92,0-2.89,0h-0.81l-0.61,3.11c-0.47,2.39-0.93,4.76-1.39,7.12
					c-1.58,8.06-3.16,16.16-4.7,24.07c-0.12,0.6-0.24,1.25-0.38,2.04C332.65,182.87,332.53,183.09,332.08,183.09z M323.45,183.04
					c2.86,0,5.76,0,8.63,0.01c0.43,0,0.54-0.2,0.6-0.56c0.14-0.79,0.26-1.44,0.38-2.04c1.54-7.92,3.12-16.02,4.7-24.07
					c0.46-2.36,0.92-4.73,1.39-7.12l0.61-3.13h0.84c0.96,0,1.92,0,2.89,0c2.85,0,5.81,0,8.71,0.01c0.5,0,0.71-0.14,0.88-0.61
					c0.93-2.5,1.9-5.03,2.83-7.47c0.42-1.09,0.85-2.22,1.27-3.33c0.05-0.13,0.09-0.26,0.13-0.42c0.02-0.07,0.04-0.15,0.06-0.23
					h-30.75c-1.05,0-2.12,0-3.15,0c-2.84,0-5.78,0.01-8.67-0.02c-0.69-0.01-1.01,0.22-1.24,0.88c-0.44,1.25-0.93,2.5-1.4,3.72
					c-0.26,0.67-0.52,1.35-0.78,2.03c-0.44,1.14-0.86,2.27-1.31,3.46c-0.18,0.48-0.36,0.96-0.55,1.45
					c6.04,0.23,10.71,0.4,15.15,0.55l0.02,0l0,0.02l-0.63,3.25c-2.14,11-4.36,22.37-6.54,33.55c0.07,0.01,0.13,0.03,0.17,0.03
					c0.09,0.02,0.15,0.03,0.2,0.03c0.93,0,1.87,0,2.8,0C321.61,183.04,322.53,183.04,323.45,183.04z"/>
			</g>
			<g>
				<path class="st1" d="M155.61,122.56 M180.62,95.69c0,0,0.01,0.01,0.01,0.01c2.35-2.51,4.7-5.02,7.19-7.7
					c-0.29,9.58-0.58,18.94-0.88,28.48c26.01-17.28,51.89-34.48,77.77-51.68c0.03,0.03,0.05,0.06,0.08,0.09
					c-21.21,22.08-42.42,44.17-63.75,66.38l-32.23,33.57c-2.64,2.74-5.14,5.34-7.64,7.93l-0.17-0.09
					c1.74-9.84,3.47-19.68,5.24-29.71c-28.27,19.81-56.41,39.52-84.55,59.23c-0.03-0.03-0.06-0.07-0.09-0.1
					c1.31-1.41,2.62-2.84,3.94-4.24c6.68-7.18,13.36-14.35,20.05-21.53c10.99-11.8,22-23.61,33-35.43
					c5.68-6.11,11.36-12.21,17.03-18.33L180.62,95.69z"/>
				<path d="M81.58,203.5l-0.6-0.6c-0.07-0.07-0.12-0.14-0.15-0.18l-0.01-0.01l-0.54-0.68l1.54-1.66c0.98-1.06,1.99-2.15,2.99-3.22
					c7.19-7.72,14.17-15.22,20.04-21.52c4.55-4.89,9.11-9.78,13.67-14.67c6.44-6.92,12.89-13.83,19.33-20.76
					c5.56-5.98,11.32-12.16,17.02-18.33l25.58-27.49l0.02,0.01c2.13-2.28,4.33-4.63,6.62-7.09l1.83-1.97l-0.08,2.68
					c-0.09,2.97-0.18,5.91-0.27,8.85c-0.18,5.78-0.36,11.74-0.55,17.68c9.5-6.31,18.98-12.61,28.45-18.9
					c15.92-10.58,31.81-21.14,47.7-31.7l0.69-0.46l0.58,0.58c0.07,0.07,0.12,0.13,0.15,0.17l0.55,0.69l-0.61,0.64
					c-11.92,12.41-23.83,24.82-35.77,37.25c-9.31,9.69-18.63,19.4-27.98,29.13l-32.23,33.57c-2.72,2.83-5.18,5.38-7.64,7.93
					l-0.51,0.53l-1.5-0.75l0.13-0.74c1.6-9.06,3.2-18.11,4.82-27.32c-31.73,22.23-58.01,40.64-82.56,57.84L81.58,203.5z M180.78,97
					l-24.43,26.25c-5.71,6.16-11.46,12.35-17.03,18.33c-6.44,6.92-12.89,13.84-19.33,20.76c-4.56,4.89-9.11,9.78-13.66,14.67
					c-5.31,5.7-11.51,12.36-17.96,19.28c23.01-16.11,47.8-33.48,77.3-54.15l1.99-1.4l-0.42,2.4c-1.59,9.04-3.16,17.92-4.72,26.79
					c1.79-1.85,3.61-3.75,5.58-5.79l32.23-33.57c9.35-9.73,18.67-19.44,27.98-29.13c9.95-10.36,19.88-20.7,29.81-31.04
					c-13.5,8.97-27.01,17.95-40.53,26.93c-10.01,6.65-20.03,13.31-30.07,19.98l-1.63,1.08l0.06-1.95
					c0.21-6.58,0.41-13.21,0.61-19.63c0.06-2.05,0.13-4.11,0.19-6.17c-1.8,1.93-3.54,3.79-5.24,5.61l-0.71,0.75L180.78,97z"/>
			</g>
			<g>
				<path d="M258.5,183.02c-0.28,0.02-0.52,0.04-0.75,0.04c-4.46,0.01-8.92-0.01-13.37,0.02c-0.67,0.01-0.81-0.21-0.85-0.84
					c-0.16-2.76-0.39-5.53-0.59-8.29c-0.01-0.14-0.07-0.28-0.12-0.48h-0.67c-4.68,0-9.36,0.01-14.04-0.01
					c-0.52,0-0.77,0.16-0.98,0.64c-1.25,2.8-2.54,5.57-3.79,8.37c-0.17,0.36-0.32,0.62-0.8,0.61c-4.65-0.02-9.31-0.01-13.97-0.01
					c-0.12,0-0.24-0.03-0.46-0.07c0.28-0.55,0.53-1.05,0.79-1.54c8.2-15.62,16.4-31.23,24.59-46.86c0.2-0.37,0.43-0.53,0.86-0.53
					c5.59,0.01,11.19,0.01,16.79,0c0.48,0,0.67,0.13,0.74,0.65c0.7,5.27,1.45,10.53,2.17,15.79c0.71,5.21,1.42,10.43,2.14,15.65
					c0.72,5.21,1.45,10.42,2.17,15.64C258.42,182.18,258.44,182.58,258.5,183.02 M242.07,162.48c-0.45-5.88-0.9-11.73-1.34-17.56
					c-0.05-0.01-0.1-0.02-0.16-0.03c-2.7,5.84-5.4,11.69-8.12,17.59H242.07z"/>
			</g>
			<g>
				<path d="M261.39,183.13c1.51-3.96,2.93-7.66,4.34-11.37c1.42,0,2.8-0.01,4.19,0c4.38,0.02,8.76,0.06,13.14,0.05
					c0.88,0,1.78-0.15,2.63-0.38c1.3-0.35,2.07-1.49,2.14-2.97c0.07-1.32-0.4-2.19-1.78-2.68c-2.3-0.82-4.64-1.51-6.98-2.24
					c-2.29-0.71-4.54-1.49-6.6-2.78c-3.31-2.07-4.91-5.07-4.83-8.94c0.07-3.01,0.58-5.96,1.89-8.7c2.05-4.26,5.59-6.69,10.02-7.94
					c3.07-0.86,6.23-1.17,9.39-1.19c4.7-0.05,9.41,0.01,14.11,0.02c1.65,0.01,3.31,0.01,5.14,0.01c-0.3,0.79-0.53,1.4-0.77,2
					c-1.14,2.92-2.31,5.83-3.43,8.76c-0.2,0.54-0.48,0.67-1.03,0.67c-5.08-0.07-10.15-0.14-15.23-0.14c-1,0-2.02,0.17-2.99,0.45
					c-1.16,0.32-1.74,1.26-1.84,2.42c-0.1,1.26,0.41,2.16,1.56,2.57c2.09,0.75,4.2,1.43,6.31,2.11c2.73,0.87,5.46,1.72,7.85,3.41
					c3.42,2.42,4.68,5.79,4.41,9.85c-0.15,2.23-0.58,4.4-1.28,6.52c-1.65,5.02-5.17,8-10.19,9.33c-3.27,0.86-6.61,1.19-9.98,1.21
					c-5,0.02-10-0.02-15-0.03C264.9,183.13,263.23,183.13,261.39,183.13"/>
			</g>
			<g>
				<path d="M214.9,134.07c-1.11,2.88-2.16,5.61-3.21,8.35c-0.3,0.79-0.64,1.56-0.89,2.36c-0.16,0.52-0.44,0.65-0.96,0.65
					c-6.39-0.02-12.78,0-19.17-0.03c-0.63,0-0.89,0.14-1.02,0.81c-0.37,2.14-0.83,4.26-1.27,6.47h19.99
					c-0.1,0.33-0.17,0.57-0.26,0.81c-1.26,3.28-2.54,6.54-3.77,9.83c-0.19,0.5-0.43,0.66-0.96,0.66c-5.4-0.02-10.8-0.01-16.19-0.01
					h-0.97c-0.5,2.56-1,5.1-1.51,7.73h23.49c-0.84,2.21-1.63,4.3-2.43,6.41c-0.54,1.43-1.11,2.85-1.62,4.3
					c-0.18,0.54-0.47,0.68-1.02,0.68c-4.8-0.02-9.62-0.01-14.42-0.01h-19.61h-1c0.26-1.36,0.49-2.61,0.73-3.86
					c1.97-10.08,3.93-20.17,5.9-30.25c0.92-4.73,1.87-9.45,2.77-14.18c0.11-0.58,0.32-0.71,0.86-0.71
					c4.41,0.01,8.82,0.01,13.22,0.01h22.36H214.9z"/>
			</g>
			<g>
				<path d="M73.12,74.94c-0.65,1.67-1.19,3.1-1.74,4.52c-0.88,2.31-1.79,4.6-2.66,6.92c-0.19,0.51-0.45,0.62-0.96,0.61
					c-4.49-0.07-8.97-0.17-13.44-0.13c-4.68,0.05-7.92,2.36-9.64,6.7c-1.55,3.92-2.35,8.01-2.21,12.24
					c0.12,3.78,2.32,5.99,6.11,6.19c1.71,0.09,3.41,0.07,5.12,0.07c0.21,0,0.57-0.24,0.62-0.43c0.48-2.04,0.91-4.09,1.38-6.24h-5.86
					c1.35-3.52,2.66-6.92,3.96-10.32h17.65c-0.77,3.97-1.53,7.9-2.29,11.82c-0.66,3.35-1.27,6.7-2,10.03
					c-0.91,4.15-2.79,6.28-7.78,6.71c-4.8,0.41-9.64,0.37-14.46,0.32c-2.99-0.03-5.93-0.71-8.69-1.95
					c-4.77-2.15-7.5-5.86-8.48-10.95c-0.67-3.5-0.5-7,0.04-10.49c0.66-4.29,1.72-8.47,3.54-12.43c3.36-7.3,9.12-11.33,16.98-12.58
					c5.97-0.95,11.98-0.81,17.99-0.63C68.51,74.99,70.74,74.94,73.12,74.94"/>
			</g>
			<g>
				<path d="M84.8,123.81c0.22-1.16,0.43-2.32,0.65-3.47c0.96-4.95,1.94-9.89,2.88-14.84c0.09-0.45-0.02-0.98-0.18-1.43
					c-3.35-9.37-6.72-18.74-10.08-28.1c-0.11-0.3-0.21-0.61-0.33-0.98h16.27c1.23,6.22,2.46,12.45,3.74,18.89
					c1.05-1.72,1.98-3.26,2.91-4.8c2.74-4.53,5.48-9.06,8.23-13.57c0.16-0.26,0.54-0.54,0.83-0.54c5.1-0.03,10.2-0.03,15.31-0.03
					c0.09,0,0.19,0.03,0.39,0.05c-0.14,0.22-0.24,0.4-0.36,0.57c-7.1,9.52-14.2,19.04-21.32,28.55c-0.71,0.94-0.69,2.04-0.9,3.09
					c-1.09,5.38-2.11,10.76-3.14,16.15c-0.07,0.36-0.14,0.59-0.57,0.59c-4.68-0.01-9.37-0.01-14.05-0.02
					C85.01,123.9,84.94,123.85,84.8,123.81"/>
			</g>
			<g>
				<path d="M339.77,146.15c-0.67,3.46-1.34,6.85-2,10.24c-1.57,8.02-3.14,16.05-4.7,24.07c-0.14,0.67-0.26,1.36-0.38,2.04
					c-0.06,0.36-0.18,0.57-0.62,0.57c-4.73-0.02-9.45-0.01-14.19-0.01c-0.09-0.01-0.18-0.03-0.39-0.07
					c2.38-12.26,4.77-24.48,7.17-36.81c-5.07-0.18-10.08-0.36-15.16-0.55c0.65-1.72,1.25-3.33,1.87-4.93
					c0.72-1.91,1.49-3.83,2.17-5.75c0.23-0.65,0.53-0.9,1.25-0.89c3.94,0.05,7.88,0.02,11.82,0.02h29.79h0.98
					c-0.08,0.28-0.12,0.48-0.2,0.67c-1.37,3.6-2.75,7.19-4.1,10.8c-0.18,0.48-0.39,0.62-0.9,0.62c-3.86-0.03-7.73-0.01-11.59-0.01
					H339.77z"/>
			</g>
			<g>
				<path class="st0" d="M242.07,162.48h-9.62c2.73-5.9,5.42-11.75,8.12-17.59c0.06,0.01,0.11,0.02,0.16,0.02
					C241.17,150.75,241.61,156.6,242.07,162.48 M239.83,149.82c-0.05-0.01-0.09-0.03-0.14-0.05c-1.75,3.81-3.5,7.61-5.29,11.47h6.3
					C240.42,157.41,240.13,153.62,239.83,149.82"/>
				<path class="st0" d="M242.08,162.49h-9.66l0.01-0.02l0.88-1.91c2.38-5.14,4.83-10.46,7.23-15.67l0-0.01l0.01,0
					c0.02,0,0.04,0.01,0.06,0.01c0.03,0.01,0.07,0.01,0.1,0.01h0.01l0,0.01c0.44,5.73,0.89,11.66,1.34,17.57L242.08,162.49z
					 M232.46,162.47h9.59c-0.45-5.9-0.9-11.82-1.34-17.54c-0.03,0-0.06-0.01-0.09-0.01c-0.02,0-0.03-0.01-0.05-0.01
					c-2.4,5.21-4.85,10.52-7.23,15.67L232.46,162.47z M240.72,161.25h-6.34l0.01-0.02c1.57-3.41,3.43-7.43,5.29-11.47l0.01-0.01
					l0.01,0.01c0.04,0.02,0.09,0.04,0.14,0.05l0.01,0l0,0.01c0.19,2.48,0.39,5.01,0.57,7.46c0.1,1.32,0.2,2.64,0.3,3.96
					L240.72,161.25z M234.43,161.23h6.27c-0.1-1.32-0.2-2.63-0.3-3.95c-0.19-2.44-0.38-4.97-0.57-7.45
					c-0.04-0.01-0.08-0.03-0.12-0.05C237.85,153.81,236,157.83,234.43,161.23z"/>
			</g>
			<g>
				<path class="st1" d="M239.83,149.82c0.29,3.79,0.58,7.59,0.88,11.42h-6.3c1.78-3.86,3.54-7.66,5.29-11.47
					C239.74,149.79,239.79,149.81,239.83,149.82 M236.83,159.66h2.21c-0.1-1.32-0.2-2.57-0.29-3.82c-0.05,0-0.1-0.01-0.15-0.01
					C238.02,157.09,237.44,158.35,236.83,159.66"/>
			</g>
			<g>
				<path class="st0" d="M239.06,159.67h-2.25l0.01-0.02c0.6-1.3,1.19-2.57,1.77-3.83l0-0.01l0.01,0c0.04,0.01,0.1,0.01,0.15,0.01
					h0.01l0,0.01c0.04,0.56,0.09,1.11,0.13,1.68c0.05,0.69,0.11,1.41,0.17,2.14L239.06,159.67z M236.85,159.64h2.18
					c-0.06-0.73-0.11-1.44-0.16-2.13c-0.04-0.56-0.08-1.11-0.13-1.66c-0.05,0-0.09-0.01-0.13-0.01
					C238.03,157.09,237.45,158.35,236.85,159.64z"/>
			</g>
			<g>
				<path class="st0" d="M216.73,132.79c-0.2,0.56-0.35,0.99-0.52,1.42c-1.49,3.87-3,7.74-4.45,11.62c-0.27,0.71-0.62,0.9-1.35,0.89
					c-6.24-0.03-12.48-0.01-18.72-0.03c-0.63,0-0.91,0.15-1,0.81c-0.2,1.29-0.48,2.56-0.76,3.95h20.31
					c-0.43,1.13-0.81,2.14-1.19,3.16c-1.28,3.34-2.57,6.68-3.84,10.04c-0.18,0.46-0.43,0.55-0.87,0.55
					c-5.38-0.01-10.75-0.01-16.13-0.01h-0.94c-0.34,1.72-0.66,3.41-1.02,5.21h23.75c-0.16,0.47-0.26,0.81-0.39,1.15
					c-1.52,4.02-3.05,8.03-4.57,12.05c-0.2,0.53-0.43,0.75-1.05,0.75c-12.21-0.03-24.42-0.02-36.63-0.02h-0.8
					c0.43-2.2,0.84-4.31,1.25-6.41c1.66-8.54,3.32-17.07,4.99-25.61c1.24-6.33,2.48-12.66,3.7-18.98c0.1-0.57,0.42-0.55,0.84-0.55
					c8,0,16,0,24,0h14.42H216.73z M214.9,134.07h-0.94H191.6c-4.4,0-8.81,0.01-13.22-0.01c-0.54-0.01-0.75,0.13-0.86,0.71
					c-0.9,4.73-1.85,9.45-2.77,14.18c-1.97,10.08-3.94,20.17-5.9,30.25c-0.24,1.25-0.48,2.5-0.73,3.86h1h19.61
					c4.8,0,9.62-0.01,14.42,0.01c0.55,0,0.83-0.14,1.02-0.68c0.51-1.45,1.07-2.87,1.62-4.3c0.8-2.1,1.59-4.19,2.43-6.41h-23.49
					c0.52-2.63,1.01-5.17,1.51-7.73h0.97c5.4,0,10.8-0.01,16.19,0.01c0.52,0,0.77-0.15,0.96-0.66c1.23-3.28,2.5-6.55,3.77-9.83
					c0.09-0.24,0.16-0.48,0.26-0.81h-19.99c0.45-2.2,0.9-4.32,1.27-6.47c0.12-0.67,0.39-0.81,1.02-0.81
					c6.39,0.03,12.77,0.01,19.17,0.03c0.52,0,0.8-0.13,0.96-0.65c0.25-0.8,0.59-1.57,0.89-2.36
					C212.75,139.69,213.8,136.95,214.9,134.07"/>
				<path class="st0" d="M204,184.38c-10.17-0.02-20.51-0.02-30.51-0.02c-2.04,0-4.08,0-6.12,0h-0.82l0-0.02
					c0.22-1.14,0.44-2.27,0.66-3.37c0.19-1,0.4-2.03,0.59-3.04c1.66-8.54,3.35-17.21,4.99-25.61c0.25-1.28,0.5-2.56,0.75-3.83
					c0.97-4.97,1.98-10.1,2.95-15.15c0.1-0.56,0.42-0.56,0.81-0.56l0.04,0h39.4l-0.01,0.02c-0.06,0.15-0.11,0.3-0.16,0.44
					c-0.13,0.36-0.24,0.67-0.37,0.99c-0.42,1.09-0.85,2.21-1.26,3.28c-1.05,2.73-2.14,5.55-3.18,8.34c-0.26,0.68-0.58,0.9-1.33,0.9
					c-0.01,0-0.02,0-0.03,0c-3.3-0.02-6.66-0.02-9.92-0.02c-2.89,0-5.87,0-8.81-0.01c-0.59,0-0.89,0.12-0.99,0.8
					c-0.14,0.93-0.33,1.84-0.53,2.8c-0.08,0.37-0.15,0.75-0.23,1.13h20.32l-0.01,0.02c-0.38,1.01-0.79,2.09-1.19,3.16
					c-0.22,0.57-0.44,1.14-0.66,1.71c-1.05,2.73-2.13,5.55-3.18,8.33c-0.18,0.47-0.44,0.56-0.88,0.56
					c-4.05-0.01-8.16-0.01-12.14-0.01c-1.33,0-2.66,0-3.99,0h-0.93c-0.18,0.93-0.36,1.83-0.54,2.78c-0.15,0.78-0.31,1.59-0.47,2.41
					h23.76l-0.01,0.02c-0.04,0.13-0.08,0.24-0.12,0.36c-0.1,0.29-0.18,0.55-0.28,0.8c-0.57,1.5-1.15,3.03-1.71,4.51
					c-0.94,2.47-1.91,5.03-2.86,7.54C204.88,184.12,204.66,184.38,204,184.38z M179.53,184.33c8.09,0,16.33,0,24.47,0.02
					c0.64,0,0.85-0.25,1.04-0.74c0.95-2.52,1.92-5.07,2.86-7.54c0.56-1.48,1.14-3.01,1.71-4.51c0.1-0.25,0.18-0.5,0.28-0.8
					c0.03-0.11,0.07-0.22,0.11-0.34h-23.75l0-0.02c0.16-0.83,0.32-1.64,0.47-2.43c0.18-0.95,0.36-1.86,0.54-2.79l0-0.01h0.95
					c1.33,0,2.66,0,3.99,0c3.98,0,8.09,0,12.14,0.01c0.43,0,0.68-0.08,0.86-0.54c1.05-2.78,2.13-5.6,3.18-8.33
					c0.22-0.57,0.44-1.14,0.66-1.71c0.4-1.06,0.81-2.14,1.19-3.14h-20.31l0-0.02c0.08-0.39,0.16-0.78,0.23-1.15
					c0.2-0.96,0.39-1.88,0.53-2.8c0.1-0.7,0.42-0.82,1.02-0.82c2.94,0.01,5.92,0.01,8.81,0.01c3.25,0,6.61,0,9.92,0.02
					c0.01,0,0.02,0,0.03,0c0.73,0,1.05-0.22,1.3-0.88c1.04-2.79,2.13-5.61,3.18-8.34c0.42-1.08,0.84-2.19,1.26-3.28
					c0.12-0.31,0.24-0.62,0.37-0.99c0.05-0.13,0.1-0.27,0.15-0.42l-39.4,0c-0.01,0-0.03,0-0.04,0c-0.38,0-0.65,0.02-0.75,0.54
					c-0.97,5.05-1.98,10.18-2.95,15.15c-0.25,1.28-0.5,2.56-0.75,3.83c-1.64,8.39-3.33,17.07-4.99,25.61
					c-0.2,1.01-0.4,2.04-0.59,3.04c-0.21,1.09-0.43,2.21-0.65,3.35h0.78c2.04,0,4.08,0,6.12,0
					C175.49,184.33,177.51,184.33,179.53,184.33z M203.14,183.09c-3.43-0.01-6.93-0.01-10.31-0.01c-1.37,0-2.74,0-4.11,0H168.1
					l0-0.02c0.24-1.27,0.49-2.58,0.73-3.86l0.92-4.73c1.63-8.37,3.32-17.02,4.98-25.53c0.31-1.6,0.63-3.22,0.94-4.79
					c0.61-3.08,1.23-6.26,1.83-9.4c0.11-0.55,0.3-0.72,0.84-0.72c0.01,0,0.02,0,0.03,0c3.3,0.01,6.65,0.01,9.9,0.01
					c1.11,0,2.21,0,3.32,0h23.32l-0.01,0.02c-0.53,1.38-1.05,2.72-1.55,4.05c-0.57,1.48-1.1,2.88-1.66,4.31
					c-0.09,0.24-0.19,0.48-0.28,0.71c-0.21,0.53-0.44,1.09-0.61,1.64c-0.17,0.55-0.48,0.66-0.98,0.66
					c-2.95-0.01-5.95-0.01-8.85-0.01c-3.38,0-6.88,0-10.32-0.02c-0.59,0-0.87,0.12-1,0.8c-0.28,1.64-0.61,3.24-0.96,4.93
					c-0.1,0.5-0.21,1.01-0.31,1.52h19.99l-0.01,0.02c-0.03,0.1-0.06,0.2-0.09,0.29c-0.06,0.19-0.11,0.36-0.17,0.52
					c-0.22,0.56-0.43,1.12-0.65,1.68c-1.03,2.67-2.1,5.43-3.12,8.15c-0.19,0.5-0.42,0.66-0.97,0.66c-4.32-0.02-8.71-0.01-12.96-0.01
					c-1.08,0-2.16,0-3.23,0h-0.96c-0.27,1.37-0.54,2.76-0.8,4.11c-0.23,1.19-0.46,2.38-0.7,3.6h23.49l-0.01,0.02
					c-0.86,2.26-1.65,4.36-2.43,6.41c-0.14,0.37-0.29,0.75-0.43,1.12c-0.4,1.04-0.81,2.11-1.19,3.17
					C203.98,182.98,203.66,183.09,203.14,183.09z M196.93,183.05c2.07,0,4.15,0,6.21,0.01c0.5,0,0.81-0.11,1-0.67
					c0.38-1.07,0.79-2.14,1.19-3.18c0.14-0.37,0.29-0.75,0.43-1.12c0.78-2.04,1.57-4.13,2.42-6.39H184.7l0-0.02
					c0.24-1.22,0.47-2.42,0.71-3.61c0.26-1.35,0.54-2.74,0.81-4.12l0-0.01h0.98c1.08,0,2.16,0,3.23,0c4.25,0,8.64,0,12.96,0.01
					c0.53,0,0.76-0.16,0.94-0.65c1.02-2.72,2.09-5.48,3.12-8.15c0.22-0.56,0.43-1.12,0.65-1.68c0.06-0.16,0.11-0.32,0.17-0.51
					c0.03-0.08,0.05-0.18,0.09-0.27h-19.99l0-0.02c0.1-0.52,0.21-1.04,0.31-1.54c0.35-1.69,0.68-3.29,0.96-4.93
					c0.13-0.7,0.42-0.82,1.03-0.82c3.44,0.01,6.94,0.01,10.32,0.02c2.9,0,5.9,0,8.85,0.01c0.49,0,0.78-0.1,0.95-0.64
					c0.17-0.56,0.39-1.11,0.61-1.64c0.09-0.23,0.19-0.48,0.28-0.71c0.55-1.43,1.09-2.83,1.66-4.31c0.51-1.32,1.02-2.66,1.55-4.03
					H191.6c-1.11,0-2.21,0-3.32,0c-3.24,0-6.6,0-9.9-0.01c-0.55-0.01-0.74,0.15-0.85,0.7c-0.6,3.13-1.23,6.32-1.83,9.4
					c-0.31,1.57-0.63,3.19-0.94,4.79c-1.66,8.51-3.35,17.16-4.98,25.53l-0.92,4.73c-0.25,1.27-0.49,2.58-0.73,3.84h20.59
					c1.37,0,2.74,0,4.11,0C194.19,183.05,195.56,183.05,196.93,183.05z"/>
			</g>
		</g>
		<g>
			<g>
				<g>
					<path d="M176.93,99.43c1.58-8.13,3.17-16.25,4.77-24.47c-0.29-0.01-0.56-0.04-0.81-0.04c-4.71,0-9.42,0.01-14.12-0.01
						c-0.58-0.01-0.88,0.2-1.17,0.67c-4.55,7.22-9.12,14.42-13.68,21.64c-0.13,0.21-0.27,0.4-0.49,0.72
						c-0.38-1.55-0.73-2.97-1.07-4.41c-1.43-5.97-2.88-11.95-4.3-17.94c-0.11-0.5-0.29-0.69-0.83-0.69
						c-4.78,0.02-9.56,0.02-14.33,0.01c-0.48,0-0.68,0.12-0.77,0.64c-1.87,9.68-3.76,19.35-5.65,29.03
						c-1.21,6.21-2.44,12.41-3.65,18.62c-0.03,0.19-0.04,0.39-0.07,0.68c0.32,0.01,0.56,0.03,0.81,0.03c3.99,0,7.98-0.01,11.96,0.02
						c0.63,0,0.83-0.19,0.95-0.8c1.38-7.18,2.79-14.35,4.19-21.53c0.39-2,0.79-4.01,1.32-6.03c0.08,0.29,0.18,0.58,0.26,0.88
						c0.95,4.29,1.93,8.58,2.84,12.88c0.16,0.71,0.43,0.93,1.16,0.92c3.27-0.04,6.54-0.03,9.81-0.01c0.51,0.01,0.8-0.17,1.05-0.6
						c2.82-4.62,5.66-9.24,8.48-13.86c0.13-0.2,0.26-0.41,0.52-0.57c-0.23,1.21-0.45,2.42-0.68,3.62
						c-1.23,6.28-2.42,12.57-3.73,18.83c-0.08,0.37-0.28,0.72-0.53,1.05l17.91-19.24L176.93,99.43z"/>
				</g>
				<g>
					<path d="M177.67,98.85c-0.09,0.09-0.17,0.18-0.25,0.27L177.67,98.85z"/>
				</g>
			</g>
		</g>
	</g>
</g>
</svg>
