<?xml version="1.0" encoding="utf-8"?>
<!-- Generator: Adobe Illustrator 23.0.0, SVG Export Plug-In . SVG Version: 6.00 Build 0)  -->
<svg version="1.1" xmlns="http://www.w3.org/2000/svg" xmlns:xlink="http://www.w3.org/1999/xlink" x="0px" y="0px"
	 viewBox="0 0 270 267" style="enable-background:new 0 0 270 267;" xml:space="preserve">
<style type="text/css">
	.st0{fill:#FFFFFF;}
	.st1{fill:#010101;}
	.st2{fill:none;stroke:#FFFFFF;stroke-width:5.6754;stroke-miterlimit:10;}
	.st3{fill:#171717;}
	.st4{fill:none;}
</style>
<g id="Layer_1">
</g>
<g id="Isolation_Mode">
	<g>
		<path class="st1" d="M93.73,44.52c0.95-0.02,1.61-0.64,2.55-0.59c-0.45,0.22-0.63,1.11-1.09,1.33c-0.89,1.93-2.41,3.24-3.57,4.98
			c-1.71,2.52-3.35,5.36-5.62,7.42c-2.45,2.21-5.31,3.9-8.24,5.39c-1.45,0.78-3.13,1.67-4.06,3.08c-0.99,1.46-1.97,2.92-3.09,4.29
			c2.85-2.72,5.91-5.03,9.72-6.2c3.82-1.13,8.67-2.5,12.5-3.62c-0.01,0.41-1.01,1.2-1.02,1.61c-2.2,2.35-4.49,4.95-7.12,6.82
			c-1.61,1.07-3.37,1.93-5.11,2.78c-3.72,1.27-7.72,1.77-11.33,3.31c-4.24,1.93-5.84,6.1-8.33,9.77c-0.68,0.92-0.77,0.75-0.78,1.17
			c0,0.22,0.18,0.41,0.41,0.39c0.14-0.01,0.3-0.08,0.53-0.48c1.28-2.34,3.71-3.41,5.93-4.91c3.96-3.12,8.51-4.37,12.88-6.67
			c0.81-0.43,1.69-0.56,2.58-0.74c-1.33,2.23-2.75,4.43-4.29,6.52c-2.62,3.6-6.26,6.48-10.25,8.45c-2.12,1.08-4.45,1.56-6.62,2.5
			c-3.35,1.63-4.95,4.49-7.09,7.39c-0.84,2.72-1.86,4.7-1.55,7.58c0.62-1.96,1.82-3.77,3.34-5.22c4.54-5.32,11.53-8.1,17.62-11.76
			c-1.28,1.83-2.02,3.92-3.37,5.71c-2.11,2.82-3.89,5.88-6.41,8.19c-3.28,3.16-7.56,4.85-11.04,7.96c-1.25,1.16-2.26,2.53-2.56,4.25
			c-0.45,2.26-0.94,4.4-0.91,6.72c0.06,3.7-0.15,7.33,0.34,11.02c0.14-1.14,0.4-1.47,0.52-2.6l0.19-0.89
			c-0.01-0.5,0.2-0.88,0.27-1.36c0.35-2.39,0.56-4.32,1.24-6.41c2.67-6.95,9.21-9.66,12.82-15.56c-0.03,1.81,0.26,3.81-0.15,5.6
			c-0.95,3.67-1.96,7.13-4.06,10.34c-2.27,3.64-5.44,6.51-7.74,10.1c-2.33,3.54-2.82,8.4-1.71,12.41c0.46,1.52,0.48,1.42,1.04,3.05
			l0.42,1.38c0.39,1.15,0.26,0.7,0.39,1.54c0.41-4.01-0.37-7.02,0.77-10.72c1.14-4.84,4.12-8.09,6.52-12.39
			c0.3-0.54,1.04-1.49,1.45-1.93c0.95-0.93,1.08-1.53,1.61-2.05c0.5,2.94-0.04,6.83-0.42,9.51c-0.57,4.01-1.92,10.68-4.27,15.37
			c-1.54,3.08-3.48,5.39-3.01,9.08c1.02,2.63,1.89,5.28,3.27,7.75c1.35,2.72,3.61,4.59,4.31,7.62c0.46-3.68-1.55-6.39-2.1-9.9
			c-0.42-2.27-0.96-4.35-0.18-6.63c0.37-3.46,1.34-6.3,2.34-9.61c0.31-1.02,0.79-2.03,1.23-2.82c3.11,6.41,4.74,14.07,3.57,21.16
			c-0.88,3.76-1.32,7.67-0.74,11.51c1.17,3.54,3.97,5.78,5.86,9.12c-1.84-3.25-2.13-5.8-2.6-9.19c-0.6-4.29-1.39-9.05,0.12-13.11
			c0.31-0.83,0.47-2.32,0.97-2.82c2.25,3.28,3.7,8.5,5.46,12.11c2.67,6.1,0.6,11.93,3.36,18.01c1.63,3.15,4.91,4.99,8.05,6.43
			c0.79,0.08,1.02,0.43,1.82,0.43c-0.55-0.28-0.32-0.46-0.87-0.72c-1.29-1.4-2.58-2.74-3.66-4.31c-3.65-5.03-5.05-11.75-5.06-17.86
			c2.38,1.87,4.48,4.16,6.6,6.32c3.63,3.75,5.74,8.33,7.69,13.1c1.22,3.09,2.18,6.02,4.52,8.5c1.98,2.2,4.84,3.13,7.54,4.09
			c1.98,0.72,3.9,0.59,5.63,1.92c1.24-0.01-1.95,0.29-0.71,0.16c-1.38-0.25,1.65-0.68,0.24-0.71l0.22,0.4
			c-0.89,0,0.01,0.25-0.88,0.26l-0.67-0.93c-5.63-2.15-10.99-9.63-13.34-15.04c-0.81-1.6-1.08-3.94-1.36-5.74
			c0.3,1.97,9.66,6.56,13.72,10.1c4.64,4.16,5.37,9.73,11.11,12.71c3.27,1.09,7.38,1.01,10.66,2.17c1.62,0.43,4.1,1.59,4.32,1.5
			c1.83-0.76,3.38-1.09,5.47-1.63c3.3-0.86,6.7-1.27,10.03-2.05c1.74-1.5,3.53-2.96,4.8-4.91c1.93-3,3.65-6.13,6.51-8.39
			c3.99-3.17,9.2-5.27,12.8-9.02c-0.09,1.82-0.36,3.69-1.17,5.27c-1.55,3.28-3.58,6.33-5.85,9.32c-1.82,2.39-6.68,7.19-9.18,8.82
			c-0.63,0.02,0.6-4.07-0.02-4.04l0.42,1.29c-1.1-0.02-2.21-0.05-3.32-0.07c0.04,0.36,0.07,0.72,0.1,1.08
			c1.54-0.01,3.08-0.01,4.61-0.01c0.03-0.51,0.06-1.02,0.1-1.52c2.86-0.53,5.72-1.52,8.32-2.82c3.21-1.72,5.02-4.66,6.29-7.98
			c2.1-5.32,4.46-11.27,8.45-15.45c2.22-2.29,4.43-4.7,6.93-6.67c0.04,3.45-0.56,6.92-1.43,10.24c-1.3,4.63-3.27,9.39-7.3,11.95
			c-0.71,0.45-0.26,0.4-0.86,0.66c0.86,0.03,0.56-0.25,1.41-0.33c3.07-1.43,6.65-3.25,8.35-6.28c2.96-6.19,0.72-12.2,3.54-18.52
			c1.59-3.21,3.16-6.44,4.55-9.74c0.55-1.3,1.41-4.08,2.13-4.04c-0.01,3.77,0.25,11.71,0.1,15.48c-0.15,2.87-0.33,5.61-1.39,8.22
			l-1.18,3.48c1.51-3.3,4.13-5.48,5.39-8.82c1.22-5.27-0.66-9.44-0.47-14.53c0.06-3.15-0.2-6.43,0.33-9.55
			c0.61-2.42,1.28-4.75,1.77-7.23c0.36-1.82,0.61-5.01,1.52-5.05c0.24,2.77,2.35,10.29,2.92,12.98c0.92,5.91,0.87,11.85-1.39,17.44
			c-0.41,1.01-0.85,2.3-0.62,1.47c-0.3,1.06,0.19,0.56,0.72-0.29l0.75-1.38c1.14-2.86,3.18-5.2,4.28-8.11
			c1.68-3.08,2.12-7.05,1.1-10.37c-2.85-5.13-5.41-10.37-6.25-16.27c-0.23-3.81-0.37-8.71-0.37-12.52c0,0.35,0.67,1.06,1.02,1.53
			c0.87,1.16,0.66,0.83,1.08,1.36c3.22,4.04,6.84,9.07,7.99,14.15c0.65,2.2,0.56,7.39,0.62,6.25c-0.05,0.91-0.38,2.81,0.15,2.77
			c0.78-3.7,1.91-9.02,1.55-12.81c-2.09-6.66-7.23-9.95-10.52-15.81c-1.53-2.64-2.38-5.59-3.21-8.52c-0.62-2.17-0.26-4.15-0.21-6.41
			c0.73,1.22,0.23,0.48,1,1.41l0.96,1.07c1.24,2.16,3.08,3.44,4.81,5.15c2.2,2.17,4.25,4.2,5.47,7.11c1.02,2.25,1.04,1.91,1.78,4.2
			c0.03,0.32,0.46,2.65,0.54,2.98l0.93,3.58c-0.15-3.4-0.08-9.75-0.36-13.14c-0.77-1.87-0.47-3.67-1.54-5.23
			c-1.71-2.81-5.23-4.68-7.93-6.44c-3.21-1.9-6.26-4.14-8.39-7.23c-2.01-2.93-4.17-5.14-5.63-8.41c-0.31-0.18-0.84-1.81-1.14-1.99
			c0.68-0.01,1.57,1.01,2.42,1.47c4.23,2.3,8.29,3.35,12.01,6.5c2.55,2.28,5.64,3.78,6.07,7.43c0.04-2.41,0.2-3.37-0.75-5.59
			c-1.43-3.31-2.7-5-5.28-6.73c-1.77-1.27-3.72-1.67-5.75-2.41c-3.35-1.17-6.37-3.1-9.05-5.4c-3.27-2.85-5.25-7.85-7.53-9.84
			c1.38,1.2,3.04,0.85,5.85,1.77c3.98,1.3,8.04,3.44,11.19,6.23c1.4,1.32,2.41,2.62,3.81,3.97c0.87,0.84,0.37-0.34,0.55,0.44
			c0.09-1.01,0.36,0.5-0.37-1.06c-1.96-4.18-3.61-8.26-7.88-10.44c-3.68-1.69-7.88-2.17-11.71-3.5c-1.86-0.89-3.75-1.83-5.44-3.01
			c-2.19-1.6-4.19-3.7-6.1-5.67c-0.51-0.53-1.74-2.04-2.29-2.23c3.07,1.08,8.58,2.12,11.9,2.98c2.9,0.76,4.68,1.9,7.62,3.39
			c0.57,0.29,1.18,0.6,1.81,0.68c-1.51-1.71-3.3-2.65-5.38-3.72c-3.46-1.81-6.09-4.74-9.2-7.19c-3.29-2.59-4.36-4.91-6.85-7.79
			c-0.77-0.88-1.46-2.52-1.82-3.64c-0.17-0.54-0.6-1.81-1.01-2.11c0.47,0.35,1.15,0.21,2.49,0.96c1.94,1.08,3.63,1.99,5.58,2.93
			c4.54,2.09,8.33,5.37,11.34,9.31c2.52,3.51,4.08,7.6,6.38,11.15c1.06,1.66,3.28,3.14,4.09,4.98c0.31,0.17-0.06-0.04,0.26,0.14
			c0.11,0.65-0.19-0.66-0.08,0l-0.12-0.06c-0.32-0.11,0.05,0.15-0.27,0.04c-1.39-2.66-2.81-5.48-3.78-8.32
			c-0.8-2.07-1.1-4.16-1.46-6.33c-0.54-2.99-0.94-8.12-1.43-11.12c0.52,0.05,1.18,1.41,1.83,2.22c4.02,5,7.8,9.39,8.43,16.15
			c0.04,6,1.84,13.09,3.87,18.61c0.43,1.17,0.57,1.75,0.74,2.81c0.18-2.12-0.12-4.1-0.14-6.05c-0.03-3.13-0.72-6.02-1.2-9.08
			c-0.42-3.07-0.17-6.27-0.37-9.37c0.01-0.45-0.17-1.12,0.1-1.18c1.53,3.76,4.63,7.77,6.37,11.37c2.39,4.69,2.63,9.81,1.96,14.95
			c-0.66,3.94-0.27,6.22-0.12,10.21c0.29,0.36,0.45,2.64,0.7,3.02c1.24,3.99,2.22,7.97,3.21,12.02c0.66-4.93-0.87-9.35-1.11-14.19
			c0.49-5.96,1.34-11.76,2.65-17.59c2.1,5.49,4.74,10.88,4.9,16.86c-0.16,3.74-1.02,7.41-2.38,10.89c-0.93,2.33-2.32,4.68-2.94,7.11
			c-0.61,2.44-0.4,4.81-0.04,7.26c0.48,3.18-0.02,6.35,0.47,9.54c0.59-1.77,0.38-3.48,0.51-5.31c0.11-2.02,0.52-4.08,0.94-6.05
			c0.61-2.44,1.35-4.82,2.43-7.1c1.33-3.16,1.07-3.34,2.31-6.69c0.19-0.52,1.1-2.17,1.32-2.86c0.33-1.09,1.74-2.17,1.93-3.23
			c-0.9,4.96,1.06,8.3,0.61,14.31c-0.26,3.49-0.67,6.73-2.18,9.94c-2.01,4.75-5.73,7.96-7.98,12.49c-1.04,2.09-1.95,6.25-2.48,8.52
			c0.62-0.02,1.02-1.65,1.33-2.19c0.27-0.46,0.54-1.02,0.99-1.82c0.52-0.93,0.8-1.34,1.35-2.24c2.38-4.18,7.16-7.17,10.35-10.87
			c0.11,1.78,0.35,3.78-0.09,5.51c-1.69,5.5-3.16,10.58-6.71,15.23c-3.02,3.89-7.92,5.61-11.22,9.48c-2.29,2.87-3.23,5.97-5.08,9.07
			c-0.53,0.89-0.93,1.74-1.34,2.63c-0.3,0.66-0.5,1.32-1.08,1.75c1.7-1.25,2.26-2.79,3.36-4.22c1.93-2.77,4.65-4.54,7.19-6.74
			c3.87-3.16,9.31-6.44,12.62-10.35c-0.04,0.81-1.32,2.9-1.36,3.72c-2.48,4.31-4.54,8.63-7.62,12.61c-1.9,2.33-4.53,4.13-7.16,5.54
			c-3.42,1.85-7.35,2.43-10.33,4.81c-1.86,1.54-3.5,3.41-5.03,5.27c-1.57,1.94-3.48,3.5-5.06,5.43c-0.44,0.53-0.5,0.69-0.86,1.15
			c0.54-0.68,0.39,0.14,1.35-0.77c2.45-2.31,5.06-4.44,7.71-6.53c3.78-2.87,5.93-3.8,10.37-5.44c1.78-0.66,4.87-0.56,6.7-0.6
			c-2.66,2.03-4.03,4.66-6.14,7.23c-2.63,3.46-5.69,6.43-9.82,8.01c-4.22,1.75-8.49,1.79-12.91,2.44c-2.66,0.64-4.92,1.64-7.63,2.89
			c-0.83,0.39-1.43,0.61-2.33,0.79c3.84,1.05,6.78-0.46,10.53-0.96c3.33-0.44,9.42,0,11.35-0.75c-1.56,0.61-2.26,1.87-3.59,2.72
			c-3.87,2.48-7.02,5.04-11.09,6.44c-2.84,1.19-6.48,0.74-9.53,0.79c-2.91,0.1-5.73-0.78-8.58-0.31c-2.66,0.26-5.01,1.25-7.6,1.85
			c2.34,0.5,4.86,0.22,7.09,1.08c4.04,1.57,12.79,1.73,9.49,1.76c8.79-0.08,1.13,1.62-0.02,2.1c-5.11,2.11-10,3.98-15.67,3.9
			c-2.82,0.08-5.32-0.79-7.97-1.61c-2.48-0.84-4.98-1.56-7.37-2.63c-2.38-0.17-4.91-0.07-7.28,0.19c-1.64,0.31-3.15,0.69-4.74,1.18
			c3.59,2.14,6.84,4.33,9.95,7.15c0.02,0.7,0.06,1.39,0.09,2.08c-0.95-0.07-1.91-0.13-2.86-0.21c-2.18-3.31-5.13-5.46-8.45-7.44
			c-1.33-0.8-2.23-0.15-3.08,0.37c-3.1,1.78-6.03,4.11-8.07,7.08c-0.95,0.06-1.9,0.12-2.85,0.18c0.03-0.69,0.06-1.38,0.09-2.07
			c3.15-2.83,6.33-5.02,9.98-7.15c-3.88-1.59-7.96-2.07-12.09-1.18c-3.99,1.25-8,2.86-12.17,3.8c-4.46,0.74-8.61-0.12-12.85-1.44
			c-2.75-0.99-5.4-1.76-7.71-3.65c3.54-0.88,7.17-1.35,10.7-2.26c2.89-0.63,5.87-0.81,8.78-1.32c-3.11-0.01-5.77-1.55-8.83-1.74
			c-2.72-0.42-5.17,0.28-7.91,0.28c-2.8-0.02-5.75,0.26-8.52-0.25c-5.87-1.51-10.17-4.33-15.01-7.97c-0.64-0.48-2.3-1.35-2.32-1.93
			c0.95,0.18,4.29,0.1,5.22,0.31c4.44,0.41,7.96,0.12,12.12,1.27c2.6,0.65,4.41,2.2,7.24,1.58c-0.9-0.15-1.49-0.7-2.3-1.12
			c-4.83-2.53-10.73-3.99-16.01-4.48c-3.5-0.8-6.83-1.51-9.82-3.63c-5.82-3.89-8.33-10.11-13.2-14.5c0.95,0.04,3,1.28,4.35,1.73
			c4.06,1.35,6.05,2,10.18,3.43c4.5,2.15,6.76,5.91,11.02,8.25c0.92,0.51,0.63,0.62,1.5,0.56c-0.58-0.23-0.37-0.38-0.95-0.61
			c-1.77-1.97-3.72-3.72-5.37-5.8c-2.41-2.91-4.87-5.69-8.51-7.04c-3.68-1.32-7.23-2.66-10.36-5.08c-3.7-2.6-5.84-6.7-8.07-10.51
			c-1.33-2.66-3.13-4.57-3.07-7.69c2.04,2.22,4.26,3.99,6.76,5.66c3.47,2.31,5.73,3.9,9.03,6.46c2.42,1.88,5.53,4.69,6.3,7.25
			l-1.69-2.41c-2.31-3.24-3.34-7-5.81-10.23c-3.21-3.86-8.19-5.66-11.26-9.53c-3.54-4.56-4.97-9.56-6.67-14.95
			c-0.62-2.17-0.32-4.25,0.06-6.42c0.13,0.5,1.05,1.07,1.55,1.59c2.18,2.26,3.26,3.45,5.49,5.67c1.74,1.7,2.64,3.04,3.87,5.16
			c0.37,0.64,0.93,1.97,1.18,2.48c0.5,1.02,1.15,2.97,1.76,3c-0.75-3.46-2.12-8.72-4.25-11.63c-2.77-3.87-5.75-7.34-7.27-11.96
			c-0.37-1.7-0.73-3.38-0.75-5.14c-0.05-4.27-0.11-10.56,0.59-14.79c0.56,0.06,1.16,1.16,1.74,2.24c1.57,2.93,2.17,5.61,3.43,8.57
			c1.32,2.64,1.94,5.43,2.68,8.27c0.65,3.72,0.67,7.44,1.1,11.16c0.64-3.73-0.01-7.45,0.61-11.17c0.3-1.83,0.29-3.65,0.21-5.5
			c-0.93-4.15-3.5-7.52-4.43-11.65c-1.16-3.63-1.29-7.41-0.85-11.17c0.71-3.53,1.72-7.1,3.44-10.25c0.23-0.43,0.4-0.58,0.77-0.93
			c0.43-0.39,0.49-0.62,1.02-0.63c0.05,2.21,0.44,4.36,0.88,6.52c0.47,2.24,0.33,4.51,0.92,6.73c0.18,2.03,0.18,4.01,0.01,6.04
			c-0.81,3.59-1.34,7.38-0.95,11.06c0.92-3.45,1.68-6.94,2.74-10.36c0.52-1.87,1.36-3.86,1.43-5.79c0.1-2.99,0.14-5.93-0.37-8.88
			c-0.48-4.46-0.61-8.94,1.13-13.13c1.66-4.75,5.32-8.08,7.14-12.66c0.08,3.24,0.25,6.68-0.18,9.9c-0.48,3.06-0.3,6.07-1.19,9.07
			c-0.91,2.34-0.47,2.6-0.34,5.07c0.15-1.45,0.12-0.93,0.66-2.24c0.97-2.33,2.47-4.15,3.24-6.52c0.97-4.57,0.75-8.92,1-13.5
			c0.82-2.38,1.5-4.68,2.88-6.81c1.84-3.14,4.41-5.7,6.27-8.84c0.17,3.27-0.58,6.35-0.46,9.62c0.28,7.4-3.31,9.87-5.73,14.58
			c-0.52,1.02-0.29,0.87-0.33,1.8c0.13-0.95,0,0.07,0.58-0.86l0.54-0.77c0.98-1.68,2.23-2.54,3.34-4.22
			c2.34-3.42,3.81-7.33,6.14-10.8c3.59-5.2,8.69-8.98,14.57-11.24c0.58-0.25,0.98-0.62,1.55-0.89
			C92.88,44.99,93.39,44.81,93.73,44.52L93.73,44.52z"/>
		<g>
			<path class="st1" d="M140.95,166.81c0.01,0,0.02,0,0.04,0C140.97,166.59,140.86,166.8,140.95,166.81z"/>
			<path class="st1" d="M120.2,129.91c4.3-0.08,8.65,0.2,12.92-0.2l1.35-3.65c0.07-0.28,0.19-0.57,0.32-0.86l0.24-0.65
				c0.04-0.15,0.07-0.3,0.08-0.45c-2.13,0.05-4.45,0.36-6.09-1.08c-1.99-1.76-1.03-4.64,0.06-7.65
				c4.63-12.83,7.49-26.34,11.37-39.41c0.61-2.26,1.35-3.95,3.45-4.92c2.09-0.97,4.2-0.9,6.36-0.94c0.8-1.84,1.4-3.64,1.83-5.59
				c-10.2-0.4-20.45-0.08-30.66-0.18c-3.35,0.12-6.42-0.09-9.94-0.02l-0.18,0.26c-0.81,1.78-1.87,5.59-1.44,5.58
				c2.49,0,5.29,0.47,6.39,1.43c1.17,1.03,0.18,3.89-0.34,5.64c-2.82,9.68-5.53,19.34-8.37,29.04c-1.4,4.46-2.4,9.22-4.13,13.57
				c-0.66,1.48-1.77,3.5-3.49,3.87c-1.73,0.52-3.7,0.37-5.5,0.43c-0.88,1.84-1.57,3.64-1.83,5.67
				C101.77,130.06,110.99,129.85,120.2,129.91z"/>
			<path class="st1" d="M179.3,166.97c-0.47-0.03-1.33-0.63-1.8-0.66c-0.58-0.53-1.16-1.06-1.74-1.59
				c-1.19-3.48-0.65-6.79-0.83-10.37c-0.09-2.26-0.1-4.53-0.15-6.78c-0.09-4.51-0.24-10.2-0.53-15.25
				c-0.33-5.66-0.52-11.62-0.84-17.83c-0.13-2.48-0.23-4.97-0.43-7.45c-5.18-0.74-10.22-0.39-15.44-0.47c-3.16-0.06-6.3,0-9.44,0.36
				l-0.61,1.14c-1.19,1.91-1.68,2.74-2.84,4.46c-2.82,4.44-5.4,9.05-8.26,13.47l-3.05,5.06c-0.01,0.07-0.03,0.13-0.04,0.2
				c-5.56,8.89-10.92,17.94-16.43,26.87c-1.6,2.42-3.05,5.37-5.29,7.25c-1.3,1.1-2.74,0.86-4.33,1.03
				c-0.91,1.85-1.58,3.67-1.76,5.75c8.42-0.08,16.87,0.21,25.28-0.18c0.32-2.06,2.1-5.37,1.42-5.41c-2.52-0.14-6.01,0.83-8.04-1.02
				c-1.11-1.01-0.47-2.49,0.04-3.84c0.93-2.46,2.23-4.84,3.69-7.03c0.81-1.17,1.81-1.78,3.26-1.77c6.69-0.13,20.47-0.49,20.47-0.17
				c0,3.44,0.05,5.69,0.08,8.4c0.14,2.29-2.23,5-4.49,5.41c-1.76,0.26-4.49,0.38-6.19,0.27c0.01,0.07,0.01,0.18-0.01,0.36
				c-0.15,1.55,0.06,0.53-0.1,1.5c-0.31,1.8-0.04,3.51-0.62,3.46c1.65,0.15,2.07,0.08,3.81,0.05c10.2-0.04,20.4-0.01,30.6-0.01
				c1.51-0.01,2.98-0.07,4.48-0.14c1.53-0.08,0-0.05,2.53,0c0.39,0.01,0.12-4.8,0.52-4.85C181.46,166.84,180.03,167.26,179.3,166.97
				z M151.71,147.12c-3.37,0.39-5,0.08-7.64,0.12c-4.11-0.06-8.27,0.18-12.36-0.2c0.54-0.12,0.58-0.68,0.97-1.39
				c0.34-0.62,0,0.04,0.74-1.11c1.61-2.51,3.01-5,4.57-7.52c2.63-4.67,5.4-9.26,8.01-13.95c1.82-2.86,3.28-5.69,5.54-8.52
				C151.89,125.26,151.91,147.1,151.71,147.12z"/>
		</g>
	</g>
</g>
</svg>
