<?xml version="1.0" encoding="utf-8"?>
<!-- Generator: Adobe Illustrator 23.0.0, SVG Export Plug-In . SVG Version: 6.00 Build 0)  -->
<svg version="1.1" xmlns="http://www.w3.org/2000/svg" xmlns:xlink="http://www.w3.org/1999/xlink" x="0px" y="0px"
	 viewBox="0 0 270 267" style="enable-background:new 0 0 270 267;" xml:space="preserve">
<style type="text/css">
	.st0{fill:#FFFFFF;}
	.st1{fill:#010101;}
	.st2{fill:none;stroke:#FFFFFF;stroke-width:5.6754;stroke-miterlimit:10;}
	.st3{fill:#171717;}
	.st4{fill:none;}
</style>
<g id="Layer_1">
	<g>
		<polygon class="st0" points="67.38,57.21 63.08,109.06 65.86,125.49 55.49,136.12 67.38,161.15 97.72,177.84 105.31,190.23 
			118.97,194.79 122,186.44 118.97,177.84 143.12,176.71 153.99,205.03 178.27,221.97 173.46,183.03 166.89,171.9 171.44,152.68 
			171.44,133.46 157.03,139.53 146.4,151.67 143.12,163.55 114.54,159.26 114.03,144.34 124.4,120.56 143.12,108.93 143.12,119.05 
			136.54,125.37 138.06,133.46 146.15,130.93 150.45,121.83 150.45,109.18 173.46,95.27 189.4,90.98 190.66,78.08 198.25,61.89 
			212.66,56.58 204.57,42.67 167.9,44.95 107.97,60.63 98.36,56.58 		"/>
		<path class="st1" d="M104.24,102.59c1.26-1.37,1.47-6.19,0.84-6.72c-0.63-0.53-1.36-3.47-1.26-5.99c0.11-2.52-1.05-3.07-2.61-3.07
			c-1.56,0-2.43,4.33-2.43,5.81c0,1.46-3.15,5.67-4.41,7.67c-1.26,2-0.94,7.56-0.52,9.88c0.42,2.31,2.94,4.41,4.51,4.62
			c1.58,0.21,1.68-2.41,1.89-3.36S102.98,103.96,104.24,102.59z"/>
		<path class="st1" d="M112.02,97.86c2,0.22,4.73-4.93,6.09-6.61c1.37-1.68,7.46-3.05,8.83-3.58c1.37-0.53,1.89-2.51,0.21-4.57
			c-1.68-2.06-0.21-8.87,0-10.04c0.21-1.17,0.95-1.87-0.42-3.87c-1.36-1.99-3.99,1.16-3.99,1.16c-2.1,4.09-9.98,8.19-9.88,10.34
			c0.11,2.15-1.57,9.72-2.62,11.52C109.18,93.98,110.02,97.66,112.02,97.86z"/>
		<path class="st1" d="M187.66,53.31c-6.82-4.53-7.98-2.1-12.71-1.04c-4.73,1.04-7.46,7.25-6.93,10.93
			c0.52,3.67,4.41,5.98,6.51,6.61c2.1,0.63,7.35,1.05,7.35,1.05c4.41,0.49,8.62-2.73,9.35-3.36
			C191.98,66.87,194.5,57.83,187.66,53.31z M183.99,65.61c-0.95,0.42-4.83,1.68-5.46,0.53c-0.63-1.16,2.42-2.31,3.78-2.42
			c1.37-0.11,4.1-3.68,0-3.68c-4.1,0-4.31,1.68-7.25,1.79c-3.05,0.11-2.63-3.99,3.68-4.41c6.3-0.42,6.51,0,8.3,2.63
			C188.82,62.67,184.93,65.19,183.99,65.61z"/>
		<path class="st1" d="M97,140.31c-1.16-0.62-2.94-11.77-2.94-12.19c0-0.42,0.21-5.46-1.26-6.51c-1.47-1.06-5.04-10.2-5.04-10.2
			c-1.37-1.05-1.79-0.84-2.94,0.84c-1.16,1.68-1.68,6.3-1.16,11.24c0.53,4.94,1.89,7.46,4.1,12.09c2.2,4.62,5.98,8.2,8.09,8.62
			C97.94,144.62,98.15,140.95,97,140.31z"/>
		<path class="st1" d="M205.53,64.28c0,0,5.32,4.76,5.6,7c0.28,2.24,5.56-0.01,6.16-5.04c0,0,3.08-12.33-4.48-19.61
			c-7.56-7.28-12.05-9.25-39.5-7.56c-27.46,1.68-58.28,13.73-61.64,16.25c-3.36,2.52-14.01-3.36-48.75-0.84
			c0,0,1.12,23.53-1.4,30.82c-2.52,7.28-0.28,29.98,0,31.38c0.28,1.4-12.61,20.17-8.69,28.86c3.92,8.69,16.81,25.5,22.97,27.74
			c6.16,2.24,8.69,4.2,12.61,5.32c3.92,1.12,8.13,2.8,9.81,9.25c1.68,6.44,14.29,8.69,14.29,8.69s5.04,2.52,6.44,4.2
			s5.88,0.84,4.76-6.44c-1.12-7.28,1.4-7.56-0.28-9.81c-1.68-2.24-2.8-4.76,3.64-4.76c6.44,0,15.13-0.84,17.51,8.13
			c2.38,8.97,5.74,20.73,9.39,24.66c3.64,3.92,22.97,16.81,28.3,15.97c5.32-0.84-1.12-11.77-2.8-17.93
			c-1.68-6.16-3.08-23.53-2.24-26.06c0.84-2.52-5.04-11.21-5.32-12.05c-0.28-0.84,3.92-10.65,3.92-14.57
			c0-3.92-0.84-18.49,0.84-21.01c1.68-2.52,2.24-6.72,1.4-7.56c-0.84-0.84-1.68-3.64-5.6,0c-3.92,3.64-8.69,5.04-11.77,5.6
			c-3.08,0.56-11.49,7-13.45,10.93c-1.96,3.92-4.48,9.81-4.48,12.33c0,2.52-13.73,1.68-13.73-0.28s1.68-6.44-4.76-6.44
			c-6.44,0-8.13-0.56-8.13-0.56s-0.84-11.17,4.2-17.35c5.04-6.18,12.49-14.87,14.65-16.27c2.16-1.4,8.33-1.96,4.68,3.08
			c-3.64,5.04-6.16,1.68-5.88,8.97c0.28,7.28,1.96,7-1.68,11.21c-3.64,4.2,4.2,6.16,8.97,0.28s11.49-14.57,11.21-17.09
			c-0.28-2.52-1.12-13.17,8.13-17.37c9.25-4.2,22.97-5.88,28.86-11.21s17.09-1.68,21.29-6.44c4.2-4.76,6.44-4.76,5.32-8.69
			c-1.12-3.92-4.2-3.36-4.2-3.36s-7.56,5.6-10.37,6.16c-2.8,0.56-10.37,0.28-10.37,0.28S193.21,70.24,205.53,64.28z M170.29,214.52
			c-2.24-0.77-11.07-9.11-12.19-10.09c-1.12-0.98-0.77-3.5-0.91-6.51c-0.14-3.01,1.47-3.01,2.59-3.01c1.12,0,3.29,3.01,3.57,4.06
			c0.28,1.05,1.12,4.83,4.48,6.93c3.36,2.1,5.04,6.44,5.04,6.44C174.43,215.43,172.53,215.29,170.29,214.52z M170.99,193.09
			c0.07,1.75,1.19,3.29,1.89,5.53c0.7,2.24-0.21,3.5-1.19,3.5c-0.98,0-1.68-0.49-3.08-1.82c-1.4-1.33-1.47-3.08-1.47-3.08
			c-0.1-1.46-2.17-3.57-2.87-4.06c-0.7-0.49-1.96-3.57-3.08-4.41c-1.12-0.84-2.24-3.29-1.33-4.48c0.91-1.19,1.12-1.4,3.57-1.19
			c2.45,0.21,5.6,3.85,5.81,5.67C169.45,190.57,170.92,191.34,170.99,193.09z M151.57,149.28c0.32-1.85,4.47-4.56,5.1-4.71
			c0.63-0.16,5.94-4.62,5.94-4.62c0.95-0.32,1.84-0.63,3.31,0c1.47,0.63,0.53,2.31,0.41,3.1c-0.11,0.79-2.51,5.83-3.72,5.83
			c-1.21,0-5.04,1.47-6.36,2.68c-1.31,1.21-3.78,1.21-4.31,0.89C151.42,152.13,151.26,151.13,151.57,149.28z M146.9,166.1
			c0.84-3.15,2.05-3.57,5.25-6.72c3.2-3.15,7.93-3.68,7.93-3.68c1.99-0.42,5.78-1.42,6.99,0c1.21,1.42,0.63,4.52,0.37,6.09
			s-3.15,4.36-4.99,5.62c-1.84,1.26-5.88,1.1-6.93,2c-1.05,0.89-7.2,3.1-8.09,2.36C146.53,171.04,146.06,169.26,146.9,166.1z
			 M83.44,59.62c2.21-1.26,15.34-0.63,15.34-0.63c2.84,0.1,2.94,3.36,1.58,4.31c-1.37,0.95-3.68,0.84-10.4,0.53
			C83.23,63.51,81.23,60.88,83.44,59.62z M71.15,79.9c0.74-1.89,0-19.11,0-19.11c4.52-0.62,8.3,7.24,10.09,7.24
			c1.79,0,6.72,0.95,7.46,2.89c0.74,1.94-0.74,3.73-2.84,4.89c-2.1,1.16-8.83-0.74-8.83-0.74s-1.16,1.79,0.21,2.92
			c1.37,1.13,1.68,2.55,1.47,4.33c-0.21,1.79-3.05,3.05-5.46,3.05C70.83,85.36,70.41,81.79,71.15,79.9z M72.51,87.88
			c0,0,2.63,2,2,4.2c-0.63,2.21-2.55,2.31-3.69,2.42c-1.14,0.11-3.35-1.89-3.35-3.26S69.99,86.83,72.51,87.88z M63.69,146.82
			c-1.58,0-3.47-2.21-3.57-4.73c-0.11-2.52,1.16-4.31,2.42-4.31c1.26,0,2.42-0.32,3.15,3.47C66.41,145.04,65.26,146.82,63.69,146.82
			z M68.73,101.33c-1.68,0-3.15-1.16-3.05-2.21c0.11-1.05,0.63-2.73,3.05-2.21c0,0,2.2,0.21,2.31,2.1
			C71.15,100.91,70.41,101.33,68.73,101.33z M94.89,166.16c-1.37,1.37-4.31,0-6.3-1.68c-2-1.68-2.86-0.63-4.05-0.32
			c-1.2,0.32-4.7-0.74-5.05-2.21c-0.35-1.47-0.38-4.4-3.74-5.45c-3.36-1.05-3.57-5.28-1.02-4.87c2.55,0.41,3.89,0.45,6.41,2.34
			c2.52,1.89,9.14,8.41,10.93,8.3C93.84,162.16,96.26,164.79,94.89,166.16z M94.9,148.4c-2.84-0.73-10.83-6.09-13.14-14.29
			c-2.31-8.2-3.15-16.08-1.15-23.64c1.99-7.56,9.67-19.55,13.24-22.8c3.57-3.25,12.5-12.18,14.81-13.86
			c2.31-1.68,14.92-11.8,17.44-12.36c2.52-0.56,5.15-1.4,7.04,2.07c0,0-0.63,16.26,1.15,19.58c1.79,3.32,3.15,6.78,1.68,8.15
			s-11.24,1.98-15.23,4.08c-3.99,2.11-11.67,10.31-13.03,12.73c-1.37,2.41-7.99,13.34-8.3,18.49c-0.31,5.15,0.42,16.18,1.89,18.38
			c1.47,2.21,1.79,3.26,1.58,4C102.67,149.66,97.73,149.13,94.9,148.4z M117.69,188.75c-0.53,0.68-3.83,2.73-6.15,0.63
			c-2.31-2.1-4.26-3.05-5.04-4.31c-0.79-1.26-0.95-2.74,1.47-2.36c0,0,5.67,1,8.46,0.89C119.21,183.49,118.22,188.06,117.69,188.75z
			 M123.99,167.31c2.94-1.05,7.98-1.05,8.93-1.58c0.95-0.53,7.57-0.39,8.41,1.22c0.84,1.61,0,3.82-3.89,4.45
			c-3.89,0.63-13.15,2.94-16.03,2.73c-2.88-0.21-13.01,0.87-15.98,0.01c-2.97-0.85-5.07-1.17-6.44-3.17c-1.37-2-0.85-5.73,2.21-5.25
			c0,0,3.7,0.32,6.84,1.58C111.18,168.57,121.05,168.36,123.99,167.31z M136.59,110.26c-2.84,0.32-2.3,0.53-4.93,1.68
			c-2.63,1.16-9.56,7.46-11.98,10.09c-2.42,2.63-6.3,10.51-7.14,12.29c-0.84,1.79-1.16,11.77-1.16,11.77
			c-0.07,1.69-3.26,3.26-3.35,0c-0.09-3.26,0.2-9.88,0.83-13.24c0.63-3.36,2.63-7.98,4.94-12.4c2.31-4.41,7.56-9.98,10.09-11.35
			c2.52-1.37,8.93-5.99,12.71-6.3c3.78-0.32,3.89,1.89,4.31,2.94C141.33,106.79,139.44,109.95,136.59,110.26z M145.74,127.07
			c0,0-3.78,4.62-4.77,3.78c-0.99-0.84-0.9-3.99-0.79-6.3c0.11-2.31,3.68-2.73,3.68-2.73C147.26,124.57,145.74,127.07,145.74,127.07
			z M159.3,100.39c-0.53,1.68-3.89,4.2-4.52,4.2c-0.63,0-5.04,1.05-7.35-2.42c-2.31-3.47-3.99-9.25-4.73-13.66
			c-0.74-4.41-1.68-16.71-1.26-19.75s0.84-6.39,2-6.82c1.16-0.43,4.62-1.69,3.78,2.72c0,0-2.1,10.14-1.89,13.32
			c0.21,3.18,1.79,9.8,3.15,11.79c1.37,2,4.31,6.41,7.46,7.25C159.09,97.86,159.82,98.7,159.3,100.39z M164.23,93.45
			c-1.26,2.73-4.2,1.68-4.2,1.68c-3.26-0.42-6.51-8.93-7.56-12.08c-1.05-3.15-1.26-7.56-0.53-16.44c0.74-8.88,5.57-14.55,5.57-14.55
			c2.06-3.11,2.94-1.79,3.36-1.39c0.42,0.4,1.37,2.02-0.84,5.84s-2.31,13.2-2.52,19.09c-0.21,5.88,4.2,14.29,5.33,14.5
			C163.96,90.3,165.5,90.72,164.23,93.45z M169.17,84.84c-1.89,1.58-3.89,3.15-5.88,0c-2-3.15,3.3-3.99,3.3-3.99
			c1.51-0.41,3.11,0,3.85,0.74C171.17,82.31,171.06,83.26,169.17,84.84z M171.06,76.54c-1.79,2.1-5.88,1.26-7.69,1.37
			c-1.81,0.11-1.45-2.52-1.55-4.52c-0.11-2,3.11-2.47,3.11-2.47C165.81,70.69,172.85,74.43,171.06,76.54z M195.44,62.78
			c0,2.52-2.41,7.88-5.35,10.19c-2.94,2.31-1.37,4.41-3.26,10.61c-1.89,6.2-6.09,7.67-6.09,7.67c-1.47,0-3.15-0.95-3.46-1.47
			c-0.32-0.52-0.63-2.31,0.84-5.67c1.47-3.36,2.83-2.73,6.72-5.77c3.88-3.05,0.1-5.68-0.95-5.68s-0.42,2.1-2.94,2.42
			c-2.52,0.32-2.41,0-6.51-1.58c-4.09-1.57-7.98-5.88-9.14-9.67c-1.16-3.78,0.42-13.76,5.46-15.33c5.04-1.58,10.4-1.68,15.97-0.84
			c5.56,0.84,7.14,4.62,7.99,5.67C195.55,54.35,195.44,60.26,195.44,62.78z M199.22,50.48c1.58-0.84,3.89-0.11,5.78,0.95
			c1.89,1.05,1.26,4.2,1.26,4.2c-1.68,1.37-4.41,0.95-6.2,0C198.28,54.68,197.65,51.32,199.22,50.48z"/>
	</g>
</g>
<g id="Isolation_Mode">
</g>
</svg>
