<?xml version="1.0" encoding="utf-8"?>
<!-- Generator: Adobe Illustrator 23.0.0, SVG Export Plug-In . SVG Version: 6.00 Build 0)  -->
<svg version="1.1" xmlns="http://www.w3.org/2000/svg" xmlns:xlink="http://www.w3.org/1999/xlink" x="0px" y="0px"
	 viewBox="0 0 270 267" style="enable-background:new 0 0 270 267;" xml:space="preserve">
<style type="text/css">
	.st0{fill:#FFFFFF;}
	.st1{fill:#010101;}
	.st2{fill:none;stroke:#FFFFFF;stroke-width:5.6754;stroke-miterlimit:10;}
	.st3{fill:#171717;}
	.st4{fill:none;}
</style>
<g id="Layer_1">
</g>
<g id="Isolation_Mode">
	<g>
		<path class="st2" d="M221.44,130.15c-3.37-3.3-5-7.02-2.14-12c3.58-6.25,3.23-7.12-2.93-11.21c-3.98-2.64-5.09-5.58-3.83-10.24
			c1.68-6.18,0.84-7.62-5.26-9.62c-4.79-1.57-7.07-4.12-6.91-9.41c0.18-5.77-1.74-7.77-7.44-7.75c-5.26,0.02-7.85-2.25-9.29-7.08
			c-1.83-6.15-3.05-7.16-8.94-5.7c-5.56,1.38-8.64-0.51-11.4-5.05c-3.09-5.09-4.21-5.41-9.48-2.67c-4.79,2.48-8.52,2.19-12.43-1.74
			c-4.17-4.19-5.81-4.14-10.25-0.09c-3.66,3.34-7.03,4.19-11.65,1.64c-6.01-3.33-7.03-2.97-10.91,2.85
			c-2.57,3.87-5.31,5.37-10.11,4.07c-6.48-1.76-7.85-0.89-9.95,5.43c-1.61,4.84-4.35,6.89-9.56,6.72c-5.57-0.18-7.52,1.67-7.5,7.18
			c0.03,5.43-2.23,8.12-7.32,9.59c-5.95,1.71-6.97,3.14-5.47,9.12c1.36,5.43-0.56,8.36-4.9,11.05c-5.31,3.29-5.38,4.25-2.85,9.87
			c2.97,6.61,2.89,7.06-2.03,12.1c-3.57,3.65-3.65,6.44-0.29,10.13c4.71,5.18,4.92,6.52,1.92,12.63c-2.7,5.5-2.69,6.28,2.66,9.79
			c4.15,2.72,5.88,5.63,4.42,10.82c-1.72,6.14-0.77,7.49,5.4,9.55c4.77,1.59,7,4.23,6.8,9.5c-0.21,5.55,1.67,7.61,7.1,7.59
			c5.65-0.02,8.62,2.31,9.69,7.69c0.88,4.45,3.76,6.64,8.12,5.26c6.24-1.98,9.91,0.51,12.7,5.79c1.87,3.55,4.87,4.34,8.27,2.15
			c5.31-3.42,9.74-2.47,13.85,2.1c2.87,3.19,6.15,3,8.92-0.09c4.15-4.61,8.56-4.78,13.51-1.53c3.6,2.36,6.63,1.49,8.65-2.15
			c2.86-5.15,6.69-7.42,12.52-5.11c0.53,0.21,1.18,0.13,2.42,0.24c3.61,0.87,5.1-2.05,5.92-5.2c1.36-5.22,4.1-7.73,9.85-7.52
			c5.49,0.2,7.46-1.73,7.41-7.27c-0.05-5.8,2.64-8.48,7.88-9.55c4.58-0.93,6.35-4,5.05-8.26c-1.75-5.73,0.01-9.49,5.23-12.09
			c3.93-1.96,5.01-5.1,2.58-8.86c-3.49-5.39-2.09-9.68,2.24-13.82C224.63,136.15,224.62,133.26,221.44,130.15L221.44,130.15z"/>
		<path class="st3" d="M221.44,130.15c-3.37-3.3-5-7.02-2.14-12c3.58-6.25,3.23-7.12-2.93-11.21c-3.98-2.64-5.09-5.58-3.83-10.24
			c1.68-6.18,0.84-7.62-5.26-9.62c-4.79-1.57-7.07-4.12-6.91-9.41c0.18-5.77-1.74-7.77-7.44-7.75c-5.26,0.02-7.85-2.25-9.29-7.08
			c-1.83-6.15-3.05-7.16-8.94-5.7c-5.56,1.38-8.64-0.51-11.4-5.05c-3.09-5.09-4.21-5.41-9.48-2.67c-4.79,2.48-8.52,2.19-12.43-1.74
			c-4.17-4.19-5.81-4.14-10.25-0.09c-3.66,3.34-7.03,4.19-11.65,1.64c-6.01-3.33-7.03-2.97-10.91,2.85
			c-2.57,3.87-5.31,5.37-10.11,4.07c-6.48-1.76-7.85-0.89-9.95,5.43c-1.61,4.84-4.35,6.89-9.56,6.72c-5.57-0.18-7.52,1.67-7.5,7.18
			c0.03,5.43-2.23,8.12-7.32,9.59c-5.95,1.71-6.97,3.14-5.47,9.12c1.36,5.43-0.56,8.36-4.9,11.05c-5.31,3.29-5.38,4.25-2.85,9.87
			c2.97,6.61,2.89,7.06-2.03,12.1c-3.57,3.65-3.65,6.44-0.29,10.13c4.71,5.18,4.92,6.52,1.92,12.63c-2.7,5.5-2.69,6.28,2.66,9.79
			c4.15,2.72,5.88,5.63,4.42,10.82c-1.72,6.14-0.77,7.49,5.4,9.55c4.77,1.59,7,4.23,6.8,9.5c-0.21,5.55,1.67,7.61,7.1,7.59
			c5.65-0.02,8.62,2.31,9.69,7.69c0.88,4.45,3.76,6.64,8.12,5.26c6.24-1.98,9.91,0.51,12.7,5.79c1.87,3.55,4.87,4.34,8.27,2.15
			c5.31-3.42,9.74-2.47,13.85,2.1c2.87,3.19,6.15,3,8.92-0.09c4.15-4.61,8.56-4.78,13.51-1.53c3.6,2.36,6.63,1.49,8.65-2.15
			c2.86-5.15,6.69-7.42,12.52-5.11c0.53,0.21,1.18,0.13,2.42,0.24c3.61,0.87,5.1-2.05,5.92-5.2c1.36-5.22,4.1-7.73,9.85-7.52
			c5.49,0.2,7.46-1.73,7.41-7.27c-0.05-5.8,2.64-8.48,7.88-9.55c4.58-0.93,6.35-4,5.05-8.26c-1.75-5.73,0.01-9.49,5.23-12.09
			c3.93-1.96,5.01-5.1,2.58-8.86c-3.49-5.39-2.09-9.68,2.24-13.82C224.63,136.15,224.62,133.26,221.44,130.15L221.44,130.15z"/>
		<path class="st0" d="M207.37,103.99c15.69,40.2-4.18,85.51-44.38,101.2c-40.2,15.69-85.51-4.18-101.21-44.38
			c-15.69-40.2,4.18-85.51,44.38-101.21C146.37,43.91,191.68,63.79,207.37,103.99L207.37,103.99z"/>
		
			<rect x="46.01" y="44.63" transform="matrix(0.0114 -0.9999 0.9999 0.0114 -0.0365 266.9631)" class="st4" width="177.98" height="177.74"/>
		<path class="st2" d="M107,192.94l-3.2,0.09c-0.52,0.01-12.67,0.38-17.3,1.1c-5.31,0.83-11.67,3.03-11.94,3.12l-3.86,1.34
			l2.35,3.34l3.67,5.21l-4.02,7.21l-4.07,7.31l7.84-2.92c0.06-0.02,6.08-2.25,11.89-3.04c5.96-0.81,15.25-0.82,15.35-0.82l3.04,0
			l0.04-3.04l0.18-15.68L107,192.94L107,192.94L107,192.94z M103.88,196.11l-0.18,15.68c0,0-9.52,0-15.76,0.85
			c-6.24,0.85-12.55,3.21-12.55,3.21l4.96-8.9l-4.78-6.79c0,0,6.31-2.19,11.41-2.99C91.47,196.48,103.88,196.11,103.88,196.11"/>
		<path class="st2" d="M160.99,193.2l-0.04,3.21l-0.18,15.68l-0.03,3.04l3.04,0.07c0.09,0,8.87,0.22,14.81,1.17
			c5.81,0.93,11.76,3.29,11.82,3.31l7.53,3.01l-3.64-7.25l-3.97-7.91l3.74-4.4l2.85-3.35l-4.12-1.53c-0.27-0.1-6.58-2.44-11.86-3.39
			c-4.61-0.83-16.25-1.47-16.75-1.49L160.99,193.2L160.99,193.2L160.99,193.2z M164.03,196.44c0,0,11.89,0.64,16.37,1.45
			c5.08,0.92,11.34,3.25,11.34,3.25l-5.06,5.96l4.88,9.73c0,0-6.26-2.5-12.48-3.49c-6.22-0.99-15.23-1.2-15.23-1.2L164.03,196.44"/>
		<path class="st4" d="M184.19,106.92c14.07,27.41,3.26,61.03-24.14,75.1c-27.4,14.07-61.03,3.26-75.1-24.14
			c-14.07-27.4-3.26-61.03,24.14-75.1C136.5,68.71,170.12,79.52,184.19,106.92L184.19,106.92z"/>
		<path class="st3" d="M135.11,77.14c-8.69-0.1-17.53,1.85-25.78,6.09c-27.11,13.92-37.84,47.3-23.92,74.41
			c13.92,27.11,47.3,37.84,74.41,23.92c27.11-13.92,37.84-47.3,23.92-74.41l0,0C174.06,88.3,154.96,77.37,135.11,77.14L135.11,77.14
			z M134.02,188.68c-20.22-0.23-39.67-11.37-49.53-30.57c-14.18-27.61-3.25-61.61,24.37-75.79c27.61-14.18,61.61-3.25,75.79,24.37
			c6.87,13.38,8.12,28.63,3.51,42.94c-4.6,14.31-14.5,25.98-27.88,32.85C151.88,186.79,142.88,188.78,134.02,188.68L134.02,188.68z"
			/>
		<path class="st3" d="M135.08,82.66c-7.98-0.09-15.91,1.76-23.22,5.51c-11.81,6.07-20.56,16.37-24.62,29.01
			c-4.06,12.64-2.96,26.11,3.1,37.93c8.71,16.96,25.89,26.79,43.74,27c7.82,0.09,15.77-1.67,23.19-5.48
			c24.39-12.52,34.04-42.55,21.52-66.94l0,0c-6.07-11.81-16.37-20.56-29.01-24.62C144.96,83.52,140.01,82.72,135.08,82.66
			L135.08,82.66z M134.05,186.21c-19.33-0.22-37.93-10.87-47.35-29.23c-6.57-12.79-7.76-27.37-3.36-41.06
			c4.4-13.69,13.87-24.84,26.66-31.41c12.79-6.57,27.37-7.76,41.06-3.36c13.69,4.4,24.84,13.87,31.41,26.66
			c13.56,26.4,3.1,58.91-23.3,72.46C151.12,184.41,142.51,186.31,134.05,186.21L134.05,186.21z"/>
		<path class="st3" d="M135.35,56.57c-9.43-0.11-19.03,1.55-28.35,5.19c-38.95,15.2-58.28,59.26-43.07,98.22
			c7.36,18.87,21.64,33.74,40.19,41.88c18.55,8.14,39.16,8.56,58.03,1.19c38.95-15.2,58.27-59.26,43.07-98.22
			C193.65,75.19,165.37,56.91,135.35,56.57L135.35,56.57z M133.64,212.89c-10.67-0.12-21.31-2.4-31.38-6.81
			c-19.68-8.63-34.82-24.41-42.63-44.43C43.5,120.33,64,73.58,105.32,57.46c41.32-16.13,88.07,4.37,104.19,45.69l0,0
			c7.81,20.02,7.36,41.88-1.27,61.56c-8.63,19.68-24.41,34.82-44.43,42.63C154.05,211.16,143.83,213,133.64,212.89L133.64,212.89z"
			/>
		
			<rect x="46.01" y="44.63" transform="matrix(0.0114 -0.9999 0.9999 0.0114 -0.0365 266.9631)" class="st4" width="177.98" height="177.74"/>
		<polygon class="st3" points="69.68,141.81 72.08,141.33 72.84,141.01 75.33,142.67 76.26,147.29 74.61,149.78 67.76,151.16 
			65.07,149.38 64.04,144.28 67.09,142.54 66.84,144.58 67.24,146.54 67.91,147.4 68.79,147.64 72.45,146.9 73.03,146.45 
			73.22,145.75 73.01,144.71 72.43,144.33 70.6,144.7 69.31,145.71 68.46,141.48 69.68,141.81 		"/>
		<polygon class="st3" points="69.55,125.73 71.99,125.84 72.81,125.72 74.82,127.93 74.6,132.64 72.39,134.65 65.41,134.33 
			63.24,131.95 63.48,126.75 66.86,125.8 66.12,127.72 66.03,129.72 66.47,130.72 67.26,131.16 71,131.33 71.67,131.04 72.02,130.4 
			72.07,129.35 71.6,128.84 69.74,128.75 68.24,129.41 68.44,125.11 69.55,125.73 		"/>
		<polygon class="st3" points="77.85,113.52 76.04,119.93 74.9,119.19 66.45,116.8 65.08,116.84 66.19,112.93 67.47,113.8 
			74.11,115.67 74.42,115.51 75.04,113.32 74.94,111.55 77.85,113.52 		"/>
		<polygon class="st3" points="83.48,101.67 80.12,107.89 79.17,106.91 71.44,102.74 70.11,102.48 73.35,96.47 76.56,97.04 
			75.45,98.06 74.12,100.53 74.2,100.72 75.2,101.26 75.42,101.19 75.92,100.26 76.15,99 79.15,100.62 78.21,101.5 77.71,102.43 
			77.78,102.65 79.14,103.38 79.47,103.29 80.77,100.88 81.08,99.11 83.48,101.67 		"/>
		<polygon class="st3" points="158.93,68.98 157.73,68.58 157.52,68.69 155.39,75.17 155.39,76.97 151.3,75.63 152.38,74.18 
			154.51,67.7 154.41,67.49 153.2,67.1 151.42,67.11 153.47,64.36 160.34,66.62 160.36,70.05 158.93,68.98 		"/>
		<polygon class="st3" points="172.77,76.12 171.68,75.46 171.46,75.51 167.91,81.35 167.51,83.1 163.83,80.86 165.2,79.7 
			168.75,73.86 168.69,73.64 167.61,72.98 165.87,72.59 168.49,70.38 174.67,74.14 173.92,77.48 172.77,76.12 		"/>
		<polygon class="st3" points="178.51,92.33 173.69,87.72 174.89,87.06 180.96,80.72 181.56,79.5 184.5,82.31 183.14,83.03 
			178.36,88.02 178.36,88.37 180.01,89.94 181.61,90.69 178.51,92.33 		"/>
		<polygon class="st3" points="79.75,174.63 80.56,175.61 80.78,175.63 86.04,171.27 87,169.74 89.75,173.06 88.07,173.71 
			82.81,178.07 82.79,178.3 83.6,179.28 85.11,180.21 81.91,181.45 77.3,175.88 79.11,172.96 79.75,174.63 		"/>
		<path class="st3" d="M72.93,161.57l-0.44,0.58l-0.01,0.73l0.35,0.73l0.58,0.44l0.73,0.01l3.8-1.84l0.44-0.58l0.01-0.73l-0.35-0.73
			l-0.58-0.44l-0.73-0.01L72.93,161.57L72.93,161.57z M79.53,157.11l2.2,4.54l-0.98,2.82l-6.44,3.12l-2.82-0.98l-2.2-4.54l0.98-2.82
			l6.44-3.12L79.53,157.11L79.53,157.11z"/>
		<polygon class="st3" points="83.14,89.63 82.73,91.4 82.21,92.02 81.99,91.52 82.24,90.46 81.95,89.8 81.51,89.43 80.94,90.12 
			79.79,90.23 78.54,89.19 78.44,88.04 79.58,86.67 80.72,86.56 82.41,87.96 83.14,89.63 		"/>
		<polygon class="st3" points="93.11,78.36 91.32,79.82 91.1,80.32 91.22,80.85 91.43,81.1 91.88,81.15 94.2,80 96.37,80.21 
			98.37,82.67 98.07,85.65 94.36,88.68 91.39,86.8 93.08,86.16 94.88,84.69 95.1,84.19 94.98,83.66 94.57,83.15 94,83.1 
			91.69,84.25 89.63,84.04 87.93,81.96 88.23,78.99 91.76,76.11 94.5,77.85 93.11,78.36 		"/>
		<polygon class="st3" points="109.25,75.66 106.6,76.9 104.87,76.27 103.63,73.62 104.25,71.89 106.91,70.65 108.64,71.27 
			109.88,73.93 109.25,75.66 		"/>
		<path class="st3" d="M124.59,70.16l-0.33-0.44l-0.7-0.21l-1.28,0.23l-0.13,0.19l0.31,1.76l0.28,0.2l1.2-0.21l0.58-0.43l0.15-0.52
			L124.59,70.16L124.59,70.16z M123.76,65.93l-0.33-0.44l-0.52-0.16l-1.36,0.24l-0.13,0.19l0.26,1.44l0.19,0.13l1.36-0.24l0.44-0.33
			l0.15-0.52L123.76,65.93L123.76,65.93z M126.64,73.76l-7.12,1.27l0.17-1.35l-1.54-8.64l-0.63-1.21l7.12-1.27l2.08,1.45l0.38,2.16
			l-0.99,1.41l1.6,1.12l0.5,2.8L126.64,73.76L126.64,73.76z"/>
		<path class="st3" d="M141.34,65.73l-0.27-0.67l-0.62-0.38l-0.81-0.06l-0.67,0.27l-0.38,0.62l-0.33,4.21l0.27,0.67l0.62,0.38
			l0.81,0.06l0.67-0.27l0.38-0.62L141.34,65.73L141.34,65.73z M141.85,73.68l-5.02-0.4l-1.94-2.27l0.57-7.13l2.27-1.94l5.02,0.4
			l1.94,2.27l-0.57,7.13L141.85,73.68L141.85,73.68z"/>
		<polygon class="st3" points="186.35,102.84 182.42,96.96 183.73,96.58 191.02,91.69 191.88,90.63 195.68,96.31 193.68,98.88 
			193.29,97.42 191.73,95.09 191.52,95.08 190.58,95.71 190.53,95.93 191.12,96.81 192.14,97.6 189.3,99.5 188.96,98.26 
			188.37,97.38 188.15,97.34 186.86,98.2 186.8,98.53 188.32,100.8 189.74,101.91 186.35,102.84 		"/>
		<polygon class="st3" points="194.24,113.42 193.26,110.66 194.05,109 196.8,108.01 198.47,108.8 199.45,111.56 198.66,113.22 
			195.91,114.21 194.24,113.42 		"/>
		<polygon class="st3" points="203.18,129.01 202.96,126.72 202.67,126.25 202.16,126.06 201.84,126.09 201.54,126.44 
			201.22,129.01 199.83,130.7 196.68,131 194.37,129.1 193.9,124.33 197.11,122.91 196.71,124.66 196.94,126.97 197.23,127.44 
			197.74,127.63 198.38,127.57 198.75,127.13 199.07,124.56 200.39,122.96 203.06,122.7 205.37,124.6 205.81,129.13 202.83,130.45 
			203.18,129.01 		"/>
		<polygon class="st3" points="193.75,142.62 194.98,143.21 198.2,143.68 198.38,143.55 198.66,141.61 198.53,141.43 195.31,140.96 
			193.96,141.18 194.52,137.31 195.75,137.9 204.44,139.17 205.79,138.95 205.23,142.82 204,142.23 201.58,141.88 201.4,142.01 
			201.12,143.94 201.26,144.13 203.67,144.48 205.02,144.27 204.45,148.13 203.22,147.54 194.53,146.27 193.19,146.49 
			193.75,142.62 		"/>
		<path class="st3" d="M196.4,161.12l0.73-0.04l0.55-0.47l0.32-0.75l-0.04-0.73l-0.47-0.55l-3.89-1.66l-0.73,0.04l-0.55,0.47
			l-0.32,0.75l0.04,0.73l0.47,0.55L196.4,161.12L196.4,161.12z M188.69,159.07l1.98-4.64l2.77-1.11l6.58,2.81l1.11,2.77l-1.98,4.64
			l-2.78,1.12l-6.58-2.81L188.69,159.07L188.69,159.07z"/>
		<path class="st3" d="M187.19,175.89l0.71,0.14l0.65-0.32l0.84-1.1l-0.03-0.23l-1.61-1.24l-0.23,0.03l-0.84,1.1l-0.14,0.71
			l0.32,0.65L187.19,175.89L187.19,175.89z M183.49,174.17l1.98-2.58l-0.03-0.23l-1.74-1.34l-1.46-0.5l2.43-3.16l0.78,1.11
			l6.96,5.35l1.28,0.47l-4.31,5.61l-2.96,0.39l-2.51-1.93L183.49,174.17L183.49,174.17z"/>
		<path class="st0" d="M108.87,204.52l-3.54-1.35C106.49,203.65,107.68,204.1,108.87,204.52L108.87,204.52z"/>
		<path class="st0" d="M144.29,168.51c-0.35-0.05-1.66-0.61-1.91,0.31c-0.39,1.38-2.93,4.46-4.95,5.54
			c-1.38,0.74-2.41,0.62-4.65,1.63c-0.3,0.14-0.72,0.24-1.24,0.31c-0.96,0.72-1.79,1.62-2.47,2.64c-0.72,1.1-1.26,2.33-1.7,3.61
			c-0.21,0.65-0.41,1.3-0.59,1.97l-0.27,1.02c-0.04,0.16-0.1,0.38-0.18,0.57c-0.07,0.19-0.16,0.37-0.25,0.55
			c-0.78,1.38-1.94,2.32-3.14,3.12c-0.61,0.39-1.24,0.75-1.91,1.03c-0.67,0.28-1.36,0.52-2.11,0.6c-0.37,0.04-0.75,0.05-1.14-0.03
			c-0.19-0.04-0.38-0.1-0.57-0.18c-0.19-0.09-0.32-0.19-0.49-0.28c-0.62-0.37-1.2-0.82-1.75-1.3c-1.09-0.98-1.99-2.14-2.81-3.3
			l-0.6-0.88c-0.09-0.13-0.21-0.32-0.31-0.5c-0.1-0.18-0.18-0.37-0.25-0.56c-0.28-0.76-0.41-1.55-0.42-2.31
			c-0.02-1.53,0.31-2.99,0.75-4.38c0.22-0.7,0.5-1.37,0.8-2.03c0.3-0.66,0.64-1.31,1.02-1.93l0.56-0.88c0.15-0.28,0.3-0.56,0.4-0.86
			c-2.4-5.52-2.87-5.37-3.33-7.47c-0.16-0.7-0.41-3.16-0.78-3.79c-0.07-0.12-0.27-1.17-0.31-1.78c-0.33-0.49-0.55-1.01-0.47-1.67
			c0.03-0.24,0.02-4.15-0.79-4.03c-1.29,0.18-0.58-0.15-1.82-0.18c-0.16,0-0.32-0.11-0.47-0.16c0.18-0.05,0.36-0.15,0.54-0.14
			c1.37,0.08,0.85-0.01,2.22,0.08c1.28,0,1.86,0.65,1.76,1.92c-0.08,1.05,0.01,2.1-0.17,3.15c-0.06,0.37-0.03,0.76,0.03,1.16
			c0.13,0.23,0.26,0.53,0.38,0.95c0.08,0.3,1.41,1.49,1.58,1.74c1.08,1.6,2.17,3.45,3.75,4.67c1.32,1.02,3.42,1.81,5.86,0.04
			c0.37,1.29,0.66,2.54,1.72,3.57c0.75,0.23,1.46,0.45,2.06,0.62c0.6,0.09,1.21,0.19,1.81,0.29c0.77,0.13,1.53,0.28,2.3,0.44
			c0.61,0.13,1.21,0.27,1.82,0.42c0.09,0.02,0.18,0.04,0.27,0.07c0.34,0.09,0.67,0.18,1.01,0.27c1.12,0.1,2.29,0.15,3.51,0.13
			c1.95-0.72,3.6-1.89,4.82-3.71c0.15-0.22,0.25-0.48,0.39-0.71c0.08-0.13-0.71-0.78,0.18-0.39c0.99,0.43,1.59,0.27,2.52,0.82
			c0.14,0.09,0.25,0.24,0.37,0.36C144.67,168.58,144.48,168.54,144.29,168.51L144.29,168.51z M113.37,154.76
			c0.02-0.11,0.1-0.2,0.18-0.26c0.16-0.14,0.34-0.25,0.53-0.22c0.19,0.03,0.36,0.23,0.34,0.48c-0.02,0.25-0.22,0.41-0.41,0.48
			c-0.15,0.06-0.32,0.09-0.47,0.03C113.4,155.2,113.35,154.87,113.37,154.76L113.37,154.76z M114.92,158.61
			c0.19,0.03,0.36,0.23,0.34,0.48c-0.02,0.25-0.22,0.41-0.41,0.48c-0.15,0.06-0.32,0.09-0.47,0.03c-0.15-0.06-0.2-0.39-0.18-0.5
			c0.02-0.11,0.1-0.2,0.18-0.26C114.55,158.69,114.74,158.58,114.92,158.61L114.92,158.61z M117.69,163.81
			c0.17-0.22,0.45-0.25,0.66-0.21c0.17,0.03,0.33,0.1,0.42,0.25c0.09,0.15-0.07,0.48-0.16,0.57c-0.09,0.09-0.21,0.12-0.32,0.14
			c-0.22,0.04-0.45,0.03-0.6-0.1C117.54,164.32,117.52,164.02,117.69,163.81L117.69,163.81z M127.84,165.45
			c-0.02,0.25-0.22,0.41-0.41,0.48c-0.15,0.06-0.32,0.09-0.47,0.03c-0.15-0.06-0.2-0.39-0.18-0.5c0.02-0.11,0.1-0.2,0.18-0.26
			c0.16-0.14,0.34-0.25,0.53-0.22C127.68,165,127.85,165.2,127.84,165.45L127.84,165.45z M131.75,168.96
			c-0.08,0.14-0.41,0.16-0.52,0.13c-0.11-0.03-0.19-0.12-0.25-0.2c-0.12-0.17-0.21-0.36-0.17-0.55c0.05-0.18,0.27-0.34,0.51-0.3
			c0.25,0.04,0.39,0.26,0.44,0.45C131.82,168.65,131.83,168.82,131.75,168.96L131.75,168.96z M133.35,164.59
			c-0.08,0.14-0.41,0.16-0.52,0.13c-0.11-0.03-0.19-0.12-0.25-0.2c-0.12-0.17-0.21-0.36-0.17-0.55c0.04-0.18,0.27-0.34,0.51-0.3
			c0.25,0.04,0.39,0.26,0.44,0.45C133.42,164.28,133.43,164.45,133.35,164.59L133.35,164.59z M123.42,149.17
			c1.65-0.29,3.23-0.08,4.78,0.28c3.9,0.9,6.43,3.74,6.71,7.36c0.17,2.21-0.77,3.78-2.76,4.7c-2.03,0.94-4.14,0.83-6.27,0.54
			c-1.38-0.18-1.36-0.17-1.86,1.2c-0.25,0.68-0.63,1.32-0.94,1.97c-0.5-0.79,0.03-1.49,0.21-2.21c0.38-1.47,0.38-1.45-0.82-2.3
			c-2.26-1.6-3.51-3.74-3.45-5.92C119.25,151.62,121.4,149.53,123.42,149.17L123.42,149.17z M136.3,167.43
			c0.05-0.18,0.27-0.34,0.51-0.3c0.25,0.04,0.39,0.26,0.44,0.45c0.04,0.16,0.06,0.32-0.02,0.47c-0.08,0.14-0.41,0.16-0.52,0.13
			c-0.11-0.03-0.19-0.12-0.25-0.2C136.34,167.81,136.25,167.62,136.3,167.43L136.3,167.43z M139.28,163.51
			c0.05-0.17,0.13-0.32,0.29-0.39c0.15-0.07,0.47,0.12,0.55,0.22c0.08,0.1,0.1,0.22,0.11,0.33c0.01,0.23-0.01,0.45-0.16,0.58
			c-0.15,0.13-0.44,0.12-0.64-0.07C139.23,163.99,139.22,163.72,139.28,163.51L139.28,163.51z M153.62,206.57
			c0,0-0.01,0.01-0.01,0.01l0-0.01c-0.84,0.23-1.45,0.4-1.45,0.4c-0.02,0.02-5.35,1.02-5.35,1.02c-0.08,0.08-0.6-0.07-1.13-0.45
			c-0.54-0.39,0.6-1.83,0.11-1.52c-0.45,0.28-0.46-0.05-0.47-0.35c-0.01-0.57,1.18-1.74,0.67-1.58c-0.19,0.06-0.53,0.07-0.63-0.04
			c-0.47-0.53,0.2-1.41-0.22-1.6c-0.03-0.01-0.07-0.02-0.1-0.03c-0.76-0.1-0.49-0.23-0.17-0.67c0.23-0.33,0.28-0.74,0.78-0.82
			c0.06-0.01,0.14-0.43,0.09-0.46c-0.29-0.18-0.51-0.33-0.02-0.5c0.49-0.17,1.02-0.25,1.48-0.46c0.33-0.16,0.79-0.45,0.84-0.74
			c0.13-0.77,0.57-1.38,1.17-1.61c0.9-0.35,1.56-1.25,2.23-1.69c0.39-0.25,1.36-0.68,0.14-1.23c-0.01,0,0.08-0.42,0.21-0.52
			c0.67-0.54,1.4-1.01,2.05-1.57c0.33-0.29,0.61-0.66,0.89-1.01c0.09-0.12,0.19-0.24,0.28-0.35c-0.27-0.04-0.54-0.07-0.82-0.11
			c-0.27-0.04-0.54-0.08-0.82-0.12c-0.1-0.02-0.23-0.08-0.28-0.16c-0.04-0.06,0.01-0.2,0.05-0.29c0.23-0.46,1.71-0.26,0.7-1.36
			c0.31-0.08,0.63-0.14,0.94-0.24c0.24-0.07,0.48-0.18,0.71-0.27c-0.13-0.18,0.9-0.26,0.75-0.42c-0.21-0.24-0.61-0.42,0.06-0.63
			c0.72-0.23,1.86,0,1.72-1.36c0-0.03,0.19-0.11,0.3-0.12c0.99-0.13,0.73-0.66,0.38-1.2c-0.31-0.48-0.32-0.74,0.37-0.68
			c0.21,0.02,0.59-0.05,0.62-0.15c0.25-0.98,0.85-0.63,1.44-0.44c0.11,0.04,0.4-0.12,0.39-0.15c-0.17-0.99,0.12-1.34,1.1-0.83
			c0.04,0.02,0.25-0.14,0.24-0.17c-0.25-0.85,0.85-0.68,0.84-0.91c-0.04-0.79,0.43-0.94,0.98-1.13c0.07-0.03,0.07-0.38,0.04-0.57
			c-0.04-0.22-0.28-0.57-0.22-0.62c0.71-0.6,0.41-1.16,0-1.75c-0.03-0.05,0.2-0.4,0.32-0.4c0.99-0.05,2.06-0.36,1.52-0.94
			c-0.29-0.31-0.3-0.55,0-0.87c0.16-0.18,0.21-0.48,0.28-0.73c0.3-0.96-0.59-2.23,0.78-2.92c0.06-0.03-0.03-0.4-0.1-0.59
			c-0.08-0.21-0.38-0.5-0.33-0.56c0.89-1.2-0.18-0.9-0.74-0.99c-0.17-0.03-0.35-0.08-0.51-0.05c-0.9,0.16-0.66-0.98-1.29-1.11
			c0.21-0.21,0.43-0.43,0.64-0.64c1.12-1.09,2.9-2.14,2.69-3.89c-0.02-0.2,0-0.45,0.11-0.61c1.03-1.44,1.19-2.56,1.09-4.28
			c-0.08-1.38-0.86-2.84,0.23-4.18c0.02-0.02-0.3-0.33-0.48-0.48c-1.13-0.88-2.38-1.62-3.34-2.73c-0.57-0.66-1.17-1.55-1.9-1.74
			c-1.18-0.29-1.95-1-2.83-1.67c-0.2-0.16-0.52-0.16-0.79-0.23c-0.47-0.12-0.67,0.11-0.56,0.54c0.12,0.45,0.35,0.81-0.46,0.76
			c-0.18-0.01,0.14,1.02-0.7,1.04c-0.27,0.01-0.73,0.27-0.76,0.46c-0.14,1.15-1.24,1.12-1.9,1.53c-1.33,0.82-1.79,0.54-2.35-0.89
			c-0.38-0.96-0.74-1.95-1.26-2.83c-0.72-1.23-1.77-2.12-3.28-2.28c-0.22-0.02-0.44,0.05-0.67,0.08c0.05,0.21,0.07,0.43,0.16,0.62
			c1.03,2.09,1.23,2.99,0.83,4.53c-0.18,0.7-0.5,1.37-0.75,2.05c-0.86-0.4-1.13,0.83-1.96,0.7c-0.38-0.06-0.86,0.2-1.23,0.43
			c-0.65,0.4-1.2,1.06-1.89,1.27c-0.72,0.21-1.57-0.05-2.35,0.01c-1.32,0.1-2.42-0.17-3.01-1.26c-0.52-0.97-1.27-1.6-2.11-2.18
			c-1.06-0.73-2.21-1.33-3.21-2.13c-1.32-1.04-2.75-1.73-4.42-1.98c-0.84-0.13-1.64-0.43-2.48-0.58c-1.45-0.27-2.9-0.6-4.37-0.68
			c-1.5-0.08-1.54,0.02-1.9-1.31c-0.35-1.3-1.22-2.45-1.17-3.87c-1.05-0.52-0.32-1.33,0-1.59c0.84-0.67,0.38-1.54,0.11-1.87
			c-0.64-0.8-0.71-1.65-0.82-2.55c-0.02-0.12-0.09-0.24-0.13-0.36c-0.03,0.05-0.05,0.1-0.08,0.15c-0.36,0.5-0.58,0.07-0.79-0.14
			c-0.15-0.15-0.21-0.38-0.31-0.57c0.2-0.05,0.4-0.11,0.6-0.15c1.11-0.21,2.23-0.4,3.33-0.63c0.19-0.04,0.35-0.24,0.52-0.36
			c-0.16-0.15-0.3-0.41-0.48-0.43c-1.89-0.26-3.77-0.44-5.53,0.63c-1.56,0.95-1.58,0.91-2.41-0.76c-0.05-0.1-0.06-0.22-0.11-0.33
			c-0.78-1.64-0.6-3.27-0.01-4.91c0.26-0.72,0.55-1.44,0.75-2.18c0.12-0.42,0.18-1.03-0.4-1.1c-1.59-0.19-2.1-1.76-3.3-2.41
			c-0.22-0.12-0.19-1.05-0.78-0.29c-0.02,0.03-0.55-0.36-0.87-0.51c-0.07-0.03-0.25,0.13-0.35,0.24c-0.24,0.27-0.41,0.71-0.7,0.81
			c-0.97,0.31-1.39,1.2-2.06,1.81c-0.23,0.21-0.43,0.52-0.68,0.78c-0.75,0.76-1.92,1.03-2.4,2.11c-0.3,0.68-0.74,1.29-1.1,1.94
			c-0.59,1.06-0.59,1.05-1.6,0.58c-0.12-0.06-0.29,0.01-0.44,0.02c0.05,0.09,0.11,0.19,0.16,0.28c0.46,0.71,1.01,1.39,1.35,2.16
			c0.13,0.29-0.24,0.8-0.38,1.22c-0.25-0.18-0.51-0.35-0.75-0.55c-0.13-0.11-0.23-0.26-0.36-0.37c-0.07-0.06-0.18-0.07-0.27-0.1
			c-0.02,0.1-0.09,0.22-0.06,0.3c0.2,0.57,0.77,1.38,0.58,1.64c-0.58,0.79,0.37,0.91,0.38,1.32c0.01,0.71,0.12,1.49-0.62,2.04
			c-0.72,0.53-0.86,1.28-0.62,2.14c0.08,0.3-0.07,0.66-0.04,0.99c0.06,0.84,0.18,2.8,0.22,2.95c0.38,1.31,2.67,2.8,3.1,4.1
			c0.31,0.94,0.77,1.84,0.98,2.8c0.2,0.91,0.5,1.77,1.22,2.57c0.09,0.1,0.11,0.27,0.13,0.41c0.07,0.5,0.17,1,0.16,1.5
			c-0.01,0.86,0.58,1.38,0.49,2.06c-0.33,2.45,2.28,5.18,1.97,7.63c-0.1,0.77,0.28,1.64,0.06,2.34c-0.34,1.06,0,1.89,0.37,2.8
			c0.17,0.43,1.04,1.05-0.18,1.36c-0.03,0.01-0.02,0.41,0.05,0.6c0.25,0.62,1.19,1.23-0.02,1.85c-0.05,0.03,0.14,0.5,0.18,0.77
			c0.09,0.5,1.13,1.15-0.22,1.46c-0.04,0.01-0.05,0.54,0.07,0.76c0.36,0.72,0.8,1.4,1.18,2.11c0.15,0.29,0.39,0.78,0.28,0.92
			c-0.5,0.6-0.14,1.05,0.06,1.58c0.07,0.19-0.03,0.63-0.12,0.65c-0.77,0.16-0.56,0.64-0.33,1.04c0.31,0.55,2.61,1.23,2.95,1.76
			c0.08,0.13,0.1,0.29,0.15,0.44c-0.16,0.01-0.33,0.01-0.49,0.02c-0.22,0.01-0.43,0.03-0.65,0.04c0.08,0.25,0.16,0.49,0.23,0.74
			c0.13,0.5,1.82,1.03-0.03,1.5c-0.05,0.01-0.09,0.31-0.04,0.45c0.1,0.27,1.04,0.58,1.16,0.84c0.17,0.38,0.21,0.67-0.4,0.58
			c-0.1-0.02-0.38,0.35-0.36,0.52c0.04,0.33,0.18,0.67,0.35,0.97c0.51,0.87,0.62,1.64-0.25,2.39c-0.23,0.2-0.41,0.89-0.35,0.92
			c0.05,0.03,0.1,0.06,0.14,0.09c0.79,0.52,1.92,1.71,2.76,2.13c0.43,0.22-0.03,0.27-0.21,0.27c-0.35-0.01-0.69-0.09-1.03-0.07
			c-0.2,0.01-0.52,0.11-0.55,0.22c-0.04,0.18,0.1,0.42,0.21,0.6c0.08,0.13,0.17,0.26,0.27,0.38c0.09,0.12,0.19,0.24,0.29,0.37l0,0
			c-0.16-0.05-0.32-0.1-0.48-0.15c-0.16-0.05-0.32-0.1-0.48-0.15c-0.16-0.05-0.36-0.23-0.47-0.18c-0.16,0.06-0.3,0.1-0.43,0.11
			l0,0.01c-0.09,0.44,0.23,0.55,0.12,0.6c-1.16,0.46,0.44,2.15-0.12,1.51c-0.17-0.19-0.15,2.06-0.34,2.09
			c-0.48,0.07,0.57,0.53,0.19,0.81c-0.26,0.19-0.16,0.93,0.03,1.15c0.11,0.12-0.09,0.74-0.17,0.89c15.44,5.45,32.65,6.09,49.25,0.88
			C158.24,205.34,155.42,206.08,153.62,206.57L153.62,206.57z"/>
		<path class="st3" d="M122.47,160.72c1.2,0.85,1.2,0.83,0.82,2.3c-0.18,0.72-0.71,1.42-0.21,2.21c0.32-0.66,0.69-1.29,0.94-1.97
			c0.51-1.37,0.48-1.39,1.86-1.2c2.13,0.28,4.24,0.4,6.27-0.54c1.99-0.92,2.93-2.49,2.76-4.7c-0.28-3.62-2.8-6.46-6.71-7.36
			c-1.56-0.36-3.14-0.57-4.78-0.28c-2.01,0.36-4.16,2.45-4.4,5.63C118.96,156.98,120.21,159.12,122.47,160.72L122.47,160.72z"/>
		<path class="st0" d="M118.66,107.55c0.92-0.21,1.16-0.31,0.76-1.08c-0.26-0.51-0.55-1.03-0.94-1.44
			c-0.95-1.01-0.79-2.28-0.91-3.49c-0.02-0.17,0.15-0.45,0.3-0.51c0.87-0.36,0.93-1.06,0.81-1.83c-0.14-0.87,0.18-1.46,0.75-2.15
			c1.4-1.72,2.53-3.6,1.8-6.01c-0.08-0.25,0.01-0.54,0.02-0.81c0.23,0.13,0.45,0.26,0.68,0.39c0.12,0.06,0.25,0.1,0.38,0.15
			c0-0.11,0.03-0.23,0.01-0.33c-0.08-0.39-0.21-0.78-0.26-1.18c-0.03-0.2,0.06-0.43,0.09-0.64c0.19,0.09,0.43,0.13,0.58,0.27
			c0.32,0.29,0.57,0.52,0.53-0.18c-0.01-0.17-0.09-0.35-0.07-0.51c0.03-0.21,0.12-0.41,0.19-0.62c0.2,0.08,0.41,0.15,0.6,0.25
			c0.22,0.12,0.43,0.26,0.64,0.39c-0.01-0.22-0.03-0.45-0.01-0.67c0.05-0.97,0.05-0.96,1.2-0.6c0.12,0.04,0.4-0.08,0.44-0.19
			c0.17-0.49,0.27-1,0.43-1.49c0.05-0.14,0.22-0.24,0.34-0.35c0.08,0.13,0.21,0.25,0.24,0.39c0.07,0.34,0.08,0.68,0.15,1.02
			c0.03,0.14,0.15,0.26,0.22,0.39c0.02-0.11,0.05-0.23,0.07-0.34c0.03-0.17,0.03-0.35,0.09-0.51c0.14-0.41,0.3-0.82,0.46-1.23
			c0.13,0.39,0.38,0.78,0.36,1.16c-0.04,0.69,0.85,0.08,0.83,0.71c-0.01,0.43,0.14,0.87,0.27,1.3c0.06,0.2,0.31,0.36,0.32,0.55
			c0.04,0.79,0.16,1.52,0.44,2.3c0.25,0.68-0.09,1.58-0.17,2.38c-0.04,0-0.08,0.01-0.12,0.01c0.05,1.03-0.04,2.08,0.19,3.07
			c0.45,1.96-0.02,3.63-1.14,5.21c-0.5,0.7-0.94,1.44-1.38,2.18c-0.08,0.13,0.02,0.37,0.04,0.55c0.78-0.5,1.75,0.28,2.51-0.41
			c0.36-0.33,1.01-0.45,0.62-1.17c0.85-0.65,0.08-1.73,0.64-2.48c0.11-0.15-0.02-0.49-0.06-0.73c-0.03-0.16-0.19-0.38-0.13-0.47
			c1.09-1.65,0.57-3.53,0.61-5.28c0.06-2.39-0.35-4.8-0.61-7.2c-0.06-0.61-0.3-1.2-0.47-1.79c-0.02-0.06-0.15-0.13-0.16-0.13
			c-1.32,1.35-0.48-0.83-1.12-0.69c-0.38,0.08-0.24-1.21-1.02-0.47c-0.04,0.04-0.27-0.02-0.29-0.08c-0.26-0.83-0.91-0.69-1.57-0.82
			c-0.44-0.09-0.57-0.36-0.76,0.25c-0.06,0.2-0.64,0.21-0.93,0.39c-0.74,0.47-1.2,1.33-2.13,1.54c-0.09,0.02-0.18,0.28-0.19,0.43
			c-0.09,1.97-1.33,3.38-2.35,4.91c-0.7,1.05-1.32,2.15-1.97,3.24c-0.15,0.25-0.32,0.51-0.36,0.78c-0.18,1.33-0.52,2.57-1.64,3.45
			c-0.21,1.85-1.27,3.41-1.8,5.15c-0.07,0.21-0.04,0.45-0.09,0.67c-0.17,0.67-0.71,1.63-0.46,1.94c0.43,0.53,1.34,0.78,2.09,0.91
			c0.54,0.09,0.9,0.05,0.7,0.73C117.53,106.91,117.75,107.75,118.66,107.55L118.66,107.55z"/>
		<path class="st0" d="M157.16,127.43c-0.33-0.1-0.65-0.24-0.98-0.32c-0.44-0.1-0.85-0.16-0.36-0.72c0.04-0.05-0.09-0.36-0.13-0.36
			c-0.69,0.04-0.52-0.51-0.7-0.87c-0.13-0.27-0.75-0.03-0.91-0.7c-0.16-0.69-0.73-0.09-1.11,0.04c-0.34,0.11-0.9,0.78-0.7-0.32
			c0.01-0.03-0.22-0.17-0.25-0.14c-0.71,0.49-1.8,0.11-2.31,1.1c-0.57,1.12-1.24,2.19-1.84,3.29c-0.22,0.4-0.25,1.01-0.57,1.23
			c-0.9,0.62-0.69,1.05,0,1.63c0.27,0.23,0.43,0.61,0.61,0.94c0.19,0.35,0.32,0.73,0.5,1.08c0.29,0.55,0.65,0.73,1.21,0.27
			c0.49-0.4,1-0.79,1.56-1.07c0.63-0.32,1.33-0.52,2.03-0.78c0.93,0.45,1.79,0.78,2.54,1.27c0.63,0.41,0.9,0.26,1.15-0.34
			c0.11-0.26,0.29-0.5,0.41-0.76c0.26-0.54,0.51-1.09,0.76-1.63c0.49,0.29,0.97,0.59,1.47,0.88c0.09,0.05,0.23,0.07,0.31,0.04
			c0.06-0.03,0.14-0.21,0.12-0.25C158.99,129.81,158.87,127.98,157.16,127.43L157.16,127.43z"/>
		<path class="st0" d="M185.44,110.87c-0.1-0.54-0.19-1.08-0.31-1.61c-0.01-0.04-0.33-0.09-0.39-0.03
			c-0.31,0.31-0.53,0.57-0.96,0.08c-0.22-0.26-1.01,0.5-1.02-0.45c-0.39,0.05-0.71,0.92-1.17,0.1c-0.18,0.12-0.39,0.22-0.55,0.37
			c-0.28,0.29-0.44,0.56-0.97,0.21c-0.52-0.35-1.08-0.11-1.66,0.33c-2.27,1.75-4.56,3.52-6.99,5.02c-0.69,0.43-1.42,0.77-2,1.37
			c-0.63,0.65-1.37,1.24-1.8,2c-0.83,1.49-1.54,3.04-0.67,4.85c0.33,0.68,0.75,0.92,1.39,1.08c0.7,0.18,0.96-0.34,1.21-0.74
			c0.36-0.57,0.76-1.21,0.83-1.86c0.22-2.06,1.18-3.7,2.57-5.15c0.48-0.5,0.89-1.06,1.34-1.58c0.22-0.25,0.47-0.47,0.71-0.71
			c0.14,0.33,0.28,0.66,0.42,1c0.04,0.1,0.05,0.21,0.07,0.32c0.13-0.09,0.31-0.15,0.39-0.28c0.33-0.54,0.61-1.1,0.95-1.64
			c0.07-0.11,0.3-0.22,0.41-0.18c0.12,0.04,0.23,0.24,0.25,0.39c0.04,0.22,0,0.46,0.01,0.69c0.01,0.17,0.04,0.34,0.06,0.51
			c0.13-0.1,0.3-0.18,0.38-0.31c0.38-0.57,0.72-1.18,1.12-1.74c0.18-0.26,0.47-0.45,0.7-0.67c0.1,0.35,0.22,0.7,0.29,1.06
			c0.03,0.16-0.02,0.34-0.02,0.52c0,0.11,0.02,0.23,0.03,0.34c0.14-0.05,0.33-0.07,0.41-0.17c0.58-0.72,1.12-1.46,1.71-2.17
			c0.13-0.15,0.38-0.2,0.58-0.3c0.07,0.19,0.19,0.38,0.21,0.58c0.02,0.22-0.06,0.46-0.06,0.69c0,0.2,0.04,0.4,0.07,0.6
			c0.17-0.15,0.34-0.29,0.49-0.45C184.14,112.23,184.79,111.55,185.44,110.87c0.02,0,0.03,0,0.04-0.01c0-0.01,0-0.03,0-0.04
			L185.44,110.87L185.44,110.87z"/>
		<path class="st0" d="M132.9,115.71c-1.16,0.88-0.83-0.53-1.23-0.8c-0.13-0.09-0.37-0.24-0.39-0.22c-0.49,0.57-0.87,0.21-1.27-0.12
			c-0.31,0.42-0.66,0.57-1.12,0.22c-0.02-0.02-0.3,0.17-0.29,0.25c0.02,0.52-0.19,0.57-0.61,0.37c-0.47-0.22-0.97-0.36-1.43-0.58
			c-1.02-0.5-1.7,0.7-2.66,0.51c-0.03-0.01-0.08,0.07-0.12,0.11c0.15,0.06,0.32,0.2,0.46,0.18c0.83-0.11,1.41,0.36,2.04,0.77
			c0.53,0.35,0.57,0.61,0.06,1.02c-0.58,0.46-1.13,0.97-1.62,1.52c-0.41,0.45-0.3,0.79,0.35,0.96c0.66,0.17,1.32,0.39,1.93,0.69
			c1.1,0.55,1.65,1.52,1.93,2.7c0.28,1.16,0.67,1.41,1.8,1.23c0.56-0.09,1.13-0.22,1.66-0.43c0.28-0.11,0.62-0.4,0.69-0.67
			c0.36-1.38,0.64-2.78,0.94-4.18c0.21-1.19,0.07-2.27-0.83-3.16C133.05,115.99,132.98,115.84,132.9,115.71L132.9,115.71z"/>
		<path class="st0" d="M177.17,130c-0.85,0.16-1.69,0.5-2.53,0.49c-0.96-0.01-1.91-0.22-2.82,0.27c-0.07,0.04-0.47-0.29-0.48-0.46
			c-0.02-0.51,0.08-1.03,0.11-1.54c0.01-0.15-0.02-0.31-0.03-0.46c-0.14,0.09-0.28,0.17-0.42,0.27c-0.82,0.55-0.82,0.55-0.92-0.38
			c-0.02-0.22-0.11-0.48-0.03-0.67c0.37-0.89-0.24-0.44-0.53-0.4c-0.29,0.04-0.57,0.09-0.97,0.15c0.55,0.93,0.88,1.84,1.49,2.48
			c1.08,1.11,1.51,2.35,1.44,3.86c-0.03,0.62,0.14,1.24,0.22,1.86c0.15-0.55,0.28-1.1,0.46-1.64c0.1-0.3,0.23-0.68,0.47-0.83
			c0.51-0.31,1.16,0.11,1.19,0.73c0.02,0.34-0.1,0.7-0.03,1.03c0.06,0.3,0.29,0.58,0.44,0.86c0.11-0.27,0.3-0.52,0.33-0.8
			c0.12-1.02,0.93-1.54,1.5-2.24c0.54-0.65,1.16-1.24,1.46-2.07c0.06-0.15,0.18-0.28,0.28-0.42
			C177.59,130.06,177.37,129.96,177.17,130L177.17,130z"/>
		<path class="st0" d="M186.28,110.75c-0.27,0.04-0.53,0.08-0.8,0.11c-0.05,0.38-0.06,0.78-0.18,1.14
			c-0.12,0.35-0.27,0.61,0.22,0.79c0.1,0.04,0.14,0.42,0.1,0.62c-0.5,2.25-0.63,4.62-2.3,6.48c-0.35,0.39-0.42,1.01-0.66,1.5
			c-0.12,0.24-0.3,0.46-0.49,0.66c-0.31,0.33-1.21,0.51-0.24,1.12c-0.35,0.34-0.66,0.73-1.05,1c-0.46,0.32-0.6,0.51,0.01,0.81
			c0.07,0.04,0.06,0.53-0.07,0.64c-0.3,0.25-0.69,0.4-1.04,0.59c-0.25,0.14-0.49,0.29-0.73,0.44c0.12,0.08,0.22,0.2,0.35,0.23
			c0.37,0.08,0.97,0.28,1.08,0.13c0.9-1.15,1.86-2.3,2.51-3.59c0.95-1.89,1.62-3.92,2.47-5.86c0.29-0.66,0.69-1.3,1.12-1.88
			c0.78-1.03,0.99-2.04,0.6-3.33C186.99,111.7,185.96,111.61,186.28,110.75L186.28,110.75z"/>
		<path class="st0" d="M154.94,136.7c-0.21-0.13-0.43-0.26-0.66-0.38c0.69,0.66,1.09,1.61,1.02,2.64c-0.06,0.87-0.45,1.65-1.03,2.21
			c0.46-0.09,0.92-0.21,1.36-0.38c1.89-0.75,2.75-1.36,2.91-1.59C158.35,138.95,157.54,138.32,154.94,136.7L154.94,136.7z"/>
		<path class="st0" d="M148.57,138.52c0.03-0.48,0.16-0.93,0.37-1.33c-0.6,0.48-1.06,0.92-1.47,1.29c-0.43,0.4-0.77,0.72-1.1,0.93
			c-0.08,0.05-0.17,0.09-0.26,0.13c-0.17,0.08-0.25,0.12-0.28,0.18c0.36,0.27,1.79,0.88,3.59,1.27
			C148.84,140.34,148.51,139.46,148.57,138.52L148.57,138.52z"/>
		<path class="st0" d="M153.5,136.3c0,0-0.55,0.2-0.85,0.42c-0.13,0.09-0.21,0.19-0.19,0.28c0.06,0.31,0.31,1.18,0.92,1.3
			c0.2,0.04,0.39,0.06,0.56,0.07c0.34,0.02,0.58,0,0.58,0S154.72,136.45,153.5,136.3L153.5,136.3z"/>
		<path class="st0" d="M127.33,127.29L127.33,127.29c0-0.01,0-0.6-0.06-1.35c-0.41,1.58-1.89,2.71-3.58,2.6
			c-0.02,0-0.03,0-0.05-0.01c0.02,0.01,0.04,0.02,0.06,0.03c1.12,0.44,2.41,0.67,3.81,0.68c0.02,0,0.04,0,0.05,0
			c-0.01-0.11-0.04-0.23-0.06-0.35C127.44,128.48,127.34,127.91,127.33,127.29L127.33,127.29z"/>
		<path class="st0" d="M120.46,124.85c0.1-1.49,1.12-2.69,2.47-3.09c-1.65-0.19-3.8-0.3-4.42-0.21c-0.02,0.53,0.93,2.73,1.61,3.95
			c0.14,0.25,0.3,0.49,0.47,0.72c0.03,0.03,0.07,0.06,0.1,0.1C120.51,125.86,120.42,125.37,120.46,124.85L120.46,124.85z"/>
		<path class="st0" d="M125.77,123.14c-0.5-0.61-0.23-0.1-0.51-0.05c-0.06,0.01-0.12,0.04-0.18,0.09c-0.26,0.18-0.54,0.59-0.42,0.72
			c0.14,0.17,0.68,1.19,0.9,1.38c0,0,0.4-0.09,0.64-0.5c0.02-0.04,0.05-0.09,0.07-0.13C126.48,124.12,126.27,123.75,125.77,123.14
			L125.77,123.14z"/>
		<path class="st3" d="M186.59,115.69c-0.44,0.58-0.83,1.21-1.12,1.88c-0.84,1.94-1.52,3.97-2.47,5.86
			c-0.65,1.3-1.61,2.44-2.51,3.59c-0.12,0.15-0.71-0.06-1.08-0.13c-0.13-0.03-0.23-0.15-0.35-0.23c0.24-0.15,0.48-0.3,0.73-0.44
			c0.35-0.2,0.74-0.34,1.04-0.59c0.12-0.1,0.14-0.6,0.07-0.64c-0.6-0.29-0.47-0.49-0.01-0.81c0.39-0.27,0.7-0.66,1.05-1
			c-0.97-0.6-0.08-0.78,0.24-1.12c0.19-0.2,0.37-0.42,0.49-0.66c0.24-0.5,0.32-1.12,0.66-1.5c1.67-1.85,1.8-4.23,2.3-6.48
			c0.04-0.2,0-0.59-0.1-0.62c-0.49-0.18-0.34-0.44-0.22-0.79c0.12-0.36,0.13-0.76,0.18-1.14c-0.01,0-0.02,0-0.04,0.01
			c-0.65,0.68-1.31,1.36-1.96,2.03c-0.16,0.16-0.33,0.3-0.49,0.45c-0.02-0.2-0.07-0.4-0.07-0.6c0-0.23,0.09-0.46,0.06-0.69
			c-0.02-0.2-0.13-0.39-0.21-0.58c-0.2,0.1-0.45,0.15-0.58,0.3c-0.59,0.71-1.13,1.46-1.71,2.17c-0.08,0.1-0.27,0.11-0.41,0.17
			c-0.01-0.11-0.03-0.23-0.03-0.34c0-0.17,0.05-0.35,0.02-0.52c-0.08-0.36-0.19-0.71-0.29-1.06c-0.24,0.22-0.52,0.41-0.7,0.67
			c-0.4,0.56-0.74,1.17-1.12,1.74c-0.09,0.13-0.25,0.21-0.38,0.31c-0.02-0.17-0.05-0.34-0.06-0.51c-0.01-0.23,0.03-0.47-0.01-0.69
			c-0.03-0.15-0.14-0.35-0.25-0.39c-0.11-0.04-0.34,0.07-0.41,0.18c-0.33,0.54-0.62,1.1-0.95,1.64c-0.08,0.13-0.26,0.19-0.39,0.28
			c-0.02-0.11-0.03-0.22-0.07-0.32c-0.13-0.33-0.28-0.67-0.42-1c-0.24,0.24-0.49,0.46-0.71,0.71c-0.45,0.52-0.87,1.08-1.34,1.58
			c-1.39,1.46-2.35,3.09-2.57,5.15c-0.07,0.64-0.47,1.28-0.83,1.86c-0.25,0.4-0.52,0.92-1.21,0.74c-0.64-0.16-1.07-0.4-1.39-1.08
			c-0.87-1.81-0.16-3.36,0.67-4.85c0.43-0.76,1.17-1.35,1.8-2c0.57-0.59,1.31-0.94,2-1.37c2.44-1.51,4.72-3.27,6.99-5.02
			c0.57-0.44,1.13-0.68,1.66-0.33c0.53,0.35,0.68,0.08,0.97-0.21c0.15-0.15,0.36-0.25,0.55-0.37c0.46,0.82,0.78-0.05,1.17-0.1
			c0.01,0.95,0.8,0.2,1.02,0.45c0.43,0.49,0.65,0.24,0.96-0.08c0.06-0.06,0.38-0.01,0.39,0.03c0.12,0.53,0.21,1.07,0.31,1.61
			l0.05-0.04c0,0.01,0,0.03,0,0.04c0.27-0.04,0.53-0.08,0.8-0.11c-0.32,0.86,0.71,0.94,0.91,1.6
			C187.58,113.65,187.37,114.66,186.59,115.69L186.59,115.69z M177.53,130.51c-0.3,0.82-0.92,1.42-1.46,2.07
			c-0.58,0.7-1.38,1.22-1.5,2.24c-0.03,0.28-0.21,0.53-0.33,0.8c-0.15-0.29-0.37-0.56-0.44-0.86c-0.07-0.33,0.05-0.69,0.03-1.03
			c-0.03-0.62-0.68-1.04-1.19-0.73c-0.24,0.15-0.37,0.53-0.47,0.83c-0.18,0.54-0.31,1.09-0.46,1.64c-0.08-0.62-0.25-1.24-0.22-1.86
			c0.08-1.51-0.36-2.75-1.44-3.86c-0.62-0.64-0.95-1.55-1.49-2.48c0.4-0.06,0.68-0.11,0.97-0.15c0.29-0.04,0.9-0.49,0.53,0.4
			c-0.08,0.19,0.01,0.45,0.03,0.67c0.1,0.93,0.1,0.93,0.92,0.38c0.14-0.09,0.28-0.18,0.42-0.27c0.01,0.15,0.04,0.31,0.03,0.46
			c-0.04,0.52-0.14,1.03-0.11,1.54c0.01,0.17,0.41,0.49,0.48,0.46c0.92-0.49,1.86-0.28,2.82-0.27c0.84,0.01,1.68-0.34,2.53-0.49
			c0.2-0.04,0.42,0.06,0.63,0.1C177.71,130.23,177.58,130.36,177.53,130.51L177.53,130.51z M159.86,131.19
			c-0.09,0.03-0.22,0.01-0.31-0.04c-0.49-0.28-0.98-0.58-1.47-0.88c-0.25,0.54-0.5,1.09-0.76,1.63c-0.12,0.26-0.3,0.49-0.41,0.76
			c-0.25,0.6-0.52,0.75-1.15,0.34c-0.75-0.49-1.61-0.82-2.54-1.27c-0.71,0.27-1.4,0.46-2.03,0.78c-0.56,0.28-1.07,0.67-1.56,1.07
			c-0.56,0.46-0.92,0.28-1.21-0.27c-0.18-0.35-0.32-0.73-0.5-1.08c-0.18-0.33-0.33-0.71-0.61-0.94c-0.69-0.58-0.9-1.02,0-1.63
			c0.32-0.22,0.35-0.83,0.57-1.23c0.6-1.11,1.28-2.17,1.84-3.29c0.5-1,1.6-0.61,2.31-1.1c0.04-0.03,0.26,0.11,0.25,0.14
			c-0.2,1.09,0.36,0.43,0.7,0.32c0.38-0.13,0.95-0.73,1.11-0.04c0.16,0.68,0.78,0.44,0.91,0.7c0.18,0.37,0,0.91,0.7,0.87
			c0.04,0,0.18,0.31,0.13,0.36c-0.49,0.56-0.08,0.62,0.36,0.72c0.33,0.08,0.65,0.21,0.98,0.32c1.71,0.55,1.84,2.38,2.82,3.51
			C160,130.98,159.92,131.17,159.86,131.19L159.86,131.19z M149.42,140.99c-1.8-0.39-3.22-0.99-3.59-1.27
			c0.04-0.05,0.11-0.1,0.28-0.18c0.08-0.04,0.17-0.08,0.26-0.13c0.33-0.21,0.67-0.53,1.1-0.93c0.4-0.37,0.87-0.81,1.47-1.29
			c-0.21,0.4-0.34,0.85-0.37,1.33C148.51,139.46,148.84,140.34,149.42,140.99L149.42,140.99z M154.27,141.17
			c0.59-0.56,0.97-1.33,1.03-2.21c0.07-1.03-0.34-1.98-1.02-2.64c0.23,0.12,0.45,0.25,0.66,0.38c2.61,1.62,3.41,2.26,3.6,2.5
			c-0.17,0.23-1.02,0.84-2.91,1.59C155.19,140.96,154.73,141.08,154.27,141.17L154.27,141.17z M152.45,137
			c-0.02-0.09,0.07-0.19,0.19-0.28c0.3-0.22,0.85-0.42,0.85-0.42c1.23,0.16,1.01,2.07,1.01,2.07s-0.24,0.02-0.58,0
			c-0.17-0.01-0.36-0.03-0.56-0.07C152.76,138.18,152.51,137.31,152.45,137L152.45,137z M134,119.26c-0.31,1.39-0.59,2.79-0.94,4.18
			c-0.07,0.27-0.41,0.55-0.69,0.67c-0.53,0.21-1.1,0.34-1.66,0.43c-1.12,0.18-1.52-0.07-1.8-1.23c-0.28-1.18-0.83-2.15-1.93-2.7
			c-0.61-0.3-1.27-0.52-1.93-0.69c-0.65-0.17-0.76-0.5-0.35-0.96c0.5-0.55,1.05-1.06,1.62-1.52c0.51-0.42,0.47-0.68-0.06-1.02
			c-0.63-0.41-1.21-0.88-2.04-0.77c-0.14,0.02-0.31-0.12-0.46-0.18c0.04-0.04,0.09-0.12,0.12-0.11c0.95,0.18,1.63-1.02,2.66-0.51
			c0.46,0.23,0.97,0.36,1.43,0.58c0.43,0.2,0.63,0.15,0.61-0.37c0-0.09,0.27-0.27,0.29-0.25c0.47,0.36,0.82,0.2,1.12-0.22
			c0.39,0.32,0.78,0.68,1.27,0.12c0.02-0.02,0.26,0.13,0.39,0.22c0.41,0.28,0.08,1.68,1.23,0.8c0.09,0.13,0.16,0.28,0.27,0.38
			C134.07,116.99,134.21,118.07,134,119.26L134,119.26z M125.08,123.18c0.06-0.04,0.12-0.08,0.18-0.09
			c0.29-0.05,0.01-0.56,0.51,0.05c0.5,0.61,0.7,0.97,0.49,1.5c-0.02,0.05-0.05,0.09-0.07,0.13c-0.24,0.41-0.64,0.5-0.64,0.5
			c-0.22-0.18-0.75-1.21-0.9-1.38C124.54,123.77,124.82,123.36,125.08,123.18L125.08,123.18z M123.64,128.53
			c0.02,0,0.03,0,0.05,0.01c1.69,0.11,3.17-1.01,3.58-2.6c0.06,0.75,0.06,1.33,0.06,1.34l0,0c0.01,0.62,0.11,1.19,0.18,1.61
			c0.02,0.11,0.04,0.24,0.06,0.35c-0.02,0-0.03,0-0.05,0c-1.41-0.01-2.69-0.24-3.81-0.68C123.68,128.55,123.66,128.54,123.64,128.53
			L123.64,128.53z M120.11,125.49c-0.68-1.22-1.62-3.42-1.61-3.95c0.62-0.09,2.77,0.02,4.42,0.21c-1.35,0.4-2.37,1.61-2.47,3.09
			c-0.03,0.51,0.05,1,0.22,1.46c-0.03-0.03-0.07-0.06-0.1-0.1C120.41,125.98,120.25,125.74,120.11,125.49L120.11,125.49z
			 M116.23,106c-0.75-0.13-1.66-0.38-2.09-0.91c-0.26-0.32,0.29-1.27,0.46-1.94c0.06-0.22,0.03-0.46,0.09-0.67
			c0.54-1.74,1.59-3.3,1.8-5.15c1.12-0.88,1.46-2.12,1.64-3.45c0.04-0.27,0.21-0.53,0.36-0.78c0.65-1.09,1.27-2.19,1.97-3.24
			c1.02-1.53,2.26-2.94,2.35-4.91c0.01-0.15,0.09-0.41,0.19-0.43c0.94-0.22,1.4-1.07,2.13-1.54c0.29-0.18,0.87-0.19,0.93-0.39
			c0.19-0.61,0.32-0.34,0.76-0.25c0.66,0.13,1.31-0.01,1.57,0.82c0.02,0.05,0.25,0.12,0.29,0.08c0.78-0.74,0.64,0.55,1.02,0.47
			c0.64-0.14-0.2,2.04,1.12,0.69c0.01-0.01,0.14,0.07,0.16,0.13c0.17,0.59,0.41,1.18,0.47,1.79c0.26,2.4,0.67,4.81,0.61,7.2
			c-0.04,1.74,0.48,3.62-0.61,5.28c-0.06,0.09,0.1,0.31,0.13,0.47c0.04,0.25,0.17,0.58,0.06,0.73c-0.56,0.75,0.21,1.83-0.64,2.48
			c0.39,0.71-0.27,0.84-0.62,1.17c-0.76,0.69-1.74-0.08-2.51,0.41c-0.02-0.19-0.11-0.42-0.04-0.55c0.43-0.74,0.88-1.48,1.38-2.18
			c1.12-1.58,1.59-3.25,1.14-5.21c-0.23-0.98-0.13-2.04-0.19-3.07c0.04,0,0.08-0.01,0.12-0.01c0.08-0.8,0.41-1.69,0.17-2.38
			c-0.28-0.78-0.4-1.51-0.44-2.3c-0.01-0.19-0.26-0.35-0.32-0.55c-0.12-0.42-0.28-0.87-0.27-1.3c0.01-0.63-0.88-0.02-0.83-0.71
			c0.02-0.38-0.23-0.77-0.36-1.16c-0.15,0.41-0.32,0.82-0.46,1.23c-0.05,0.16-0.06,0.34-0.09,0.51c-0.02,0.11-0.04,0.23-0.07,0.34
			c-0.08-0.13-0.2-0.25-0.22-0.39c-0.07-0.34-0.08-0.68-0.15-1.02c-0.03-0.14-0.16-0.26-0.24-0.39c-0.12,0.12-0.29,0.21-0.34,0.35
			c-0.16,0.49-0.26,1-0.43,1.49c-0.04,0.11-0.32,0.23-0.44,0.19c-1.15-0.36-1.15-0.37-1.2,0.6c-0.01,0.22,0.01,0.45,0.01,0.67
			c-0.21-0.13-0.42-0.27-0.64-0.39c-0.19-0.1-0.4-0.17-0.6-0.25c-0.07,0.21-0.16,0.41-0.19,0.62c-0.02,0.16,0.06,0.34,0.07,0.51
			c0.04,0.7-0.21,0.47-0.53,0.18c-0.15-0.14-0.38-0.18-0.58-0.27c-0.03,0.21-0.12,0.43-0.09,0.64c0.06,0.4,0.18,0.78,0.26,1.18
			c0.02,0.1-0.01,0.22-0.01,0.33c-0.13-0.05-0.26-0.09-0.38-0.15c-0.23-0.12-0.45-0.26-0.68-0.39c-0.01,0.27-0.09,0.57-0.02,0.81
			c0.73,2.4-0.39,4.29-1.8,6.01c-0.56,0.69-0.88,1.28-0.75,2.15c0.12,0.76,0.07,1.47-0.81,1.83c-0.15,0.06-0.32,0.35-0.3,0.51
			c0.12,1.2-0.05,2.48,0.91,3.49c0.39,0.41,0.67,0.94,0.94,1.44c0.4,0.77,0.15,0.87-0.76,1.08c-0.92,0.21-1.13-0.63-1.74-0.82
			C117.13,106.05,116.77,106.09,116.23,106L116.23,106z M191.5,111.34c-0.25-0.95,0.08-2.03-0.04-3.03
			c-0.24-1.89-1.37-3.02-3.33-3.11c-1.41-0.06-2.87,0.14-4.25,0.45c-1.45,0.33-2.83,0.94-4.25,1.4c-0.19,0.06-0.6,0.42-0.6-0.15
			c-0.01-1-0.34-0.82-0.82-0.26l-2.13,0.85c-0.17,0.16-0.38,0.29-0.49,0.48c-0.32,0.59-0.45,1.03-1.47,0.95
			c-1-0.08-2.07,0.75-3.13,1.08c-1.04,0.32-2.11,0.53-3.17,0.76c-0.36,0.08-0.75,0.12-1.12,0.09c-0.44-0.04-0.87-0.21-1.32-0.24
			c-0.71-0.06-0.49-0.63-0.66-1.01c-0.12-0.28-0.4-0.53-0.67-0.7c-0.56-0.35-1.61,0.08-1.67-1.06c-1.21,0.43-1.55-1.53-2.83-1.03
			c-0.37,0.14-0.11-0.68-0.85-0.75c-0.73-0.07-1.84-0.05-2.31-0.63c-0.59-0.73-1.04,0.27-1.52-0.16c-0.39-0.35-0.89-0.7-1.38-0.78
			c-0.51-0.08-1.08,0.29-1.58-0.18c-0.05-0.05-0.29,0.1-0.44,0.17c-1.12,0.51-1.11,0.51-1.39-0.76c-0.05-0.24-0.17-0.53-0.35-0.67
			c-0.76-0.56-1.55-1.07-2.33-1.6c-0.29-0.2-0.56-0.43-0.86-0.62c-0.16-0.11-0.46-0.28-0.51-0.23c-0.46,0.46-0.67,0.18-0.83-0.25
			c-0.22-0.56-0.54-0.71-1.18-0.63c-1.05,0.14-2.13-0.04-3.18,0.11c-1.74,0.25-2.97-0.64-2.93-2.33c0.03-1.09,0.19-2.19,0.18-3.28
			c-0.01-0.41,0.9-1.44-0.57-1.22c-0.02,0-0.12-0.21-0.09-0.24c0.86-1.06-0.65-2.2,0.12-3.25c-1.09-0.87-0.32-2.19-0.76-3.24
			c-0.23-0.54-0.42-1.27-0.24-1.77c0.29-0.81-1.26-0.58-0.65-1.4c0.03-0.04-0.22-0.33-0.23-0.33c-1.14,0.7-1.12-0.4-1.41-0.93
			c-1.05-1.96-2.36-3.69-4.32-4.83c-2.41-1.4-4.72-0.89-6.33,1.4c-1.07,1.52-1.76,3.22-2.23,5.01c-0.11,0.43-0.06,0.98-0.81,0.78
			c-0.05-0.01-0.31,0.52-0.37,0.81c-0.16,0.78-0.45,0.67-0.86,0.18c-0.14-0.16-0.35-0.25-0.53-0.37c-0.03,0.21-0.02,0.44-0.1,0.64
			c-0.17,0.45,0.46,1.41-0.76,1.19c-0.04,0.31-0.11,0.61-0.13,0.92c-0.05,0.87-0.04,0.86-0.97,0.58c-0.15-0.04-0.31-0.03-0.46-0.03
			c-0.05,0-0.11,0-0.16,0c0.02,0.11,0.04,0.22,0.06,0.33c0.02,0.11,0.04,0.22,0.08,0.32c0.26,0.69,0.37,1.2-0.66,0.71
			c-0.03-0.01-0.36,0.36-0.33,0.51c0.28,1.49,0.18,1.71-1.24,2.03c-0.46,0.1-0.47,0.27-0.46,0.69c0,0.56-0.79,0.96-0.39,1.68
			c0.04,0.06-0.51,0.42-0.75,0.68c-0.32,0.35-0.8,0.7-0.86,1.1c-0.05,0.41,0.7,0.91-0.14,1.28c0.62,0.92-0.11,0.97-0.71,1.1
			c-0.46,0.09-0.59,0.29-0.25,0.69c0.03,0.03-0.16,0.34-0.28,0.37c-0.5,0.13-0.53,0.36-0.21,0.71c0.04,0.04,0.11,0.12,0.11,0.13
			c-0.28,0.33-0.56,0.66-0.84,0.99c0.64,0.51,0.32,0.82-0.23,1.09c-0.52,0.25-0.54,0.46-0.04,0.84c0.53,0.4,0.56,1.35,0.19,1.87
			c-0.29,0.41-1.53,0.81-0.04,1.27c-0.21,0.61,0.37,1.36-0.32,1.88c-0.47,0.36-0.82,0.69-0.77,1.41c0.04,0.68-0.33,0.1-0.48,0.02
			c-0.27-0.15-0.64-0.31-0.56,0.15c0.19,1.07-0.29,0.84-0.91,0.6c-0.1-0.04-0.45,0.19-0.44,0.25c0.16,0.81-0.23,0.92-0.87,0.71
			c-0.44-0.14-0.83-0.26-0.72,0.46c-0.23,0.02-0.45,0.07-0.68,0.07c-0.21,0-0.41-0.04-0.62-0.06c-0.02,0.39-0.04,0.77-0.05,1.16
			c-0.53-0.04-0.99-0.04-0.57,0.7c0.17,0.31,0.12,0.49-0.29,0.6c-0.45,0.12-0.88,0.36-1.31,0.55c-0.15,0.07-0.45,0.18-0.45,0.19
			c0.21,0.59,0.4,1.15-0.49,1.34c0.6,0.66-0.53,0.84-0.44,1.5c0.05,0.36-0.88,0.86-1.39,1.26c-0.17,0.13-0.59,0.13-0.6,0.23
			c-0.15,1.35-1.45,1.88-2.04,2.9c-0.26,0.45,0.04,1.32-0.97,1.11c0.05,0.22,0.02,0.56,0.15,0.64c0.65,0.41,0.86,0.76,0.03,1.19
			c-0.38,0.2-0.5,0.54-0.09,0.79c0.58,0.36,0.44,0.79,0.07,1.08c-0.51,0.4-0.2,0.81-0.15,1.21c0.09,0.69,0.02,1.58,0.42,2.03
			c0.79,0.88,0.92,1.78,0.75,2.84c-0.01,0.09,0.07,0.24,0.15,0.28c1.11,0.5,0.78,1.22,0.3,1.95c-0.28,0.44-0.22,0.51,0.33,0.5
			c1.05-0.02,1.13,0.13,0.51,1.01c-0.42,0.59-0.91,1.1-0.11,1.73c-0.44,0.62,0.54,1.43-0.28,2.03c-0.08,0.06,0.07,0.47,0.14,0.7
			c0.42,1.46,1.01,2.89,1.21,4.38c0.09,0.66,2.12,1.75,1.65,2.37c-0.5,0.66-0.87,1.3-0.98,2.14c-0.07,0.53-0.37,1.11-0.74,1.49
			c-0.41,0.42-0.46,0.76-0.21,1.21c0.36,0.63,1.62,1.2,1.1,1.6c-0.24,0.18-0.6,0.65-0.56,0.7c0.77,0.92-0.17,1.16-0.6,1.58
			c-0.39,0.39-0.61,0.72,0.13,0.99c0.1,0.04,0.18,0.49,0.09,0.64c-0.27,0.44-0.94,0.87-0.89,1.21c0.2,1.19,0.19,2.07-0.13,3.04
			c-0.02,0.05-0.03,0.11-0.03,0.17c0.11,2.19,0.11,2.19-0.78,3.61c-0.03,0.05-0.06,0.1-0.09,0.15c-0.57,0.92-0.57,0.92,0.39,1.49
			c0.51,0.3,0.63,0.63,0.12,1.07c-0.3,0.26-0.56,0.57-0.8,0.88c-0.12,0.16-1.39,0.4-1.33,0.45c1.13,0.96-0.2,1.73-0.2,2.6
			c0,0.54-0.22,1.16-0.54,1.61c-0.57,0.8,0.75,1.75-0.28,2.43c0.18,0.19,0.34,0.44,0.56,0.57c0.61,0.36,0.61,0.8,0.21,1.27
			c-1.08,1.25-0.12,3.05-0.87,4.44c-0.1,0.19,0.22,0.59-0.18,0.95c-0.72,0.66-0.67,0.69,0.24,1.1c0.13,0.06,0.27,0.44,0.2,0.55
			c-0.16,0.29,0.3,0.58,0.08,0.85c-0.29,0.37-0.19,0.62,0.28,0.72c0.38,0.08,0.47,0.27,0.21,0.58c-0.04,0.04-0.07,0.09-0.11,0.13
			c-0.95,0.95,1.07,0.62,0.53,1.07c-0.76,0.64-0.66,0.96,0.11,1.33c0.78,0.37,0.63,0.74,0.33,1.47c-0.5,1.22-0.3,1.8-1.38,2.24
			c-0.12,0.05-0.24,0.13-0.34,0.23c-0.05,0.05-0.11,0.09-0.16,0.14c-0.05,0.05-0.11,0.09-0.16,0.14c0.06,0.05,0.12,0.1,0.19,0.15
			c0.18,0.15,0.37,0.31,0.58,0.41c0.38,0.19,0.8,0.31,1.2,0.45c-0.26,0.37-0.49,0.77-0.79,1.1c-0.01,0.01-0.02,0.02-0.03,0.03
			c3.72,2.31,7.62,4.3,11.66,5.96l3.54,1.35l0.14,0.05l0,0c0.07-0.15,0.27-0.77,0.17-0.89c-0.2-0.22-0.29-0.95-0.03-1.15
			c0.37-0.28-0.67-0.74-0.19-0.81c0.19-0.03,0.17-2.28,0.34-2.09c0.56,0.65-1.04-1.05,0.12-1.51c0.11-0.05-0.21-0.15-0.12-0.6
			l0-0.01c0.02-0.18-0.25-0.84-0.25-0.84c-0.09-0.12-0.27-0.13-0.37-0.25c-0.09-0.12-0.19-0.25-0.27-0.38
			c-0.11-0.18-0.25-0.43-0.21-0.6c0.03-0.12,0.36-0.21,0.55-0.22c0.34-0.01,0.69,0.06,1.03,0.07c0.18,0.01,0.64-0.05,0.21-0.27
			c-0.83-0.42-0.05-0.64-0.57-1.04c-0.04-0.03-0.08-0.06-0.14-0.09c-0.05-0.03,0.12-0.72,0.35-0.92c0.87-0.75,0.76-1.52,0.25-2.39
			c-0.17-0.29-0.32-0.63-0.35-0.97c-0.02-0.17,0.26-0.53,0.36-0.52c0.61,0.09,0.57-0.2,0.4-0.58c-0.12-0.26-1.06-0.57-1.16-0.84
			c-0.05-0.13-0.01-0.44,0.04-0.45c1.85-0.47,0.16-1.01,0.03-1.5c-0.07-0.25-0.15-0.49-0.23-0.74c0.22-0.01,0.43-0.03,0.65-0.04
			c0.16-0.01,0.33-0.01,0.49-0.02c-0.05-0.15-0.06-0.32-0.15-0.44c-0.35-0.53-2.64-1.21-2.95-1.76c-0.22-0.4-0.44-0.88,0.33-1.04
			c0.09-0.02,0.19-0.47,0.12-0.65c-0.2-0.53-0.56-0.99-0.06-1.58c0.11-0.13-0.13-0.63-0.28-0.92c-0.37-0.71-0.82-1.39-1.18-2.11
			c-0.11-0.22-0.1-0.75-0.07-0.76c1.35-0.31,0.3-0.96,0.22-1.46c-0.05-0.27-0.24-0.74-0.18-0.77c1.21-0.63,0.27-1.23,0.02-1.85
			c-0.07-0.19-0.08-0.59-0.05-0.6c1.22-0.3,0.35-0.93,0.18-1.36c-0.37-0.91-0.7-1.73-0.37-2.8c0.22-0.7-0.15-1.57-0.06-2.34
			c0.31-2.45-2.3-5.18-1.97-7.63c0.09-0.68-0.5-1.2-0.49-2.06c0.01-0.5-0.09-1-0.16-1.5c-0.02-0.14-0.04-0.31-0.13-0.41
			c-0.72-0.8-1.02-1.66-1.22-2.57c-0.21-0.96-0.67-1.86-0.98-2.8c-0.43-1.3-2.71-2.79-3.1-4.1c-0.04-0.14-0.16-2.11-0.22-2.95
			c-0.02-0.33,0.13-0.69,0.04-0.99c-0.24-0.87-0.1-1.61,0.62-2.14c0.74-0.55,0.63-1.33,0.62-2.04c0-0.41-0.96-0.53-0.38-1.32
			c0.19-0.26-0.38-1.07-0.58-1.64c-0.03-0.08,0.04-0.2,0.06-0.3c0.09,0.03,0.2,0.04,0.27,0.1c0.13,0.11,0.22,0.27,0.36,0.37
			c0.24,0.19,0.5,0.37,0.75,0.55c0.14-0.41,0.5-0.92,0.38-1.22c-0.33-0.77-0.88-1.45-1.35-2.16c-0.06-0.09-0.11-0.19-0.16-0.28
			c0.15-0.01,0.32-0.08,0.44-0.02c1.01,0.47,1,0.47,1.6-0.58c0.36-0.65,0.8-1.26,1.1-1.94c0.48-1.08,1.65-1.35,2.4-2.11
			c0.26-0.26,0.45-0.57,0.68-0.78c0.67-0.61,1.09-1.5,2.06-1.81c0.29-0.09,0.46-0.54,0.7-0.81c0.1-0.11,0.28-0.27,0.35-0.24
			c0.32,0.15,0.84,0.54,0.87,0.51c0.59-0.76,0.56,0.17,0.78,0.29c1.2,0.65,1.71,2.23,3.3,2.41c0.58,0.07,0.52,0.68,0.4,1.1
			c-0.21,0.74-0.49,1.45-0.75,2.18c-0.59,1.64-0.77,3.28,0.01,4.91c0.05,0.1,0.06,0.22,0.11,0.33c0.82,1.67,0.85,1.71,2.41,0.76
			c1.76-1.07,3.64-0.89,5.53-0.63c0.17,0.02,0.32,0.28,0.48,0.43c-0.17,0.12-0.33,0.32-0.52,0.36c-1.11,0.23-2.22,0.42-3.33,0.63
			c-0.2,0.04-0.4,0.1-0.6,0.15c0.1,0.19,0.17,0.43,0.31,0.57c0.21,0.21,0.44,0.64,0.79,0.14c0.03-0.04,0.05-0.1,0.08-0.15
			c0.04,0.12,0.11,0.24,0.13,0.36c0.12,0.9,0.18,1.76,0.82,2.55c0.27,0.34,0.74,1.21-0.11,1.87c-0.32,0.25-1.05,1.06,0,1.59
			c-0.05,1.42,0.82,2.57,1.17,3.87c0.35,1.32,0.4,1.23,1.9,1.31c1.46,0.08,2.92,0.41,4.37,0.68c0.83,0.15,1.64,0.45,2.48,0.58
			c1.67,0.25,3.1,0.94,4.42,1.98c1.01,0.79,2.15,1.4,3.21,2.13c0.84,0.58,1.59,1.21,2.11,2.18c0.59,1.09,1.69,1.37,3.01,1.26
			c0.78-0.06,1.63,0.2,2.35-0.01c0.69-0.21,1.24-0.87,1.89-1.27c0.37-0.22,0.85-0.49,1.23-0.43c0.83,0.14,1.1-1.1,1.96-0.7
			c0.26-0.68,0.57-1.35,0.75-2.05c0.4-1.55,0.21-2.45-0.83-4.53c-0.09-0.19-0.11-0.41-0.16-0.62c0.22-0.03,0.45-0.11,0.67-0.08
			c1.5,0.16,2.55,1.05,3.28,2.28c0.52,0.89,0.89,1.87,1.26,2.83c0.56,1.43,1.02,1.71,2.35,0.89c0.66-0.41,1.76-0.38,1.9-1.53
			c0.02-0.19,0.49-0.46,0.76-0.46c0.84-0.02,0.53-1.06,0.7-1.04c0.81,0.06,0.58-0.31,0.46-0.76c-0.11-0.43,0.09-0.66,0.56-0.54
			c0.27,0.07,0.59,0.07,0.79,0.23c0.87,0.67,1.65,1.38,2.83,1.67c0.74,0.18,1.34,1.08,1.9,1.74c0.96,1.11,2.21,1.85,3.34,2.73
			c0.18,0.14,0.49,0.46,0.48,0.48c-1.09,1.34-0.31,2.8-0.23,4.18c0.1,1.72-0.06,2.84-1.09,4.28c-0.11,0.15-0.13,0.41-0.11,0.61
			c0.21,1.74-1.58,2.8-2.69,3.89c-0.22,0.21-0.43,0.43-0.64,0.64c0.63,0.13,0.39,1.28,1.29,1.11c0.16-0.03,0.34,0.03,0.51,0.05
			c0.56,0.08,1.63-0.22,0.74,0.99c-0.05,0.07,0.25,0.36,0.33,0.56c0.07,0.19,0.16,0.56,0.1,0.59c-1.37,0.69-0.48,1.97-0.78,2.92
			c-0.08,0.25-0.12,0.55-0.28,0.73c-0.3,0.33-0.29,0.56,0,0.87c0.54,0.57-0.53,0.89-1.52,0.94c-0.12,0.01-0.35,0.36-0.32,0.4
			c0.41,0.59,0.71,1.15,0,1.75c-0.06,0.05,0.18,0.4,0.22,0.62c0.03,0.19,0.03,0.54-0.04,0.57c-0.55,0.19-1.02,0.34-0.98,1.13
			c0.01,0.23-1.09,0.06-0.84,0.91c0.01,0.03-0.2,0.19-0.24,0.17c-0.97-0.51-1.26-0.16-1.1,0.83c0,0.03-0.28,0.18-0.39,0.15
			c-0.59-0.19-1.18-0.54-1.44,0.44c-0.03,0.1-0.41,0.16-0.62,0.15c-0.69-0.06-0.68,0.2-0.37,0.68c0.34,0.53,0.61,1.07-0.38,1.2
			c-0.11,0.01-0.31,0.09-0.3,0.12c0.14,1.36-1,1.14-1.72,1.36c-0.67,0.21-0.27,0.39-0.06,0.63c0.14,0.16-0.88,0.25-0.75,0.42
			c-0.24,0.09-0.47,0.2-0.71,0.27c-0.31,0.09-0.62,0.16-0.94,0.24c1.01,1.1-0.47,0.91-0.7,1.36c-0.04,0.09-0.09,0.23-0.05,0.29
			c0.05,0.08,0.18,0.14,0.28,0.16c0.27,0.04,0.54,0.08,0.82,0.12c0.27,0.04,0.55,0.07,0.82,0.11c-0.1,0.11-0.19,0.23-0.28,0.35
			c-0.28,0.36-0.55,0.72-0.89,1.01c-0.65,0.57-1.38,1.03-2.05,1.57c-0.13,0.11-0.22,0.52-0.21,0.52c1.23,0.55,0.26,0.97-0.14,1.23
			c-0.67,0.44-1.33,1.33-2.23,1.69c-0.6,0.24-1.04,0.84-1.17,1.61c-0.05,0.29-0.51,0.58-0.84,0.74c-0.46,0.22-0.99,0.29-1.48,0.46
			c-0.49,0.17-0.27,0.32,0.02,0.5c0.05,0.03-0.03,0.45-0.09,0.46c-0.5,0.08-0.54,0.49-0.78,0.82c-0.32,0.45-0.58,0.57,0.17,0.67
			c0.04,0.01,0.07,0.02,0.1,0.03c0.42,0.18-0.25,1.07,0.22,1.6c0.1,0.12,0.44,0.11,0.63,0.04c0.51-0.16-0.68,1.01-0.67,1.58
			c0.01,0.3,0.02,0.62,0.47,0.35c0.5-0.31-0.64,1.14-0.11,1.52c0.54,0.39,1.06,0.54,1.13,0.45c0,0,5.32-1,5.35-1.02
			c0,0,0.61-0.17,1.45-0.4c0,0,0.01,0,0.01,0c1.8-0.49,4.61-1.23,4.64-1.11c1.71-0.54,3.42-1.13,5.11-1.79
			c3.64-1.42,7.11-3.09,10.4-4.97c-0.14-0.09-0.27-0.17-0.41-0.26c0.11-0.08,0.23-0.16,0.34-0.24c0.33-0.25,0.67-0.51,1.04-0.67
			c0.59-0.26,0.81-0.45,0.16-0.87c-0.24-0.15-0.5-0.29-0.7-0.49c-0.79-0.74-0.81-1.02-0.18-1.88c0.35-0.49,0.94-0.91,0.26-1.59
			c-0.09-0.09,0.06-0.57,0.23-0.71c0.56-0.46,1.07-0.78,0.48-1.66c-0.18-0.27,1.44-0.91,1.68-1.41c0.19-0.41,0.58-0.74,0.06-1.2
			c-0.11-0.1-0.04-0.54,0.08-0.73c0.34-0.53,0.67-0.97-0.18-1.35c-0.11-0.05-0.15-0.53-0.05-0.7c0.23-0.39,0.59-0.7,0.85-1.07
			c0.07-0.11,0-0.48-0.07-0.5c-1.21-0.31-0.69-0.92-0.29-1.51c0.1-0.14,0.21-0.27,0.34-0.39c0.63-0.54,0.71-0.9-0.28-0.99
			c-0.57-0.05-0.61-0.42-0.46-0.87c0.24-0.68,0.99-1.34-0.01-2.08c-0.11-0.08,1.39-0.82,1.65-1.24c0.36-0.6,0.76-1.1-0.37-1.28
			c-0.18-0.03-0.43-0.52-0.41-0.78c0.03-0.44,0.22-0.89,0.41-1.3c0.25-0.53,0.43-0.92-0.38-1.13c-0.21-0.06-0.39-0.62-0.41-0.96
			c-0.03-0.51,0.27-1.11,0.1-1.52c-0.2-0.47-0.96-0.72-1.12-1.19c-0.14-0.41,0.48-1.14,0.29-1.46c-0.36-0.61-0.19-0.98,0.28-1.77
			c-0.58-0.23-0.72-0.69-0.86-1.27c-0.3-1.22-0.23-2.28,0.78-3.14c0.36-0.31,0.38-0.48,0.06-0.95c-0.42-0.63-0.51-1.47-0.74-2.22
			c-0.06-0.18-0.07-0.46-0.19-0.53c-0.5-0.28-0.99-0.5-0.15-0.98c0.03-0.02-0.04-0.39-0.15-0.47c-0.37-0.27-0.41-0.49-0.06-0.8
			c0.1-0.09,0.19-0.39,0.18-0.4c-0.88-0.45-0.3-1.55-0.95-2.13c-0.16-0.14-0.06-0.58-0.08-0.89c0-0.03,0.69-2.28,0.67-2.3
			c-0.65-0.59,0.54-0.91,0.24-1.3c-0.51-0.66,0.04-0.89,0.32-1.29c0.08-0.12,0.04-0.48-0.04-0.52c-0.38-0.18-0.37-0.31-0.07-0.57
			c0.18-0.15,0.42-0.56,0.39-0.58c-1.13-1.02,0.34-1.8,0.3-2.72c-0.01-0.13,0.52-1.25,1.39-0.64c0.07,0.05,0.38-0.2,0.55-0.34
			c0.08-0.06,0.1-0.19,0.14-0.29c-0.22-0.03-0.45-0.12-0.66-0.08c-0.61,0.13-1.21,0.34-1.83,0.45c-0.16,0.03-0.4-0.14-0.53-0.28
			c-0.05-0.06,0.03-0.34,0.13-0.43c0.75-0.68,1.55-1.29,1.96-2.28c0.07-0.19,0.49-0.25,0.76-0.34c0.79-0.24,0.74-0.42-0.01-0.64
			c-0.04-0.01,0.08-0.6,0.13-0.92c0.1-0.75,1.5-0.43,1.24-1.49c0,0,0.22-0.11,0.28-0.07c0.86,0.49,1.26,0.47,0.77-0.65
			c-0.02-0.04,0.14-0.21,0.17-0.2c1.64,0.6,0.49-0.81,0.67-0.91c0.65-0.38,0.04-1.7,1.27-1.6c0.2,0.02,0.5-0.52,0.67-0.85
			c0.08-0.16-0.04-0.42-0.08-0.63c-0.05-0.21-0.11-0.42-0.17-0.64c1.04,0.07,1.02-0.99,1.55-1.44c0.46-0.39,0.65-1.34,1.59-0.95
			c0.06-0.17,0.22-0.4,0.16-0.5c-0.23-0.37-0.52-0.68,0.21-0.83c0.09-0.02,0.12-0.41,0.15-0.63c0.03-0.25-0.09-0.64,0.04-0.73
			c0.57-0.42,1.45-0.66,0.51-1.56c0.42-0.85,0.72-1.78,1.27-2.54c1.2-1.68,2.03-3.56,2.64-5.48
			C191.58,113.44,191.78,112.4,191.5,111.34L191.5,111.34z"/>
		<path class="st3" d="M118.28,164.56c0.11-0.02,0.23-0.05,0.32-0.14c0.09-0.09,0.25-0.43,0.16-0.57c-0.09-0.15-0.25-0.22-0.42-0.25
			c-0.21-0.04-0.48-0.01-0.66,0.21c-0.17,0.21-0.15,0.51,0,0.65C117.83,164.59,118.06,164.59,118.28,164.56L118.28,164.56z"/>
		<path class="st3" d="M126.96,165.19c-0.08,0.07-0.15,0.15-0.18,0.26c-0.02,0.11,0.03,0.44,0.18,0.5c0.15,0.06,0.31,0.03,0.47-0.03
			c0.19-0.07,0.39-0.23,0.41-0.48c0.02-0.24-0.16-0.45-0.34-0.48C127.3,164.94,127.12,165.05,126.96,165.19L126.96,165.19z"/>
		<path class="st3" d="M114.4,159.6c0.15,0.06,0.31,0.03,0.47-0.03c0.19-0.07,0.39-0.23,0.41-0.48c0.02-0.24-0.16-0.45-0.34-0.48
			c-0.19-0.03-0.37,0.08-0.53,0.22c-0.08,0.07-0.15,0.15-0.18,0.26C114.2,159.21,114.25,159.53,114.4,159.6L114.4,159.6z"/>
		<path class="st3" d="M113.55,155.26c0.15,0.06,0.31,0.03,0.47-0.03c0.19-0.07,0.39-0.23,0.41-0.48c0.02-0.24-0.16-0.45-0.34-0.48
			c-0.19-0.03-0.37,0.08-0.53,0.22c-0.08,0.07-0.15,0.15-0.18,0.26C113.35,154.87,113.4,155.2,113.55,155.26L113.55,155.26z"/>
		<path class="st3" d="M140.07,164.25c0.15-0.13,0.18-0.36,0.16-0.58c-0.01-0.11-0.03-0.23-0.11-0.33c-0.08-0.1-0.4-0.29-0.55-0.22
			c-0.15,0.07-0.24,0.23-0.29,0.39c-0.06,0.2-0.05,0.48,0.15,0.67C139.63,164.38,139.92,164.38,140.07,164.25L140.07,164.25z"/>
		<path class="st3" d="M132.93,163.68c-0.24-0.04-0.46,0.11-0.51,0.3c-0.05,0.18,0.05,0.38,0.17,0.55c0.06,0.08,0.13,0.17,0.25,0.2
			c0.11,0.03,0.44,0.01,0.52-0.13c0.08-0.14,0.06-0.31,0.02-0.47C133.32,163.93,133.18,163.72,132.93,163.68L132.93,163.68z"/>
		<path class="st3" d="M136.71,168.18c0.11,0.03,0.44,0.01,0.52-0.13c0.08-0.14,0.06-0.31,0.02-0.47c-0.06-0.19-0.2-0.41-0.44-0.45
			c-0.24-0.04-0.46,0.11-0.51,0.3c-0.05,0.18,0.05,0.38,0.17,0.55C136.52,168.06,136.6,168.15,136.71,168.18L136.71,168.18z"/>
		<path class="st3" d="M131.33,168.05c-0.24-0.04-0.46,0.12-0.51,0.3c-0.05,0.18,0.05,0.38,0.17,0.55c0.06,0.08,0.13,0.17,0.25,0.2
			c0.11,0.03,0.44,0.01,0.52-0.13c0.08-0.14,0.06-0.31,0.02-0.47C131.72,168.3,131.58,168.09,131.33,168.05L131.33,168.05z"/>
		<path class="st3" d="M127.61,178.02c-0.78,1.29-1.31,2.68-1.7,4.09c-0.19,0.7-0.33,1.41-0.47,2.11c-0.07,0.35-0.12,0.7-0.18,1.05
			c-0.03,0.19-0.05,0.31-0.09,0.46c-0.04,0.14-0.08,0.29-0.14,0.43c-0.23,0.57-0.6,1.13-1.04,1.64c-0.43,0.51-0.93,0.98-1.47,1.4
			c-1.08,0.82-2.34,1.49-3.66,1.67c-0.33,0.04-0.66,0.03-0.96-0.03c-0.31-0.06-0.55-0.21-0.84-0.42c-0.56-0.4-1.08-0.84-1.53-1.34
			c-0.91-1.01-1.59-2.21-2.25-3.44l-0.5-0.92c-0.09-0.17-0.14-0.28-0.2-0.42c-0.05-0.14-0.11-0.27-0.15-0.41
			c-0.18-0.57-0.22-1.2-0.23-1.84c0.01-1.28,0.23-2.62,0.6-3.92c0.35-1.31,0.85-2.58,1.44-3.81c0.15-0.3,0.31-0.59,0.49-0.95
			c0.16-0.35,0.3-0.71,0.39-1.09c0.19-0.75,0.2-0.46,0.06-1.21c-0.14-0.74-0.41-1.45-0.77-2.08c-0.18-0.32-0.38-0.62-0.61-0.9
			c-0.11-0.14-0.23-0.28-0.35-0.41l-0.16-0.17c0.09,0.02,0.19,0.06,0.28,0.09c0.19,0.07,0.37,0.14,0.55,0.23
			c0.36,0.16,0.72,0.35,1.07,0.55c0.7,0.39,1.38,0.82,2.05,1.26c0.67,0.44,1.32,0.92,1.95,1.4c0.62,0.48,1.26,1,1.73,1.53l0.2,0.23
			l0.37-0.03c0.26-0.02,1.7-0.15,2.04-0.1c0.68,0.11,1.38,0.21,2.06,0.34c1.36,0.27,2.55,0.61,3.9,0.94
			c0.67,0.17,1.37,0.64,2.04,0.82c0.11,0.03,0.22,0.06,0.33,0.09c-0.45,0.25-0.88,0.54-1.29,0.85
			C129.39,176.63,128.38,176.73,127.61,178.02L127.61,178.02z M144.49,168.26c-0.93-0.56-1.53-0.39-2.52-0.82
			c-0.89-0.39-0.1,0.26-0.18,0.39c-0.14,0.23-0.24,0.49-0.39,0.71c-1.22,1.82-2.87,2.99-4.82,3.71c-1.22,0.02-2.39-0.03-3.51-0.13
			c-0.34-0.1-0.67-0.18-1.01-0.27c-0.09-0.02-0.18-0.04-0.27-0.07c-0.6-0.15-1.21-0.29-1.82-0.42c-0.76-0.16-1.53-0.31-2.3-0.44
			c-0.6-0.1-1.2-0.2-1.81-0.29c-0.61-0.18-1.31-0.4-2.06-0.62c-1.06-1.03-1.35-2.29-1.72-3.57c-2.43,1.77-4.54,0.98-5.86-0.04
			c-1.58-1.22-2.67-3.07-3.75-4.67c-0.17-0.25-1.49-1.44-1.58-1.74c-0.12-0.42-0.25-0.72-0.38-0.95c-0.06-0.39-0.09-0.78-0.03-1.16
			c0.18-1.06,0.09-2.1,0.17-3.15c0.1-1.27-0.48-1.92-1.76-1.92c-1.37-0.09-0.85-0.01-2.22-0.08c-0.18-0.01-0.36,0.09-0.54,0.14
			c0.16,0.06,0.31,0.16,0.47,0.16c1.24,0.03,0.53,0.36,1.82,0.18c0.81-0.11,0.82,3.79,0.79,4.03c-0.08,0.66,0.14,1.18,0.47,1.67
			c0.04,0.61,0.24,1.66,0.31,1.78c0.37,0.64,0.62,3.09,0.78,3.79c0.47,2.1,0.93,1.96,3.33,7.47c-0.1,0.3-0.25,0.58-0.4,0.86
			l-0.56,0.88c-0.38,0.62-0.73,1.26-1.02,1.93c-0.3,0.66-0.58,1.34-0.8,2.03c-0.43,1.39-0.77,2.85-0.75,4.38
			c0.01,0.76,0.14,1.55,0.42,2.31c0.07,0.19,0.15,0.38,0.25,0.56c0.1,0.18,0.22,0.37,0.31,0.5l0.6,0.88
			c0.82,1.16,1.72,2.32,2.81,3.3c0.54,0.48,1.12,0.93,1.75,1.3c0.16,0.09,0.29,0.19,0.49,0.28c0.18,0.09,0.38,0.15,0.57,0.18
			c0.38,0.08,0.77,0.07,1.14,0.03c0.74-0.08,1.44-0.31,2.11-0.6c0.67-0.28,1.3-0.64,1.91-1.03c1.2-0.8,2.36-1.75,3.14-3.12
			c0.09-0.17,0.18-0.36,0.25-0.55c0.07-0.19,0.13-0.41,0.18-0.57l0.27-1.02c0.18-0.67,0.38-1.33,0.59-1.97
			c0.43-1.29,0.97-2.52,1.7-3.61c0.67-1.02,1.5-1.92,2.47-2.64c0.52-0.07,0.94-0.17,1.24-0.31c2.24-1.01,3.27-0.89,4.65-1.63
			c2.02-1.08,4.56-4.16,4.95-5.54c0.26-0.92,1.57-0.36,1.91-0.31c0.19,0.03,0.38,0.07,0.57,0.11
			C144.74,168.5,144.64,168.34,144.49,168.26L144.49,168.26z"/>
		<path class="st0" d="M117.36,183.87c-0.15-1.27-0.14-2.57,0.01-3.85c0.17-1.28,0.5-2.55,1.08-3.71c0.57-1.16,1.39-2.22,2.44-2.94
			c-0.85,0.95-1.48,2.02-1.93,3.17c-0.44,1.15-0.72,2.35-0.88,3.58c-0.17,1.22-0.2,2.47-0.17,3.71c0.04,1.24,0.16,2.49,0.38,3.74
			C117.79,186.4,117.51,185.14,117.36,183.87L117.36,183.87z M130.6,175.71c0.41-0.31,0.84-0.6,1.29-0.85
			c-0.11-0.03-0.22-0.06-0.33-0.09c-0.66-0.18-1.36-0.66-2.04-0.82c-1.35-0.33-2.54-0.67-3.9-0.94c-0.68-0.13-1.39-0.23-2.06-0.34
			c-0.34-0.05-1.79,0.08-2.04,0.1l-0.37,0.03l-0.2-0.23c-0.47-0.53-1.11-1.05-1.73-1.53c-0.63-0.48-1.28-0.96-1.95-1.4
			c-0.67-0.44-1.35-0.88-2.05-1.26c-0.35-0.2-0.71-0.38-1.07-0.55c-0.18-0.08-0.37-0.16-0.55-0.23c-0.09-0.03-0.19-0.07-0.28-0.09
			l0.16,0.17c0.12,0.13,0.24,0.27,0.35,0.41c0.22,0.28,0.43,0.59,0.61,0.9c0.37,0.63,0.64,1.33,0.77,2.08
			c0.14,0.74,0.12,0.45-0.06,1.21c-0.09,0.38-0.23,0.74-0.39,1.09c-0.18,0.36-0.34,0.64-0.49,0.95c-0.58,1.22-1.09,2.5-1.44,3.81
			c-0.38,1.3-0.59,2.63-0.6,3.92c0,0.64,0.05,1.27,0.23,1.84c0.04,0.14,0.1,0.28,0.15,0.41c0.06,0.13,0.11,0.25,0.2,0.42l0.5,0.92
			c0.66,1.23,1.33,2.43,2.25,3.44c0.45,0.51,0.97,0.95,1.53,1.34c0.3,0.21,0.53,0.36,0.84,0.42c0.31,0.07,0.63,0.07,0.96,0.03
			c1.32-0.18,2.59-0.85,3.66-1.67c0.54-0.42,1.04-0.88,1.47-1.4c0.43-0.51,0.8-1.07,1.04-1.64c0.06-0.14,0.11-0.29,0.14-0.43
			c0.04-0.14,0.06-0.27,0.09-0.46c0.06-0.34,0.11-0.69,0.18-1.05c0.13-0.7,0.27-1.41,0.47-2.11c0.38-1.4,0.92-2.8,1.7-4.09
			C128.38,176.73,129.39,176.63,130.6,175.71L130.6,175.71z"/>
		<path class="st3" d="M118.09,180.12c0.15-1.22,0.43-2.43,0.88-3.58c0.45-1.14,1.08-2.22,1.93-3.17c-1.05,0.72-1.88,1.78-2.44,2.94
			c-0.58,1.16-0.91,2.43-1.08,3.71c-0.16,1.28-0.16,2.57-0.01,3.85c0.15,1.27,0.43,2.53,0.94,3.7c-0.22-1.25-0.34-2.5-0.38-3.74
			C117.88,182.59,117.92,181.34,118.09,180.12L118.09,180.12z"/>
		<polygon class="st0" points="101.15,211.1 85.5,207.78 85.69,191.09 101.34,194.41 101.15,211.1 		"/>
		<polygon class="st0" points="165.91,211.48 181.63,208.52 181.82,191.83 166.1,194.79 165.91,211.48 		"/>
		<path class="st0" d="M75.57,200.17c0,0,6.31-2.19,11.41-2.99c4.49-0.7,16.91-1.07,16.91-1.07l-0.18,15.68c0,0-9.52,0-15.76,0.85
			c-6.24,0.85-12.55,3.21-12.55,3.21l4.96-8.9L75.57,200.17L75.57,200.17z"/>
		<path class="st3" d="M107,192.94l-3.2,0.09c-0.52,0.01-12.67,0.38-17.3,1.1c-5.31,0.83-11.67,3.03-11.94,3.12l-3.86,1.34
			l2.35,3.34l3.67,5.21l-4.02,7.21l-4.07,7.31l7.84-2.92c0.06-0.02,6.08-2.25,11.89-3.04c5.96-0.81,15.25-0.82,15.35-0.82l3.04,0
			l0.04-3.04l0.18-15.68L107,192.94L107,192.94L107,192.94z M103.88,196.11l-0.18,15.68c0,0-9.52,0-15.76,0.85
			c-6.24,0.85-12.55,3.21-12.55,3.21l4.96-8.9l-4.78-6.79c0,0,6.31-2.19,11.41-2.99C91.47,196.48,103.88,196.11,103.88,196.11"/>
		<polygon class="st3" points="104.22,211.13 85.5,207.78 85.69,191.09 104.42,194.45 104.22,211.13 		"/>
		<path class="st3" d="M82.66,187.42l-0.04,3.63l-0.19,16.69l-0.03,2.61l2.56,0.46l18.72,3.35l3.58,0.64l0.04-3.63l0.19-16.69
			l0.03-2.61l-2.57-0.46l-18.72-3.35L82.66,187.42L82.66,187.42L82.66,187.42z M85.69,191.09l18.72,3.35l-0.19,16.69l-18.72-3.35
			L85.69,191.09"/>
		<path class="st0" d="M191.74,201.14c0,0-6.26-2.33-11.34-3.25c-4.47-0.81-16.37-1.45-16.37-1.45l-0.18,15.68
			c0,0,9.01,0.21,15.23,1.2c6.22,0.99,12.48,3.49,12.48,3.49l-4.88-9.73L191.74,201.14L191.74,201.14z"/>
		<path class="st3" d="M160.99,193.2l-0.04,3.21l-0.18,15.68l-0.03,3.04l3.04,0.07c0.09,0,8.87,0.22,14.81,1.17
			c5.81,0.93,11.76,3.29,11.82,3.31l7.53,3.01l-3.64-7.25l-3.97-7.91l3.74-4.4l2.85-3.35l-4.12-1.53c-0.27-0.1-6.58-2.44-11.86-3.39
			c-4.61-0.83-16.25-1.47-16.75-1.49L160.99,193.2L160.99,193.2L160.99,193.2z M164.03,196.44c0,0,11.89,0.64,16.37,1.45
			c5.08,0.92,11.34,3.25,11.34,3.25l-5.06,5.96l4.88,9.73c0,0-6.26-2.5-12.48-3.49c-6.22-0.99-15.23-1.2-15.23-1.2L164.03,196.44"/>
		<polygon class="st3" points="161.3,211.43 181.63,208.52 181.82,191.83 161.49,194.74 161.3,211.43 		"/>
		<path class="st3" d="M184.94,188.28l-3.55,0.51l-20.33,2.91l-2.61,0.37l-0.03,2.64l-0.19,16.69l-0.04,3.59l3.55-0.51l20.34-2.91
			l2.61-0.37l0.03-2.64l0.19-16.69L184.94,188.28L184.94,188.28L184.94,188.28z M181.82,191.83l-0.19,16.69l-20.33,2.91l0.19-16.69
			L181.82,191.83"/>
		<polygon class="st0" points="181.88,208.25 85.51,207.14 85.71,189.65 182.08,190.76 181.88,208.25 		"/>
		<path class="st3" d="M185.2,187.71l-3.08-0.04l-96.37-1.1l-3.08-0.04l-0.04,3.08l-0.2,17.49l-0.04,3.08l3.08,0.04l96.37,1.1
			l3.08,0.04l0.04-3.08l0.2-17.49L185.2,187.71L185.2,187.71L185.2,187.71z M182.08,190.76l-0.2,17.49l-96.37-1.1l0.2-17.49
			L182.08,190.76"/>
		<polygon class="st3" points="92.46,194.6 99,194.67 98.98,196.57 94.67,196.53 94.66,197.77 98.56,197.81 98.54,199.59 
			94.64,199.54 94.62,200.83 98.99,200.88 98.97,202.8 92.37,202.72 92.46,194.6 		"/>
		<polygon class="st3" points="104.81,194.74 107.32,194.77 109.11,199.93 111.03,194.81 113.49,194.84 110.1,202.99 108.01,202.96 
			104.81,194.74 		"/>
		<polygon class="st3" points="119.51,194.9 126.05,194.98 126.03,196.88 121.72,196.84 121.7,198.08 125.61,198.12 125.59,199.9 
			121.68,199.85 121.67,201.14 126.03,201.19 126.01,203.11 119.42,203.03 119.51,194.9 		"/>
		<path class="st3" d="M136.21,199c0.75,0.01,1.21-0.36,1.22-0.95l0-0.02c0.01-0.65-0.46-0.98-1.21-0.99l-1.49-0.02l-0.02,1.96
			L136.21,199L136.21,199z M132.5,195.05l3.84,0.04c1.24,0.01,2.1,0.35,2.64,0.9c0.47,0.48,0.71,1.1,0.7,1.9l0,0.02
			c-0.01,1.25-0.69,2.07-1.7,2.49l1.91,2.86l-2.59-0.03l-1.61-2.48l-1-0.01l-0.03,2.46l-2.25-0.03L132.5,195.05L132.5,195.05z"/>
		<polygon class="st3" points="146.08,195.21 152.62,195.28 152.6,197.19 148.29,197.14 148.27,198.38 152.18,198.43 152.15,200.2 
			148.25,200.16 148.24,201.45 152.6,201.5 152.58,203.41 145.99,203.34 146.08,195.21 		"/>
		<polygon class="st3" points="161.03,197.36 158.6,197.33 158.63,195.35 165.74,195.43 165.72,197.41 163.28,197.38 163.21,203.54 
			160.96,203.51 161.03,197.36 		"/>
		<polygon class="st3" points="173.93,197.5 171.5,197.48 171.52,195.5 178.64,195.58 178.62,197.56 176.18,197.53 176.11,203.68 
			173.86,203.66 173.93,197.5 		"/>
		<path class="st3" d="M125.92,182.11c-0.19,0.7-0.33,1.41-0.47,2.11c-0.07,0.35-0.12,0.7-0.18,1.05c-0.03,0.19-0.05,0.31-0.09,0.46
			c-0.04,0.14-0.08,0.29-0.14,0.43c-0.23,0.57-0.6,1.13-1.04,1.64c-0.43,0.51-0.93,0.98-1.47,1.4c-1.08,0.82-2.34,1.49-3.66,1.67
			c-0.33,0.04-0.66,0.03-0.96-0.03c-0.31-0.06-0.55-0.21-0.84-0.42c-0.56-0.4-1.08-0.84-1.53-1.34c-0.91-1.01-1.59-2.21-2.25-3.44
			l-0.5-0.92c-0.09-0.17-0.14-0.28-0.2-0.42c-0.05-0.14-0.11-0.27-0.15-0.41c-0.18-0.57-0.22-1.2-0.23-1.84
			c0.01-1.28,0.23-2.62,0.6-3.92c0.35-1.31,0.85-2.58,1.44-3.81c0.15-0.3,0.31-0.59,0.49-0.95c0.16-0.35,0.3-0.71,0.39-1.09
			c0.19-0.75,0.21-1.54,0.08-2.29c-0.14-0.74-0.41-1.45-0.77-2.08c-0.18-0.32-0.38-0.62-0.61-0.9c-0.11-0.14-0.23-0.28-0.35-0.41
			l-0.16-0.17c0.09,0.02,0.19,0.06,0.28,0.09c0.19,0.07,0.37,0.14,0.55,0.23c0.36,0.16,0.72,0.35,1.07,0.55
			c0.7,0.39,1.38,0.82,2.05,1.26c0.67,0.44,1.32,0.92,1.95,1.4c0.62,0.48,1.26,1,1.73,1.53l0.2,0.23l0.37-0.03
			c0.26-0.02,0.6,0.01,0.92,0.04c0.33,0.03,0.67,0.08,1.01,0.14c0.68,0.11,1.36,0.24,2.04,0.38c1.36,0.27,2.72,0.6,4.07,0.93
			c0.67,0.17,1.35,0.35,2.01,0.53c0.11,0.03,0.22,0.06,0.33,0.09c-0.45,0.25-0.88,0.54-1.29,0.85c-1.22,0.93-2.24,2.1-3,3.39
			C126.83,179.31,126.3,180.7,125.92,182.11L125.92,182.11z M134.29,174.78l0.23-0.09l0.06-0.02l0.09-0.03
			c0.02-0.01,0.05-0.02,0.09-0.04c0.04-0.02,0.06-0.03,0.11-0.07c0.05-0.04,0.09-0.07,0.15-0.13c0.07-0.07,0.12-0.13,0.18-0.24
			c0.06-0.12,0.1-0.24,0.11-0.37c0.01-0.14,0-0.26-0.03-0.35c-0.03-0.12-0.06-0.16-0.09-0.23c-0.04-0.07-0.06-0.1-0.09-0.14
			c-0.03-0.04-0.06-0.07-0.07-0.09l-0.06-0.06c-0.14-0.13-0.21-0.16-0.29-0.21c-0.07-0.04-0.13-0.07-0.18-0.09
			c-0.11-0.05-0.21-0.09-0.3-0.13c-0.74-0.28-1.42-0.45-2.12-0.64c-0.09-0.02-0.18-0.04-0.27-0.07c-0.6-0.15-1.21-0.29-1.82-0.42
			c-0.76-0.16-1.53-0.31-2.3-0.44c-0.63-0.11-1.27-0.21-1.91-0.31c-0.71-0.11-1.42-0.19-2.14-0.25c-0.36-0.03-0.72-0.06-1.09-0.07
			c-0.29-0.01-0.57-0.01-0.89,0.01c-0.59-0.5-1.18-0.9-1.79-1.29c-0.7-0.44-1.43-0.84-2.16-1.22c-0.73-0.38-1.48-0.72-2.25-1.03
			c-0.39-0.15-0.78-0.28-1.18-0.4c-0.2-0.06-0.41-0.1-0.61-0.14c-0.11-0.01-0.21-0.04-0.31-0.04c-0.06,0-0.09-0.01-0.17-0.01
			c-0.09,0-0.18,0.03-0.23,0.05c-0.02,0.03,0.02,0.12,0.03,0.11l0.01,0.01l0.02,0.03l0.04,0.05l0.07,0.11l0.14,0.22
			c0.09,0.15,0.18,0.3,0.26,0.45c0.17,0.3,0.31,0.61,0.44,0.93c0.24,0.63,0.41,1.29,0.44,1.94c0.01,0.25,0,0.5-0.02,0.74
			c-0.04,0.39-0.11,0.78-0.25,1.15c-0.1,0.3-0.25,0.58-0.4,0.86l-0.56,0.88c-0.38,0.62-0.73,1.26-1.02,1.93
			c-0.3,0.66-0.58,1.34-0.8,2.03c-0.43,1.39-0.77,2.85-0.75,4.38c0.01,0.76,0.14,1.55,0.42,2.31c0.07,0.19,0.15,0.38,0.25,0.56
			c0.1,0.18,0.22,0.37,0.31,0.5l0.6,0.88c0.82,1.16,1.72,2.32,2.81,3.3c0.54,0.48,1.12,0.93,1.75,1.3c0.16,0.09,0.29,0.19,0.49,0.28
			c0.18,0.09,0.38,0.15,0.57,0.18c0.38,0.08,0.77,0.07,1.14,0.03c0.74-0.08,1.44-0.31,2.11-0.6c0.67-0.28,1.3-0.64,1.91-1.03
			c1.2-0.8,2.36-1.75,3.14-3.12c0.09-0.17,0.18-0.35,0.25-0.55c0.07-0.19,0.13-0.41,0.18-0.57l0.27-1.02
			c0.18-0.67,0.38-1.33,0.59-1.97c0.43-1.29,0.97-2.52,1.7-3.61c0.72-1.1,1.61-2.05,2.66-2.8c0.47-0.34,0.97-0.63,1.5-0.89
			c0.06-0.03,0.11-0.06,0.17-0.09C133.69,175.02,133.99,174.89,134.29,174.78L134.29,174.78z"/>
		<path class="st0" d="M125.92,182.11c-0.19,0.7-0.33,1.41-0.47,2.11c-0.07,0.35-0.12,0.7-0.18,1.05c-0.03,0.19-0.05,0.31-0.09,0.46
			c-0.04,0.14-0.08,0.29-0.14,0.43c-0.23,0.57-0.6,1.13-1.04,1.64c-0.43,0.51-0.93,0.98-1.47,1.4c-1.08,0.82-2.34,1.49-3.66,1.67
			c-0.33,0.04-0.66,0.03-0.96-0.03c-0.31-0.06-0.55-0.21-0.84-0.42c-0.56-0.4-1.08-0.84-1.53-1.34c-0.91-1.01-1.59-2.21-2.25-3.44
			l-0.5-0.92c-0.09-0.17-0.14-0.28-0.2-0.42c-0.05-0.14-0.11-0.27-0.15-0.41c-0.18-0.57-0.22-1.2-0.23-1.84
			c0.01-1.28,0.23-2.62,0.6-3.92c0.35-1.31,0.85-2.58,1.44-3.81c0.15-0.3,0.31-0.59,0.49-0.95c0.16-0.35,0.3-0.71,0.39-1.09
			c0.19-0.75,0.2-0.46,0.06-1.21c-0.14-0.74-0.41-1.45-0.77-2.08c-0.18-0.32-0.38-0.62-0.61-0.9c-0.11-0.14-0.23-0.28-0.35-0.41
			l-0.16-0.17c0.09,0.02,0.19,0.06,0.28,0.09c0.19,0.07,0.37,0.14,0.55,0.23c0.36,0.16,0.72,0.35,1.07,0.55
			c0.7,0.39,1.38,0.82,2.05,1.26c0.67,0.44,1.32,0.92,1.95,1.4c0.62,0.48,1.26,1,1.73,1.53l0.2,0.23l0.37-0.03
			c0.26-0.02,1.7-0.15,2.04-0.1c0.68,0.11,1.38,0.21,2.06,0.34c1.36,0.27,2.55,0.61,3.9,0.94c0.67,0.17,1.37,0.64,2.04,0.82
			c0.11,0.03,0.22,0.06,0.33,0.09c-0.45,0.25-0.88,0.54-1.29,0.85c-1.22,0.93-2.22,1.02-2.99,2.31
			C126.83,179.31,126.3,180.7,125.92,182.11L125.92,182.11z"/>
		<path class="st3" d="M118.09,180.12c0.15-1.22,0.43-2.43,0.88-3.58c0.45-1.14,1.08-2.22,1.93-3.17c-1.05,0.72-1.88,1.78-2.44,2.94
			c-0.58,1.16-0.91,2.43-1.08,3.71c-0.16,1.28-0.16,2.57-0.01,3.85c0.15,1.27,0.43,2.53,0.94,3.7c-0.22-1.25-0.34-2.5-0.38-3.74
			C117.88,182.59,117.92,181.34,118.09,180.12L118.09,180.12z"/>
	</g>
</g>
</svg>
