<?xml version="1.0" encoding="utf-8"?>
<!-- Generator: Adobe Illustrator 23.0.0, SVG Export Plug-In . SVG Version: 6.00 Build 0)  -->
<svg version="1.1" id="Layer_1" xmlns="http://www.w3.org/2000/svg" xmlns:xlink="http://www.w3.org/1999/xlink" x="0px" y="0px"
	 viewBox="0 0 482.64 453.36" style="enable-background:new 0 0 482.64 453.36;" xml:space="preserve">
<style type="text/css">
	.st0{fill:#c850c8;}
</style>
<g>
	<path class="st0" d="M341.93,330.67c3.52,1.99,6.85,3.73,10.03,5.71c3.11,1.94,6.05,4.16,9.1,6.19c0.78,0.52,0.97,1.16,0.96,2.02
		c-0.03,4.24-0.02,8.48-0.04,12.72c-0.02,4.8-0.08,9.6-0.05,14.4c0.03,3.77-1.25,7.02-3.65,9.87c-2.33,2.76-5.03,5.1-8,7.16
		c-5.61,3.89-11.71,6.84-18,9.41c-9.84,4.02-20.07,6.79-30.42,9.06c-5.75,1.26-11.58,2.12-17.4,3.05
		c-3.61,0.58-7.25,1.01-10.89,1.44c-3.24,0.38-6.5,0.62-9.75,0.98c-4.84,0.54-9.71,0.68-14.55,1.03
		c-5.91,0.43-11.82,0.29-17.73,0.44c-1.59,0.04-3.18,0.31-4.77,0.28c-6.71-0.11-13.42-0.26-20.12-0.45
		c-2.95-0.08-5.9-0.27-8.84-0.47c-3.9-0.27-7.79-0.54-11.68-0.95c-4.99-0.53-9.96-1.2-14.94-1.8c-9.09-1.1-18.08-2.77-27.03-4.72
		c-9.82-2.14-19.47-4.86-28.91-8.28c-6.31-2.29-12.46-4.95-18.22-8.44c-1.65-1-3.17-2.14-4.53-3.52c-0.77-0.79-1.14-1.63-1.14-2.77
		c0.03-12.56,0.04-25.12,0-37.68c0-1.23,0.45-2.11,1.25-2.97c2.38-2.54,5.21-4.49,8.22-6.16c4.12-2.28,8.33-4.39,12.51-6.56
		c0.78-0.4,1.57-0.77,2.5-1.22c-0.22-0.39-0.38-0.72-0.57-1.03c-1.43-2.3-1.39-4.27,0.27-6.4c0.48-0.61,0.72-1.18,0.72-1.94
		c-0.02-3.36-0.02-6.72,0-10.08c0-0.75-0.22-1.33-0.7-1.95c-1.79-2.28-1.77-4.37,0.06-6.72c0.49-0.63,0.64-1.24,0.64-1.98
		c-0.01-4.08-0.02-8.16,0.01-12.24c0-0.84-0.2-1.49-0.77-2.16c-1.61-1.91-1.7-4.42-0.15-6.34c0.66-0.82,0.93-1.58,0.92-2.59
		c-0.03-3.92-0.03-7.84,0-11.76c0.01-0.91-0.16-1.65-0.8-2.39c-1.54-1.79-1.71-4.37-0.21-6.14c0.89-1.05,1.02-2.07,1.01-3.29
		c-0.02-3.76-0.03-7.52,0.01-11.28c0.01-0.93-0.22-1.64-0.85-2.38c-1.52-1.78-1.62-4.34-0.14-6.15c0.79-0.96,0.99-1.9,0.99-3.05
		c-0.02-35.04-0.01-70.08-0.01-105.11c0-2.43,0.24-2.35-2.27-3.18c-4.77-1.58-9.45-3.42-13.98-5.59c-2.73-1.31-5.32-2.91-7.96-4.39
		c-0.48-0.27-0.93-0.62-1.36-0.98c-2.64-2.22-2.63-2.23-2.63-5.7c0-11.2,0.1-22.4-0.07-33.6c-0.04-2.75,0.9-4.65,3.01-6.08
		c2.77-1.88,5.52-3.83,8.45-5.44c7.36-4.03,15.05-7.32,22.93-10.22c9.89-3.64,20-6.48,30.24-8.88c6.12-1.43,12.29-2.66,18.51-3.57
		c3.86-0.57,7.7-1.22,11.56-1.76c2.05-0.29,4.12-0.41,6.19-0.62c2.53-0.26,5.07-0.55,7.6-0.82c0.24-0.03,0.48-0.04,0.72-0.06
		c2.31-0.16,4.61-0.35,6.92-0.48c11.02-0.64,22.05-0.65,33.08-0.44c3.27,0.06,6.54,0.26,9.8,0.48c3.74,0.25,7.48,0.53,11.2,0.94
		c4.59,0.51,9.15,1.23,13.74,1.74c7.76,0.87,15.42,2.39,23.04,4.04c5.98,1.3,11.89,2.97,17.8,4.58c7.77,2.13,15.36,4.82,22.81,7.88
		c6.65,2.74,13.14,5.8,19.27,9.59c2.17,1.35,4.24,2.85,6.03,4.7c0.77,0.79,1.13,1.64,1.12,2.77c-0.03,12.24-0.04,24.48,0,36.72
		c0.01,1.61-0.59,2.79-1.87,3.64c-2.13,1.41-4.21,2.9-6.44,4.14c-4.4,2.45-9.08,4.3-13.8,6.04c-1.65,0.61-3.28,1.25-4.94,1.81
		c-0.64,0.22-0.91,0.56-0.9,1.21c0.01,0.8,0,1.6,0,2.4c0,5.84,0,11.68,0,17.52c0,0.97,0.16,1.79,0.79,2.66
		c1.52,2.09,1.49,4.3-0.22,6.34c-0.45,0.54-0.56,1.11-0.56,1.77c0.01,4.24,0.01,8.48,0,12.72c0,0.74,0.16,1.36,0.65,1.98
		c1.4,1.78,1.88,4.18-0.07,6.55c-0.44,0.54-0.58,1.1-0.58,1.76c0.01,4.32,0.01,8.64,0,12.96c0,0.68,0.23,1.2,0.64,1.74
		c1.47,1.91,1.82,4.26-0.04,6.56c-0.44,0.54-0.6,1.09-0.6,1.76c0.01,4.32,0.02,8.64-0.01,12.96c0,0.79,0.34,1.33,0.77,1.94
		c1.02,1.43,1.43,3.01,0.79,4.73c-0.14,0.37-0.22,0.84-0.49,1.07c-1.14,0.96-1.08,2.23-1.07,3.52c0.02,2.96,0.03,5.92,0,8.88
		c-0.01,0.91,0.2,1.65,0.76,2.43c1.33,1.87,1.74,3.92-0.14,6.35c-0.42,0.54-0.64,1.08-0.61,1.75c0.02,0.56,0,1.12,0,1.68
		c0,25.36,0,50.72,0,76.08c0,0.87,0,1.73,0,2.85c1.34-0.55,2.43-0.98,3.51-1.45c6.38-2.8,12.97-4.86,19.89-5.8
		c3.56-0.49,7.12-0.98,10.72-0.82c10.31,0.45,19.75,3.45,27.93,9.9c1.75,1.38,3.39,2.92,4.99,4.48c3.17,3.09,6.66,5.72,10.61,7.72
		c4.09,2.07,8.4,3.43,12.99,3.8c1.51,0.12,3.01,0.36,4.52,0.37c4.01,0.03,7.96-0.57,11.82-1.57c7.32-1.91,14.1-5.05,20.31-9.4
		c0.92-0.64,1.78-1.35,2.71-1.97c2.34-1.57,5.39-1.14,6.87,0.92c1.93,2.69,0.94,5.8-0.99,7.26c-8.51,6.46-17.88,11.07-28.33,13.41
		c-5.08,1.14-10.24,1.7-15.44,1.37c-5.69-0.36-11.19-1.64-16.41-3.94c-6.06-2.67-11.42-6.36-16.08-11.08
		c-4.04-4.09-8.74-7.21-14.22-9.05c-2.95-0.99-5.97-1.71-9.1-1.84c-0.95-0.04-1.9-0.2-2.85-0.28c-0.48-0.04-0.96-0.09-1.43-0.06
		c-6.3,0.43-12.51,1.36-18.48,3.51C345.74,329.05,343.84,329.63,341.93,330.67z M224.92,125.6c6.71-0.13,13.42,0.32,20.13-0.34
		c3.09-0.3,6.21-0.2,9.33-0.44c4.37-0.34,8.75-0.58,13.11-1.05c3.72-0.4,7.47-0.61,11.18-1.11c4.89-0.65,9.76-1.42,14.62-2.27
		c5.41-0.94,10.82-1.89,16.17-3.09c8.32-1.87,16.52-4.17,24.57-7c5.58-1.96,11.01-4.26,16.23-7.05c1.08-0.58,1.69-1.24,1.68-2.58
		c-0.05-9.28-0.05-18.56,0-27.84c0.01-1.2-0.43-1.99-1.39-2.57c-1.77-1.08-3.52-2.2-5.35-3.19c-7.53-4.06-15.4-7.35-23.48-10.14
		c-8.36-2.89-16.82-5.43-25.48-7.28c-4.12-0.88-8.22-1.92-12.36-2.68c-4.46-0.82-8.96-1.45-13.45-2.08
		c-4.57-0.64-9.15-1.27-13.73-1.76c-4.12-0.43-8.26-0.74-12.4-0.96c-4.7-0.25-9.41-0.36-14.12-0.51
		c-7.19-0.22-14.38,0.19-21.56,0.44c-3.27,0.12-6.53,0.35-9.8,0.52c-0.16,0.01-0.32,0.02-0.48,0.04c-2.45,0.27-4.9,0.55-7.36,0.82
		c-3.41,0.37-6.83,0.62-10.22,1.11c-4.57,0.66-9.1,1.52-13.66,2.26c-5.82,0.95-11.56,2.27-17.27,3.69
		c-7.96,1.99-15.83,4.29-23.55,7.12c-6.97,2.56-13.84,5.36-20.39,8.86c-2.11,1.13-4.15,2.38-6.22,3.6
		c-0.89,0.52-1.43,1.23-1.28,2.36c0.08,0.63,0.01,1.28,0.01,1.92c0,8.8,0.02,17.6-0.02,26.4c0,1.17,0.29,1.95,1.41,2.46
		c2.32,1.07,4.54,2.36,6.89,3.37c8.65,3.73,17.61,6.56,26.73,8.92c6.4,1.66,12.86,3.03,19.35,4.24c3.99,0.74,8,1.38,12.02,1.96
		c3.07,0.44,6.17,0.73,9.26,1.09c3.72,0.43,7.43,0.95,11.15,1.29c4.29,0.4,8.58,0.71,12.88,0.95c4.22,0.24,8.45,0.43,12.68,0.51
		C215.48,125.66,220.2,125.6,224.92,125.6z M323.41,246.09c-0.38,0.07-0.78,0.07-1.14,0.21c-1.7,0.67-3.4,1.38-5.09,2.09
		c-8.84,3.66-17.67,7.34-26.52,10.99c-7.45,3.07-14.92,6.07-22.36,9.13c-9.66,3.98-19.3,7.99-28.96,11.98
		c-8.7,3.58-17.41,7.13-26.11,10.71c-7.67,3.16-15.32,6.35-22.99,9.5c-6.71,2.76-13.43,5.48-20.14,8.24
		c-6.86,2.82-13.69,5.69-20.56,8.51c-7.3,2.99-14.62,5.96-21.94,8.91c-0.94,0.38-1.32,0.91-1.31,1.97c0.06,4.4,0.02,8.8,0.03,13.2
		c0,1.45,0.13,1.63,1.52,1.97c3.02,0.73,6.05,1.37,9.07,2.12c6.88,1.69,13.86,2.91,20.84,4.09c4.63,0.78,9.29,1.37,13.95,1.94
		c4.59,0.56,9.18,1.03,13.78,1.44c4.37,0.39,8.74,0.74,13.12,0.95c5.66,0.27,11.33,0.41,17,0.56c2.72,0.07,5.44,0.06,8.16,0.06
		c9.59,0.01,19.18-0.05,28.76-0.59c0.32-0.02,0.64-0.02,0.96-0.05c3.57-0.28,7.15-0.57,10.72-0.85c2.46-0.19,4.93-0.36,7.39-0.57
		c1.75-0.15,3.49-0.35,5.23-0.56c1.9-0.23,3.78-0.52,5.68-0.76c3-0.37,6.02-0.66,9.01-1.1c3.54-0.52,7.07-1.13,10.59-1.78
		c5.32-0.98,10.63-1.99,15.94-3.05c1.64-0.33,3.23-0.86,4.85-1.26c0.57-0.14,0.78-0.47,0.78-1.02c0-0.64,0.01-1.28,0.01-1.92
		c0-9.6,0-19.2,0-28.8c0-21.2,0-42.4-0.01-63.59C323.7,247.89,323.92,246.99,323.41,246.09z M126.34,175.53c0,15.84,0,31.68,0,47.52
		c0,0.72-0.01,1.44,0.03,2.16c0.03,0.61,0.4,0.89,0.95,0.68c1.12-0.43,2.22-0.9,3.32-1.36c6.85-2.84,13.69-5.7,20.55-8.51
		c8.26-3.39,16.54-6.73,24.8-10.13c8.85-3.64,17.68-7.33,26.52-10.98c8.03-3.31,16.08-6.59,24.12-9.9
		c10.98-4.52,21.96-9.06,32.95-13.58c10.84-4.46,21.67-8.92,32.52-13.37c10.03-4.12,20.06-8.23,30.11-12.3
		c1.13-0.46,1.56-1.07,1.54-2.3c-0.06-5.04-0.03-10.08-0.03-15.12c0-3.46-0.18-3.62-3.62-3.19c-0.24,0.03-0.47,0.09-0.7,0.14
		c-2.16,0.53-4.32,1.09-6.49,1.58c-3.88,0.86-7.76,1.75-11.67,2.49c-3.36,0.64-6.76,1.09-10.14,1.61c-3.93,0.61-7.86,1.27-11.8,1.77
		c-3.63,0.46-7.3,0.68-10.94,1.09c-3.96,0.45-7.92,0.88-11.92,0.94c-0.24,0-0.48,0.02-0.72,0.03c-4.22,0.27-8.43,0.74-12.65,0.78
		c-11.52,0.12-23.04,0.05-34.55,0.06c-1.12,0-2.24,0.01-3.36-0.07c-3.98-0.25-7.95-0.55-11.93-0.81c-3.18-0.21-6.37-0.4-9.56-0.6
		c-0.24-0.01-0.48-0.04-0.72-0.07c-2.21-0.26-4.42-0.54-6.64-0.79c-3.17-0.36-6.34-0.62-9.5-1.08c-4.64-0.68-9.26-1.5-13.9-2.25
		c-6.05-0.98-12.04-2.25-18-3.66c-1.93-0.45-3.79-1.23-5.83-1.19c-3.02,0.05-2.74-0.31-2.74,2.66
		C126.34,143.69,126.34,159.61,126.34,175.53z M336.53,339.36c0,2.67,0.05,4.82-0.02,6.96c-0.04,1.19-0.12,2.4-0.42,3.54
		c-0.92,3.48-3.05,6.01-6.53,7.05c-5.95,1.76-11.99,3.2-18.08,4.4c-5.3,1.05-10.6,2.13-15.91,3.15c-2.26,0.43-4.55,0.79-6.83,1.1
		c-2.92,0.4-5.85,0.73-8.77,1.09c-3.47,0.43-6.94,0.93-10.42,1.28c-3.8,0.39-7.62,0.67-11.43,0.96c-2.78,0.21-5.57,0.37-8.36,0.49
		c-4.47,0.19-8.93,0.44-13.4,0.45c-8.07,0.03-16.14,0.34-24.2-0.28c-4.05-0.31-8.13-0.13-12.2-0.46c-4.45-0.36-8.91-0.53-13.35-1.03
		c-3.24-0.36-6.5-0.61-9.74-0.98c-3.87-0.44-7.75-0.91-11.61-1.45c-4.57-0.63-9.15-1.21-13.69-2.05
		c-6.18-1.15-12.33-2.44-18.46-3.81c-4.11-0.92-8.18-2.05-12.24-3.18c-3.51-0.98-5.75-3.37-6.71-6.84c-0.31-1.13-0.26-2.37-0.3-3.56
		c-0.05-1.44-0.01-2.88-0.04-4.32c-0.01-0.6-0.42-0.87-0.95-0.69c-0.15,0.05-0.29,0.12-0.44,0.2c-3.35,1.7-6.6,3.55-9.7,5.68
		c-1.01,0.69-1.27,1.46-1.27,2.58c0.03,9.52,0.04,19.03-0.02,28.55c-0.01,1.47,0.49,2.31,1.75,3.05c4.92,2.86,10.15,5.02,15.46,6.98
		c9.2,3.4,18.62,6.07,28.21,8.11c4.2,0.9,8.42,1.68,12.65,2.44c3.21,0.58,6.44,1.05,9.67,1.53c3.15,0.47,6.3,0.91,9.46,1.3
		c2.13,0.26,4.28,0.4,6.43,0.58c3.73,0.32,7.46,0.63,11.19,0.93c0.4,0.03,0.8,0.02,1.2,0.05c3.97,0.27,7.95,0.75,11.92,0.78
		c12.54,0.1,25.09,0.48,37.63-0.27c5.17-0.31,10.36-0.46,15.51-1.02c3.25-0.35,6.5-0.66,9.75-0.97c4.76-0.44,9.49-1.07,14.19-1.94
		c5.4-0.99,10.83-1.85,16.17-3.07c8.93-2.05,17.74-4.57,26.23-8.06c4.88-2,9.66-4.22,14.08-7.11c1.86-1.22,3.66-2.57,5.34-4.03
		c2.15-1.87,3.75-3.99,3.35-7.22c-0.31-2.52-0.28-5.14,0-7.66c0.48-4.39,0.07-8.78,0.28-13.17c0.03-0.71-0.25-1.2-0.86-1.57
		c-2.44-1.51-4.83-3.11-7.31-4.57C341.56,341.99,339.29,340.85,336.53,339.36z M323.71,155.98c-0.76,0.3-1.12,0.45-1.49,0.6
		c-3.32,1.37-6.63,2.74-9.95,4.1c-4.72,1.94-9.45,3.86-14.16,5.8c-6.12,2.52-12.22,5.07-18.34,7.6c-4.72,1.94-9.45,3.86-14.17,5.79
		c-6.27,2.57-12.53,5.16-18.8,7.74c-4.65,1.91-9.29,3.82-13.94,5.73c-6.93,2.86-13.85,5.73-20.78,8.59
		c-4.72,1.94-9.45,3.86-14.17,5.79c-6.27,2.57-12.53,5.15-18.8,7.73c-4.64,1.91-9.29,3.82-13.93,5.74
		c-6.19,2.55-12.38,5.12-18.57,7.66c-6.34,2.61-12.68,5.22-19.04,7.78c-0.98,0.4-1.27,0.99-1.25,2.01c0.06,3.2,0.02,6.4,0.03,9.6
		c0,0.3,0.08,0.59,0.15,1.01c1.15-0.44,2.19-0.83,3.21-1.25c6.19-2.55,12.38-5.12,18.57-7.67c4.72-1.94,9.45-3.86,14.16-5.81
		c6.12-2.52,12.22-5.08,18.34-7.59c5.46-2.25,10.93-4.45,16.38-6.7c8.84-3.65,17.67-7.34,26.52-10.98
		c9.43-3.89,18.89-7.73,28.33-11.61c6.93-2.85,13.85-5.74,20.78-8.59c7.45-3.06,14.9-6.1,22.35-9.15c7.08-2.9,14.16-5.82,21.24-8.73
		c1.77-0.73,3.52-1.5,5.32-2.15c1.42-0.52,2.29-1.21,2.05-2.94c-0.19-1.33-0.04-2.71-0.04-4.07
		C323.71,160.09,323.71,158.18,323.71,155.98z M323.71,179.09c-0.67,0.24-1.11,0.38-1.54,0.56c-5.89,2.44-11.78,4.89-17.68,7.32
		c-4.79,1.97-9.6,3.89-14.4,5.86c-6.27,2.57-12.53,5.16-18.8,7.73c-4.64,1.91-9.29,3.82-13.93,5.73
		c-6.93,2.86-13.85,5.73-20.78,8.58c-4.72,1.94-9.45,3.86-14.17,5.79c-6.27,2.57-12.53,5.16-18.8,7.74
		c-4.64,1.91-9.29,3.82-13.93,5.73c-6.19,2.55-12.38,5.11-18.57,7.67c-4.64,1.91-9.29,3.81-13.94,5.72
		c-6.27,2.58-12.53,5.16-18.8,7.74c-3.61,1.49-7.23,2.97-10.85,4.44c-0.84,0.34-1.21,0.85-1.19,1.79c0.05,3.12,0.01,6.24,0.02,9.36
		c0,0.43,0.08,0.87,0.14,1.44c1.07-0.41,1.96-0.74,2.84-1.1c8.84-3.66,17.67-7.33,26.52-10.98c8.77-3.62,17.56-7.19,26.33-10.8
		c8.4-3.46,16.79-6.96,25.2-10.41c7.45-3.06,14.92-6.07,22.36-9.13c8.85-3.64,17.67-7.34,26.52-10.98
		c9.51-3.92,19.03-7.79,28.55-11.69c7.08-2.9,14.16-5.81,21.24-8.72c5.46-2.24,10.91-4.5,16.37-6.73c0.94-0.38,1.35-0.91,1.32-1.97
		c-0.08-2.4-0.02-4.8-0.02-7.2C323.71,181.47,323.71,180.36,323.71,179.09z M323.71,202.09c-0.67,0.25-1.05,0.37-1.41,0.52
		c-6.12,2.51-12.24,5.03-18.36,7.54c-4.65,1.91-9.29,3.82-13.94,5.73c-6.19,2.55-12.38,5.12-18.57,7.67
		c-4.64,1.91-9.29,3.81-13.94,5.72c-6.27,2.58-12.53,5.16-18.8,7.74c-5.46,2.24-10.92,4.47-16.37,6.72
		c-6.19,2.55-12.38,5.11-18.57,7.66c-4.72,1.94-9.45,3.86-14.16,5.81c-6.12,2.52-12.22,5.07-18.34,7.59
		c-4.72,1.94-9.45,3.85-14.17,5.8c-6.19,2.55-12.38,5.12-18.57,7.67c-3.69,1.52-7.38,3.03-11.07,4.52c-0.74,0.3-1.15,0.73-1.11,1.6
		c0.06,1.36,0.02,2.72,0.02,4.08c0,2.23,0,4.46,0,6.89c1.31-0.5,2.43-0.89,3.52-1.34c6.12-2.52,12.23-5.07,18.34-7.59
		c4.72-1.94,9.45-3.86,14.16-5.8c6.19-2.55,12.38-5.11,18.57-7.67c4.64-1.91,9.29-3.82,13.94-5.72c7.08-2.91,14.16-5.82,21.24-8.73
		c4.65-1.91,9.29-3.82,13.94-5.73c6.19-2.55,12.38-5.12,18.57-7.67c4.72-1.94,9.45-3.86,14.16-5.81c6.12-2.52,12.22-5.07,18.34-7.59
		c4.72-1.94,9.45-3.85,14.16-5.8c6.12-2.52,12.22-5.08,18.34-7.6c2.95-1.22,5.91-2.39,8.86-3.6c0.67-0.27,1.25-0.56,1.24-1.52
		C323.67,209.61,323.71,206.02,323.71,202.09z M126.36,315.7c0.63-0.06,0.88-0.03,1.09-0.12c5.46-2.23,10.92-4.46,16.38-6.71
		c6.12-2.52,12.23-5.06,18.34-7.58c4.72-1.94,9.44-3.86,14.16-5.8c6.19-2.55,12.38-5.11,18.57-7.66c7.37-3.04,14.75-6.06,22.12-9.09
		c7-2.88,14-5.77,21.01-8.65c4.72-1.94,9.45-3.86,14.16-5.8c6.12-2.52,12.22-5.08,18.34-7.59c7.44-3.06,14.9-6.1,22.35-9.16
		c6.12-2.52,12.22-5.08,18.34-7.6c3.76-1.55,7.53-3.06,11.3-4.58c0.83-0.33,1.24-0.82,1.22-1.78c-0.06-2.32-0.01-4.64-0.02-6.96
		c0-0.44-0.09-0.88-0.15-1.4c-0.46,0.14-0.77,0.22-1.06,0.34c-8.69,3.6-17.37,7.23-26.07,10.81c-8.25,3.4-16.54,6.73-24.79,10.13
		c-8.85,3.64-17.67,7.34-26.52,10.98c-9.51,3.91-19.03,7.78-28.54,11.69c-9.51,3.91-19,7.87-28.51,11.79
		c-8.77,3.61-17.55,7.2-26.33,10.79c-9.44,3.87-18.88,7.73-28.32,11.6c-1.99,0.82-3.98,1.64-5.96,2.49
		c-0.49,0.21-1.09,0.39-1.09,1.11C126.36,309.81,126.36,312.67,126.36,315.7z"/>
	<path class="st0" d="M224.85,57.43c-3.52,0-7.04,0.03-10.56-0.01c-4.31-0.05-8.59-0.47-12.88-0.84c-3.1-0.27-6.18-0.61-9.25-1.07
		c-3.47-0.52-6.92-1.14-10.22-2.37c-0.82-0.31-1.65-0.64-2.38-1.1c-1.54-0.97-1.64-2.2-0.16-3.19c1.18-0.79,2.51-1.46,3.86-1.84
		c3.37-0.94,6.8-1.61,10.28-2.08c5.46-0.73,10.93-1.11,16.42-1.49c8.95-0.62,17.9-0.35,26.84-0.26c3.42,0.03,6.83,0.5,10.24,0.78
		c1.91,0.16,3.81,0.36,5.71,0.52c4.69,0.39,9.31,1.24,13.85,2.45c1.55,0.41,3.04,0.99,4.32,1.98c1.11,0.85,1.18,1.96,0.02,2.77
		c-0.97,0.68-2.06,1.26-3.17,1.64c-3.09,1.07-6.3,1.72-9.53,2.17c-3.71,0.51-7.42,0.92-11.14,1.37c-0.32,0.04-0.64,0.03-0.96,0.06
		C239.07,57.49,231.96,57.51,224.85,57.43z M201.22,50.24c0.01,0.09,0.02,0.19,0.04,0.28c1.82,0.19,3.64,0.46,5.46,0.55
		c4.3,0.22,8.6,0.37,12.91,0.53c7.67,0.28,15.32-0.3,22.97-0.49c0.71-0.02,1.41-0.21,2.13-0.28c0.71-0.07,1.44-0.04,2.15-0.14
		c0.62-0.08,1.31,0.2,2.06-0.41c-0.77-0.17-1.36-0.37-1.97-0.42c-2.22-0.19-4.45-0.39-6.67-0.47c-5.18-0.19-10.36-0.34-15.55-0.45
		c-1.18-0.02-2.37,0.27-3.56,0.27c-5.91,0.02-11.81,0.12-17.7,0.63C202.73,49.92,201.98,50.11,201.22,50.24z"/>
</g>
</svg>
