<?xml version="1.0" encoding="utf-8"?>
<!-- Generator: Adobe Illustrator 23.0.0, SVG Export Plug-In . SVG Version: 6.00 Build 0)  -->
<svg version="1.1" id="Layer_1" xmlns="http://www.w3.org/2000/svg" xmlns:xlink="http://www.w3.org/1999/xlink" x="0px" y="0px"
	 viewBox="0 0 500.16 500.4" style="enable-background:new 0 0 500.16 500.4;" xml:space="preserve">
<style type="text/css">
	.st0{fill:#c850c8;}
	.st1{fill:#c850c8;}
</style>
<g>
	<path class="st0" d="M43.68,417.13c0-1.17,0-1.96,0-2.75c0-22.48,0-44.96,0-67.44c0-0.48,0.01-0.96,0-1.44
		c-0.02-1.23,0.54-2.1,1.52-2.82c2.17-1.59,4.65-2.49,7.19-3.18c4.77-1.29,9.59-2.37,14.49-3.04c4.81-0.66,9.62-1.35,14.44-1.94
		c4.43-0.54,8.87-0.99,13.31-1.41c3.97-0.38,7.94-0.69,11.92-0.99c4.37-0.34,8.75-0.63,13.12-0.96c3.42-0.25,6.83-0.53,10.25-0.8
		c0.16-0.01,0.32-0.02,0.48-0.03c4.55-0.19,9.1-0.39,13.64-0.58c4.71-0.19,9.42-0.36,14.13-0.54c3.83-0.15,7.66-0.32,11.49-0.45
		c5.91-0.19,11.83-0.18,17.73-0.55c7.67-0.48,15.34-0.17,23.01-0.46c18.95-0.71,37.9-0.33,56.85-0.41
		c12.24-0.05,24.48-0.12,36.72,0.21c7.91,0.21,15.82,0.18,23.73,0.41c5.27,0.15,10.54,0.28,15.81,0.46
		c2.71,0.09,5.42,0.26,8.13,0.38c0.47,0.02,0.94-0.04,1.47-0.07c0.41-0.9,0.24-1.79,0.24-2.64c0.01-15.04,0.01-30.08,0.01-45.12
		c0-14.96-0.04-29.92,0.02-44.88c0.02-4.3-1.09-8.19-3.37-11.79c-3.21-5.07-7.88-8.01-13.67-9.3c-1.73-0.39-3.47-0.44-5.23-0.44
		c-62.56,0.01-125.12,0.01-187.67,0c-5.05,0-9.56,1.5-13.57,4.59c-3.82,2.94-6.26,6.78-7.42,11.42c-0.36,1.45-0.49,2.99-0.56,4.49
		c-0.09,2,0.02,4-0.03,6c-0.22,9.35-5.38,16.75-13.7,20.14c-2.16,0.88-4.42,1.35-6.76,1.36c-3.1,0.01-6.2,0-9.82,0
		c2.26,1.43,2.43,3.28,2.43,5.25c-0.02,12.08,0,24.16-0.03,36.24c0,0.94-0.1,1.93-0.37,2.82c-0.53,1.76-2.04,2.55-3.97,2.25
		c-1.58-0.25-2.62-1.42-2.76-3.15c-0.03-0.4-0.01-0.8-0.01-1.2c0-12.64,0.01-25.28-0.01-37.92c0-1.59,0.19-3.03,1.92-4.08
		c-0.78-0.29-1.3-0.2-1.81-0.2c-2.16-0.01-4.32-0.04-6.48,0c-7.14,0.14-12.86-2.77-17.29-8.23c-2.25-2.77-3.57-6-4.15-9.55
		c-0.34-2.06-0.37-4.13-0.37-6.2c0.01-47.44,0-94.88,0.02-142.32c0-3.12,0.39-6.19,1.64-9.11c2.88-6.7,7.84-10.95,14.89-12.71
		c1.45-0.36,3-0.51,4.5-0.52c7.04-0.05,14.08-0.02,21.12-0.02c9.61-0.01,18.32,7.01,20.44,16.7c0.37,1.7,0.56,3.48,0.55,5.22
		c-0.08,8.61,6.48,17.49,15.88,19.87c1.89,0.48,3.79,0.54,5.7,0.54c11.2,0,22.4,0,33.6,0c22.24,0,44.48,0,66.72,0
		c0.87,0,1.74,0,2.81,0c-0.47-1.13-0.87-2.06-1.25-2.99c-0.9-2.24-1.41-4.57-1.41-6.99c-0.01-6.24-0.16-12.48,0.04-18.72
		c0.23-7.48,3.62-13.27,10.02-17.23c3.13-1.93,6.56-2.95,10.2-3c6.21-0.09,11.56,2.05,15.87,6.6c0.55,0.58,1.06,1.19,1.62,1.81
		c1.64-1.48,3.16-3.11,4.95-4.37c1.75-1.22,3.69-2.32,5.7-2.97c2.09-0.68,4.36-0.86,6.58-1.07c2.17-0.21,4.29,0.38,6.35,0.98
		c2.15,0.63,4.2,1.58,5.93,3.04c1.63,1.38,3.18,2.86,4.89,4.41c0.23-0.26,0.54-0.59,0.83-0.93c3.42-3.95,7.65-6.36,12.86-7.2
		c5.59-0.9,10.6,0.36,15.21,3.49c4.36,2.96,7.08,7.1,8.28,12.19c0.36,1.54,0.51,3.15,0.52,4.74c0.06,5.84-0.02,11.68,0.04,17.52
		c0.04,3.94-0.96,7.57-2.98,10.94c-0.12,0.2-0.21,0.42-0.3,0.64c-0.03,0.07,0,0.16,0,0.3c1.35,0.97,3.04,0.78,4.57,1.07
		c9.53,1.84,18.65,4.86,27.46,8.91c8.9,4.09,17.14,9.27,24.75,15.4c5.8,4.67,11.05,9.92,15.91,15.57
		c4.55,5.28,8.54,10.95,12.09,16.95c5.06,8.57,8.91,17.64,11.7,27.2c1.59,5.45,2.67,10.99,3.62,16.56c0.31,1.8,0.44,3.63,0.68,5.65
		c0.74-0.29,1.32-0.49,1.87-0.75c8.52-4.13,18.36-2.13,24.61,4.52c2.69,2.86,4.43,6.25,5.09,10.12c0.31,1.8,0.44,3.64,0.46,5.47
		c0.06,5.36,0.05,10.72,0.01,16.08c-0.03,4.35-1.27,8.33-3.76,11.91c-3.21,4.62-7.59,7.62-13.09,8.53
		c-4.35,0.72-8.78,0.56-12.89-1.53c-0.43-0.22-0.87-0.39-1.31-0.58c-0.06-0.03-0.15,0.02-0.23,0.03c-0.07,0.03-0.16,0.04-0.21,0.09
		c-0.05,0.05-0.09,0.14-0.09,0.22c-0.03,0.72-0.08,1.43-0.08,2.15c0,18.39,0,36.78,0,55.34c1.88,0.39,3.65,0.77,5.43,1.11
		c4.31,0.83,8.59,1.77,12.66,3.43c1.25,0.51,2.41,1.23,3.56,1.94c0.94,0.59,1.38,1.52,1.37,2.64c-0.01,0.4,0,0.8,0,1.2
		c0,22.64,0,45.28,0,67.92c0,0.72,0,1.43,0,2.29c-0.6,0.1-1.12,0.21-1.65,0.25c-0.56,0.04-1.12,0.01-1.68,0.01
		c-141.43,0-282.87,0-424.3,0C46.02,417.13,44.99,417.13,43.68,417.13z M441.55,334.83c0.02-0.94,0.05-1.88,0.05-2.83
		c0-28.96,0.02-57.91-0.02-86.87c-0.01-5.99,0.33-11.99-0.4-17.96c-0.27-2.21-0.27-4.47-0.63-6.67c-0.81-4.95-1.76-9.87-3.15-14.7
		c-2.81-9.81-6.85-19.06-12.27-27.7c-5.07-8.09-10.99-15.49-18.07-21.93c-2.24-2.04-4.53-4.04-6.86-5.99
		c-4.43-3.7-9.25-6.83-14.25-9.68c-6.4-3.64-13.13-6.61-20.14-8.84c-7.22-2.3-14.6-3.9-22.19-4.57c-4.13-0.37-8.27-0.73-12.41-0.73
		c-61.91-0.03-123.83-0.02-185.74-0.02c-1.12,0-2.24-0.02-3.36-0.01c-5.33,0.06-10.28-1.35-14.8-4.09
		c-9.71-5.89-15.06-14.44-15.58-25.9c-0.07-1.58-0.23-3.22-0.73-4.7c-1.49-4.44-5.64-7.68-10.77-7.65
		c-6.64,0.04-13.28,0.09-19.92-0.01c-5.89-0.09-10.79,4.49-11.28,9.68c-0.13,1.35-0.32,2.7-0.32,4.04
		c-0.02,46.95-0.02,93.91,0,140.86c0,1.43,0.14,2.87,0.33,4.28c0.76,5.6,5.15,9.54,10.75,9.66c2.24,0.05,4.48,0.02,6.72,0.02
		c4.8,0,9.6,0.02,14.4-0.03c5.82-0.05,10.06-5.28,10.55-9.42c0.28-2.4,0.22-4.78,0.29-7.17c0.06-2.07,0.04-4.13,0.47-6.19
		c1.7-8.11,5.87-14.6,12.57-19.42c5.55-4,11.81-5.8,18.64-5.8c62.71,0.02,125.43,0.02,188.14-0.01c6.15,0,11.83,1.49,17.07,4.69
		c6,3.67,10.23,8.85,12.78,15.38c1.37,3.52,1.99,7.19,1.99,10.99c-0.03,30.24-0.02,60.47-0.02,90.71c0,0.94,0.05,1.88,0.07,2.92
		c0.8,0.06,1.42,0.12,2.05,0.14c1.36,0.04,2.72,0.03,4.08,0.1c4.38,0.25,8.75,0.57,13.13,0.8c4.31,0.23,8.61,0.4,12.92,0.6
		c0.16,0.01,0.32,0.02,0.48,0.03c3.9,0.29,7.79,0.59,11.69,0.87c2.63,0.19,5.25,0.35,7.88,0.55c1.83,0.14,3.66,0.3,5.48,0.49
		c2.54,0.26,5.07,0.55,7.6,0.84c3.96,0.45,7.91,0.91,11.87,1.35C440.88,334.96,441.12,334.88,441.55,334.83z M464.3,349.65
		c-1.27-0.37-2.62-0.85-4-1.15c-2.87-0.64-5.76-1.24-8.66-1.75c-3.45-0.6-6.91-1.14-10.39-1.6c-3.32-0.44-6.65-0.73-9.98-1.09
		c-4.04-0.44-8.07-0.92-12.12-1.3c-2.86-0.27-5.73-0.39-8.6-0.59c-2.47-0.17-4.93-0.33-7.4-0.52c-3.26-0.26-6.51-0.61-9.77-0.8
		c-4.54-0.26-9.09-0.42-13.64-0.62c-0.16-0.01-0.32-0.01-0.48-0.02c-4.3-0.27-8.59-0.58-12.89-0.8c-3.83-0.2-7.66-0.33-11.49-0.47
		c-4.95-0.18-9.9-0.34-14.85-0.5c-5.51-0.18-11.02-0.13-16.53-0.39c-8.78-0.41-17.58-0.07-26.36-0.51
		c-4.47-0.22-8.96-0.11-13.44-0.09c-22.31,0.09-44.61-0.36-66.92,0.33c-8.78,0.27-17.58-0.03-26.36,0.5
		c-5.42,0.33-10.85,0.07-16.29,0.44c-6.21,0.42-12.45,0.42-18.68,0.63c-4.71,0.16-9.42,0.36-14.12,0.54
		c-0.16,0.01-0.32,0.01-0.48,0.02c-4.38,0.28-8.75,0.58-13.13,0.84c-3.67,0.22-7.33,0.38-11,0.57c-0.16,0.01-0.32,0.02-0.48,0.04
		c-2.86,0.27-5.71,0.57-8.57,0.79c-3.02,0.24-6.05,0.4-9.08,0.61c-0.32,0.02-0.63,0.08-0.95,0.11c-2.38,0.26-4.75,0.53-7.13,0.77
		c-2.14,0.22-4.3,0.33-6.43,0.6c-4.26,0.55-8.53,1.11-12.77,1.8c-4.24,0.69-8.46,1.53-12.68,2.32c-1.64,0.31-3.24,0.73-4.77,1.49
		c-0.04,0.63-0.12,1.18-0.12,1.73c-0.01,17.92-0.01,35.83,0,53.75c0,0.53,0.13,1.06,0.21,1.71c1.16,0,2.19,0,3.22,0
		c134.62,0,269.23,0,403.85,0c0.64,0,1.28,0.03,1.92-0.01c0.53-0.03,1.04-0.16,1.53-0.23C464.86,401.36,464.7,351.7,464.3,349.65z
		 M275.5,96.96c0-2.88-0.03-5.75,0.01-8.63c0.09-7.71-7.4-12.33-13.49-10.59c-4.66,1.33-7.97,5.23-8.05,10.1
		c-0.09,5.99-0.12,11.98,0.01,17.97c0.08,3.7,1.61,6.76,4.85,8.84c1.82,1.17,3.77,1.52,5.9,1.62c6.21,0.29,10.9-5.13,10.79-10.69
		C275.45,102.71,275.5,99.83,275.5,96.96z M451.67,251.22c0,3.12-0.09,6.23,0.02,9.35c0.22,6.45,5.69,11.76,13.55,9.95
		c4.9-1.13,7.78-4.99,7.95-9.89c0.21-6.06,0.16-12.14,0.02-18.21c-0.16-6.9-6.47-11.56-13.24-10.17c-4.1,0.84-8.41,5.18-8.31,10.11
		C451.72,245.3,451.67,248.26,451.67,251.22z M343.68,96.89c0-2.96,0.03-5.91-0.01-8.87c-0.08-6.72-5.98-11.48-12.57-10.4
		c-5.7,0.94-8.91,5.76-8.97,10.52c-0.06,5.83-0.1,11.66,0.01,17.49c0.12,6.53,5.39,12.19,13.68,10.31c4.62-1.04,7.75-5.17,7.84-9.96
		C343.73,102.96,343.68,99.93,343.68,96.89z M309.6,97.01c0-2.95-0.06-5.91,0.01-8.86c0.14-6.28-5.92-11.79-12.72-10.51
		c-5.35,1.01-8.67,5.3-8.81,10.15c-0.18,6.06-0.24,12.14,0.01,18.2c0.28,6.82,6.07,11.9,13.98,9.85c5.03-1.3,7.54-6.22,7.53-9.97
		C309.59,102.92,309.6,99.97,309.6,97.01z"/>
	<path class="st1" d="M401.47,267.78c-2.16,0-4.32,0.05-6.47-0.01c-6.17-0.19-11.16-2.69-14.41-8
		c-6.33-10.31,0.04-23.57,11.88-25.11c3.03-0.39,6.05-0.28,9.08-0.28c3.03,0,6.04-0.08,9.08,0.27c6.34,0.75,12.27,5.95,13.69,12.09
		c1.66,7.16-0.35,13.12-6.1,17.67c-2.82,2.23-6.2,3.25-9.8,3.35C406.11,267.83,403.79,267.78,401.47,267.78
		C401.47,267.78,401.47,267.78,401.47,267.78z M401.72,244.71c-2.4,0-4.79-0.04-7.19,0.02c-0.86,0.02-1.79,0.11-2.54,0.48
		c-2.14,1.04-3.47,2.74-3.7,5.19c-0.23,2.52,0.63,4.54,2.73,5.99c1.28,0.88,2.72,1.3,4.28,1.3c4.15,0,8.31,0.02,12.46-0.02
		c0.86-0.01,1.76-0.16,2.57-0.44c2.63-0.91,5-3.46,4.36-7.35c-0.37-2.23-2.59-5.39-6.25-5.19
		C406.19,244.81,403.95,244.71,401.72,244.71z"/>
</g>
</svg>
