<?xml version="1.0" encoding="utf-8"?>
<!-- Generator: Adobe Illustrator 23.0.0, SVG Export Plug-In . SVG Version: 6.00 Build 0)  -->
<svg version="1.1" id="Layer_1" xmlns="http://www.w3.org/2000/svg" xmlns:xlink="http://www.w3.org/1999/xlink" x="0px" y="0px"
	 viewBox="0 0 484.22 486.59" style="enable-background:new 0 0 484.22 486.59;" xml:space="preserve">
<style type="text/css">
	.st0{fill:#c850c8;}
</style>
<g>
	<path class="st0" d="M287.42,458.75c-2.2,0-4.26,0.18-6.3-0.29c-0.31-0.07-0.63-0.11-0.94-0.14c-2.54-0.19-5.09-0.33-7.62-0.58
		c-2.05-0.21-4.09-0.56-6.13-0.83c-1.42-0.19-2.84-0.38-4.26-0.52c-3.16-0.32-6.28-0.94-9.42-1.38
		c-10.31-1.46-20.45-3.72-30.47-6.47c-8.43-2.31-16.68-5.22-24.61-8.96c-4.7-2.21-9.24-4.65-13.53-7.58
		c-2.24-1.53-4.33-3.24-6.43-4.96c-4.84-3.96-8.28-9.01-11.58-14.21c-2.18-3.44-4.21-6.95-5.96-10.63
		c-2.58-5.4-4.67-10.98-5.93-16.83c-1.08-5-1.53-10.12-1.01-15.22c0.83-8.17,3.71-15.56,8.92-22.01c4.34-5.38,9.69-9.44,15.73-12.65
		c6.29-3.35,12.96-5.67,19.9-7.17c2.63-0.57,5.32-0.9,8.01-1.2c2.79-0.32,5.57-0.31,8.36-0.35c3.28-0.05,6.51,0.48,9.71,1.08
		c4.07,0.77,8,2.11,11.69,3.99c2.33,1.18,4.59,2.59,6.69,4.16c5.83,4.37,10.36,9.87,13.93,16.22c2.16,3.84,3.86,7.87,5.3,11.99
		c1.28,3.66,2.37,7.4,3.08,11.24c0.63,3.43,1.55,6.81,2.31,10.21c0.98,4.33,1.91,8.68,2.9,13.01c1.06,4.64,2.26,9.25,3.23,13.9
		c1.56,7.46,3.5,14.83,5.53,22.16c1.8,6.5,3.86,12.95,6.71,19.1C285.97,455.41,286.65,457.01,287.42,458.75z M171.37,364.33
		c-0.13,0.16-0.33,0.3-0.4,0.49c-1.36,3.45-1.8,7.1-1.87,10.74c-0.07,3.49,0.47,6.95,1.25,10.38c1.02,4.55,2.71,8.78,5.06,12.8
		c1.62,2.76,3.55,5.29,5.55,7.76c1.61,1.98,3.31,3.91,5.19,5.63c3.11,2.85,6.34,5.56,9.77,8.04c4.28,3.08,8.8,5.76,13.53,8.05
		c4.29,2.07,8.74,3.81,13.14,5.64c1.54,0.64,3.14,1.11,4.73,1.63c0.13,0.04,0.36-0.16,0.49-0.3c0.04-0.04-0.07-0.31-0.17-0.38
		c-0.26-0.18-0.55-0.31-0.84-0.43c-1.45-0.64-2.93-1.24-4.37-1.91c-4.63-2.14-9.13-4.52-13.47-7.21c-3.93-2.43-7.69-5.1-11.31-7.98
		c-2.95-2.35-5.5-5.1-8.18-7.72c-2.18-2.13-3.96-4.58-5.7-7.06c-2.2-3.15-3.88-6.58-5.55-10.02c-4.12-8.49-6.32-17.44-6.39-26.9
		c0-0.32-0.01-0.64-0.07-0.94C171.74,364.52,171.55,364.45,171.37,364.33z"/>
	<path class="st0" d="M209.82,87.84c-1.59,0.36-2.9,0.68-4.22,0.95c-0.85,0.17-1.72,0.36-2.58,0.38c-2.45,0.05-4.19-1.3-4.91-3.71
		c-0.6-2.02,0.39-4.52,2.28-5.47c0.84-0.42,1.78-0.68,2.69-0.92c2-0.52,4-0.99,6.01-1.46c0.45-0.11,0.69-0.36,0.71-0.81
		c0.02-0.64,0.02-1.28,0.02-1.92c0-8.4,0.01-16.8-0.01-25.2c0-1.14,0.12-2.2,0.64-3.24c0.9-1.83,2.38-2.72,4.36-2.87
		c0.48-0.04,0.96-0.01,1.44-0.01c18.72,0,37.43,0.01,56.15-0.01c1.39,0,2.68,0.12,3.9,0.87c1.34,0.82,2.07,1.94,2.13,3.5
		c0.03,0.72,0.03,1.44,0.03,2.16c0,6.96,0,13.92,0,20.88c0,0.64,0.01,1.28,0,1.92c0,0.57,0.25,0.91,0.83,0.93
		c0.64,0.02,1.28,0.01,1.92,0.01c9.04,0,18.08,0,27.12,0c33.11,0,66.23,0,99.34-0.01c0.87,0,1.82,0.1,2.59-0.21
		c0.87-0.35,0.76-1.5,1.1-2.29c1.74-3.99,4.38-7.24,8.05-9.56c2.86-1.81,5.99-2.94,9.46-2.89c2.15,0.03,4.3-0.13,6.41,0.52
		c3.01,0.92,5.75,2.24,8.12,4.38c3.44,3.1,5.64,6.86,6.52,11.39c0.58,2.94,0.5,5.88-0.26,8.76c-1,3.77-2.81,7.12-5.74,9.76
		c-3.02,2.72-6.48,4.44-10.56,5.15c-4.37,0.76-8.42,0.06-12.27-1.82c-4.61-2.25-7.95-5.8-9.76-10.68c-0.91-2.44-0.89-2.45-3.48-2.45
		c-34.87,0-69.75,0-104.62,0c-0.64,0-1.28,0-2.1,0c0.34,0.58,0.8,0.75,1.25,0.94c2.27,0.95,4.59,1.81,6.81,2.87
		c4.59,2.21,9.17,4.45,13.68,6.83c3.95,2.08,7.72,4.46,11.42,6.98c4.62,3.14,9.05,6.51,13.36,10.06
		c5.37,4.43,10.39,9.24,15.12,14.33c4.13,4.44,7.96,9.14,11.57,14.01c3.37,4.55,6.51,9.26,9.34,14.15
		c2.99,5.17,5.73,10.48,8.16,15.96c2.58,5.83,4.78,11.78,6.72,17.85c1.23,3.86,2.17,7.79,3.2,11.71c0.76,2.9,0.14,2.44,3.06,2.45
		c8.08,0.02,16.16,0.02,24.24,0c1.23,0,2.38,0.19,3.45,0.76c1.99,1.05,2.54,2.93,2.76,4.98c0.05,0.47,0.01,0.96,0.01,1.44
		c0,18.24-0.01,36.47,0.01,54.71c0,1.13-0.12,2.22-0.41,3.3c-0.48,1.75-1.61,2.89-3.36,3.36c-1.08,0.29-2.17,0.41-3.3,0.41
		c-7.76-0.03-15.52-0.02-23.28-0.01c-0.56,0-1.12-0.02-1.68,0.01c-1,0.04-1.24,0.25-1.49,1.2c-0.49,1.92-0.96,3.85-1.45,5.77
		c-0.37,1.44-1.12,2.61-2.43,3.4c-2.08,1.25-5.04,0.75-6.43-1.25c-0.92-1.32-1.57-2.73-0.9-4.48c0.48-1.25,0.7-2.6,1-3.92
		c0.08-0.34-0.1-0.65-0.47-0.68c-0.64-0.05-1.28-0.05-1.92-0.05c-5.2,0-10.4,0-15.6,0c-0.48,0-0.96,0.03-1.44-0.01
		c-3.66-0.29-5.45-2.06-5.81-5.69c-0.06-0.55-0.01-1.12-0.01-1.68c0-18.08,0-36.15,0-54.23c0-1.03,0.13-2.05,0.27-3.08
		c0.33-2.28,2.44-4.05,5.06-4.25c0.48-0.04,0.96-0.01,1.44-0.01c5.36,0,10.72,0,16.08,0c0.64,0,1.29,0.03,1.91-0.07
		c0.22-0.03,0.52-0.36,0.56-0.6c0.06-0.37-0.02-0.79-0.12-1.17c-1.73-7.19-3.96-14.24-6.75-21.08c-3.09-7.61-6.66-15-11.11-21.93
		c-2.62-4.09-5.23-8.19-8.1-12.11c-2.45-3.34-5.26-6.4-7.89-9.62c-2.79-3.41-6.01-6.41-9.11-9.52c-3.16-3.16-6.64-5.97-10.1-8.8
		c-3.46-2.83-7.11-5.4-10.8-7.89c-6.55-4.43-13.47-8.21-20.65-11.52c-6.36-2.93-12.92-5.37-19.61-7.42
		c-2.43-0.74-4.89-1.35-7.34-2.01c-0.15-0.04-0.31-0.07-0.47-0.09c-0.73-0.12-1.1,0.13-1.13,0.82c-0.03,0.64-0.01,1.28-0.01,1.92
		c0,5.2-0.16,10.4,0.05,15.6c0.15,3.73-2.47,6.14-5.71,5.66c-19.04,0-38.07-0.01-57.11,0.02c-1.58,0-2.98-0.19-4.18-1.36
		c-1.24-1.2-1.69-2.64-1.69-4.31c0.01-5.36,0-10.72,0-16.08C209.82,89.68,209.82,88.89,209.82,87.84z M425.23,236.63
		c0-7.2,0-14.4,0-21.59c0-0.56,0.02-1.12-0.01-1.68c-0.05-0.85-0.35-1.18-1.14-1.23c-0.56-0.04-1.12-0.02-1.68-0.02
		c-14.4,0-28.79,0.01-43.19-0.01c-2.96,0-2.83,0.02-2.83,2.95c0.01,14.32,0,28.63,0,42.95c0,0.48-0.01,0.96,0,1.44
		c0.05,1.16,0.3,1.43,1.39,1.49c0.24,0.01,0.48,0,0.72,0c14.88,0,29.75,0,44.63,0c2.02,0,2.1-0.09,2.1-2.22
		C425.23,251.34,425.23,243.99,425.23,236.63z M244.33,102.14c7.59,0,15.18,0.01,22.77,0c1.59,0,1.59-0.03,1.62-1.59
		c0-0.16,0-0.32,0-0.48c0-14.7,0-29.4,0-44.11c0-2.27-0.04-2.31-2.24-2.31c-14.86-0.01-29.72,0-44.59,0c-0.32,0-0.64-0.01-0.96,0.01
		c-0.88,0.04-1.01,0.15-1.05,0.94c-0.02,0.32-0.01,0.64-0.01,0.96c0,14.86,0,29.72,0,44.59c0,0.4,0,0.8,0.02,1.2
		c0.01,0.46,0.23,0.76,0.7,0.78c0.64,0.03,1.28,0.03,1.92,0.03C229.79,102.14,237.06,102.14,244.33,102.14z M430.01,68.94
		c-6.17-0.32-10.07,5.43-10.07,10.17c0,4.41,3.78,9.96,10.13,9.98c5.71,0.02,10.17-4.79,10.16-10.18
		C440.22,73.51,435.56,68.52,430.01,68.94z"/>
	<path class="st0" d="M48.72,34.94c2.4,0.1,3.98,1.21,4.87,3.17c2.03,4.5,3.97,9.03,5.96,13.55c0.77,1.75,1.56,3.49,2.34,5.23
		c2.92,6.54,5.85,13.08,8.77,19.63c2.56,5.74,5.11,11.49,7.66,17.24c2.55,5.75,5.11,11.49,7.67,17.24
		c2.72,6.11,5.46,12.21,8.18,18.32c2.56,5.74,5.11,11.49,7.66,17.24c2.55,5.75,5.11,11.49,7.66,17.24
		c2.59,5.82,5.18,11.64,7.77,17.45c2.52,5.67,5.05,11.35,7.56,17.02c2.8,6.33,5.58,12.68,8.39,19c1.71,3.86,3.49,7.69,5.2,11.54
		c2.23,5.02,4.42,10.05,6.64,15.07c1.48,3.35,3.02,6.67,4.51,10.02c2.36,5.31,4.68,10.63,7.04,15.94c1.49,3.35,3.02,6.67,4.51,10.02
		c2.36,5.31,4.68,10.63,7.04,15.95c1.45,3.28,2.93,6.54,4.4,9.81c2.25,5.01,4.5,10.02,6.75,15.04c0.19,0.43,0.35,0.89,0.51,1.34
		c0.39,1.09,0.3,1.32-0.8,1.84c-0.94,0.44-1.92,0.78-2.84,1.24c-3.86,1.91-7.65,3.95-11.06,6.61c-0.5,0.39-0.89,0.3-1.15-0.27
		c-1.34-2.97-2.68-5.95-4-8.94c-0.84-1.89-1.62-3.81-2.46-5.7c-2.91-6.55-5.85-13.08-8.77-19.63c-2.56-5.74-5.11-11.49-7.66-17.24
		c-2.55-5.75-5.11-11.49-7.66-17.24c-3.2-7.2-6.4-14.4-9.61-21.6c-2.72-6.11-5.46-12.21-8.18-18.32
		c-2.56-5.74-5.11-11.49-7.67-17.24c-2.55-5.75-5.11-11.49-7.66-17.24c-3.2-7.2-6.4-14.4-9.61-21.6
		c-2.59-5.82-5.18-11.63-7.77-17.45c-2.52-5.67-5.04-11.35-7.56-17.02c-2.72-6.11-5.45-12.21-8.18-18.32
		c-3.24-7.27-6.48-14.55-9.71-21.82c-2.52-5.67-5.04-11.35-7.56-17.02c-3.23-7.27-6.48-14.54-9.71-21.82
		c-1.1-2.47-2.25-4.92-3.25-7.44c-1.32-3.32-0.29-5.68,2.5-6.99c2.66-1.25,5.38-2.39,8.09-3.55C47.95,35.05,48.43,35.01,48.72,34.94
		z"/>
	<path class="st0" d="M392.75,298.66c0.13,1.26-0.36,2.39-0.87,3.45c-1.57,3.3-3.19,6.58-4.87,9.83c-1.06,2.06-3.4,3.13-5.6,2.74
		c-1.84-0.33-3.64-2.23-4-4.29c-0.09-0.53-0.04-1.12,0.09-1.65c0.14-0.61,0.39-1.21,0.66-1.78c1.67-3.43,3.37-6.85,5.03-10.29
		c0.55-1.13,1.38-1.88,2.48-2.47c2.39-1.26,5.49-0.16,6.75,2.6C392.67,297.36,392.65,298.04,392.75,298.66z"/>
	<path class="st0" d="M170.45,102.3c-3.34-0.02-5.63-2.71-5.27-5.85c0.21-1.82,1.35-3.06,2.87-3.87c2.53-1.34,5.11-2.59,7.69-3.82
		c1.29-0.61,2.67-1.01,3.95-1.63c2.06-1,4.91,0.5,5.89,2.36c1.23,2.32,0.55,5.07-1.59,6.53c-0.33,0.23-0.64,0.49-1,0.66
		c-3.36,1.63-6.72,3.26-10.11,4.84C172.14,101.88,171.27,102.05,170.45,102.3z"/>
	<path class="st0" d="M109.92,309.53c0.05,2.01-0.89,3.32-2.41,4.26c-2.92,1.81-6.07,0.12-7.15-1.99c-1.26-2.48-2.51-4.97-3.74-7.47
		c-0.56-1.14-1-2.34-1.55-3.48c-0.93-1.94-0.56-3.74,0.6-5.4c0.39-0.55,1.06-0.96,1.68-1.28c2.34-1.21,5.65-0.6,7.02,2.44
		c1.4,3.11,2.93,6.18,4.4,9.26c0.17,0.36,0.35,0.71,0.55,1.06C109.82,307.77,110,308.69,109.92,309.53z"/>
	<path class="st0" d="M124.64,343.54c-1.36,0.07-2.49-0.44-3.39-1.43c-1.07-1.18-2.12-2.37-3.11-3.62
		c-1.64-2.05-3.18-4.17-4.83-6.21c-1.17-1.46-1.21-3.12-0.86-4.77c0.16-0.78,0.76-1.61,1.4-2.13c2.49-2.07,4.94-1.87,7.21,0.38
		c0.73,0.72,1.28,1.62,1.93,2.42c1.78,2.24,3.57,4.47,5.35,6.71c0.34,0.43,0.67,0.89,0.94,1.37
		C131.24,339.8,127.91,344.04,124.64,343.54z"/>
	<path class="st0" d="M337.2,367.57c-2.65,0.01-4.12-1.21-5.07-3.11c-0.89-1.78-0.52-3.74,0.95-5.26c0.6-0.62,1.31-1.15,1.99-1.7
		c2.04-1.64,4.09-3.27,6.14-4.91c0.74-0.59,1.44-1.26,2.24-1.77c2.4-1.53,4.52-1.3,6.43,0.77c2.16,2.34,2.09,5.09-0.45,7.37
		c-2.53,2.28-5.32,4.27-8.01,6.37c-0.81,0.63-1.65,1.25-2.55,1.73C338.26,367.39,337.52,367.48,337.2,367.57z"/>
	<path class="st0" d="M370.01,324.32c4,0.05,6.31,3.83,4.67,7.11c-0.18,0.36-0.35,0.72-0.6,1.03c-1.97,2.5-3.95,4.99-5.94,7.48
		c-0.6,0.75-1.21,1.48-1.82,2.21c-1.49,1.79-4.29,1.7-5.76,1.12c-3.43-1.37-3.7-5.53-2.01-7.61c1.36-1.67,2.73-3.32,4.07-5
		c0.9-1.12,1.77-2.25,2.65-3.38c0.29-0.38,0.57-0.77,0.87-1.13C367.25,324.86,368.58,324.09,370.01,324.32z"/>
	<path class="st0" d="M155.55,109.38c0.12,1.87-0.57,3.2-2.07,4.33c-2.93,2.19-5.76,4.53-8.56,6.89c-0.96,0.81-2.05,1.25-3.2,1.5
		c-0.64,0.14-1.41-0.08-2.07-0.3c-3.89-1.29-4.34-5.88-2.11-8.13c1.34-1.35,2.82-2.58,4.32-3.78c1.99-1.59,4.02-3.13,6.08-4.63
		c1.7-1.24,4.9-1.11,6.52,0.87C155.25,107.11,155.67,108.18,155.55,109.38z"/>
	<path class="st0" d="M117.36,147.74c-2.12,0.14-3.64-0.78-4.54-2.56c-0.89-1.75-0.81-3.57,0.35-5.2c1.39-1.94,2.83-3.84,4.31-5.71
		c1.09-1.37,2.28-2.66,3.41-4c1.17-1.4,2.66-1.91,4.46-1.79c3.09,0.21,5.25,3.32,4.27,6.3c-0.24,0.74-0.59,1.49-1.07,2.1
		c-2.39,3.07-4.85,6.1-7.27,9.15C120.26,147.31,118.93,147.88,117.36,147.74z"/>
	<path class="st0" d="M317.23,369.93c2.44-0.32,5.08,2.13,4.93,4.95c-0.11,2.03-0.8,3.56-2.6,4.45c-3.77,1.86-7.54,3.74-11.38,5.44
		c-3.21,1.43-7.16-1.25-6.97-4.73c0.1-1.87,0.98-3.51,2.83-4.39c1.51-0.72,2.99-1.47,4.5-2.19c1.93-0.93,3.93-1.74,5.78-2.8
		C315.27,370.11,316.2,369.92,317.23,369.93z"/>
	<path class="st0" d="M84.42,264.97c0.05-0.43,0.01-1.18,0.26-1.83c1.41-3.73,5.74-3.79,7.73-2.15c1.1,0.91,1.83,2.04,2.04,3.4
		c0.54,3.54,1.51,6.97,2.35,10.44c0.24,0.98,0.25,2.08,0.11,3.09c-0.21,1.51-1.16,2.61-2.52,3.28c-2.25,1.09-5.73,0.62-6.89-2.27
		c-0.59-1.46-0.93-3.03-1.3-4.57c-0.59-2.47-1.12-4.94-1.64-7.42C84.44,266.39,84.47,265.81,84.42,264.97z"/>
	<path class="st0" d="M91.72,236.01c0,2.07-0.03,4.15,0.01,6.22c0.05,2.99-1.89,4.16-3.92,4.71c-1.83,0.5-4.44-0.47-5.4-2.58
		c-0.44-0.96-0.77-1.88-0.76-2.96c0.04-3.59-0.01-7.18,0.04-10.77c0.01-0.86,0.17-1.74,0.45-2.56c0.61-1.81,2.46-3.07,4.35-3.11
		c2.47-0.05,4.15,0.92,4.94,2.96c0.22,0.57,0.27,1.24,0.28,1.86C91.74,231.87,91.72,233.94,91.72,236.01z"/>
	<path class="st0" d="M84.34,206.41c0.21-1.09,0.39-2.18,0.64-3.27c0.64-2.86,1.25-5.73,1.98-8.57c0.4-1.55,1-3.03,2.62-3.8
		c0.49-0.23,0.79-0.09,0.97,0.3c1.17,2.53,2.32,5.07,3.46,7.6c0.13,0.29,0.2,0.6,0.33,0.9c0.37,0.88,0.97,1.72,1.08,2.63
		c0.11,0.9-0.26,1.86-0.43,2.8c-0.16,0.86-0.3,1.72-0.5,2.57c-0.49,2.07-1.62,3.48-3.75,4.23c-2.59,0.92-6.56-1.4-6.28-4.64
		c0.02-0.24,0-0.48,0-0.72C84.42,206.43,84.38,206.42,84.34,206.41z"/>
	<path class="st0" d="M279.05,394.35c-0.55-2.38-1.06-4.6-1.57-6.83c-0.04-0.15-0.03-0.32-0.04-0.48c-0.06-0.84-0.96-1.77-0.22-2.45
		c0.58-0.53,1.59-0.6,2.42-0.82c1.22-0.33,2.48-0.54,3.68-0.93c1.72-0.56,3.11,0.11,4.4,1.06c1.66,1.23,2.02,3.05,1.65,4.93
		c-0.36,1.82-1.5,3.16-3.34,3.68C283.76,393.16,281.47,393.72,279.05,394.35z"/>
	<path class="st0" d="M143.82,363.6c-2.24-1.66-4.36-3.32-6.31-5.2c-2.14-2.06-1.85-5-0.02-7.03c1.81-2.01,4.92-2.07,7.08-0.22
		c0.72,0.62,1.47,1.21,2.21,1.82c0.32,0.26,0.55,0.55,0.34,1.02c-1.3,2.9-2.16,5.95-2.84,9.05
		C144.24,363.17,144.08,363.28,143.82,363.6z"/>
</g>
</svg>
