<?xml version="1.0" encoding="utf-8"?>
<!-- Generator: Adobe Illustrator 23.0.0, SVG Export Plug-In . SVG Version: 6.00 Build 0)  -->
<svg version="1.1" id="Layer_1" xmlns="http://www.w3.org/2000/svg" xmlns:xlink="http://www.w3.org/1999/xlink" x="0px" y="0px"
	 viewBox="0 0 668.13 375.82" style="enable-background:new 0 0 668.13 375.82;" xml:space="preserve">
<style type="text/css">
	.st0{fill:#c850c8;}
</style>
<g>
	<g>
		<path class="st0" d="M154.78,207.68c1.56-0.91,2.8-1.76,4.15-2.38c9.88-4.54,19.77-9.02,29.66-13.53
			c7.49-3.41,14.94-6.91,22.48-10.2c14.28-6.23,28.6-12.35,42.92-18.49c10.35-4.44,20.74-8.8,31.08-13.25
			c10.57-4.54,21.11-9.14,31.66-13.74c9.3-4.05,18.59-8.13,27.89-12.2c8.93-3.91,17.86-7.81,26.79-11.73
			c3.62-1.59,7.15-1.7,10.89-0.18c17.59,7.2,35.23,14.31,52.86,21.42c18.96,7.65,37.94,15.27,56.91,22.91
			c16.01,6.44,32.02,12.87,48.01,19.35c2.28,0.92,4.45,2.11,7.21,3.42c-3.08,0.94-5.67,1.81-8.29,2.52
			c-3.61,0.96-6.8,2.49-9.66,5.03c-1.87,1.66-4.26,2.83-6.58,3.85c-16.96,7.47-33.98,14.81-50.95,22.27
			c-11.19,4.92-22.37,9.88-33.47,14.98c-14.81,6.81-29.56,13.75-44.32,20.67c-6.58,3.09-13.11,6.3-19.7,9.38
			c-2.24,1.05-4.64,1.75-6.87,2.81c-2.95,1.41-5.83,2.97-8.7,4.55c-6.83,3.76-14.16,6.27-21.52,8.7c-0.76,0.25-1.51,0.53-2.28,0.73
			c-2.49,0.63-4.48,1.97-6.19,3.88c-1,1.12-2.19,2.1-3.43,2.97c-1.35,0.94-2.89,1.35-4.55,0.77c-1.81-0.63-3.68-1.1-5.41-1.9
			c-6.89-3.2-13.69-6.57-20.59-9.73c-9.88-4.52-19.81-8.94-29.74-13.36c-9.05-4.03-18.12-8.01-27.18-12.02
			c-12.49-5.53-24.99-11.06-37.47-16.6c-10.44-4.63-20.9-9.25-31.32-13.94c-4.15-1.87-8.23-3.91-12.33-5.89
			C156.18,208.51,155.67,208.18,154.78,207.68z M357.78,194.26c-1.13,0.7-1.84,1.2-2.61,1.61c-7.75,4.15-15.52,8.27-23.26,12.43
			c-5.35,2.87-10.69,5.77-16,8.72c-0.96,0.53-1.88,1.25-2.61,2.07c-1.25,1.4-0.86,3.07,0.97,3.55c1.31,0.35,2.87,0.35,4.18,0
			c1.83-0.49,3.6-1.34,5.28-2.25c10.84-5.83,21.64-11.73,32.46-17.6c6.39-3.47,12.79-6.93,19.19-10.39
			c10.9-5.89,21.76-11.85,32.73-17.6c3.09-1.62,6.43-2.89,9.8-3.77c7.59-2,14.73-1.04,20.98,4.15c3.43,2.85,3.45,5.7-0.04,8.5
			c-0.25,0.2-0.52,0.38-0.79,0.55c-2.08,1.35-4.13,2.73-6.25,4.01c-1.1,0.66-1.96,1.36-1.85,2.79c0.12,1.52,1.28,1.92,2.43,2.28
			c2.37,0.73,4.66,0.61,7-0.36c5.11-2.1,9.77-4.77,13.04-9.39c2.29-3.23,2.07-6.66-0.61-9.62c-2.12-2.34-4.59-4.21-7.41-5.62
			c-6.13-3.07-12.59-4.32-19.45-3.98c-6.72,0.33-13.21,1.63-19.2,4.59c-8.52,4.21-16.87,8.78-25.27,13.21
			c-3.82,2.01-7.61,4.08-11.41,6.12c-1.61,0.87-3.16,0.95-4.72-0.17c-1.1-0.79-2.31-1.44-3.44-2.19
			c-15.1-10.06-30.18-20.14-45.28-30.2c-3.7-2.47-6.52-1.9-9.36,1.99C323.32,169.82,340.37,181.91,357.78,194.26z M390.51,222.29
			c-1.86-1.35-3.33-2.42-4.82-3.48c-4.37-3.09-8.7-6.23-13.61-8.47c-4.5-2.05-9.2-2.76-14.03-2.02c-5.79,0.88-10.97,3.4-15.69,6.79
			c-3.13,2.25-5.15,5.22-5.01,9.3c0.01,0.28-0.17,0.58-0.3,0.97c-1.34,0-2.61-0.05-3.87,0.01c-1.19,0.05-2.4,0.11-3.56,0.36
			c-5.03,1.09-9.4,3.55-13.27,6.86c-4.03,3.44-5.23,7.68-2.16,12.09c3.14,4.5,6.89,8.57,10.4,12.82c0.68,0.82,1.44,0.69,2.34,0.19
			c7.37-4.17,14.73-8.34,22.15-12.42c11.2-6.16,22.45-12.23,33.66-18.37C385.25,225.53,387.67,223.99,390.51,222.29z M345.26,167.44
			c0.12,0.16,0.19,0.22,0.21,0.28c0.06,0.23,0.14,0.46,0.14,0.69c-0.12,3.75,1.86,6.07,5.02,7.74c4.06,2.14,8.43,2.97,12.92,3.08
			c5.63,0.14,11.13-0.78,16.41-2.8c5.67-2.17,10.82-5.11,14.7-9.94c1.02-1.27,1.73-2.63,1.85-4.32c0.21-3.01-1.42-4.98-3.62-6.61
			c-3.03-2.24-6.49-3.35-10.25-3.6c-2.34-0.15-4.67-0.36-7.47-0.57c1.21-0.8,2.03-1.35,2.88-1.91c-2.4-2.1-3.62-2.26-6.05-0.84
			c-0.76,0.44-1.5,0.92-2.27,1.33c-9.89,5.22-19.79,10.42-29.68,15.64c-0.55,0.29-1.06,0.66-1.68,1.04
			C340.41,170.01,342.95,168.09,345.26,167.44z M330.59,179.21c-2.17-2.18-3.2-2.38-5.72-1.04c-4.51,2.4-8.99,4.87-13.51,7.26
			c-7.13,3.77-14.29,7.49-21.43,11.25c-0.46,0.24-0.88,0.57-1.51,0.98c1.13,1.08,2.08,1.99,3.01,2.88c0.48-0.24,0.77-0.38,1.05-0.53
			c7.99-4.2,15.98-8.41,23.98-12.58c3.62-1.89,7.46-2.8,11.57-2.36c2.19,0.23,4.25,0.84,5.97,2.24c2.77,2.26,2.68,5.61-0.16,7.71
			c-0.7,0.52-1.45,0.99-2.22,1.42c-7.71,4.37-15.43,8.73-23.15,13.08c-1.56,0.88-3.12,1.76-4.84,2.72c0.67,0.79,1.1,1.36,1.59,1.86
			c1.53,1.58,1.75,1.61,3.72,0.56c1.62-0.86,3.21-1.78,4.86-2.6c8.45-4.21,16.48-9.14,24.32-14.39c1.32-0.88,2.59-1.88,3.79-2.92
			c1.27-1.11,1.79-2.6,1.78-4.29c-0.03-3.16-1.65-5.33-4.43-6.52c-2.85-1.23-5.82-2.18-8.74-3.28c-0.2-0.08-0.35-0.3-0.51-0.45
			C330.21,179.85,330.4,179.52,330.59,179.21z M292.69,165.22c0.79,1.7,1.94,2.17,3.39,2.15c2.72-0.03,5.44-0.11,8.16-0.04
			c1.18,0.03,2.4,0.23,3.52,0.6c3.17,1.06,4.3,3.83,2.92,6.87c-0.97,2.11-2.7,3.53-4.46,4.93c-1.65,1.32-2.09,1.33-3.71-0.03
			c-1.47-1.23-2.88-2.53-4.36-3.76c-2.88-2.41-5.78-4.79-8.69-7.17c-1.32-1.07-2.72-1.25-4.21-0.31c-1.69,1.07-3.5,1.97-5.05,3.22
			c-2.3,1.85-4.55,3.82-5.84,6.59c-1.52,3.27-0.94,6.33,1.7,8.42c1.05,0.83,2.26,1.55,3.51,2.02c3.83,1.43,7.83,1.57,11.83,1.03
			c5.04-0.68,9.72-2.54,14.2-4.88c4.02-2.1,7.58-4.77,10.13-8.6c3.15-4.75,1.62-9.57-3.66-11.64c-0.59-0.23-1.21-0.43-1.83-0.58
			c-3.63-0.9-7.31-0.76-10.96-0.27C297.13,164.05,295.01,164.69,292.69,165.22z M336.8,166.25c0.86-0.72,1.62-1.3,2.31-1.95
			c7.09-6.58,14.17-13.16,21.26-19.74c1.97-1.83,4.25-3.01,6.89-3.67c3.28-0.82,6.48-1.92,10.04-2.99
			c-1.74-1.67-3.28-2.32-5.28-1.68c-2.36,0.75-4.75,1.38-7.13,2.07c-10.72,3.15-21.44,6.31-32.15,9.48
			c-4.67,1.38-9.33,2.78-13.99,4.2c-0.77,0.23-1.78,0.21-2.03,1.48c1.99,1.11,3.97,1.38,6.16,0.71c7.87-2.39,15.76-4.71,23.64-7.05
			c1.65-0.49,3.31-0.94,4.97-1.41c0.1,0.16,0.2,0.32,0.3,0.48c-6.27,5.73-12.54,11.45-19.05,17.4
			C334.22,164.55,335.4,165.32,336.8,166.25z"/>
		<path class="st0" d="M391.84,49.26c0.36,2.24,0.32,4.18-0.43,5.95c-2.16,5.04-4.85,9.78-9.44,13.04
			c-1.81,1.29-3.77,2.45-5.82,3.29c-11.96,4.94-23.97,9.76-35.96,14.64c-19.76,8.04-39.51,16.09-59.27,24.12
			c-13.02,5.3-26.06,10.55-39.08,15.86c-17.9,7.3-35.79,14.63-53.69,21.93c-15.09,6.15-30.2,12.26-45.29,18.41
			c-20.12,8.2-40.24,16.41-60.35,24.64c-2.5,1.02-4.92,2.24-7.87,3.59c2.16,1.02,3.88,1.87,5.64,2.66
			c10.57,4.75,21.13,9.51,31.72,14.21c14.17,6.28,28.37,12.5,42.55,18.76c11.55,5.1,23.09,10.21,34.64,15.31
			c13.08,5.77,26.17,11.54,39.26,17.31c10.09,4.45,20.17,8.9,30.26,13.37c11.98,5.3,23.97,10.6,35.94,15.92
			c2.7,1.2,5.42,2.38,8.06,3.71c4.47,2.25,8.82,2.16,13.31-0.03c13.37-6.51,26.78-12.92,40.18-19.36
			c15.78-7.58,31.56-15.16,47.34-22.73c11.89-5.71,23.79-11.39,35.68-17.1c15.78-7.57,31.56-15.15,47.34-22.72
			c11.46-5.5,22.93-10.97,34.38-16.48c13.62-6.55,27.24-13.07,40.82-19.68c15.67-7.62,31.3-15.33,46.94-23
			c0.35-0.17,0.69-0.38,1.34-0.74c-0.89-0.43-1.53-0.81-2.22-1.08c-6.39-2.52-12.78-5.03-19.18-7.54c-0.15-0.06-0.29-0.13-0.44-0.19
			c-3.62-1.4-4.29-2.95-2.58-6.37c1.14-2.29,1.27-5.08,1.85-7.64c0.16-0.68,0.34-1.35,0.6-2.37c3.35,1.17,6.53,2.15,9.63,3.37
			c16.94,6.68,33.87,13.41,50.8,20.12c2.01,0.8,3.8,1.86,4.19,4.19c0.27,1.65,0.4,3.34,0.39,5.01c-0.01,3.19-0.26,6.39-0.24,9.58
			c0.04,5.27,0.11,10.55,0.35,15.81c0.21,4.4-1.66,7.3-5.6,9.1c-9.67,4.42-19.31,8.9-28.96,13.34c-6.68,3.07-13.37,6.11-20.05,9.18
			c-17.65,8.11-35.29,16.22-52.93,24.34c-11.03,5.08-22.06,10.19-33.09,15.27c-15.68,7.23-31.36,14.44-47.03,21.67
			c-8.71,4.01-17.41,8.05-26.12,12.06c-15.97,7.36-31.94,14.7-47.9,22.07c-9.29,4.29-18.57,8.59-27.85,12.9
			c-15.73,7.3-31.47,14.58-47.18,21.92c-4.4,2.06-8.75,2.22-13.17,0.18c-5.29-2.45-10.6-4.87-15.89-7.33
			c-19.42-9.03-38.84-18.08-58.26-27.11c-13.19-6.13-26.38-12.25-39.58-18.37c-19.94-9.24-39.88-18.48-59.82-27.72
			c-12.55-5.81-25.09-11.61-37.65-17.41c-15.38-7.1-30.78-14.15-46.15-21.29c-2.08-0.97-4.11-2.14-5.97-3.49
			c-2.4-1.75-2.96-4.49-2.94-7.28c0.05-5.91,0.21-11.82,0.32-17.73c0.02-0.96,0.01-1.92-0.07-2.88c-0.3-3.53,1.44-5.8,4.52-7.14
			c3.07-1.34,6.21-2.55,9.31-3.81c19.32-7.85,38.63-15.69,57.95-23.54c11.4-4.63,22.79-9.26,34.19-13.91
			c18.86-7.69,37.72-15.39,56.59-23.08c12.87-5.25,25.75-10.47,38.63-15.71c19.02-7.74,38.03-15.49,57.04-23.23
			c12.8-5.21,25.6-10.42,38.4-15.62c16.21-6.59,32.4-13.2,48.62-19.76C385.56,51.45,388.66,50.42,391.84,49.26z M642.57,159.7
			c-0.87,0.33-1.45,0.52-2.01,0.78c-5.95,2.75-11.91,5.48-17.83,8.28c-19.07,9.02-38.13,18.08-57.2,27.11
			c-11.99,5.68-23.98,11.36-35.97,17.05c-18.78,8.9-37.55,17.81-56.33,26.71c-11.92,5.65-23.84,11.29-35.75,16.94
			c-19.14,9.08-38.27,18.15-57.41,27.23c-8.09,3.84-16.15,7.72-24.25,11.53c-11.86,5.58-23.75,11.08-35.6,16.68
			c-4.79,2.26-6.1,4.93-5.86,10.15c0.21,4.37,0.07,8.76,0.08,13.15c0,0.76,0,1.53,0,2.58c0.96-0.33,1.56-0.47,2.11-0.72
			c10.4-4.73,20.8-9.46,31.19-14.22c9.15-4.2,18.28-8.45,27.43-12.66c17.06-7.85,34.13-15.68,51.19-23.53
			c16.91-7.79,33.81-15.6,50.72-23.41c9-4.15,17.99-8.32,26.99-12.47c17.06-7.85,34.13-15.68,51.18-23.54
			c17.56-8.09,35.11-16.22,52.67-24.33c9.87-4.55,19.73-9.11,29.62-13.62c4.79-2.18,5.19-2.72,5.05-7.95
			c-0.01-0.32-0.03-0.64-0.03-0.96c0-5.1,0-10.21,0-15.31C642.57,163.43,642.57,161.7,642.57,159.7z M304.64,338.01
			c0-1.42,0-2.42,0-3.43c0.01-3.9-0.16-7.82,0.08-11.71c0.35-5.68-0.98-8.53-5.71-10.7c-8.5-3.9-17.03-7.73-25.54-11.58
			c-16.45-7.45-32.91-14.88-49.36-22.33c-9.03-4.09-18.04-8.2-27.07-12.29c-14.77-6.7-29.55-13.38-44.33-20.08
			c-11.28-5.12-22.54-10.27-33.82-15.39c-14.91-6.77-29.83-13.53-44.75-20.3c-6.77-3.07-13.53-6.16-20.32-9.17
			c-2.01-0.89-4.11-1.59-6.35-2.44c-0.04,0.82-0.07,1.28-0.09,1.75c-0.12,3.27-0.1,6.55-0.39,9.8c-0.48,5.42,1.67,9.29,6.43,11.78
			c0.78,0.41,1.56,0.81,2.36,1.18c3.2,1.47,6.4,2.91,9.6,4.38c16.26,7.49,32.52,14.97,48.77,22.48
			c15.24,7.04,30.46,14.09,45.69,21.14c15.52,7.19,31.03,14.39,46.54,21.59c15.51,7.2,31.02,14.4,46.54,21.59
			c15.52,7.19,31.04,14.36,46.57,21.52C301.06,336.52,302.66,337.16,304.64,338.01z"/>
		<path class="st0" d="M577.86,92.7c-1.78,4.73-3.62,9.16-5.12,13.7c-1.48,4.47-2.65,9.04-3.91,13.57
			c-1.58,5.66-4.16,10.67-8.66,14.64c-1.19,1.05-1.96,2.71-2.58,4.24c-0.87,2.14-1.37,4.42-2.11,6.61c-1.13,3.36-2.7,4.2-6.01,3.01
			c-2.86-1.02-5.63-2.28-8.44-3.41c-21.05-8.46-42.1-16.91-63.15-25.38c-29.27-11.77-58.55-23.56-87.82-35.34
			c-0.15-0.06-0.31-0.1-0.45-0.16c-3.82-1.61-4.29-2.73-2.77-6.63c0.38-0.97,0.85-1.91,1.14-2.9c0.82-2.73,2.26-5.01,4.17-7.16
			c4.55-5.13,6.53-11.44,7.65-18.07c0.73-4.32,1.44-8.65,2.41-12.92c0.45-1.99,1.37-3.93,2.34-5.75c1.93-3.59,4.47-4.77,8.38-3.61
			c3.81,1.14,7.53,2.63,11.24,4.11c31.32,12.47,62.62,24.98,93.94,37.47c19.22,7.66,38.44,15.31,57.65,22.98
			C576.4,91.96,577.03,92.31,577.86,92.7z"/>
		<path class="st0" d="M555.09,157.95c-2.12,4.72-4.1,9.15-6.15,13.7c-0.65-0.17-1.18-0.26-1.67-0.45
			c-25.72-10.31-51.43-20.63-77.14-30.95c-17.93-7.2-35.86-14.41-53.79-21.61c-10.74-4.32-21.48-8.64-32.22-12.97
			c-2.81-1.13-3.08-1.64-2.03-4.5c0.8-2.17,1.63-4.34,2.67-6.4c1.19-2.38,2.78-3.15,5.33-2.35c3.95,1.25,7.84,2.7,11.69,4.24
			c22.54,9.01,45.06,18.07,67.58,27.12c23.34,9.38,46.66,18.8,70,28.16c4.37,1.75,8.82,3.31,13.23,4.96
			C553.32,157.18,554.03,157.51,555.09,157.95z"/>
		<path class="st0" d="M114.43,207.11c86.54-36.01,172.74-71.87,258.97-107.75c1,4.04-0.5,7.63-4.02,9.45
			c-2.34,1.21-4.81,2.14-7.25,3.14c-20.64,8.41-41.28,16.81-61.93,25.22c-16.94,6.9-33.89,13.79-50.82,20.71
			c-24.11,9.85-48.2,19.74-72.3,29.6c-17,6.96-34,13.94-51.02,20.87c-2.43,0.99-4.89,2.06-7.64,1.24
			C117.02,209.16,115.72,208.61,114.43,207.11z"/>
		<path class="st0" d="M560.35,148.96c2.9-4.43,5.29-8.5,8.11-12.27c3.72-4.97,5.99-10.5,7.53-16.44c1.24-4.78,2.07-9.71,4.34-14.17
			c1.19-2.35,2.44-4.68,3.85-6.9c1.53-2.4,4.13-2.85,6.72-1.4c2.61,1.46,3.56,3.86,2.18,6.47c-2.09,3.95-4.43,7.77-6.68,11.64
			c-2.89,4.98-5.77,9.98-6.78,15.76c-0.32,1.8-0.46,3.63-0.69,5.45c-0.47,3.65-2.28,6.81-3.89,10c-0.46,0.91-1.79,1.74-2.84,1.92
			c-3.05,0.54-6.16,0.8-9.26,1C562.21,150.08,561.44,149.44,560.35,148.96z"/>
		<path class="st0" d="M556.64,172.03c1.22-3.35,2.33-6.48,3.48-9.59c1.46-3.97,4.21-5.8,8.42-5.47c-0.68,4-1.42,7.94-3.34,11.56
			c-1.3,2.45-3.62,3.23-6.18,3.48C558.25,172.1,557.45,172.03,556.64,172.03z"/>
		<path class="st0" d="M377.92,222.39c-3.56,2.04-6.72,3.9-9.92,5.67c-3.42,1.9-6.91,3.68-10.31,5.61
			c-1.48,0.84-2.73,0.71-3.91-0.41c-2.02-1.93-4.18-3.75-5.99-5.87c-3.05-3.59-2.79-6.4,0.9-9.45c3.55-2.93,7.64-4.69,12.32-4.44
			c1.88,0.1,3.81,0.52,5.58,1.18C370.86,216.26,374.16,219.31,377.92,222.39z"/>
		<path class="st0" d="M348.58,238.6c-2.78,1.5-5.1,2.74-7.4,4c-3.64,2-7.25,4.05-10.91,6.02c-2.02,1.09-2.1,1.09-3.63-0.64
			c-1.48-1.67-2.95-3.37-4.22-5.2c-2.22-3.23-1.94-5.79,1.2-8.14c6.24-4.67,12.03-5.94,18.66-1.14
			C344.34,235,346.24,236.7,348.58,238.6z"/>
		<path class="st0" d="M364.51,175.08c-2.63,0.13-5.66-0.61-8.47-2.03c-3.69-1.87-4.46-5.17-2.15-8.59
			c0.49-0.72,0.99-1.51,1.68-2.01c2-1.44,3.94-3.15,6.19-4c3.63-1.38,7.44-2.47,11.27-3.09c4.04-0.66,8.15,0.05,11.95,1.57
			c4.35,1.73,5.21,6.88,1.66,9.94c-1.9,1.64-4.23,2.85-6.5,4C375.42,173.29,370.49,175.1,364.51,175.08z"/>
		<path class="st0" d="M299.39,183c-0.86,0.6-1.41,1.14-2.08,1.41c-4.17,1.67-8.47,2.27-12.85,1.09c-1.26-0.34-2.51-1.06-3.51-1.9
			c-1.45-1.21-1.86-2.87-1.25-4.76c0.8-2.48,2.53-4.19,4.49-5.73c0.7-0.55,1.47-0.59,2.22-0.07c0.79,0.54,1.57,1.08,2.33,1.67
			c2.65,2.04,5.28,4.1,7.92,6.16C297.47,181.49,298.27,182.12,299.39,183z"/>
	</g>
</g>
</svg>
