<?xml version="1.0" encoding="utf-8"?>
<!-- Generator: Adobe Illustrator 23.0.0, SVG Export Plug-In . SVG Version: 6.00 Build 0)  -->
<svg version="1.1" id="Layer_1" xmlns="http://www.w3.org/2000/svg" xmlns:xlink="http://www.w3.org/1999/xlink" x="0px" y="0px"
	 viewBox="0 0 560.18 471.56" style="enable-background:new 0 0 560.18 471.56;" xml:space="preserve">
<style type="text/css">
	.st0{fill:#c850c8;}
</style>
<g>
	<path class="st0" d="M461,249.28c0.52-2.4,1.06-4.63,1.47-6.89c0.36-2.03,0.58-4.09,0.83-6.15c0.78-6.37,0.39-12.77,0.4-19.16
		c0.04-28.64,0.01-57.28,0.03-85.92c0-7.96-1.11-15.74-3.57-23.3c-1.63-5.03-3.86-9.8-6.63-14.31c-3.19-5.19-6.89-10-11.31-14.21
		c-7.08-6.75-15.18-11.88-24.34-15.36c-4.42-1.68-8.97-2.78-13.59-3.63c-2.03-0.38-4.12-0.47-6.18-0.61
		c-1.35-0.09-2.72-0.07-4.08-0.07c-78.8,0-157.6,0.01-236.4-0.02c-7.33,0-14.45,1.15-21.38,3.44c-7.56,2.51-14.51,6.23-20.83,11.09
		c-8.83,6.79-15.62,15.26-20.49,25.26c-2.7,5.54-4.64,11.35-5.7,17.45c-0.46,2.67-0.74,5.36-1.02,8.05
		c-0.4,3.84-0.29,7.66-0.29,11.49c-0.02,30.88-0.03,61.76,0,92.64c0.01,9.01,1.56,17.78,4.86,26.18c2.55,6.5,6.08,12.45,10.39,17.97
		c5.23,6.7,11.53,12.17,18.73,16.58c6.78,4.15,14.07,7.07,21.91,8.65c4.56,0.92,9.12,1.42,13.77,1.42
		c78.8-0.01,157.6-0.01,236.4-0.01c3.83,0,7.66-0.1,11.43-0.94c0.16-0.04,0.4,0.13,0.55,0.27c0.06,0.05-0.01,0.32-0.1,0.43
		c-0.81,0.99-1.62,1.98-2.46,2.94c-2.63,3.01-5.31,5.97-7.88,9.03c-1.03,1.24-2.19,1.59-3.75,1.58
		c-20.56-0.04-41.12-0.04-61.68-0.02c-3.67,0-3.22-0.47-3.23,3.13c-0.02,12.56-0.03,25.12,0.01,37.68c0.01,4.58-0.66,9.05-1.7,13.48
		c-0.05,0.23-0.05,0.47-0.08,0.8c2,0.34,3.99,0.12,5.96,0.16c2.08,0.04,4.16,0.01,6.24,0.01c2,0,4,0,6,0c2.08,0,4.16,0,6.24,0
		c1.98,0,3.96-0.02,5.78,0.02c-0.02,3.05-0.03,5.84-0.05,8.63c-0.01,1.32-0.06,1.37-1.32,1.41c-0.56,0.02-1.12,0-1.68,0
		c-9.76,0-19.52,0-29.28,0c-2.24,0-2.27-0.01-3.42,1.83c-2.21,3.55-4.77,6.8-7.81,9.67c-4.64,4.37-9.88,7.8-15.84,10.12
		c-5.87,2.28-11.92,3.47-18.22,3.35c-1.84-0.04-3.68,0.02-5.52-0.03c-6.05-0.17-11.84-1.57-17.38-3.92
		c-5.5-2.33-10.36-5.67-14.66-9.81c-3-2.89-5.59-6.16-7.67-9.77c-0.68-1.17-1.41-1.61-2.66-1.44c-0.16,0.02-0.32,0-0.48,0
		c-37.36,0-74.72,0.01-112.08-0.01c-3.39,0-6.48,0.85-9.2,2.85c-3.97,2.91-6.18,6.81-6.3,11.79c-0.05,1.92,0.02,3.84-0.01,5.76
		c-0.13,6.74,4.69,12.7,11.39,14.53c0.53,0.15,1.1,0.18,1.66,0.2c1.28,0.05,2.56,0.08,3.84,0.08c85.6,0,171.2,0,256.8,0
		c0.48,0,0.96,0.04,1.44-0.01c1.45-0.13,2.58,0.39,3.67,1.37c2.97,2.67,6.04,5.23,9.05,7.84c0.22,0.19,0.33,0.5,0.5,0.75
		c-0.33,0.13-0.66,0.33-1,0.36c-0.55,0.06-1.12,0.02-1.68,0.02c-89.76,0-179.52,0-269.28,0c-3.95,0-7.75-0.64-11.41-2.22
		c-5.27-2.27-9.22-5.92-11.99-10.9c-2.1-3.77-3.21-7.79-3.06-12.15c0.08-2.16-0.02-4.32,0.03-6.48c0.13-5.92,2.37-11,6.25-15.41
		c3.37-3.83,7.56-6.34,12.47-7.65c1.69-0.45,3.41-0.83,5.18-0.79c0.8,0.02,1.6,0,2.4,0c35.36,0,70.72,0,106.08,0
		c3.76,0,3.31,0.26,2.5-3.18c-0.77-3.29-0.99-6.61-0.98-9.98c0.02-13.04,0.01-26.08,0-39.12c0-3.32,0.38-2.99-2.9-2.99
		c-21.6-0.01-43.2,0.04-64.8-0.02c-10.88-0.03-21.36-2.17-31.44-6.33c-8.04-3.32-15.38-7.81-22-13.42
		c-10.03-8.51-17.68-18.83-22.89-30.92c-2.6-6.02-4.47-12.29-5.55-18.75c-0.78-4.64-1.13-9.33-1.12-14.06
		c0.04-33.2,0.06-66.4,0-99.6c-0.02-11.33,2.14-22.2,6.51-32.6c3.05-7.25,7.1-13.93,12.08-20.04c3.24-3.99,6.87-7.59,10.7-10.99
		c3.76-3.34,7.94-6.16,12.29-8.71c4.7-2.76,9.64-4.97,14.77-6.79c3.91-1.38,7.93-2.39,12.01-3.13c3.06-0.55,6.15-0.83,9.25-1.11
		c3.04-0.28,6.06-0.28,9.09-0.28c77.44-0.01,154.88-0.02,232.32,0.01c7.77,0,15.4,1.18,22.86,3.36
		c10.08,2.94,19.26,7.67,27.55,14.08c6.35,4.91,11.91,10.6,16.61,17.15c2.62,3.65,5,7.44,6.99,11.43
		c3.06,6.15,5.43,12.57,6.88,19.32c0.81,3.75,1.27,7.54,1.76,11.32c0.19,1.5,0.12,3.04,0.12,4.56c0.01,18.56,0.02,37.12,0.02,55.68
		c0,16.32-0.01,32.64-0.03,48.96c-0.01,5.28-0.79,10.48-1.91,15.63c-0.18,0.81-0.57,1.05-1.31,1.01c-0.8-0.04-1.6-0.06-2.4-0.06
		c-2.63,0.01-5.27-0.17-7.88,0.41C462.52,249.41,461.79,249.28,461,249.28z M276.45,313.14c-12.55,0-25.1,0-37.65,0
		c-0.64,0-1.28-0.02-1.92,0.01c-1.08,0.05-1.16,0.15-1.22,1.3c-0.01,0.16,0,0.32,0,0.48c0.01,13.99,0.02,27.98,0.02,41.97
		c0,2.9,0.6,5.7,1.39,8.46c2.14,7.49,6.21,13.74,12.14,18.8c6.88,5.87,14.87,8.8,23.84,9.19c1.76,0.08,3.52,0.01,5.28,0.01
		c4.27,0.02,8.44-0.7,12.42-2.12c9.74-3.47,17.02-9.87,21.81-19.05c2.98-5.7,4.18-11.86,4.22-18.22
		c0.09-12.71,0.03-25.42,0.03-38.13c0-0.56-0.01-1.12-0.01-1.68c0-0.69-0.33-1.02-1.02-1.01c-0.64,0.01-1.28-0.01-1.92-0.01
		C301.39,313.14,288.92,313.14,276.45,313.14z"/>
	<path class="st0" d="M371.33,369.59c0.06-9.91,3.57-18.38,10.11-25.71c3.61-4.05,7.07-8.24,10.62-12.35
		c2.4-2.78,4.84-5.53,7.24-8.31c2.88-3.32,5.73-6.65,8.61-9.97c2.35-2.72,4.73-5.41,7.08-8.13c2.77-3.2,5.51-6.42,8.28-9.62
		c2.51-2.9,5.05-5.77,7.57-8.66c2.67-3.07,5.28-6.2,8.02-9.22c1.34-1.47,2.81-2.84,4.37-4.07c4.77-3.78,10.13-6.34,16.14-7.39
		c2.19-0.38,4.41-0.76,6.63-0.82c3.27-0.09,6.52,0.33,9.7,1.12c6.57,1.63,12.23,4.88,17.23,9.44c4.01,3.65,8.22,7.09,12.33,10.64
		c4.2,3.62,8.01,7.59,10.59,12.57c2.14,4.14,3.55,8.52,4.02,13.18c0.15,1.51,0.42,3.02,0.38,4.52c-0.27,9.4-3.19,17.81-9.49,24.94
		c-3.59,4.07-7.06,8.25-10.61,12.35c-2.61,3.02-5.29,5.99-7.9,9.01c-3.55,4.1-7.07,8.24-10.61,12.35c-2.4,2.78-4.83,5.53-7.24,8.31
		c-2.88,3.32-5.74,6.65-8.61,9.97c-2.3,2.66-4.62,5.3-6.92,7.96c-1.88,2.17-3.72,4.38-5.64,6.52c-4.01,4.47-8.76,7.92-14.38,10.08
		c-3.43,1.31-6.97,2.16-10.66,2.48c-10.38,0.89-19.54-1.98-27.51-8.61c-3.5-2.91-6.91-5.92-10.34-8.92
		c-2.83-2.47-5.74-4.85-8.39-7.5c-5.34-5.34-8.61-11.83-9.9-19.28C371.67,374.2,371.56,371.88,371.33,369.59z M382.52,369.7
		c-0.38,7.15,3.55,15.03,7.87,18.85c2.4,2.11,4.73,4.3,7.13,6.4c3.12,2.73,6.25,5.47,9.45,8.11c1.59,1.31,3.27,2.59,5.07,3.58
		c4.79,2.61,9.9,3.73,15.41,3.14c6.37-0.69,11.83-3.15,16.3-7.71c2.01-2.05,3.88-4.24,5.77-6.41c3.77-4.34,7.51-8.71,11.27-13.05
		c2.46-2.84,4.95-5.65,7.41-8.48c2.77-3.2,5.52-6.42,8.29-9.62c2.35-2.72,4.73-5.41,7.08-8.13c3.65-4.23,7.29-8.47,10.94-12.71
		c2.92-3.39,5.86-6.76,8.75-10.17c4.1-4.84,5.83-10.57,5.96-16.79c0.04-2.2-0.39-4.45-0.91-6.6c-1.28-5.26-4.03-9.73-8.08-13.3
		c-5.33-4.7-10.74-9.3-16.15-13.92c-6.47-5.53-14.01-7.46-22.3-6.01c-6.43,1.13-11.7,4.5-15.95,9.47
		c-3.84,4.49-7.71,8.95-11.58,13.42c-2.4,2.78-4.83,5.53-7.24,8.31c-3.71,4.29-7.4,8.59-11.11,12.88c-2.51,2.9-5.06,5.76-7.56,8.66
		c-3.5,4.05-6.96,8.12-10.45,12.18c-3.02,3.51-6.08,6.99-9.08,10.51C384.56,357.29,382.37,363.05,382.52,369.7z"/>
	<path class="st0" d="M225.33,160.73c-2.64,1.04-5.29,2.04-7.9,3.14c-7.33,3.08-14.05,7.18-20.18,12.26
		c-6.54,5.42-11.87,11.84-16.03,19.2c-1.72,3.05-3.02,6.33-4.51,9.51c-0.24,0.5-0.43,1.03-0.7,1.51c-0.05,0.08-0.51,0.08-0.56-0.01
		c-0.26-0.49-0.48-1-0.68-1.52c-2.62-6.75-6.15-12.98-10.66-18.64c-5.08-6.36-11.13-11.65-18-16.01c-5.62-3.57-11.6-6.37-17.85-8.62
		c-0.72-0.26-1.44-0.5-2.28-0.79c0.31-0.27,0.46-0.5,0.66-0.56c3.96-1.25,7.78-2.89,11.51-4.69c4.39-2.12,8.53-4.68,12.48-7.55
		c4.1-2.97,7.75-6.44,11.12-10.18c3.49-3.86,6.51-8.08,8.94-12.69c1.71-3.25,3.35-6.54,4.6-10c0.07-0.18,0.29-0.3,0.44-0.45
		c0.15,0.15,0.35,0.28,0.44,0.47c1.04,2.33,1.99,4.7,3.09,7c4.01,8.41,9.65,15.6,16.57,21.79c4.24,3.79,8.91,6.99,13.91,9.72
		c4.77,2.61,9.73,4.78,14.88,6.51c0.22,0.07,0.41,0.22,0.61,0.36C225.28,160.53,225.29,160.63,225.33,160.73z"/>
	<path class="st0" d="M250.13,239.96c-4.39-8.24-11.01-14.24-19.45-18.23c-0.05-0.86,0.69-0.87,1.12-1.08
		c4.47-2.23,8.43-5.13,11.91-8.72c2.29-2.37,4.17-5.03,5.82-7.86c0.2-0.34,0.4-0.67,0.64-1.08c1.81,2.52,3.42,5.04,5.32,7.33
		c1.98,2.39,4.21,4.61,6.81,6.35c2.49,1.66,5.08,3.18,7.61,4.75c-2.49,1.59-5.07,3.13-7.55,4.83c-2.57,1.76-4.96,3.76-6.83,6.3
		C253.75,234.97,251.99,237.41,250.13,239.96z"/>
	<path class="st0" d="M281.78,109.49c-8.59,4.07-15.15,10.02-19.63,18.34c-1.86-2.59-3.47-5.11-5.36-7.39
		c-1.93-2.33-4.08-4.5-6.62-6.2c-2.51-1.68-5.09-3.24-7.65-4.87c0.22-0.81,1.05-0.86,1.65-1.18c4.04-2.14,7.75-4.74,10.94-8.03
		c2.28-2.36,4.24-4.96,5.89-7.8c0.27-0.47,0.59-0.91,0.92-1.42c1.84,2.53,3.47,5.06,5.38,7.35c1.94,2.32,4.08,4.5,6.63,6.19
		C276.44,106.15,279.01,107.73,281.78,109.49z"/>
	<path class="st0" d="M409.81,337.69c1.45-0.06,2.64,0.58,3.69,1.48c2.67,2.27,5.3,4.6,7.96,6.89c3.02,2.6,6.06,5.18,9.08,7.78
		c2.78,2.4,5.53,4.82,8.31,7.22c3.14,2.71,6.3,5.39,9.43,8.11c1.03,0.89,2.04,1.8,2.98,2.77c1.93,2,1.95,4.66,0.19,6.68
		c-2,2.3-5.09,2.22-6.85,0.68c-1.92-1.67-3.9-3.3-5.83-4.96c-4.54-3.9-9.07-7.79-13.59-11.71c-4.04-3.5-8.06-7.02-12.1-10.52
		c-1.63-1.41-3.31-2.75-4.93-4.17c-1.08-0.94-2.16-1.85-2.86-3.18C403.44,341.3,406.83,337.39,409.81,337.69z"/>
	<path class="st0" d="M437.7,390.05c-1.12,0.07-2.2-0.33-3.16-1.16c-2.17-1.88-4.36-3.74-6.54-5.62c-4.42-3.8-8.85-7.6-13.26-11.41
		c-2.9-2.51-5.77-5.05-8.67-7.56c-2.78-2.4-5.56-4.8-8.39-7.14c-1.62-1.34-2.74-2.86-2.61-5.09c0.19-3.07,3.37-5.31,6.32-4.35
		c0.74,0.24,1.5,0.59,2.09,1.09c2.63,2.21,5.19,4.49,7.8,6.73c2.85,2.45,5.72,4.87,8.56,7.31c2.73,2.34,5.43,4.71,8.15,7.06
		c4.29,3.7,8.58,7.41,12.89,11.1c1.73,1.48,2.43,3.54,1.8,5.53C441.97,388.78,440.21,390.06,437.7,390.05z"/>
	<path class="st0" d="M391.18,358.38c1.27-0.12,2.4,0.35,3.42,1.23c1.93,1.68,3.89,3.31,5.83,4.98c4.48,3.85,8.97,7.7,13.44,11.56
		c2.9,2.51,5.76,5.06,8.67,7.56c2.96,2.56,5.92,5.11,8.93,7.61c1.71,1.42,2.75,3,2.52,5.36c-0.27,2.72-3.86,5.23-6.14,4.08
		c-0.77-0.39-1.66-0.64-2.31-1.18c-2.52-2.09-4.96-4.27-7.44-6.41c-4.3-3.7-8.61-7.38-12.9-11.08c-2.66-2.29-5.31-4.61-7.97-6.91
		c-2.96-2.56-5.91-5.13-8.89-7.67c-1-0.85-1.62-1.85-2.02-3.14C385.54,361.88,387.89,358.12,391.18,358.38z"/>
	<path class="st0" d="M422.52,324.94c1.6,0.02,2.8,0.67,3.94,1.66c5.77,5.03,11.57,10.02,17.36,15.03c2.23,1.93,4.46,3.86,6.68,5.81
		c2.12,1.86,2.38,5.22,0.52,7.33c-1.55,1.75-4.8,2.41-7.1,0.34c-3.62-3.25-7.32-6.4-11.01-9.58c-4.11-3.54-8.23-7.06-12.34-10.6
		c-0.66-0.57-1.31-1.18-1.9-1.82c-1.57-1.71-1.75-5.74,1.39-7.43C420.79,325.28,421.7,325.18,422.52,324.94z"/>
	<path class="st0" d="M453.13,322.08c4.19-8.08,3.77-15.7,0.67-23.34c0.44-0.47,0.74-0.07,1.06,0.1c4.81,2.62,9.95,3.81,15.41,3.26
		c1.64-0.17,3.25-0.7,4.87-1.09c0.59-0.15,1.16-0.38,2.09-0.7c-1.83,3.89-2.97,7.6-3.01,11.65c-0.04,4.04,1.13,7.79,2.48,11.7
		c-2.65-0.99-5.03-2.02-7.5-2.75c-2.59-0.77-5.3-1.19-8.02-0.91C458.59,320.27,456.07,320.93,453.13,322.08z"/>
	<path class="st0" d="M487.1,310.97c1.26,0.33,2.42,0.61,3.56,0.94c1.81,0.52,3.61,0.46,5.43,0.07c1.09-0.23,1.43,0.04,1.17,1
		c-0.77,2.84-0.72,5.67-0.02,8.5c0.14,0.59-0.15,0.77-0.84,0.62c-1.47-0.32-2.97-0.55-4.42-0.93c-0.97-0.26-1.86-0.22-2.82,0.03
		c-0.66,0.17-1.39,0.1-2.13,0.14c0.25-1.85,0.65-3.55,0.66-5.26C487.71,314.44,487.33,312.79,487.1,310.97z"/>
</g>
</svg>
