<?xml version="1.0" encoding="UTF-8"?>
<svg width="121px" height="110px" viewBox="0 0 121 110" version="1.1" xmlns="http://www.w3.org/2000/svg" xmlns:xlink="http://www.w3.org/1999/xlink">
    <!-- Generator: Sketch 52.6 (67491) - http://www.bohemiancoding.com/sketch -->
    <title>BLUEJAY_VECTOR</title>
    <desc>Created with Sketch.</desc>
    <g id="Page-1" stroke="none" stroke-width="1" fill="none" fill-rule="evenodd">
        <g id="Desktop-HD-Copy" transform="translate(-1152.000000, -54.000000)" fill="#FFFFFF">
            <g id="BLUEJAY_VECTOR" transform="translate(1152.000000, 54.000000)">
                <path d="M78.545443,51.9064398 C91.3747706,51.9041787 104.204098,51.9358349 117.033426,51.8860894 C120.769239,51.8725224 121.792031,55.4587261 120.413881,57.5118616 C119.953738,58.1947327 119.097235,58.6944496 118.320459,59.0607579 C117.776033,59.3162693 117.056205,59.2439121 116.413828,59.2439121 C90.9465189,59.2484344 65.4769322,59.2506956 40.0096234,59.2235616 C38.9503838,59.2235616 38.5585791,59.4745507 38.5654129,60.6073931 C38.6086936,70.0635746 38.5927481,79.5220172 38.5836363,88.9781987 C38.5790805,92.9465389 37.9025339,96.788254 36.0414613,100.333757 C33.23049,105.690451 28.701956,108.505598 22.6585956,108.91713 C18.5970382,109.192991 14.5992629,108.824422 10.8520605,107.137595 C4.45562018,104.261396 1.4874714,99.0765504 1.03871829,92.3066299 C0.952156771,90.9974168 1.02277274,89.6678533 1.1321136,88.3563791 C1.3097925,86.2331475 3.0478566,84.7588696 5.03193764,84.9510684 C7.11624779,85.1523118 8.44428366,86.9273244 8.2028226,89.1319578 C7.97502914,91.2122273 8.07753619,93.2631017 8.77686212,95.2687528 C9.77915334,98.1472126 11.774624,100.023977 14.6265982,101.0008 C17.2507788,101.898481 19.9774665,102.124597 22.7178219,101.796729 C27.100568,101.272139 29.9365966,98.4954316 30.8864953,93.7469904 C31.2236296,92.0624244 31.3967527,90.3145458 31.3990306,88.5960623 C31.4309217,64.670702 31.419532,40.747603 31.419532,16.8222427 C31.419532,16.3315705 31.4013085,15.8408982 31.4309217,15.3524871 C31.5425405,13.416932 32.9594158,12.0511899 34.8865485,12.0014443 C36.8432943,11.9516987 38.31484,13.1908158 38.5449114,15.1241097 C38.6109715,15.6826168 38.5813584,16.2524298 38.5813584,16.8177204 C38.5836363,28.0082135 38.5836363,39.1987067 38.5836363,50.3869386 C38.5836363,51.9109621 38.5836363,51.9041787 40.059738,51.9041787 C52.8867877,51.9064398 65.7161153,51.9064398 78.545443,51.9064398 Z" id="Path"></path>
                <path d="M0,48.9827371 C0,32.6065367 0,16.3648477 0,0.150516901 C0.0991269593,0.0798413871 0.157701981,-0.00223340294 0.216277002,4.64523425e-05 C5.12306149,0.129998203 10.0816623,-0.141304575 14.925366,0.494775048 C23.6958491,1.64610196 26.1830346,8.27820097 25.1376957,15.7378874 C24.7456937,18.5421094 23.2858239,20.7558489 20.884248,22.4999382 C21.3100434,22.7598417 21.6479762,22.9673085 21.9904148,23.1702157 C25.191765,25.0693351 27.158534,27.8347996 27.7578015,31.5669227 C28.1858497,34.2320735 28.0394122,36.8789855 27.374811,39.4780205 C25.9464816,45.0636659 21.9295869,47.5965851 16.6578349,48.4925683 C14.8532737,48.8003487 13.0014019,48.9257408 11.169806,48.9622184 C7.49309697,49.032894 3.81864082,48.9827371 0,48.9827371 Z M5.40917794,43.4563679 C9.41931402,43.3081773 13.4024155,43.8781412 17.2728727,42.6037021 C19.6992303,41.8057527 21.3348251,40.2007346 21.9453571,37.6655355 C22.4612678,35.5247514 22.4364861,33.3862472 21.670505,31.2842206 C21.0239269,29.5104932 19.8253919,28.2565728 18.1492451,27.497381 C14.0444878,25.6370191 9.70768336,26.3734123 5.40692505,26.2252217 C5.40917794,32.034293 5.40917794,37.6723751 5.40917794,43.4563679 Z M5.41818948,20.6737741 C8.75921859,20.7216511 11.9447986,20.785487 15.044769,19.8279478 C17.3900227,19.1052337 19.0233647,17.6233278 19.4131138,15.1337258 C19.6316437,13.7361745 19.6001033,12.2542686 19.4108609,10.8475979 C19.1585378,8.96443741 18.0118191,7.62844222 16.3108906,6.78717562 C14.3058225,5.79543857 12.1498112,5.55833362 9.96676518,5.49221782 C8.45057328,5.44662072 6.9321285,5.4830984 5.4159366,5.4830984 C5.41818948,10.6424109 5.41818948,15.6010961 5.41818948,20.6737741 Z" id="Shape" fill-rule="nonzero"></path>
                <path d="M118.940616,31.4593165 C108.497883,31.4593165 98.1033427,31.4593165 87.601462,31.4593165 C87.9979661,35.3726775 89.5160727,38.5332082 92.4427545,40.9273442 C97.5293976,45.0893878 107.30618,45.1097346 111.669915,36.5527898 C112.042322,35.8225671 112.449779,35.6145779 113.190212,35.6394462 C114.789372,35.6914435 116.392913,35.6552714 118.024933,35.6552714 C115.225308,44.3591651 107.336849,50.612404 97.005837,48.6319856 C86.6879693,46.6538279 80.3439045,36.3131502 82.3789998,25.0500857 C84.2191291,14.8608783 93.7352263,8.45390826 104.355401,10.3235498 C114.206665,12.0575463 119.635046,21.7267809 118.940616,31.4593165 Z M112.968959,26.3974937 C111.347892,18.4079975 106.134193,15.0259131 99.4308646,15.3333754 C93.3956786,15.6114478 88.0834006,20.6981389 87.8884346,26.3974937 C96.2215915,26.3974937 104.554748,26.3974937 112.968959,26.3974937 Z" id="Shape" fill-rule="nonzero"></path>
                <path d="M82,98.0061787 C80.2289571,98.0061787 78.5358846,98.0061787 76.7024653,98.0061787 C76.7024653,96.6063312 76.7024653,95.1974233 76.7024653,93.5189654 C71.5920597,98.4909155 65.7309101,99.8635815 59.1858483,98.5067714 C54.8573748,97.6097818 51.428903,95.2064838 48.7378089,91.686479 C43.213046,84.4607291 43.9214632,73.4363639 50.1435046,66.7180021 C56.4435164,59.9135656 69.5180459,58.4797412 76.6334058,66.2808329 C76.6334058,64.745078 76.6334058,63.3384351 76.6334058,61.8615734 C78.4779637,61.8615734 80.2022243,61.8615734 81.9977723,61.8615734 C82,73.9120403 82,85.9262652 82,98.0061787 Z M50.7694958,80.2589215 C50.7694958,80.6734395 50.7494463,81.0902225 50.7717236,81.5024753 C51.2707344,90.0873005 60.0658004,96.0559058 67.934132,92.9458887 C73.0178049,90.9367225 75.8113745,86.8776178 76.5398412,81.3801586 C77.6848929,72.750031 69.7341354,64.3509461 60.7608512,66.5662387 C54.9175234,68.0091236 50.7360799,73.6243694 50.7694958,80.2589215 Z" id="Shape" fill-rule="nonzero"></path>
                <path d="M70.4511373,12.0051201 C72.1780244,12.0051201 73.7769108,11.9825405 75.3735516,12.0322155 C75.5801492,12.0389894 75.8002207,12.3980043 75.9641514,12.6305737 C76.0360115,12.7299237 75.9776252,12.9241079 75.9776252,13.0731329 C75.9776252,24.7354721 75.9776252,36.3955533 75.9753796,48.0578925 C75.9753796,48.3130415 75.9506777,48.5704484 75.9349583,48.893336 C74.1317198,48.893336 72.3891133,48.893336 70.5027867,48.893336 C70.5027867,48.0059595 70.5027867,47.0937456 70.5027867,46.2041112 C68.9533041,47.1366467 67.599191,48.2814301 66.0384803,48.8346291 C61.019504,50.61164 56.0005278,50.4129399 51.273483,47.8479027 C47.8376738,45.9828316 46.4139463,42.6297679 45.7447494,38.9741383 C45.3337997,36.7274728 45.0822895,34.4243583 45.0508507,32.1438235 C44.95878,25.749294 45.0194119,19.3547646 45.0216576,12.9602352 C45.0216576,12.7005703 45.0530963,12.4409055 45.0755526,12.0886644 C46.8316329,12.0886644 48.5630113,12.0886644 50.4583204,12.0886644 C50.4583204,12.5041282 50.4583204,12.8992704 50.4583204,13.2966705 C50.4695486,19.9553807 50.4089166,26.6140909 50.5346717,33.2705432 C50.5706018,35.2372223 50.9882884,37.2287388 51.4868176,39.1434849 C52.2391026,42.0291518 54.2511844,43.736166 57.1457975,44.291623 C61.3496112,45.0977131 65.2143352,44.5693516 68.1897909,41.0762947 C69.7819404,39.2067077 70.314154,36.9261728 70.3433472,34.5643516 C70.4331722,27.4946935 70.4241897,20.4227775 70.4556285,13.3508614 C70.4533829,12.9489454 70.4511373,12.5470294 70.4511373,12.0051201 Z" id="Path"></path>
                <path d="M101.191464,89.8789164 C102.220675,87.3589481 103.149697,85.0896096 104.071889,82.8202711 C106.754212,76.2127593 109.447921,69.6098045 112.091536,62.988622 C112.398933,62.2162267 112.786026,61.9747107 113.585258,62.0020521 C115.322621,62.0612919 117.06226,62.0202798 119,62.0202798 C118.332835,63.6379809 117.73398,65.0939119 117.128294,66.549843 C111.24904,80.7013104 105.360679,94.8482209 99.5110273,109.011081 C99.1922451,109.781197 98.8097066,110.02727 98.0127513,109.99765 C96.4279487,109.938411 94.8385922,109.979423 93.0488582,109.979423 C93.2697287,109.428037 93.4268428,109.022473 93.5930649,108.623744 C94.9843211,105.299482 96.3960705,101.984334 97.7463405,98.6441225 C97.9193937,98.213495 97.9148396,97.5914775 97.7440635,97.1562931 C93.3585323,85.9212447 88.9388459,74.699867 84.5259905,63.4739323 C84.3620454,63.0569756 84.2185935,62.6331834 84,62.0339505 C86.097131,62.0339505 88.053087,61.9952168 90.004489,62.0795195 C90.2754538,62.0909118 90.6170061,62.6650818 90.762735,63.0433049 C93.6590983,70.4619456 96.5326914,77.8919787 99.4108386,85.3197333 C99.9709843,86.7483229 100.53113,88.1814694 101.191464,89.8789164 Z" id="Path"></path>
            </g>
        </g>
    </g>
</svg>