<?xml version="1.0" encoding="UTF-8"?>
<svg width="34px" height="34px" viewBox="0 0 34 34" version="1.1" xmlns="http://www.w3.org/2000/svg" xmlns:xlink="http://www.w3.org/1999/xlink">
    <!-- Generator: Sketch 52.6 (67491) - http://www.bohemiancoding.com/sketch -->
    <title>facebook</title>
    <desc>Created with Sketch.</desc>
    <g id="Page-1" stroke="none" stroke-width="1" fill="none" fill-rule="evenodd">
        <g id="Mobile-Homepage" transform="translate(-148.000000, -2570.000000)" fill="#FFFFFF" fill-rule="nonzero">
            <g id="Group" transform="translate(92.000000, 2570.000000)">
                <g id="facebook" transform="translate(56.000000, 0.000000)">
                    <path d="M30.015625,0 L3.984375,0 C1.78739062,0 0,1.78739062 0,3.984375 L0,30.015625 C0,32.2126094 1.78739062,34 3.984375,34 L30.015625,34 C32.2126094,34 34,32.2126094 34,30.015625 L34,3.984375 C34,1.78739062 32.2126094,0 30.015625,0 Z M31.34375,30.015625 C31.34375,30.7479531 30.7479531,31.34375 30.015625,31.34375 L22.4453125,31.34375 L22.4453125,20.5195313 L26.5485547,20.5195313 L27.2265625,16.4023438 L22.4453125,16.4023438 L22.4453125,13.546875 C22.4453125,12.4196289 23.3102539,11.5546875 24.4375,11.5546875 L27.1601562,11.5546875 L27.1601562,7.4375 L24.4375,7.4375 C21.0558945,7.4375 18.3295859,10.1767578 18.3295859,13.5584297 L18.3295859,16.4023438 L14.34375,16.4023438 L14.34375,20.5195313 L18.3295859,20.5195313 L18.3295859,31.34375 L3.984375,31.34375 C3.25204688,31.34375 2.65625,30.7479531 2.65625,30.015625 L2.65625,3.984375 C2.65625,3.25204688 3.25204688,2.65625 3.984375,2.65625 L30.015625,2.65625 C30.7479531,2.65625 31.34375,3.25204688 31.34375,3.984375 L31.34375,30.015625 Z" id="Shape"></path>
                </g>
            </g>
        </g>
    </g>
</svg>