<?xml version="1.0" encoding="UTF-8"?>
<svg width="35px" height="34px" viewBox="0 0 35 34" version="1.1" xmlns="http://www.w3.org/2000/svg" xmlns:xlink="http://www.w3.org/1999/xlink">
    <!-- Generator: Sketch 52.6 (67491) - http://www.bohemiancoding.com/sketch -->
    <title>instagram-logo</title>
    <desc>Created with Sketch.</desc>
    <g id="Page-1" stroke="none" stroke-width="1" fill="none" fill-rule="evenodd">
        <g id="Mobile-Homepage" transform="translate(-92.000000, -2570.000000)" fill="#FFFFFF">
            <g id="Group" transform="translate(92.000000, 2570.000000)">
                <g id="instagram-logo">
                    <path d="M25.2012353,0 L9.60523529,0 C4.30891176,0 0,4.186 0,9.331 L0,24.4814 C0,29.6266 4.30891176,33.8124 9.60523529,33.8124 L25.2012353,33.8124 C30.4979706,33.8124 34.8068824,29.6264 34.8068824,24.4814 L34.8068824,9.331 C34.8070882,4.186 30.4979706,0 25.2012353,0 Z M31.7188529,24.4814 C31.7188529,27.9724 28.7951176,30.8124 25.2014412,30.8124 L9.60523529,30.8124 C6.01176471,30.8126 3.08823529,27.9724 3.08823529,24.4814 L3.08823529,9.331 C3.08823529,5.8402 6.01176471,3 9.60523529,3 L25.2012353,3 C28.7949118,3 31.7186471,5.8402 31.7186471,9.331 L31.7186471,24.4814 L31.7188529,24.4814 Z" id="Shape" fill-rule="nonzero"></path>
                    <path d="M17.4034412,8.194 C12.4579412,8.194 8.43458824,12.1024 8.43458824,16.9066 C8.43458824,21.7106 12.4579412,25.6188 17.4034412,25.6188 C22.3489412,25.6188 26.3722941,21.7106 26.3722941,16.9066 C26.3722941,12.1024 22.3489412,8.194 17.4034412,8.194 Z M17.4034412,22.6186 C14.161,22.6186 11.5228235,20.0562 11.5228235,16.9064 C11.5228235,13.7564 14.1607941,11.1938 17.4034412,11.1938 C20.6460882,11.1938 23.2840588,13.7564 23.2840588,16.9064 C23.2840588,20.0562 20.6458824,22.6186 17.4034412,22.6186 Z" id="Shape" fill-rule="nonzero"></path>
                    <path d="M26.7484412,5.6502 C26.1534412,5.6502 25.5689412,5.8842 25.1487353,6.2942 C24.7264706,6.7022 24.4837353,7.2702 24.4837353,7.8502 C24.4837353,8.4284 24.7266765,8.9962 25.1487353,9.4062 C25.5687353,9.8142 26.1534412,10.0502 26.7484412,10.0502 C27.3455,10.0502 27.9281471,9.8142 28.3502059,9.4062 C28.7722647,8.9962 29.0131471,8.4282 29.0131471,7.8502 C29.0131471,7.2702 28.7722647,6.7022 28.3502059,6.2942 C27.9302059,5.8842 27.3455,5.6502 26.7484412,5.6502 Z" id="Path"></path>
                </g>
            </g>
        </g>
    </g>
</svg>