<?xml version="1.0" encoding="UTF-8"?>
<svg width="26px" height="34px" viewBox="0 0 26 34" version="1.1" xmlns="http://www.w3.org/2000/svg" xmlns:xlink="http://www.w3.org/1999/xlink">
    <!-- Generator: Sketch 52.6 (67491) - http://www.bohemiancoding.com/sketch -->
    <title>yelp-logo</title>
    <desc>Created with Sketch.</desc>
    <g id="Page-1" stroke="none" stroke-width="1" fill="none" fill-rule="evenodd">
        <g id="Mobile-Homepage" transform="translate(-202.000000, -2571.000000)" fill="#FFFFFF" fill-rule="nonzero">
            <g id="Group" transform="translate(92.000000, 2570.000000)">
                <g id="yelp-logo" transform="translate(110.000000, 1.000000)">
                    <path d="M4.41806211,1.54546172 C6.16967081,0.20037123 9.53731677,-0.185146172 10.9229876,0.077387471 C12.3099503,0.338264501 13.034236,1.09612529 13.043118,2.01893735 L13.1230559,13.7852251 C13.1292733,14.7092993 12.6382609,15.5586682 12.0309752,15.6730534 C11.4204596,15.7849142 10.522087,15.2357077 10.0282484,14.4496056 L3.7092795,4.36044084 C3.21915528,3.57331323 2.23123602,3.22613457 4.41806211,1.54546172 Z M2.31997516,23.9191972 L8.68173913,21.719768 C9.56824224,21.4126636 10.3622112,20.5581671 10.4514348,19.8156102 C10.5375093,19.0733689 9.89308075,18.1919722 9.01901242,17.8540232 L2.29873913,15.2506961 C1.42402484,14.9129049 0.414869565,15.7139954 0.148652174,17.0248492 C0.148652174,17.0248492 -0.0111428571,21.5897633 0.148652174,22.5349002 C0.310304348,23.4792483 1.43363354,24.2277216 2.31997516,23.9191972 Z M13.4169689,25.0182413 C13.4356211,24.0915638 12.9292671,23.2922877 12.2917019,23.235174 C11.6538944,23.1773503 10.6413478,23.7090441 10.036646,24.414761 L5.59896273,29.6136845 C4.9946646,30.3201903 5.29487578,31.9794849 6.17556522,32.2936102 L10.8158385,33.8682599 C11.6991118,34.1822274 13.2545901,33.2530255 13.272677,32.3292668 L13.4169689,25.0182413 Z M24.4481553,23.8080464 L18.8836708,22.2451508 C17.9815031,21.9918469 16.9572484,22.0157494 16.6106087,22.30258 C16.2634845,22.5860974 16.3494783,23.4822459 16.8039938,24.2910673 L20.3157702,30.5702599 C20.769882,31.3787657 22.5858447,31.2403202 23.0859814,30.4557169 C23.0859814,30.4557169 25.2027205,27.40471 25.5919938,26.261174 C25.9811863,25.1150348 25.3495963,24.0613503 24.4481553,23.8080464 Z M25.8033043,14.9787749 C25.5526708,14.1844687 23.8128509,11.8425708 22.8707143,11.0443202 C21.9293851,10.2443341 20.8527267,10.3445986 20.2456025,11.0469234 L16.6595404,15.2204826 C16.0520932,15.9227285 15.8896335,17.0366032 16.2947329,17.6915963 C16.6995093,18.3465893 17.7794783,18.7176705 18.6959379,18.5166682 L24.898795,17.3930116 C26.0184907,17.1305568 26.0580559,15.7730812 25.8033043,14.9787749 Z" id="Yelp"></path>
                </g>
            </g>
        </g>
    </g>
</svg>